<svg xmlns="http://www.w3.org/2000/svg">
<defs>
<font id="GTPressuraMono-Light" horiz-adv-x="550" >
  <font-face 
    font-family="GT Pressura Mono Light"
    font-weight="300"
    font-stretch="normal"
    units-per-em="1000"
    panose-1="2 0 5 6 2 0 0 2 0 4"
    ascent="750"
    descent="-250"
    x-height="500"
    cap-height="700"
    bbox="-222 -240 638 1065"
    underline-thickness="50"
    underline-position="-150"
    unicode-range="U+0020-FB02"
  />
<missing-glyph 
d="M184 120q-14 0 -19 -9t-9.5 -19.5t-12.5 -19.5t-27 -9q-21 0 -36.5 13.5t-15.5 31.5t6.5 27t14.5 17t14.5 19t6.5 34q0 17 -8.5 27.5t-19.5 10.5q-12 0 -15.5 -3.5t-14.5 -3.5q-15 0 -22.5 16t-7.5 36q0 14 9.5 26.5t23.5 12.5q10 0 14.5 -5.5t12.5 -5.5q15 0 21 15t6 25
q0 12 -5 24.5t-5 24.5q0 20 11.5 28.5t28.5 8.5q9 0 9 8q0 5 -4 10.5t-4 13.5q0 5 5.5 9.5t10.5 4.5q8 0 13 -5.5t9 -12t8.5 -12t11.5 -5.5q12 0 15 8.5t5 19t7 19t22 8.5q16 0 23.5 -7.5t13.5 -16.5t13.5 -16.5t21.5 -7.5q21 0 28 11.5t7 36.5q0 28 15 40.5t38 12.5
q22 0 34.5 -13t12.5 -35q0 -16 -7.5 -26t-16.5 -16.5t-16.5 -12.5t-7.5 -14q0 -14 12 -22t27 -16.5t27 -21t12 -36.5q0 -14 -5 -22.5t-11 -15t-11 -14t-5 -20.5q0 -10 9.5 -18t34.5 -8q22 0 31 -13t9 -32q0 -22 -15 -37t-37 -15q-12 0 -19.5 8t-15 17t-16 17t-21.5 8
q-11 0 -18 -5.5t-7 -15.5q0 -8 3 -12.5t7 -8.5t7 -10t3 -18q0 -13 -8.5 -23t-26.5 -10q-9 0 -17.5 4.5t-18 10.5t-20.5 10.5t-24 4.5q-9 0 -17.5 -7t-8.5 -24q0 -12 -6.5 -19.5t-17.5 -7.5q-9 0 -12.5 7.5t-7.5 16.5t-11 16.5t-23 7.5zM298 340q0 -17 11.5 -28.5t28.5 -11.5
t30 11.5t13 28.5t-13 32t-30 15t-28.5 -15t-11.5 -32zM281 226q-14 0 -26 5.5t-22 14.5q-5 4 -7 1t2 -8q8 -12 20 -20.5t33 -8.5q20 0 29.5 11.5t14.5 22.5q2 5 -1 6.5t-5 -2.5q-12 -22 -38 -22zM214 335q0 9 4 15t10 6t10 -6t4 -15t-4 -15t-10 -6t-10 6t-4 15zM310 340
q0 9 4 15t10 6t10 -6t4 -15t-4 -15t-10 -6t-10 6t-4 15zM178 340q0 -21 9.5 -35.5t26.5 -14.5t28.5 14.5t11.5 35.5t-11.5 35.5t-28.5 14.5t-26.5 -14.5t-9.5 -35.5zM85 520q0 14 8.5 24t20.5 10q10 0 17 -10t7 -24t-7 -24t-17 -10q-12 0 -20.5 10t-8.5 24z" />
    <glyph glyph-name="IJ" unicode="IJ" 
d="M57 0q-8 0 -14 6t-6 14v21q0 8 6 14t14 6h95q10 0 10 10v559q0 10 -10 10h-85q-8 0 -14 6t-6 14v20q0 8 6 14t14 6h245q8 0 14 -6t6 -14v-20q0 -8 -6 -14t-14 -6h-75q-10 0 -10 -10v-559q0 -10 10 -10h35q60 0 98 36t38 113v470q0 8 6 14t14 6h24q8 0 14 -6t6 -14v-480
q0 -46 -15.5 -83t-42.5 -63t-63.5 -40t-78.5 -14h-215z" />
    <glyph glyph-name="ij" unicode="ij" 
d="M450 638q0 -16 -16 -16h-52q-16 0 -16 16v53q0 6 4.5 11t11.5 5h52q16 0 16 -16v-53zM242 638q0 -16 -16 -16h-52q-16 0 -16 16v53q0 16 16 16h52q7 0 11.5 -5t4.5 -11v-53zM208 -210q-8 0 -14 6t-6 14v22q0 8 6 14t14 6h80q44 0 69.5 25t25.5 76v477q0 10 -10 10h-137
v-424q0 -16 -16 -16h-28q-16 0 -16 16v414q0 10 -10 10h-75q-8 0 -14 6t-6 14v20q0 8 6 14t14 6h333q8 0 14 -6t6 -14v-515q0 -45 -12 -78t-33 -54.5t-49.5 -32t-61.5 -10.5h-80z" />
    <glyph glyph-name="napostrophe" unicode="&#x22;n" 
d="M163 477q11 0 20.5 5t22 11.5t30.5 11.5t46 5q39 0 72 -11t57 -33t37 -54.5t13 -75.5v-316q0 -8 -6 -14t-14 -6h-19q-8 0 -14 6t-6 14v316q0 63 -36.5 89t-90.5 26q-27 0 -50 -8.5t-40.5 -23.5t-27 -35t-9.5 -43v-321q0 -8 -6 -14t-14 -6h-19q-8 0 -14 6t-6 14v460
q0 8 6 14t14 6h16q7 0 14 -7q5 -5 10 -10.5t14 -5.5zM41 595q-8 0 -14 6t-6 14v65q0 8 6 14t14 6h60q8 0 14 -6t6 -14v-70q0 -21 -5 -31.5t-11 -19.5l-25 -36q-4 -5 -9.5 -11.5t-19.5 -6.5h-10q-9 0 -14.5 7.5t-0.5 16.5l28 51q3 5 0.5 10t-8.5 5h-5z" />
    <glyph glyph-name="f_f" unicode="ff" 
d="M34 436q-8 0 -14 6t-6 14v19q0 8 6 14t14 6h57q10 0 10 10v15q0 42 12.5 76.5t35 59t53.5 38t69 13.5h15q8 0 14 -6t6 -14v-16q0 -8 -6 -14t-14 -6h-15q-29 0 -49.5 -10.5t-34 -28.5t-20 -42t-6.5 -50v-15q0 -10 10 -10h139q10 0 10 10v15q0 42 12.5 76.5t35 59t53.5 38
t69 13.5h15q8 0 14 -6t6 -14v-16q0 -8 -6 -14t-14 -6h-15q-29 0 -49.5 -10.5t-34 -28.5t-20 -42t-6.5 -50v-15q0 -10 10 -10h114q8 0 14 -6t6 -14v-19q0 -8 -6 -14t-14 -6h-114q-10 0 -10 -10v-406q0 -8 -6 -14t-14 -6h-20q-8 0 -14 6t-6 14v406q0 10 -8 10h-141
q-10 0 -10 -10v-406q0 -8 -6 -14t-14 -6h-20q-8 0 -14 6t-6 14v406q0 10 -10 10h-57z" />
    <glyph glyph-name="fi" unicode="fi" 
d="M480 20q0 -8 -6 -14t-14 -6h-20q-8 0 -14 6t-6 14v406q0 10 -10 10h-199q-10 0 -10 -10v-406q0 -8 -6 -14t-14 -6h-20q-8 0 -14 6t-6 14v406q0 10 -10 10h-77q-8 0 -14 6t-6 14v19q0 8 6 14t14 6h77q10 0 10 10v15q0 42 12.5 76.5t35 59t53.5 38t69 13.5h159q8 0 14 -6
t6 -14v-16q0 -8 -6 -14t-14 -6h-159q-29 0 -49.5 -10.5t-34 -28.5t-20 -42t-6.5 -50v-15q0 -10 10 -10h249q8 0 14 -6t6 -14v-455z" />
    <glyph glyph-name="fl" unicode="fl" 
d="M410 426q0 10 -10 10h-189q-10 0 -10 -10v-406q0 -8 -6 -14t-14 -6h-20q-8 0 -14 6t-6 14v406q0 10 -10 10h-67q-8 0 -14 6t-6 14v19q0 8 6 14t14 6h67q10 0 10 10v15q0 42 12.5 76.5t35 59t53.5 38t69 13.5h15q8 0 14 -6t6 -14v-16q0 -8 -6 -14t-14 -6h-15
q-29 0 -49.5 -10.5t-34 -28.5t-20 -42t-6.5 -50v-15q0 -10 10 -10h189q10 0 10 10v182q0 8 6 14t14 6h20q8 0 14 -6t6 -14v-667q0 -8 -6 -14t-14 -6h-20q-8 0 -14 6t-6 14v406z" />
    <glyph glyph-name=".notdef" 
d="M184 120q-14 0 -19 -9t-9.5 -19.5t-12.5 -19.5t-27 -9q-21 0 -36.5 13.5t-15.5 31.5t6.5 27t14.5 17t14.5 19t6.5 34q0 17 -8.5 27.5t-19.5 10.5q-12 0 -15.5 -3.5t-14.5 -3.5q-15 0 -22.5 16t-7.5 36q0 14 9.5 26.5t23.5 12.5q10 0 14.5 -5.5t12.5 -5.5q15 0 21 15t6 25
q0 12 -5 24.5t-5 24.5q0 20 11.5 28.5t28.5 8.5q9 0 9 8q0 5 -4 10.5t-4 13.5q0 5 5.5 9.5t10.5 4.5q8 0 13 -5.5t9 -12t8.5 -12t11.5 -5.5q12 0 15 8.5t5 19t7 19t22 8.5q16 0 23.5 -7.5t13.5 -16.5t13.5 -16.5t21.5 -7.5q21 0 28 11.5t7 36.5q0 28 15 40.5t38 12.5
q22 0 34.5 -13t12.5 -35q0 -16 -7.5 -26t-16.5 -16.5t-16.5 -12.5t-7.5 -14q0 -14 12 -22t27 -16.5t27 -21t12 -36.5q0 -14 -5 -22.5t-11 -15t-11 -14t-5 -20.5q0 -10 9.5 -18t34.5 -8q22 0 31 -13t9 -32q0 -22 -15 -37t-37 -15q-12 0 -19.5 8t-15 17t-16 17t-21.5 8
q-11 0 -18 -5.5t-7 -15.5q0 -8 3 -12.5t7 -8.5t7 -10t3 -18q0 -13 -8.5 -23t-26.5 -10q-9 0 -17.5 4.5t-18 10.5t-20.5 10.5t-24 4.5q-9 0 -17.5 -7t-8.5 -24q0 -12 -6.5 -19.5t-17.5 -7.5q-9 0 -12.5 7.5t-7.5 16.5t-11 16.5t-23 7.5zM298 340q0 -17 11.5 -28.5t28.5 -11.5
t30 11.5t13 28.5t-13 32t-30 15t-28.5 -15t-11.5 -32zM281 226q-14 0 -26 5.5t-22 14.5q-5 4 -7 1t2 -8q8 -12 20 -20.5t33 -8.5q20 0 29.5 11.5t14.5 22.5q2 5 -1 6.5t-5 -2.5q-12 -22 -38 -22zM214 335q0 9 4 15t10 6t10 -6t4 -15t-4 -15t-10 -6t-10 6t-4 15zM310 340
q0 9 4 15t10 6t10 -6t4 -15t-4 -15t-10 -6t-10 6t-4 15zM178 340q0 -21 9.5 -35.5t26.5 -14.5t28.5 14.5t11.5 35.5t-11.5 35.5t-28.5 14.5t-26.5 -14.5t-9.5 -35.5zM85 520q0 14 8.5 24t20.5 10q10 0 17 -10t7 -24t-7 -24t-17 -10q-12 0 -20.5 10t-8.5 24z" />
    <glyph glyph-name=".null" horiz-adv-x="0" 
 />
    <glyph glyph-name="nonmarkingreturn" horiz-adv-x="333" 
 />
    <glyph glyph-name="space" unicode=" " 
 />
    <glyph glyph-name="exclam" unicode="!" 
d="M274 210q0 -8 -6 -14t-14 -6h-20q-8 0 -14 6t-6 14v470q0 8 6 14t14 6h20q8 0 14 -6t6 -14v-470zM292 16q0 -16 -16 -16h-62q-16 0 -16 16v63q0 6 4.5 11t11.5 5h62q7 0 11.5 -5t4.5 -11v-63z" />
    <glyph glyph-name="quotedbl" unicode="&#x22;" 
d="M223 500q-2 -8 -7 -14t-13 -6h-15q-8 0 -13 6t-7 14l-28 175q-2 12 5 18.5t15 6.5h70q8 0 15 -6.5t5 -18.5zM385 500q-2 -8 -7 -14t-13 -6h-15q-8 0 -13 6t-7 14l-28 175q-2 12 5 18.5t15 6.5h70q8 0 15 -6.5t5 -18.5z" />
    <glyph glyph-name="numbersign" unicode="#" 
d="M362 440q2 10 -8 10h-116q-10 0 -12 -10l-36 -200q-2 -10 8 -10h116q10 0 12 10zM164 440q2 10 -8 10h-50q-8 0 -13.5 6t-3.5 14l2 18q2 8 9 14t15 6h50q10 0 12 10l28 162q2 8 8.5 14t14.5 6h22q8 0 13.5 -6t3.5 -14l-28 -162q-2 -10 8 -10h116q10 0 12 10l28 162
q2 8 8.5 14t14.5 6h22q8 0 13.5 -6t3.5 -14l-28 -162q-2 -10 8 -10h50q8 0 13 -6t3 -14l-2 -18q-2 -8 -8.5 -14t-14.5 -6h-50q-10 0 -12 -10l-36 -200q-2 -10 8 -10h50q8 0 13 -6t3 -14l-3 -18q-2 -8 -8.5 -14t-14.5 -6h-50q-10 0 -12 -10l-26 -142q-2 -8 -8.5 -14t-14.5 -6
h-22q-8 0 -13.5 6t-3.5 14l26 142q2 10 -8 10h-116q-10 0 -12 -10l-26 -142q-2 -8 -8.5 -14t-14.5 -6h-22q-8 0 -13.5 6t-3.5 14l26 142q2 10 -8 10h-50q-8 0 -13.5 6t-3.5 14l3 18q2 8 9 14t15 6h50q10 0 12 10z" />
    <glyph glyph-name="dollar" unicode="$" 
d="M234 704q10 1 10 10v36q0 8 6 14t14 6h22q8 0 14 -6t6 -14v-36q0 -9 10 -10q72 -13 113 -64t41 -120v-13q0 -8 -6 -14t-14 -6h-24q-8 0 -14 6t-6 14v13q0 27 -10 49.5t-27.5 39t-41.5 26t-52 9.5q-33 0 -58 -10.5t-41 -28t-24 -40t-8 -45.5q0 -27 11.5 -47.5t30 -35
t42 -23t47.5 -11.5q102 -12 158.5 -63.5t56.5 -139.5q0 -43 -14 -78t-37.5 -61.5t-55 -43t-67.5 -22.5q-10 -1 -10 -10v-35q0 -8 -6 -14t-14 -6h-22q-8 0 -14 6t-6 14v35q0 9 -10 10q-40 7 -72 25.5t-54.5 46t-35 61.5t-12.5 72v16q0 8 6 14t14 6h25q8 0 14 -6t6 -14v-16
q0 -26 9.5 -52t28.5 -46.5t47 -33t65 -12.5q69 0 109 40t41 104q1 58 -38.5 94t-111.5 44q-43 4 -79 18t-62 37t-40.5 54.5t-14.5 72.5q0 39 12.5 70.5t33.5 54.5t49 38t60 21z" />
    <glyph glyph-name="percent" unicode="%" 
d="M127 15q-8 -15 -21 -15h-12q-10 0 -15.5 8.5t-0.5 19.5l324 657q7 15 22 15h13q10 0 15.5 -8.5t0.5 -19.5zM93 550q0 -41 13 -67t40 -26t40 26t13 67t-13 67t-40 26t-40 -26t-13 -67zM39 550q0 24 4 49t15.5 45t32.5 33t55 13t55 -13t32.5 -33t15.5 -45t4 -49t-4 -49
t-15.5 -45t-32.5 -33t-55 -13t-55 13t-32.5 33t-15.5 45t-4 49zM347 150q0 -41 13 -67t40 -26t40 26t13 67t-13 67t-40 26t-40 -26t-13 -67zM293 150q0 24 4 49t15.5 45t32.5 33t55 13t55 -13t32.5 -33t15.5 -45t4 -49t-4 -49t-15.5 -45t-32.5 -33t-55 -13t-55 13t-32.5 33
t-15.5 45t-4 49z" />
    <glyph glyph-name="ampersand" unicode="&#x26;" 
d="M113 369q7 6 5.5 12.5t-5.5 11.5q-20 29 -33 61.5t-13 68.5q0 39 12 71.5t35 56t57.5 36.5t78.5 13q40 0 71.5 -14t54 -38.5t34.5 -58t12 -72.5v-15q0 -8 -6 -14t-14 -6h-20q-8 0 -14 6t-6 14v15q0 25 -7.5 48.5t-22 41.5t-35.5 28.5t-48 10.5q-63 0 -92 -34.5t-29 -88.5
q0 -21 12 -47t28.5 -50.5t32.5 -44t24 -28.5l170 -191q6 -7 9 1q3 6 5.5 14t4 23t2.5 38.5t1 61.5q0 8 6 14t14 6h15q8 0 14 -6t6 -14q0 -49 -1.5 -78t-4.5 -47t-8 -29t-11 -24q-2 -2 -2.5 -7t4.5 -10l63 -71q8 -10 4 -22t-21 -12h-23q-11 0 -15 3.5t-7 6.5l-37 40
q-5 6 -8.5 4t-5.5 -4q-29 -27 -69 -42.5t-86 -15.5q-47 0 -86 17t-67.5 45.5t-44 67t-15.5 81.5q0 23 6 46t17 45t26 41t33 34zM244 51q42 0 72.5 15.5t45.5 31.5q5 5 1 11l-197 219q-2 3 -4 2t-3 -2q-12 -9 -23.5 -20t-21 -26t-15.5 -34.5t-6 -44.5q0 -33 12 -61t32 -48.5
t47.5 -31.5t59.5 -11z" />
    <glyph glyph-name="quotesingle" unicode="'" 
d="M304 500q-2 -8 -7 -14t-13 -6h-15q-8 0 -13 6t-7 14l-28 175q-2 12 5 18.5t15 6.5h70q8 0 15 -6.5t5 -18.5z" />
    <glyph glyph-name="parenleft" unicode="(" 
d="M428 -27q8 0 14 -6t6 -14v-23q0 -8 -6 -14t-14 -6h-38q-45 0 -83 14.5t-66.5 42t-46.5 66.5t-24 87q-3 20 -4.5 51.5t-2.5 68t-1 76t1 76t2.5 67.5t4.5 51q5 41 21.5 79t44 67t66 46.5t88.5 17.5h32q8 0 14 -6t6 -14v-23q0 -8 -6 -14t-14 -6h-32q-32 0 -58.5 -12.5
t-46.5 -33.5t-33 -47.5t-17 -53.5q-5 -31 -7.5 -84t-2.5 -111t2.5 -111t7.5 -84q3 -22 14 -47.5t30 -47.5t46.5 -37t64.5 -15h38z" />
    <glyph glyph-name="parenright" unicode=")" 
d="M160 -27q37 0 64.5 15t46.5 37t30 47.5t14 47.5q5 31 7.5 84t2.5 111t-2.5 111t-7.5 84q-5 27 -17.5 53.5t-32.5 47.5t-46.5 33.5t-58.5 12.5h-32q-8 0 -14 6t-6 14v23q0 8 6 14t14 6h32q49 0 88 -17.5t66.5 -46.5t44 -67t21.5 -79q2 -20 4 -51t2.5 -67.5t1 -76t-0.5 -76
t-3 -68t-4 -51.5q-6 -48 -24.5 -87t-47 -66.5t-66 -42t-82.5 -14.5h-38q-8 0 -14 6t-6 14v23q0 8 6 14t14 6h38z" />
    <glyph glyph-name="asterisk" unicode="*" 
d="M304 534l1 -64q0 -8 -6 -14t-14 -6h-21q-8 0 -14 6t-6 14l1 64l-55 -33q-8 -5 -15.5 -2.5t-11.5 9.5l-11 19q-4 7 -1.5 15t9.5 12l55 31l-55 31q-8 5 -10 12.5t2 14.5l11 19q4 7 12 9t15 -2l55 -33l-1 64q0 8 6 14t14 6h21q8 0 14 -6t6 -14l-1 -64l55 33q8 5 15.5 2.5
t11.5 -9.5l11 -19q4 -7 1.5 -15t-9.5 -12l-56 -31l56 -31q8 -5 10 -12.5t-2 -14.5l-11 -19q-4 -7 -12 -9t-15 2z" />
    <glyph glyph-name="plus" unicode="+" 
d="M234 281q10 0 10 10v159q0 8 6 14t14 6h22q8 0 14 -6t6 -14v-159q0 -10 10 -10h159q8 0 14 -6t6 -14v-21q0 -8 -6 -14t-14 -6h-159q-10 0 -10 -10v-160q0 -8 -6 -14t-14 -6h-22q-8 0 -14 6t-6 14v160q0 10 -10 10h-159q-8 0 -14 6t-6 14v21q0 8 6 14t14 6h159z" />
    <glyph glyph-name="comma" unicode="," 
d="M241 0q-8 0 -14 6t-6 14v70q0 8 6 14t14 6h70q8 0 14 -6t6 -14v-75q0 -21 -5 -31.5t-11 -19.5l-40 -56q-4 -5 -9.5 -11.5t-19.5 -6.5h-10q-9 0 -14.5 7.5t-0.5 16.5l38 71q3 5 0.5 10t-8.5 5h-10z" />
    <glyph glyph-name="hyphen" unicode="-" 
d="M411 304q8 0 14 -6t6 -14v-35q0 -8 -6 -14t-14 -6h-273q-8 0 -14 6t-6 14v35q0 8 6 14t14 6h273z" />
    <glyph glyph-name="period" unicode="." 
d="M330 20q0 -8 -6 -14t-14 -6h-70q-8 0 -14 6t-6 14v70q0 8 6 14t14 6h70q8 0 14 -6t6 -14v-70z" />
    <glyph glyph-name="slash" unicode="/" 
d="M161 3q-7 -15 -21 -15h-21q-10 0 -15.5 8.5t-0.5 19.5l286 679q5 15 19 15h21q10 0 15.5 -8.5t0.5 -19.5z" />
    <glyph glyph-name="zero" unicode="0" 
d="M65 500q5 41 20 78.5t40.5 66.5t62.5 46t87 17q91 0 144.5 -55.5t65.5 -152.5q4 -30 5.5 -69.5t1.5 -80.5t-2 -80.5t-5 -69.5q-5 -41 -19.5 -79t-40.5 -66.5t-63.5 -45.5t-86.5 -17q-91 0 -144.5 55.5t-65.5 152.5q-4 30 -6 69.5t-2 81t2 80.5t6 69zM275 649
q-34 0 -60.5 -13t-45 -34t-29.5 -47.5t-14 -54.5q-4 -32 -6 -71t-2 -79.5t2 -79.5t6 -70q3 -22 12 -48t26 -48.5t44.5 -37.5t66.5 -15q35 0 61 13t44 34t29 48t15 54q4 31 6.5 70t2.5 79.5t-2.5 79.5t-6.5 71q-3 22 -12 48.5t-26 48.5t-44 37t-67 15z" />
    <glyph glyph-name="one" unicode="1" 
d="M269 596q0 5 -3.5 5.5t-5.5 -1.5l-140 -176q-6 -7 -14 -3.5t-8 11.5v42q0 13 7.5 24t12.5 17l140 176q3 5 9 7t11 2h31q8 0 14 -6t6 -14v-609q0 -10 10 -10h121q8 0 14 -6t6 -14v-21q0 -8 -6 -14t-14 -6h-351q-8 0 -14 6t-6 14v21q0 8 6 14t14 6h150q10 0 10 10v525z" />
    <glyph glyph-name="two" unicode="2" 
d="M399 517q0 25 -7.5 49t-23.5 42.5t-39.5 29.5t-56.5 11q-29 0 -52.5 -12t-40 -30.5t-25.5 -42t-9 -47.5v-15q0 -8 -6 -14t-14 -6h-23q-8 0 -14 6t-6 14v15q0 40 14.5 75t40 60.5t60.5 40.5t75 15t74.5 -13.5t59.5 -38.5t39.5 -60.5t14.5 -78.5q0 -58 -22.5 -105.5
t-61.5 -91.5l-219 -243q-4 -5 -2 -10.5t10 -5.5h291q8 0 14 -6t6 -14v-21q0 -8 -6 -14t-14 -6h-362q-8 0 -14 6t-6 14v37q0 11 3 16.5t6 8.5l241 271q16 18 30 35t24 36t15.5 41.5t5.5 51.5z" />
    <glyph glyph-name="three" unicode="3" 
d="M418 198q0 27 -8 51.5t-25 43.5t-43 30.5t-63 11.5h-7q-8 0 -14 6t-6 14v22q0 8 6 14t14 6h7q29 0 52 9.5t39 26t24.5 38t8.5 46.5t-8 48t-23.5 40.5t-39.5 28t-55 10.5q-32 0 -57 -11.5t-41.5 -29.5t-25 -40.5t-8.5 -45.5v-15q0 -8 -6 -14t-14 -6h-23q-8 0 -14 6t-6 14
v15q0 40 15 75t41 60.5t62 40.5t77 15t75.5 -15t60 -40.5t40 -60.5t14.5 -75q0 -42 -15 -77t-43 -60q-14 -12 -1 -24q33 -29 53.5 -69.5t20.5 -88.5q0 -43 -15.5 -80.5t-43.5 -65.5t-65.5 -44t-80.5 -16q-44 0 -82.5 16t-67 44t-44.5 65.5t-16 80.5v7q0 8 6 14t14 6h23
q8 0 14 -6t6 -14v-7q0 -29 11 -55t31 -45.5t46.5 -30.5t58.5 -11q33 0 59 11t44.5 30.5t28 45.5t9.5 55z" />
    <glyph glyph-name="four" unicode="4" 
d="M474 199q8 0 14 -6t6 -14v-19q0 -8 -6 -14t-14 -6h-56q-10 0 -10 -10v-110q0 -8 -6 -14t-14 -6h-19q-8 0 -14 6t-6 14v110q0 10 -10 10h-263q-8 0 -14 6t-6 14v13q0 16 5.5 27.5t10.5 21.5l254 464q5 8 9 11t12 3h41q8 0 14 -6t6 -14v-471q0 -10 10 -10h56zM128 207
q-5 -8 4 -8h207q10 0 10 10v390q0 5 -3 5t-5 -3z" />
    <glyph glyph-name="five" unicode="5" 
d="M161 640q-10 0 -10 -10v-185q0 -8 5.5 -12t16.5 4q15 12 39 20.5t57 8.5q47 0 85 -18.5t65 -50.5t41.5 -74.5t14.5 -90.5t-14 -91.5t-41 -76.5t-65 -52.5t-86 -19.5q-40 0 -75 14t-61.5 38.5t-42 58t-15.5 72.5q0 10 6 15t14 5h21q13 0 16.5 -6t3.5 -14q0 -24 11 -46.5
t29 -39.5t42 -27t51 -10q34 0 61.5 15t46.5 40t29 57.5t10 67.5q0 36 -10.5 67.5t-29.5 55t-46 37.5t-61 14q-25 0 -43 -8.5t-31 -21.5t-21.5 -29t-14.5 -31q-5 -11 -19 -11h-27q-8 0 -14 6t-6 14v355q0 8 6 14t14 6h316q8 0 14 -6t6 -14v-20q0 -8 -6 -14t-14 -6h-268z" />
    <glyph glyph-name="six" unicode="6" 
d="M279 452q42 0 78.5 -16t63.5 -44t43.5 -65.5t19.5 -79.5q2 -24 0 -52q-2 -42 -18.5 -79t-44 -64.5t-64 -43.5t-78.5 -16q-44 0 -79.5 16t-62 44.5t-43.5 66t-22 81.5q-4 30 -5.5 69.5t-1.5 80.5t2 80.5t5 69.5q5 43 20.5 81t41 66t60.5 44.5t79 16.5q40 0 75 -15
t61 -40.5t41 -60.5t15 -75q0 -8 -6 -14t-14 -6h-22q-8 0 -14 6t-6 14q0 24 -8 47t-24.5 42t-41 30.5t-56.5 11.5q-29 0 -53 -12t-41.5 -32t-28.5 -47t-14 -57q-3 -29 -3.5 -46.5t0.5 -37.5q0 -6 5 -9t11 2q7 6 18.5 13t27.5 14t37 11.5t47 4.5zM137 194q3 -28 13.5 -53
t28.5 -44.5t43 -31t57 -11.5t57 11.5t43 31t28.5 44.5t13.5 53q3 29 0 54q-3 27 -13.5 52.5t-28.5 45.5t-43 32t-57 12q-64 0 -100 -38.5t-42 -103.5q-1 -12 -1.5 -26t1.5 -28z" />
    <glyph glyph-name="seven" unicode="7" 
d="M409 630q4 10 -7 10h-307q-8 0 -14 6t-6 14v20q0 8 6 14t14 6h360q8 0 14 -6t6 -14v-37q0 -9 -5 -20l-252 -608q-7 -15 -19 -15h-23q-14 0 -17.5 8.5t-0.5 15.5z" />
    <glyph glyph-name="eight" unicode="8" 
d="M275 55q66 0 106 40t40 103q0 62 -38 100.5t-108 38.5t-108 -38.5t-38 -100.5q0 -63 40 -103t106 -40zM275 394q60 0 95 34.5t35 88.5q0 25 -9 48t-26 41t-41 28.5t-54 10.5t-54 -10.5t-41 -28.5t-26 -41t-9 -48q0 -54 35 -88.5t95 -34.5zM275 708q42 0 77 -15.5
t60.5 -42t40 -61t14.5 -72.5q0 -41 -15.5 -76t-41.5 -61q-5 -5 -6.5 -11.5t5.5 -12.5q34 -29 54 -69.5t20 -88.5q0 -43 -14.5 -80.5t-41.5 -65.5t-65.5 -44t-86.5 -16t-86.5 16t-65.5 44t-41.5 65.5t-14.5 80.5q0 48 20 88.5t54 69.5q7 6 5.5 12.5t-6.5 11.5
q-26 26 -41.5 61t-15.5 76q0 38 14.5 72.5t40 61t60.5 42t77 15.5z" />
    <glyph glyph-name="nine" unicode="9" 
d="M411 506q-3 23 -12.5 47.5t-26.5 45t-42.5 34t-60.5 13.5q-34 0 -59 -12t-42 -31.5t-27 -45t-14 -51.5q-2 -14 -2 -28t2 -26q4 -27 14 -52.5t27 -45.5t42 -32t59 -12q67 0 101 40t41 102q3 25 0 54zM273 52q62 0 98 41.5t47 106.5q1 9 2.5 21t2 25t0.5 24.5t-1 20.5
q-1 7 -6 9t-12 -3q-8 -6 -19.5 -14.5t-28 -16t-38.5 -13t-49 -5.5q-42 0 -78.5 16t-63.5 44t-43.5 65.5t-19.5 79.5q-2 24 0 52q2 42 18.5 79t44 64.5t64 43.5t78.5 16q43 0 79 -16t63 -44.5t44 -66.5t22 -81q4 -30 6 -68t2 -77.5t-2 -78.5t-6 -71q-14 -102 -65 -157.5
t-139 -55.5q-40 0 -77 15t-65 40.5t-44.5 60.5t-16.5 75q0 8 6 14t14 6h22q8 0 14 -6t6 -14q0 -26 11.5 -49.5t30.5 -41.5t44.5 -29t54.5 -11z" />
    <glyph glyph-name="colon" unicode=":" 
d="M330 20q0 -8 -6 -14t-14 -6h-70q-8 0 -14 6t-6 14v70q0 8 6 14t14 6h70q8 0 14 -6t6 -14v-70zM330 400q0 -8 -6 -14t-14 -6h-70q-8 0 -14 6t-6 14v70q0 8 6 14t14 6h70q8 0 14 -6t6 -14v-70z" />
    <glyph glyph-name="semicolon" unicode=";" 
d="M331 400q0 -8 -6 -14t-14 -6h-70q-8 0 -14 6t-6 14v70q0 8 6 14t14 6h70q8 0 14 -6t6 -14v-70zM241 0q-8 0 -14 6t-6 14v70q0 8 6 14t14 6h70q8 0 14 -6t6 -14v-75q0 -21 -5 -31.5t-11 -19.5l-40 -56q-4 -5 -9.5 -11.5t-19.5 -6.5h-10q-9 0 -14.5 7.5t-0.5 16.5l38 71
q3 5 0.5 10t-8.5 5h-10z" />
    <glyph glyph-name="less" unicode="&#x3c;" 
d="M460 68q15 -9 15 -21v-28q0 -12 -8 -18t-15 -1l-362 219q-15 8 -15 22v19q0 14 15 22l362 218q7 5 15 -1t8 -18v-28q0 -12 -15 -21l-301 -178q-8 -4 0 -8z" />
    <glyph glyph-name="equal" unicode="=" 
d="M75 307q-8 0 -14 6t-6 14v25q0 8 6 14t14 6h400q8 0 14 -6t6 -14v-25q0 -8 -6 -14t-14 -6h-400zM75 129q-8 0 -14 6t-6 14v25q0 8 6 14t14 6h400q8 0 14 -6t6 -14v-25q0 -8 -6 -14t-14 -6h-400z" />
    <glyph glyph-name="greater" unicode="&#x3e;" 
d="M391 246q8 4 0 8l-301 178q-15 9 -15 21v28q0 12 8 18t15 1l362 -218q15 -8 15 -22v-19q0 -14 -15 -22l-362 -219q-7 -5 -15 1t-8 18v28q0 12 15 21z" />
    <glyph glyph-name="question" unicode="?" 
d="M394 537q0 51 -32.5 82t-89.5 31q-25 0 -47 -10.5t-38 -28.5t-25 -42t-9 -52v-7q0 -8 -6 -14t-14 -6h-20q-8 0 -14 6t-6 14v7q0 40 13.5 75t37.5 61.5t57 41.5t71 15q40 0 73.5 -12.5t58 -35t38 -54.5t13.5 -71q0 -27 -7.5 -48.5t-19 -39t-25.5 -32t-27 -28.5
q-7 -7 -21 -19.5t-28 -27t-24.5 -30.5t-10.5 -31v-71q0 -8 -6 -14t-14 -6h-20q-8 0 -14 6t-6 14v71q0 40 18 61q26 30 45.5 46.5t34.5 31.5q7 7 18 17.5t21.5 25t17.5 32.5t7 42zM311 16q0 -16 -16 -16h-62q-16 0 -16 16v63q0 6 4.5 11t11.5 5h62q7 0 11.5 -5t4.5 -11v-63z
" />
    <glyph glyph-name="at" unicode="@" 
d="M279 21q29 0 55.5 6.5t50.5 17.5q10 5 17 0t7 -15v-13q0 -12 -7.5 -17.5t-16.5 -10.5q-16 -9 -46.5 -15.5t-59.5 -6.5q-48 0 -91.5 13.5t-76.5 41.5t-53 72t-20 104v144q0 53 18.5 96.5t50.5 75t76.5 49t95.5 17.5q54 0 98 -16t75 -45.5t48 -72t17 -94.5v-150
q0 -19 -7.5 -36t-20 -29.5t-29.5 -19.5t-36 -7q-8 0 -19 1t-22 9q-11 7 -19 7.5t-20 -7.5q-27 -15 -65 -15q-135 0 -135 168q0 33 6 63t21.5 53.5t41.5 37.5t66 14q58 0 93.5 -34.5t35.5 -88.5v-135q0 -10 8 -16t18 -6q14 0 21 11t7 28v152q0 36 -12 67.5t-35 55t-57.5 37
t-80.5 13.5q-45 0 -79 -15t-57.5 -40t-35 -58.5t-11.5 -69.5v-144q0 -48 16 -81.5t42.5 -55t59.5 -31t67 -9.5zM354 318q0 12 -4 24t-12.5 21.5t-23 16t-35.5 6.5q-44 0 -60.5 -30t-16.5 -81q0 -20 1.5 -40.5t8.5 -37t22.5 -27t44.5 -10.5q21 0 35.5 6.5t23 16t12.5 21.5
t4 23v91z" />
    <glyph glyph-name="A" unicode="A" 
d="M104 15q-3 -15 -19 -15h-25q-12 0 -17 6.5t-3 13.5l191 665q3 15 19 15h50q16 0 19 -15l191 -665q2 -7 -3 -13.5t-17 -6.5h-25q-16 0 -19 15l-49 169q-5 14 -19 14h-206q-14 0 -19 -14zM179 271q-3 -11 8 -11h176q11 0 8 11l-91 340q-2 6 -4 6h-2q-3 0 -4 -6z" />
    <glyph glyph-name="B" unicode="B" 
d="M416 379q-14 -12 0 -22q31 -25 51 -67.5t20 -85.5q0 -44 -16.5 -81t-45 -64.5t-67 -43t-81.5 -15.5h-175q-8 0 -14 6t-6 14v660q0 8 6 14t14 6h175q40 0 76 -14t62.5 -38.5t42 -59t15.5 -74.5q0 -35 -14 -72.5t-43 -62.5zM154 636q-10 0 -10 -10v-219q0 -10 10 -10h138
q25 0 46.5 9.5t37.5 25.5t25 37.5t9 46.5t-9 46.5t-25 38t-37.5 26t-46.5 9.5h-138zM288 64q28 0 53 10.5t44 29.5t29.5 43.5t10.5 53.5q0 28 -10.5 53t-29.5 44t-44 29.5t-53 10.5h-134q-10 0 -10 -10v-254q0 -10 10 -10h134z" />
    <glyph glyph-name="C" unicode="C" 
d="M435 204q0 8 6 14t14 6h27q8 0 14 -6t6 -14v-4q0 -49 -18 -87.5t-48.5 -65.5t-71 -41t-85.5 -14q-91 0 -150.5 55.5t-72.5 152.5q-4 30 -6 69.5t-2 81t2 80.5t6 69q6 41 23 78.5t45 66.5t66.5 46t88.5 17q49 0 90.5 -17t70.5 -45.5t45.5 -66.5t16.5 -79v-4q0 -8 -6 -14
t-14 -6h-27q-8 0 -14 6t-6 14v4q0 28 -11 54t-31.5 46t-49 32t-64.5 12t-63 -12t-46.5 -32.5t-31 -46.5t-15.5 -53q-5 -31 -7 -70t-2 -80t2 -80t7 -70q3 -22 12.5 -47t28 -46.5t46.5 -36t69 -14.5q40 0 69.5 14t49 35.5t28.5 47t9 47.5v4z" />
    <glyph glyph-name="D" unicode="D" 
d="M89 0q-8 0 -14 6t-6 14v660q0 8 6 14t14 6h180q49 0 88 -16t67 -43t45 -63.5t23 -77.5q4 -30 6 -69t2 -80.5t-2 -81t-6 -69.5q-13 -97 -72.5 -148.5t-150.5 -51.5h-180zM269 64q40 0 68.5 13t47 33t28 44t12.5 46q4 31 6.5 70t2.5 80t-2.5 80t-6.5 70q-4 27 -15.5 52
t-31 43.5t-46.5 29.5t-63 11h-126q-10 0 -10 -10v-552q0 -10 10 -10h126z" />
    <glyph glyph-name="E" unicode="E" 
d="M161 399q0 -10 10 -10h268q8 0 14 -6t6 -14v-23q0 -8 -6 -14t-14 -6h-268q-10 0 -10 -10v-242q0 -10 10 -10h281q8 0 14 -6t6 -14v-24q0 -8 -6 -14t-14 -6h-335q-8 0 -14 6t-6 14v660q0 8 6 14t14 6h333q8 0 14 -6t6 -14v-24q0 -8 -6 -14t-14 -6h-279q-10 0 -10 -10v-227
z" />
    <glyph glyph-name="F" unicode="F" 
d="M161 20q0 -8 -6 -14t-14 -6h-24q-8 0 -14 6t-6 14v660q0 8 6 14t14 6h333q8 0 14 -6t6 -14v-24q0 -8 -6 -14t-14 -6h-279q-10 0 -10 -10v-226q0 -10 10 -10h268q8 0 14 -6t6 -14v-24q0 -8 -6 -14t-14 -6h-268q-10 0 -10 -10v-296z" />
    <glyph glyph-name="G" unicode="G" 
d="M438 308q0 10 -10 10h-122q-8 0 -14 6t-6 14v24q0 8 6 14t14 6h176q8 0 14 -6t6 -14v-162q0 -49 -18 -87.5t-48.5 -65.5t-71 -41t-85.5 -14q-91 0 -150.5 55.5t-72.5 152.5q-4 30 -6 69.5t-2 81t2 80.5t6 69q6 41 23 78.5t45 66.5t66.5 46t88.5 17q49 0 90.5 -16.5
t70.5 -44.5t45.5 -66t16.5 -81v-4q0 -8 -6 -14t-14 -6h-27q-8 0 -14 6t-6 14v4q0 31 -11 57.5t-31.5 45.5t-49 30t-64.5 11t-63 -12t-46.5 -32.5t-31 -46.5t-15.5 -53q-5 -31 -7 -70t-2 -80t2 -80t7 -70q3 -22 12.5 -47t28 -46.5t46.5 -36t69 -14.5q40 0 70 14t50 35.5
t29.5 47t9.5 47.5v108z" />
    <glyph glyph-name="H" unicode="H" 
d="M134 400q0 -10 10 -10h262q10 0 10 10v280q0 8 6 14t14 6h24q8 0 14 -6t6 -14v-660q0 -8 -6 -14t-14 -6h-24q-8 0 -14 6t-6 14v296q0 10 -10 10h-262q-10 0 -10 -10v-296q0 -8 -6 -14t-14 -6h-24q-8 0 -14 6t-6 14v660q0 8 6 14t14 6h24q8 0 14 -6t6 -14v-280z" />
    <glyph glyph-name="I" unicode="I" 
d="M242 630q0 10 -10 10h-125q-8 0 -14 6t-6 14v20q0 8 6 14t14 6h335q8 0 14 -6t6 -14v-20q0 -8 -6 -14t-14 -6h-125q-10 0 -10 -10v-559q0 -10 10 -10h135q8 0 14 -6t6 -14v-21q0 -8 -6 -14t-14 -6h-355q-8 0 -14 6t-6 14v21q0 8 6 14t14 6h135q10 0 10 10v559z" />
    <glyph glyph-name="J" unicode="J" 
d="M120 192q0 -27 10 -51.5t27.5 -43.5t42.5 -30t55 -11q60 0 98 34.5t38 111.5v478q0 8 6 14t14 6h24q8 0 14 -6t6 -14v-488q0 -46 -15.5 -83t-42.5 -63t-63.5 -40t-78.5 -14q-41 0 -77.5 16t-63.5 43t-43 63.5t-16 77.5v8q0 8 6 14t14 6h25q8 0 14 -6t6 -14v-8z" />
    <glyph glyph-name="K" unicode="K" 
d="M425 689q2 3 8.5 7t17.5 4h16q18 0 22 -12.5t-5 -23.5l-267 -291q-5 -6 -6 -11.5t5 -12.5l284 -312q8 -10 5 -23.5t-23 -13.5h-22q-11 0 -17 5t-9 8l-259 286q-2 2 -5 2t-3 -4v-277q0 -8 -6 -14t-14 -6h-24q-8 0 -14 6t-6 14v660q0 8 6 14t14 6h24q8 0 14 -6t6 -14v-264
q0 -4 3 -4t5 2z" />
    <glyph glyph-name="L" unicode="L" 
d="M184 74q0 -10 10 -10h265q8 0 14 -6t6 -14v-24q0 -8 -6 -14t-14 -6h-319q-8 0 -14 6t-6 14v660q0 8 6 14t14 6h24q8 0 14 -6t6 -14v-606z" />
    <glyph glyph-name="M" unicode="M" 
d="M270 363q1 -3 4.5 -3.5t5.5 3.5l102 320q6 17 21 17h60q8 0 14 -6t6 -14v-660q0 -8 -6 -14t-14 -6h-20q-8 0 -14 6t-6 14v573q0 5 -4 6t-6 -4l-103 -328q-6 -17 -21 -17h-28q-15 0 -21 17l-103 328q-2 5 -6 4t-4 -6v-573q0 -8 -6 -14t-14 -6h-20q-8 0 -14 6t-6 14v660
q0 8 6 14t14 6h60q15 0 21 -17z" />
    <glyph glyph-name="N" unicode="N" 
d="M475 20q0 -8 -6 -14t-14 -6h-52q-8 0 -12 3t-9 14l-239 574q-2 3 -5 2.5t-3 -4.5v-569q0 -8 -6 -14t-14 -6h-20q-8 0 -14 6t-6 14v660q0 8 6 14t14 6h52q8 0 12 -3t9 -14l239 -569q2 -3 5 -2.5t3 4.5v564q0 8 6 14t14 6h20q8 0 14 -6t6 -14v-660z" />
    <glyph glyph-name="O" unicode="O" 
d="M275 644q-36 0 -63 -12t-46.5 -32.5t-31 -46.5t-15.5 -53q-5 -31 -7 -70t-2 -80t2 -80t7 -70q3 -22 12.5 -47t28 -46.5t46.5 -36t69 -14.5q40 0 68.5 14.5t47 36t28 46.5t12.5 47q4 31 6.5 70t2.5 80t-2.5 80t-6.5 70q-4 27 -15.5 53t-31 46.5t-46.5 32.5t-63 12z
M275 708q49 0 88 -17t67 -46t45 -66.5t23 -78.5q4 -30 6 -69t2 -80.5t-2 -81t-6 -69.5q-13 -97 -72.5 -152.5t-150.5 -55.5t-150.5 55.5t-72.5 152.5q-4 30 -6 69.5t-2 81t2 80.5t6 69q6 41 23 78.5t45 66.5t66.5 46t88.5 17z" />
    <glyph glyph-name="P" unicode="P" 
d="M149 20q0 -8 -6 -14t-14 -6h-24q-8 0 -14 6t-6 14v660q0 8 6 14t14 6h170q43 0 81.5 -16.5t67 -45t45 -67t16.5 -81.5q0 -44 -16.5 -82t-45 -66.5t-67 -45t-81.5 -16.5h-116q-10 0 -10 -10v-250zM159 636q-10 0 -10 -10v-272q0 -10 10 -10h116q30 0 56.5 11.5t46.5 31.5
t31.5 46.5t11.5 56.5t-11.5 56.5t-31.5 46.5t-46.5 31.5t-56.5 11.5h-116z" />
    <glyph glyph-name="Q" unicode="Q" 
d="M275 644q-36 0 -63 -12t-46.5 -32.5t-31 -46.5t-15.5 -53q-5 -31 -7 -70t-2 -80t2 -80t7 -70q3 -22 12.5 -47t28 -46.5t46.5 -36t69 -14.5q40 0 68.5 14.5t47 36t28 46.5t12.5 47q4 31 6.5 70t2.5 80t-2.5 80t-6.5 70q-4 27 -15.5 53t-31 46.5t-46.5 32.5t-63 12zM425 48
q-3 -3 -4 -6t1 -8l51 -96q5 -11 -0.5 -19.5t-15.5 -8.5h-28q-12 0 -20 15l-42 75q-4 6 -11.5 5t-12.5 -3q-31 -10 -68 -10q-91 0 -150.5 55.5t-72.5 152.5q-4 30 -6 69.5t-2 81t2 80.5t6 69q6 41 23 78.5t45 66.5t66.5 46t88.5 17q49 0 88 -17t67 -46t45 -66.5t23 -78.5
q4 -30 6 -69t2 -80.5t-2 -81t-6 -69.5q-6 -48 -25 -86.5t-48 -65.5z" />
    <glyph glyph-name="R" unicode="R" 
d="M157 636q-10 0 -10 -10v-272q0 -10 10 -10h116q30 0 56.5 11.5t46.5 31.5t31.5 46.5t11.5 56.5t-11.5 56.5t-31.5 46.5t-46.5 31.5t-56.5 11.5h-116zM157 280q-10 0 -10 -10v-250q0 -8 -6 -14t-14 -6h-24q-8 0 -14 6t-6 14v660q0 8 6 14t14 6h170q43 0 81.5 -16.5t67 -45
t45 -67t16.5 -81.5q0 -68 -32.5 -112t-86.5 -78q-18 -12 -7 -32l126 -238q6 -11 1 -20.5t-20 -9.5h-22q-11 0 -18 6t-12 14.5t-9 18t-8 17.5l-110 212q-2 5 -6.5 8.5t-12.5 3.5h-109z" />
    <glyph glyph-name="S" unicode="S" 
d="M425 200q0 34 -11.5 57.5t-34.5 40.5t-56 28.5t-76 21.5q-27 6 -57 17.5t-54.5 31t-40.5 49.5t-16 74q0 45 16 80t43 59t62.5 36.5t74.5 12.5q44 0 80 -15t61.5 -40.5t39.5 -59.5t14 -73v-13q0 -8 -6 -14t-14 -6h-24q-8 0 -14 6t-6 14v13q0 27 -10 49.5t-27.5 39
t-41.5 26t-52 9.5q-33 0 -58 -10.5t-41 -28t-24 -40t-8 -45.5q0 -34 16 -54t40 -32t52.5 -19t54.5 -15q40 -12 74 -27.5t58 -38.5t37.5 -55.5t13.5 -78.5q0 -49 -17.5 -87.5t-47.5 -65.5t-69 -41t-81 -14q-48 0 -88 16.5t-68 45t-43.5 66t-15.5 80.5v16q0 8 6 14t14 6h25
q8 0 14 -6t6 -14v-16q0 -26 9.5 -52t28.5 -46.5t47 -33t65 -12.5q69 0 109 40t41 104z" />
    <glyph glyph-name="T" unicode="T" 
d="M66 636q-8 0 -14 6t-6 14v24q0 8 6 14t14 6h420q8 0 14 -6t6 -14v-24q0 -8 -6 -14t-14 -6h-167q-10 0 -10 -10v-606q0 -8 -6 -14t-14 -6h-25q-8 0 -14 6t-6 14v606q0 10 -10 10h-168z" />
    <glyph glyph-name="U" unicode="U" 
d="M124 207q0 -30 11.5 -57.5t32 -48t48 -33t59.5 -12.5t59.5 12.5t48 33t32 48t11.5 57.5v473q0 8 6 14t14 6h24q8 0 14 -6t6 -14v-473q0 -45 -17 -84t-46 -68t-68 -46t-84 -17t-84 17t-68 46t-46 68t-17 84v473q0 8 6 14t14 6h24q8 0 14 -6t6 -14v-473z" />
    <glyph glyph-name="V" unicode="V" 
d="M447 685q4 15 19 15h29q12 0 16.5 -7.5t2.5 -15.5l-191 -662q-5 -15 -19 -15h-60q-15 0 -19 15l-190 661q-2 8 2.5 16t16.5 8h29q15 0 19 -15l165 -590q1 -6 6 -6h2q4 0 6 6z" />
    <glyph glyph-name="W" unicode="W" 
d="M371 111q1 -5 6 -5t6 5l62 574q1 8 6.5 11.5t12.5 3.5h25q12 0 16.5 -6t3.5 -14l-82 -665q-1 -8 -6.5 -11.5t-12.5 -3.5h-67q-7 0 -12.5 3.5t-6.5 11.5l-42 362q-1 4 -3 4t-3 -4l-56 -362q-3 -15 -19 -15h-67q-7 0 -12.5 3.5t-6.5 11.5l-73 665q-1 8 3.5 14t16.5 6h25
q7 0 12.5 -3.5t6.5 -11.5l58 -574q1 -5 6 -5t6 5l60 374q3 15 19 15h46q16 0 19 -15z" />
    <glyph glyph-name="X" unicode="X" 
d="M129 15q-7 -15 -21 -15h-33q-10 0 -15.5 8.5t-0.5 19.5l174 328q5 8 1 14l-160 302q-5 11 0.5 19.5t15.5 8.5h31q12 0 19 -15l130 -250q4 -10 8 0l130 250q7 15 19 15h31q10 0 15.5 -8.5t0.5 -19.5l-160 -302q-4 -6 1 -14l175 -328q5 -11 -0.5 -19.5t-15.5 -8.5h-35
q-13 0 -20 15l-141 274q-4 10 -8 0z" />
    <glyph glyph-name="Y" unicode="Y" 
d="M272 328q4 -10 8 0l137 357q5 15 19 15h32q10 0 15.5 -8.5t0.5 -19.5l-175 -431v-221q0 -8 -6 -14t-14 -6h-26q-8 0 -14 6t-6 14v220l-177 432q-5 11 0.5 19.5t15.5 8.5h32q14 0 19 -15z" />
    <glyph glyph-name="Z" unicode="Z" 
d="M145 75q-2 -4 -0.5 -7t6.5 -3h310q8 0 14 -6t6 -14v-25q0 -8 -6 -14t-14 -6h-372q-8 0 -14 6t-6 14v47q0 8 5 16l325 543q2 4 0.5 7t-6.5 3h-294q-8 0 -14 6t-6 14v24q0 8 6 14t14 6h352q8 0 14 -6t6 -14v-44q0 -8 -5 -16z" />
    <glyph glyph-name="bracketleft" unicode="[" 
d="M255 -24q0 -10 10 -10h156q8 0 14 -6t6 -14v-16q0 -8 -6 -14t-14 -6h-202q-8 0 -14 6t-6 14v770q0 8 6 14t14 6h200q8 0 14 -6t6 -14v-16q0 -8 -6 -14t-14 -6h-154q-10 0 -10 -10v-678z" />
    <glyph glyph-name="backslash" unicode="\" 
d="M104 682q-5 11 0.5 19.5t15.5 8.5h21q14 0 19 -15l286 -679q5 -11 -0.5 -19.5t-15.5 -8.5h-21q-14 0 -21 15z" />
    <glyph glyph-name="bracketright" unicode="]" 
d="M295 654q0 10 -10 10h-154q-8 0 -14 6t-6 14v16q0 8 6 14t14 6h200q8 0 14 -6t6 -14v-770q0 -8 -6 -14t-14 -6h-202q-8 0 -14 6t-6 14v16q0 8 6 14t14 6h156q10 0 10 10v678z" />
    <glyph glyph-name="asciicircum" unicode="^" 
d="M200 601q-5 -5 -12.5 -10.5t-18.5 -5.5h-43q-10 0 -13 8t2 13l118 112q5 5 10.5 8.5t19.5 3.5h22q13 0 18.5 -3.5t10.5 -8.5l118 -112q5 -5 2 -13t-13 -8h-43q-11 0 -18.5 5.5t-12.5 10.5l-67 65q-7 7 -14 0z" />
    <glyph glyph-name="underscore" unicode="_" 
d="M540 0q8 0 14 -6t6 -14v-19q0 -8 -6 -14t-14 -6h-530q-8 0 -14 6t-6 14v19q0 8 6 14t14 6h530z" />
    <glyph glyph-name="grave" unicode="`" 
d="M259 730q11 0 16.5 -5.5t9.5 -10.5l76 -109q4 -5 0 -12.5t-14 -7.5h-19q-14 0 -19.5 3.5t-10.5 8.5l-108 112q-5 5 -2 13t13 8h58z" />
    <glyph glyph-name="a" unicode="a" 
d="M251 241q-42 0 -74 -23t-32 -67q0 -27 9.5 -46.5t26 -32.5t37.5 -19.5t45 -6.5q69 0 106.5 32t37.5 93v60q0 10 -10 10h-146zM283 455q-23 0 -44 -6.5t-37 -18t-26 -27.5t-10 -36q0 -13 -8 -15t-15 -2h-14q-20 0 -20 20q0 35 15 61t40 43.5t56 26.5t63 9q37 0 69.5 -10
t57 -30.5t39 -51.5t14.5 -74v-324q0 -8 -6 -14t-14 -6h-9q-10 0 -14 7q-4 6 -7 13.5t-13 7.5q-7 0 -18 -6t-27 -13t-37.5 -13t-49.5 -6q-46 0 -80.5 13t-57 35t-33.5 51t-11 61q0 31 11 58t32 46.5t52 30.5t70 11h143q10 0 10 10v39q0 49 -34 79.5t-87 30.5z" />
    <glyph glyph-name="b" unicode="b" 
d="M268 49q37 0 61.5 13t40 32.5t23 42.5t9.5 43q4 31 4 70t-4 70q-2 20 -9.5 43t-23 42.5t-40.5 32.5t-61 13q-33 0 -56 -13t-37 -32.5t-21 -42.5t-9 -43q-3 -31 -3 -70t3 -70q2 -20 9 -43t21 -42.5t37 -32.5t56 -13zM273 -10q-28 0 -45 5t-29 11.5t-20.5 11.5t-19.5 5
q-8 0 -14 -5.5t-11 -10.5q-7 -7 -14 -7h-16q-8 0 -14 6t-6 14v667q0 8 6 14t14 6h19q8 0 14 -6t6 -14v-177q0 -14 7 -19.5t18 -5.5q7 0 15.5 4t20.5 8.5t28.5 8.5t40.5 4q39 0 72.5 -15t58.5 -40.5t40.5 -60.5t18.5 -74q2 -30 2 -70t-2 -70q-3 -39 -18.5 -74t-40.5 -60.5
t-58.5 -40.5t-72.5 -15z" />
    <glyph glyph-name="c" unicode="c" 
d="M283 49q33 0 57 10.5t40 27t23.5 36.5t7.5 40q0 10 6 13.5t13 3.5h21q8 0 14 -6t6 -14q0 -34 -13.5 -64.5t-38.5 -54t-59.5 -37.5t-76.5 -14q-45 0 -81 15t-62 40.5t-41 60.5t-18 74q-2 30 -2 70t2 70q3 39 18 74t41 60.5t62 40.5t81 15q42 0 76.5 -14t59.5 -37.5
t38.5 -54t13.5 -64.5q0 -8 -4.5 -14t-12.5 -6h-23q-7 0 -13 4t-6 12q0 22 -8.5 43t-25 37t-40.5 25.5t-55 9.5q-38 0 -64 -13t-42.5 -32.5t-24.5 -42.5t-10 -43q-3 -31 -3 -70t3 -70q2 -20 10 -43t24.5 -42.5t42.5 -32.5t64 -13z" />
    <glyph glyph-name="d" unicode="d" 
d="M282 49q33 0 56 13t37 32.5t21 42.5t9 43q3 31 3 70t-3 70q-2 20 -9 43t-21 42.5t-37 32.5t-56 13q-36 0 -61 -13t-40.5 -32.5t-23 -42.5t-9.5 -43q-4 -31 -4 -70t4 -70q2 -20 9.5 -43t23 -42.5t40 -32.5t61.5 -13zM277 -10q-39 0 -72.5 15t-58.5 40.5t-40.5 60.5
t-18.5 74q-2 30 -2 70t2 70q3 39 18.5 74t40.5 60.5t58.5 40.5t72.5 15q24 0 40.5 -4t28.5 -8.5t20 -8.5t16 -4q11 0 18 5.5t7 19.5v177q0 8 6 14t14 6h19q8 0 14 -6t6 -14v-667q0 -8 -6 -14t-14 -6h-16q-7 0 -14 7q-5 5 -11 10.5t-14 5.5q-11 0 -19.5 -5t-20.5 -11.5
t-29 -11.5t-45 -5z" />
    <glyph glyph-name="e" unicode="e" 
d="M132 216q0 -36 8.5 -66.5t26.5 -53t45.5 -35t66.5 -12.5q29 0 51.5 8t39 21.5t27 30t16.5 34.5q3 10 9.5 13.5t13.5 3.5h20q8 0 13.5 -4.5t3.5 -15.5q-5 -33 -21 -60.5t-41.5 -47.5t-59 -31t-72.5 -11q-45 0 -81.5 15t-63 40.5t-42 60.5t-18.5 74q-2 30 -2 70t2 70
q3 39 18.5 74t42 60.5t63 40.5t81.5 15q42 0 78.5 -16t63.5 -43t42.5 -63.5t15.5 -77.5v-64q0 -8 -6 -14t-14 -6h-317q-10 0 -10 -10zM134 292q0 -10 10 -10h270q10 0 10 10q0 38 -11 67.5t-30.5 50t-45.5 31t-57 10.5q-67 0 -106.5 -41t-39.5 -118z" />
    <glyph glyph-name="f" unicode="f" 
d="M84 436q-8 0 -14 6t-6 14v19q0 8 6 14t14 6h137q10 0 10 10v15q0 42 12.5 76.5t35 59t53.5 38t69 13.5h45q8 0 14 -6t6 -14v-16q0 -8 -6 -14t-14 -6h-45q-29 0 -49.5 -10.5t-34 -28.5t-20 -42t-6.5 -50v-15q0 -10 10 -10h164q8 0 14 -6t6 -14v-19q0 -8 -6 -14t-14 -6
h-164q-10 0 -10 -10v-406q0 -8 -6 -14t-14 -6h-20q-8 0 -14 6t-6 14v406q0 10 -10 10h-137z" />
    <glyph glyph-name="g" unicode="g" 
d="M446 500q8 0 14 -6t6 -14v-510q0 -36 -13 -69t-36.5 -57.5t-56 -39t-72.5 -14.5q-30 0 -58.5 8.5t-52.5 26t-41.5 43t-24.5 59.5q-5 23 18 23h16q13 0 18 -6t8 -14q5 -14 14 -28.5t23 -26t34 -19t46 -7.5q28 0 50 10.5t37.5 27.5t23.5 38.5t8 44.5v20q0 25 -22 25
q-8 0 -19 -4t-25 -8.5t-30.5 -8.5t-33.5 -4q-39 0 -72.5 15t-58.5 40.5t-40.5 60.5t-18.5 74q-2 30 -2 70t2 70q3 39 18.5 74t40.5 60.5t58.5 40.5t72.5 15q28 0 45 -5t29 -11.5t20.5 -11.5t19.5 -5q8 0 14 5.5t11 10.5q7 7 14 7h16zM282 451q-37 0 -61.5 -13t-40 -32.5
t-23 -42.5t-9.5 -43q-4 -31 -4 -70t4 -70q2 -20 9.5 -43t23 -42.5t40.5 -32.5t61 -13q33 0 56 13t37 32.5t21 42.5t9 43q3 31 3 70t-3 70q-2 20 -9 43t-21 42.5t-37 32.5t-56 13z" />
    <glyph glyph-name="h" unicode="h" 
d="M114 0q-8 0 -14 6t-6 14v667q0 8 6 14t14 6h19q8 0 14 -6t6 -14v-181q0 -7 5.5 -14t16.5 -7q7 0 16.5 4t22.5 8.5t29.5 8.5t38.5 4q39 0 71.5 -14t55 -38t35 -55.5t12.5 -66.5v-316q0 -8 -6 -14t-14 -6h-19q-8 0 -14 6t-6 14v316q0 51 -34 83t-88 32q-27 0 -49.5 -8.5
t-38.5 -23.5t-25 -35t-9 -43v-321q0 -8 -6 -14t-14 -6h-19z" />
    <glyph glyph-name="i" unicode="i" 
d="M332 638q0 -16 -16 -16h-52q-16 0 -16 16v53q0 6 4.5 11t11.5 5h52q7 0 11.5 -5t4.5 -11v-53zM131 440q-8 0 -14 6t-6 14v20q0 8 6 14t14 6h175q8 0 14 -6t6 -14v-410q0 -10 10 -10h131q8 0 14 -6t6 -14v-20q0 -8 -6 -14t-14 -6h-346q-8 0 -14 6t-6 14v20q0 8 6 14t14 6
h135q10 0 10 10v360q0 10 -10 10h-125z" />
    <glyph glyph-name="j" unicode="j" 
d="M385 638q0 -16 -16 -16h-52q-16 0 -16 16v53q0 6 4.5 11t11.5 5h52q7 0 11.5 -5t4.5 -11v-53zM384 -35q0 -45 -12 -78t-33 -54.5t-49.5 -32t-61.5 -10.5t-62 12.5t-51 34.5t-34.5 51t-12.5 62q0 8 6 14t15 6h21q8 0 14 -6t6 -14q0 -19 7 -36.5t20 -31t31 -22t40 -8.5
q44 0 69.5 25t25.5 76v477q0 10 -10 10h-149q-8 0 -14 6t-6 14v20q0 8 6 14t14 6h200q8 0 14 -6t6 -14v-515z" />
    <glyph glyph-name="k" unicode="k" 
d="M186 209q-2 2 -5 2t-3 -4v-187q0 -8 -6 -14t-14 -6h-19q-8 0 -14 6t-6 14v667q0 8 6 14t14 6h19q8 0 14 -6t6 -14v-375q0 -8 8 -2l201 177q4 4 10.5 8.5t17.5 4.5h18q17 0 19.5 -12.5t-5.5 -20.5l-219 -195q-13 -13 0 -24l234 -213q11 -10 6.5 -22.5t-20.5 -12.5h-20
q-11 0 -18.5 5.5t-11.5 9.5z" />
    <glyph glyph-name="l" unicode="l" 
d="M115 647q-8 0 -14 6t-6 14v20q0 8 6 14t14 6h171q8 0 14 -6t6 -14v-617q0 -10 10 -10h127q8 0 14 -6t6 -14v-20q0 -8 -6 -14t-14 -6h-348q-8 0 -14 6t-6 14v20q0 8 6 14t14 6h139q5 0 8.5 2.5t3.5 7.5v567q0 10 -10 10h-121z" />
    <glyph glyph-name="m" unicode="m" 
d="M288 474q9 11 28.5 23.5t57.5 12.5q26 0 45 -10t31 -27t17.5 -38.5t5.5 -44.5v-370q0 -8 -6 -14t-14 -6h-19q-8 0 -14 6t-6 14v383q0 26 -18.5 37t-38.5 11t-36.5 -13t-16.5 -35v-383q0 -8 -6 -14t-14 -6h-19q-8 0 -14 6t-6 14v383q0 22 -17.5 35t-37.5 13t-38 -13
t-18 -35v-383q0 -8 -6 -14t-14 -6h-19q-8 0 -14 6t-6 14v460q0 8 6 14t14 6h6q7 0 14 -7q3 -4 5.5 -6t7.5 -2q4 0 9 4t12.5 8.5t19 8.5t29.5 4q27 0 43 -11t26 -25q4 -6 10 -6t11 6z" />
    <glyph glyph-name="n" unicode="n" 
d="M163 477q11 0 20.5 5t22 11.5t30.5 11.5t46 5q39 0 72 -11t57 -33t37 -54.5t13 -75.5v-316q0 -8 -6 -14t-14 -6h-19q-8 0 -14 6t-6 14v316q0 63 -36.5 89t-90.5 26q-27 0 -50 -8.5t-40.5 -23.5t-27 -35t-9.5 -43v-321q0 -8 -6 -14t-14 -6h-19q-8 0 -14 6t-6 14v460
q0 8 6 14t14 6h16q7 0 14 -7q5 -5 10 -10.5t14 -5.5z" />
    <glyph glyph-name="o" unicode="o" 
d="M275 510q45 0 81 -15t62 -40.5t41 -60.5t18 -74q2 -30 2 -70t-2 -70q-3 -39 -18 -74t-41 -60.5t-62 -40.5t-81 -15t-81 15t-62 40.5t-41 60.5t-18 74q-2 30 -2 70t2 70q3 39 18 74t41 60.5t62 40.5t81 15zM275 49q37 0 63.5 13t43 32.5t24.5 42.5t10 43q3 31 3 70t-3 70
q-2 20 -10 43t-24.5 42.5t-43 32.5t-63.5 13q-38 0 -64 -13t-42.5 -32.5t-24.5 -42.5t-10 -43q-3 -31 -3 -70t3 -70q2 -20 10 -43t24.5 -42.5t42.5 -32.5t64 -13z" />
    <glyph glyph-name="p" unicode="p" 
d="M268 451q-33 0 -56 -13t-37 -32.5t-21 -42.5t-9 -43q-3 -31 -3 -70t3 -70q2 -20 9 -43t21 -42.5t37 -32.5t56 -13q36 0 61 13t40.5 32.5t23 42.5t9.5 43q4 31 4 70t-4 70q-2 20 -9.5 43t-23 42.5t-40 32.5t-61.5 13zM273 510q39 0 72.5 -15t58.5 -40.5t40.5 -60.5
t18.5 -74q2 -30 2 -70t-2 -70q-3 -39 -18.5 -74t-40.5 -60.5t-58.5 -40.5t-72.5 -15q-24 0 -41 4t-29 8.5t-21 8.5t-16 4q-10 0 -16.5 -5.5t-6.5 -19.5v-170q0 -8 -6 -14t-14 -6h-19q-8 0 -14 6t-6 14v660q0 8 6 14t14 6h16q7 0 14 -7q5 -5 11 -10.5t14 -5.5q11 0 19.5 5
t20.5 11.5t29 11.5t45 5z" />
    <glyph glyph-name="q" unicode="q" 
d="M282 451q-37 0 -61.5 -13t-40 -32.5t-23 -42.5t-9.5 -43q-4 -31 -4 -70t4 -70q2 -20 9.5 -43t23 -42.5t40.5 -32.5t61 -13q33 0 56 13t37 32.5t21 42.5t9 43q3 31 3 70t-3 70q-2 20 -9 43t-21 42.5t-37 32.5t-56 13zM277 510q28 0 45 -5t29 -11.5t20.5 -11.5t19.5 -5
q8 0 14 5.5t11 10.5q7 7 14 7h16q8 0 14 -6t6 -14v-660q0 -8 -6 -14t-14 -6h-19q-8 0 -14 6t-6 14v170q0 14 -7 19.5t-16 5.5q-8 0 -16.5 -4t-20.5 -8.5t-29 -8.5t-41 -4q-39 0 -72.5 15t-58.5 40.5t-40.5 60.5t-18.5 74q-2 30 -2 70t2 70q3 39 18.5 74t40.5 60.5t58.5 40.5
t72.5 15z" />
    <glyph glyph-name="r" unicode="r" 
d="M438 340q0 48 -34 79.5t-94 31.5q-27 0 -50.5 -9t-40.5 -25t-27 -38.5t-10 -48.5v-310q0 -8 -6 -14t-14 -6h-19q-8 0 -14 6t-6 14v460q0 8 6 14t14 6h16q7 0 14 -7q5 -5 11 -10.5t14 -5.5q11 0 21 5l23 11.5t31.5 11.5t46.5 5q38 0 70.5 -12t56 -34t37 -53.5t13.5 -70.5
q0 -8 -6 -14t-14 -6h-19q-8 0 -14 6t-6 14z" />
    <glyph glyph-name="s" unicode="s" 
d="M82 163q0 8 6 14t14 6h19q8 0 14 -6t6 -14q0 -27 10.5 -48.5t28.5 -36.5t42.5 -22.5t52.5 -7.5q62 0 97.5 28t35.5 69q0 24 -13 40t-33 26.5t-44.5 16.5t-47.5 9q-33 5 -64 13.5t-54.5 24t-38 39t-14.5 58.5q0 29 14.5 54.5t39 44t56.5 29t66 10.5t65 -10t55 -29.5
t38.5 -47t14.5 -63.5q0 -8 -6 -14t-14 -6h-19q-8 0 -14 6t-6 14q0 38 -31 66t-83 28q-53 0 -84.5 -25t-31.5 -57q0 -21 10.5 -34t26.5 -21t36 -12.5t38 -7.5q31 -6 66 -15t64 -25.5t48 -43.5t19 -68q0 -32 -13.5 -60t-39 -49t-61 -33.5t-78.5 -12.5q-38 0 -72.5 11t-61.5 33
t-43 54.5t-16 74.5z" />
    <glyph glyph-name="t" unicode="t" 
d="M239 160q0 -53 28.5 -81.5t66.5 -28.5q43 0 67.5 29t24.5 71q0 8 6 14t14 6h21q8 0 14 -6t6 -14q0 -33 -11.5 -62t-32 -51t-48.5 -34.5t-61 -12.5t-61.5 12.5t-49 34.5t-32.5 51t-12 62v276q0 10 -10 10h-111q-8 0 -14 6t-6 14v19q0 8 6 14t14 6h111q10 0 10 10v155
q0 8 6 14t14 6h20q8 0 14 -6t6 -14v-155q0 -10 10 -10h166q8 0 14 -6t6 -14v-19q0 -8 -6 -14t-14 -6h-166q-10 0 -10 -10v-266z" />
    <glyph glyph-name="u" unicode="u" 
d="M387 23q-11 0 -20.5 -5t-22 -11.5t-30.5 -11.5t-46 -5q-39 0 -72 11t-57 33t-37 54.5t-13 75.5v316q0 8 6 14t14 6h19q8 0 14 -6t6 -14v-316q0 -63 36.5 -89t90.5 -26q27 0 50 8.5t40.5 23.5t27 35t9.5 43v321q0 8 6 14t14 6h19q8 0 14 -6t6 -14v-460q0 -8 -6 -14t-14 -6
h-16q-7 0 -14 7q-5 5 -10 10.5t-14 5.5z" />
    <glyph glyph-name="v" unicode="v" 
d="M432 485q5 15 19 15h26q12 0 17 -7.5t2 -15.5l-177 -462q-6 -15 -19 -15h-51q-13 0 -19 15l-177 462q-3 8 2 15.5t17 7.5h26q14 0 19 -15l150 -405q2 -6 7.5 -6t7.5 6z" />
    <glyph glyph-name="w" unicode="w" 
d="M291 390q16 0 19 -15l49 -252q2 -6 7 -6t7 6l67 362q3 15 19 15h21q12 0 16.5 -7.5t2.5 -15.5l-94 -462q-3 -15 -19 -15h-37q-16 0 -19 15l-49 258q-1 5 -6 5t-6 -5l-49 -258q-3 -15 -19 -15h-37q-16 0 -19 15l-94 462q-2 8 2.5 15.5t16.5 7.5h21q16 0 19 -15l67 -362
q2 -6 7 -6t7 6l49 252q3 15 19 15h32z" />
    <glyph glyph-name="x" unicode="x" 
d="M150 10q-2 -4 -6.5 -7t-15.5 -3h-24q-14 0 -19 10.5t3 22.5l149 227q4 7 1 13l-133 194q-8 12 -3 22.5t19 10.5h22q11 0 15.5 -3t6.5 -7l106 -165q4 -8 8 0l106 165q2 4 6.5 7t15.5 3h22q14 0 19 -10.5t-3 -22.5l-133 -194q-3 -6 1 -13l149 -227q8 -12 3 -22.5t-19 -10.5
h-24q-11 0 -15.5 3t-6.5 7l-121 190q-4 8 -8 0z" />
    <glyph glyph-name="y" unicode="y" 
d="M281 117q4 -10 8 0l134 368q5 15 19 15h28q12 0 17 -7.5t2 -15.5l-254 -662q-5 -15 -19 -15h-22q-12 0 -17 7.5t-2 15.5l74 201q3 8 1 13l-189 440q-3 8 2 15.5t17 7.5h28q14 0 19 -15z" />
    <glyph glyph-name="z" unicode="z" 
d="M385 432q3 4 1.5 7t-6.5 3h-270q-8 0 -14 6t-6 14v18q0 8 6 14t14 6h330q8 0 14 -6t6 -14v-29q0 -14 -6.5 -23.5t-13.5 -17.5l-284 -342q-3 -4 -1.5 -7t6.5 -3h289q8 0 14 -6t6 -14v-18q0 -8 -6 -14t-14 -6h-350q-8 0 -14 6t-6 14v31q0 10 2 15t11 16z" />
    <glyph glyph-name="braceleft" unicode="{" 
d="M206 260q0 8 -5.5 12.5t-12.5 7.5l-11 5q-8 3 -14 7.5t-6 12.5v30q0 8 6 12.5t14 7.5l11 5q7 3 12.5 7.5t5.5 12.5v130q0 41 13.5 79t39.5 67t64 46.5t88 17.5h42q8 0 14 -6t6 -14v-17q0 -8 -6 -14t-14 -6h-42q-35 0 -62.5 -12t-46 -33t-28 -49t-9.5 -59v-125
q0 -13 -4.5 -23.5t-11 -19t-13.5 -14t-12 -8.5q5 -3 12 -9t13.5 -14t11 -18.5t4.5 -23.5v-135q0 -32 9.5 -59.5t28 -48.5t46 -33t62.5 -12h52q8 0 14 -6t6 -14v-17q0 -8 -6 -14t-14 -6h-52q-50 0 -88 17.5t-64 46.5t-39.5 67t-13.5 79v140z" />
    <glyph glyph-name="bar" unicode="|" 
d="M302 -50q0 -8 -6 -14t-14 -6h-15q-8 0 -14 6t-6 14v750q0 8 6 14t14 6h15q8 0 14 -6t6 -14v-750z" />
    <glyph glyph-name="braceright" unicode="}" 
d="M344 120q0 -41 -13.5 -79t-39.5 -67t-64.5 -46.5t-87.5 -17.5h-52q-8 0 -14 6t-6 14v17q0 8 6 14t14 6h52q35 0 62.5 12t46 33t28 48.5t9.5 59.5v135q0 13 4.5 23.5t11 18.5t13.5 14t12 9q-5 3 -12 8.5t-13.5 14t-11 19t-4.5 23.5v125q0 31 -9.5 59t-28 49t-46 33
t-62.5 12h-42q-8 0 -14 6t-6 14v17q0 8 6 14t14 6h42q49 0 87.5 -17.5t64.5 -46.5t39.5 -67t13.5 -79v-130q0 -8 5.5 -12.5t12.5 -7.5l11 -5q8 -3 14 -7.5t6 -12.5v-30q0 -8 -6 -12.5t-14 -7.5l-11 -5q-7 -3 -12.5 -7.5t-5.5 -12.5v-140z" />
    <glyph glyph-name="asciitilde" unicode="~" 
d="M161 248q-17 0 -35.5 -7.5t-26.5 -18.5q-8 -10 -18.5 -8t-10.5 17v24q0 27 26.5 44t64.5 17q39 0 64.5 -7t48 -15.5t48.5 -15.5t67 -7q17 0 35.5 7.5t26.5 18.5q8 10 18.5 8t10.5 -17v-24q0 -27 -26.5 -44t-64.5 -17q-39 0 -64.5 7t-48 15.5t-49 15.5t-66.5 7z" />
    <glyph glyph-name="exclamdown" unicode="&#xa1;" 
d="M334 -170q0 -8 -6 -14t-14 -6h-20q-8 0 -14 6t-6 14v470q0 8 6 14t14 6h20q8 0 14 -6t6 -14v-470zM352 431q0 -6 -4.5 -11t-11.5 -5h-62q-7 0 -11.5 5t-4.5 11v63q0 16 16 16h62q16 0 16 -16v-63z" />
    <glyph glyph-name="cent" unicode="&#xa2;" 
d="M324 -7q-10 -1 -10 -10v-33q0 -8 -6 -14t-14 -6h-22q-8 0 -14 6t-6 14v33q0 9 -10 10q-36 6 -64.5 23t-49 42t-32.5 56t-15 66q-2 30 -2 70t2 70q3 34 15 65.5t32.5 56t49 42t64.5 23.5q10 1 10 10v33q0 8 6 14t14 6h22q8 0 14 -6t6 -14v-33q0 -9 10 -10
q67 -12 107 -57.5t40 -109.5q0 -8 -4.5 -14t-12.5 -6h-29q-7 0 -13 4t-6 12q0 19 -7.5 38.5t-23 35.5t-38.5 25.5t-54 9.5q-35 0 -60 -12t-41 -30.5t-24.5 -40.5t-9.5 -42q-2 -31 -2 -70t2 -70q1 -20 9.5 -42t24.5 -40.5t41 -30.5t60 -12q30 0 53 9.5t38.5 25t23 34.5
t7.5 39q0 10 6 13.5t13 3.5h27q8 0 14 -6t6 -14q0 -32 -10.5 -60t-29.5 -50t-46.5 -37t-60.5 -20z" />
    <glyph glyph-name="sterling" unicode="&#xa3;" 
d="M472 530q0 -8 -6 -14t-14 -6h-23q-8 0 -14 6t-6 14v10q0 16 -4.5 34.5t-16 34.5t-30 26.5t-46.5 10.5t-46 -10.5t-28 -26.5t-14 -34.5t-4 -34.5v-142q0 -10 10 -10h154q8 0 14 -6t6 -14v-20q0 -8 -6 -14t-14 -6h-154q-5 0 -7.5 -3.5t-2.5 -8.5v-106q0 -45 -10.5 -83.5
t-24.5 -54.5q-3 -3 -2 -5.5t6 -2.5h283q8 0 14 -6t6 -14v-24q0 -8 -6 -14t-14 -6h-394q-9 0 -15 6t-6 14v27q0 8 6 14t14 6h5q15 0 28.5 11t23.5 30.5t16 45.5t6 56v106q0 5 -2.5 8.5t-7.5 3.5h-60q-8 0 -14 6t-6 14v20q0 8 6 14t14 6h60q10 0 10 10v142q0 35 11 66t31.5 54
t49.5 36.5t64 13.5t64.5 -13.5t50.5 -36.5t33 -54t12 -66v-10z" />
    <glyph glyph-name="currency" unicode="&#xa4;" 
d="M502 535q5 -5 5 -14t-5 -14l-70 -70q20 -27 32 -60t12 -69q0 -38 -12 -71t-33 -61l71 -71q5 -5 5 -14t-5 -14l-14 -14q-14 -12 -28 0l-72 71q-26 -20 -55.5 -31t-62.5 -11q-34 0 -63.5 11.5t-55.5 31.5l-73 -72q-6 -6 -14 -6t-14 6l-14 14q-5 5 -5 14t5 14l72 73
q-21 27 -32.5 60t-11.5 70q0 36 11 68.5t31 59.5l-70 71q-5 5 -5 14t5 14l14 14q14 12 28 0l70 -71q26 21 56.5 33.5t65.5 12.5q34 0 64 -12t56 -32l70 69q14 14 28 0zM122 308q0 -33 11.5 -61.5t31.5 -49.5t47 -33.5t57 -12.5t57 12.5t47 33.5t31.5 49.5t11.5 61.5
t-11.5 61.5t-31.5 49.5t-47 33.5t-57 12.5t-57 -12.5t-47 -33.5t-31.5 -49.5t-11.5 -61.5z" />
    <glyph glyph-name="yen" unicode="&#xa5;" 
d="M66 672q-5 11 0.5 19.5t15.5 8.5h32q14 0 19 -15l139 -357q4 -10 8 0l137 357q5 15 19 15h32q10 0 15.5 -8.5t0.5 -19.5l-105 -259q-2 -5 0 -8.5t7 -3.5h54q8 0 14 -6t6 -14v-16q0 -8 -6 -14t-14 -6h-82q-7 0 -9 -5l-12 -30q-2 -5 0 -8.5t7 -3.5h96q8 0 14 -6t6 -14v-16
q0 -8 -6 -14t-14 -6h-121q-10 0 -10 -10v-212q0 -8 -6 -14t-14 -6h-26q-8 0 -14 6t-6 14v212q0 10 -10 10h-123q-8 0 -14 6t-6 14v16q0 8 6 14t14 6h97q5 0 7 3.5t0 8.5l-12 30q-2 5 -9 5h-83q-8 0 -14 6t-6 14v16q0 8 6 14t14 6h55q5 0 7 3.5t0 8.5z" />
    <glyph glyph-name="brokenbar" unicode="&#xa6;" 
d="M306 420q0 -8 -6 -14t-14 -6h-22q-8 0 -14 6t-6 14v267q0 8 6 14t14 6h22q8 0 14 -6t6 -14v-267zM306 20q0 -8 -6 -14t-14 -6h-22q-8 0 -14 6t-6 14v267q0 8 6 14t14 6h22q8 0 14 -6t6 -14v-267z" />
    <glyph glyph-name="section" unicode="&#xa7;" 
d="M335 79q8 -6 17.5 -6t17.5 6q20 17 33.5 45.5t13.5 52.5q0 16 -9.5 39t-32.5 45l-151 136q-8 8 -18 7.5t-18 -7.5q-19 -17 -37.5 -42t-18.5 -51q0 -17 9 -38t29 -39zM415 310q30 -27 47 -60.5t17 -71.5t-20 -75t-49 -59q-9 -8 -10 -17.5t7 -20.5q14 -18 19.5 -37t5.5 -39
q0 -37 -13.5 -65.5t-36.5 -48t-53 -29.5t-63 -10q-36 0 -66 10t-52 30t-34.5 50.5t-12.5 71.5v41q0 8 6 14t14 6h21q8 0 14 -6t6 -14v-41q0 -46 27.5 -75t76.5 -29q20 0 38 5t31.5 16t21 29.5t7.5 44.5t-15.5 45.5t-33.5 35.5q-48 40 -93 80.5t-92 83.5q-32 29 -45.5 58.5
t-13.5 73.5q0 36 19.5 68.5t51.5 55.5q23 17 4 39q-17 20 -23 41.5t-6 45.5q0 38 13.5 67t36.5 48.5t53 29.5t63 10q36 0 65.5 -11.5t50.5 -32.5t33 -51t12 -67v-30q0 -8 -6 -14t-14 -6h-21q-8 0 -14 6t-6 14v30q0 19 -6 37.5t-18.5 33t-31.5 23.5t-44 9q-27 0 -46 -7.5
t-30.5 -20.5t-17 -30t-5.5 -36q0 -25 12.5 -45t31.5 -37z" />
    <glyph glyph-name="dieresis" unicode="&#xa8;" 
d="M231 638q0 -16 -16 -16h-52q-16 0 -16 16v53q0 6 4.5 11t11.5 5h52q7 0 11.5 -5t4.5 -11v-53zM402 638q0 -16 -16 -16h-52q-16 0 -16 16v53q0 6 4.5 11t11.5 5h52q7 0 11.5 -5t4.5 -11v-53z" />
    <glyph glyph-name="copyright" unicode="&#xa9;" 
d="M18 350q0 53 20 100t55 81.5t82 54.5t100 20t100 -20t81.5 -54.5t54.5 -81.5t20 -100t-20 -100t-54.5 -82t-81.5 -55t-100 -20t-100 20t-82 55t-55 82t-20 100zM69 350q0 -43 16 -80.5t44 -65.5t65.5 -44t80.5 -16q42 0 79.5 16t65.5 44t44 65.5t16 80.5q0 42 -16 79.5
t-44 65.5t-65.5 44t-79.5 16q-43 0 -80.5 -16t-65.5 -44t-44 -65.5t-16 -79.5zM368 305q0 -43 -27 -71.5t-71 -28.5q-49 0 -73.5 32t-28.5 79q-2 17 -2 31t2 31q3 46 29 78.5t73 32.5q44 0 71 -28.5t27 -71.5q0 -11 -9 -11h-30q-4 0 -7.5 1.5t-3.5 6.5q0 26 -14 41.5
t-34 15.5q-24 0 -38 -18.5t-16 -46.5q-2 -19 -2 -31t2 -31q2 -28 16 -46.5t38 -18.5q20 0 33.5 14t13.5 42q0 5 3.5 7t8.5 2h27q5 0 8.5 -3t3.5 -8z" />
    <glyph glyph-name="ordfeminine" unicode="&#xaa;" 
d="M220 565q-19 0 -28.5 -10.5t-9.5 -26.5q0 -37 44 -37q39 0 53 15.5t14 41.5v12q0 5 -5 5h-68zM241 665q-20 0 -34.5 -7.5t-14.5 -21.5q0 -6 -4 -7t-7 -1h-22q-10 0 -10 10q0 17 8.5 30t21.5 22t29.5 13.5t32.5 4.5q37 0 66 -23.5t29 -66.5v-155q0 -10 -10 -10h-15
q-4 0 -7 3q-2 3 -4 7t-6 4q-7 0 -22.5 -9.5t-43.5 -9.5q-46 0 -68.5 24t-22.5 56q0 31 21.5 55.5t61.5 24.5h66q5 0 5 5v12q0 16 -13 28t-37 12z" />
    <glyph glyph-name="guillemotleft" unicode="&#xab;" 
d="M212 435q2 4 8 9.5t17 5.5h19q14 0 20 -9t-4 -24l-85 -145q-8 -11 0 -24l85 -145q10 -15 4 -24t-20 -9h-19q-11 0 -17 5.5t-8 9.5l-96 161q-5 8 -5 14t5 14zM374 435q2 4 8 9.5t17 5.5h19q14 0 20 -9t-4 -24l-85 -145q-8 -11 0 -24l85 -145q10 -15 4 -24t-20 -9h-19
q-11 0 -17 5.5t-8 9.5l-96 161q-5 8 -5 14t5 14z" />
    <glyph glyph-name="logicalnot" unicode="&#xac;" 
d="M430 230q0 10 -10 10h-340q-8 0 -14 6t-6 14v20q0 8 6 14t14 6h390q8 0 14 -6t6 -14v-170q0 -8 -6 -14t-14 -6h-20q-8 0 -14 6t-6 14v120z" />
    <glyph glyph-name="registered" unicode="&#xae;" 
d="M18 350q0 53 20 100t55 81.5t82 54.5t100 20t100 -20t81.5 -54.5t54.5 -81.5t20 -100t-20 -100t-54.5 -82t-81.5 -55t-100 -20t-100 20t-82 55t-55 82t-20 100zM69 350q0 -43 16 -80.5t44 -65.5t65.5 -44t80.5 -16q42 0 79.5 16t65.5 44t44 65.5t16 80.5q0 42 -16 79.5
t-44 65.5t-65.5 44t-79.5 16q-43 0 -80.5 -16t-65.5 -44t-44 -65.5t-16 -79.5zM234 442q-2 0 -4 -1.5t-2 -4.5v-71q0 -2 2 -3t4 -1h60q20 0 32 13t12 28q0 14 -10.5 27t-33.5 13h-60zM341 331q-8 -5 -11 -6.5t1 -9.5l43 -83q4 -6 1.5 -11t-10.5 -5h-22q-7 0 -10 3t-6 8
l-41 83q-2 7 -9 7h-43q-2 0 -4 -1.5t-2 -3.5v-85q0 -11 -10 -11h-25q-3 0 -6 3t-3 8v247q0 5 3 8t6 3h103q18 0 33.5 -7t27.5 -18.5t18.5 -26t6.5 -30.5q0 -27 -11.5 -44t-29.5 -28z" />
    <glyph glyph-name="macron" unicode="&#xaf;" 
d="M170 634q-8 0 -14 6t-6 14v20q0 8 6 14t14 6h242q8 0 14 -6t6 -14v-20q0 -8 -6 -14t-14 -6h-242z" />
    <glyph glyph-name="degree" unicode="&#xb0;" 
d="M126 585q0 31 11.5 58t32 47t47.5 31.5t58 11.5t58 -11.5t47 -31.5t31.5 -47t11.5 -58t-11.5 -58t-31.5 -47.5t-47 -32t-58 -11.5t-58 11.5t-47.5 32t-32 47.5t-11.5 58zM182 585q0 -18 7.5 -35t20.5 -30t30 -20.5t35 -7.5t35 7.5t30 20.5t20.5 30t7.5 35t-7.5 35
t-20.5 30t-30 20.5t-35 7.5t-35 -7.5t-30 -20.5t-20.5 -30t-7.5 -35z" />
    <glyph glyph-name="plusminus" unicode="&#xb1;" 
d="M234 449q10 0 10 10v159q0 8 6 14t14 6h22q8 0 14 -6t6 -14v-159q0 -10 10 -10h159q8 0 14 -6t6 -14v-21q0 -8 -6 -14t-14 -6h-159q-10 0 -10 -10v-160q0 -8 -6 -14t-14 -6h-22q-8 0 -14 6t-6 14v160q0 10 -10 10h-159q-8 0 -14 6t-6 14v21q0 8 6 14t14 6h159zM472 70
q8 0 14 -6t6 -14v-30q0 -8 -6 -14t-14 -6h-394q-8 0 -14 6t-6 14v30q0 8 6 14t14 6h394z" />
    <glyph glyph-name="twosuperior" unicode="&#xb2;" 
d="M309 605q0 17 -10 26t-26 9q-17 0 -26 -9.5t-9 -25.5v-8q0 -10 -10 -10h-40q-10 0 -10 10v8q0 40 27.5 67.5t67.5 27.5q22 0 39.5 -8t29.5 -21t18.5 -30.5t6.5 -35.5q0 -58 -39 -105l-74 -88q-2 -2 -1 -5t5 -3h107q4 0 7 -1.5t3 -8.5v-38q0 -10 -10 -10h-181
q-10 0 -10 10v46q0 6 1 8.5t3 4.5l99 115q16 18 24 36t8 39z" />
    <glyph glyph-name="threesuperior" unicode="&#xb3;" 
d="M319 450q0 16 -9.5 32t-34.5 16h-8q-10 0 -10 10v41q0 10 10 10h8q22 0 29 13.5t7 27.5q0 21 -12 29.5t-25 8.5t-24.5 -9t-11.5 -24v-8q0 -10 -10 -10h-42q-10 0 -10 10v8q0 40 28 67.5t70 27.5q20 0 38.5 -7.5t32 -20t21.5 -30t8 -37.5q0 -21 -7.5 -39t-21.5 -30
q-7 -7 -1 -12q17 -14 27 -34.5t10 -44.5q0 -43 -28.5 -73t-78.5 -30q-22 0 -41.5 8t-33.5 22t-22.5 33t-8.5 40v4q0 10 10 10h43q10 0 10 -10v-4q0 -16 11.5 -28t31.5 -12q25 0 35 14.5t10 30.5z" />
    <glyph glyph-name="acute" unicode="&#xb4;" 
d="M349 730q10 0 13 -8t-2 -13l-108 -112q-5 -5 -10.5 -8.5t-19.5 -3.5h-19q-10 0 -14 7.5t0 12.5l76 109q4 5 9.5 10.5t16.5 5.5h58z" />
    <glyph glyph-name="uni00B5" unicode="&#xb5;" 
d="M89 480q0 8 6 14t14 6h19q8 0 14 -6t6 -14v-316q0 -63 36.5 -89t90.5 -26q27 0 50 8.5t40.5 23.5t27 35t9.5 43v321q0 8 6 14t14 6h19q8 0 14 -6t6 -14v-460q0 -8 -6 -14t-14 -6h-16q-7 0 -14 7q-5 5 -10 10.5t-14 5.5q-11 0 -20.5 -5t-22 -11.5t-30.5 -11.5t-46 -5
q-17 0 -32 4t-27 8.5t-22 8.5t-17 4q-11 0 -16.5 -7t-5.5 -14v-174q0 -8 -6 -14t-14 -6h-19q-8 0 -14 6t-6 14v660z" />
    <glyph glyph-name="paragraph" unicode="&#xb6;" 
d="M241 360q-33 0 -62 14t-51 37t-34.5 54t-12.5 65q0 35 13.5 66t36.5 54t54 36.5t66 13.5h198q8 0 14 -6t6 -14v-760q0 -8 -6 -14t-14 -6h-14q-8 0 -14 6t-6 14v721q0 10 -10 10h-90q-10 0 -10 -10v-721q0 -8 -6 -14t-14 -6h-14q-8 0 -14 6t-6 14v430q0 10 -10 10z" />
    <glyph glyph-name="periodcentered" unicode="&#xb7;" 
d="M345 215q0 -8 -6 -14t-14 -6h-100q-8 0 -14 6t-6 14v100q0 8 6 14t14 6h100q8 0 14 -6t6 -14v-100z" />
    <glyph glyph-name="cedilla" unicode="&#xb8;" 
d="M297 -184q-4 -16 -19 -16h-37q-10 0 -14 5.5t-2 12.5l38 121q4 16 19 16h27q10 0 14 -5.5t2 -12.5z" />
    <glyph glyph-name="onesuperior" unicode="&#xb9;" 
d="M250 598q0 2 -1.5 2.5t-2.5 -0.5l-73 -71q-2 -2 -6 -2.5t-4 5.5v56q0 6 3.5 12t6.5 9l74 82q3 5 10 5h46q10 0 10 -10v-277q0 -5 5 -5h59q10 0 10 -10v-38q0 -10 -10 -10h-204q-10 0 -10 10v38q0 10 10 10h72q5 0 5 5v189z" />
    <glyph glyph-name="ordmasculine" unicode="&#xba;" 
d="M235 661q-26 0 -40.5 -11.5t-19.5 -29.5q-6 -20 -6.5 -39t4.5 -41q4 -20 20.5 -33t41.5 -13t41.5 13t20.5 33q5 22 4.5 41t-6.5 39q-5 18 -19.5 29.5t-40.5 11.5zM235 708q18 0 35.5 -5t32.5 -16t26 -27.5t16 -39.5q5 -20 5 -41t-4 -39q-10 -46 -42.5 -69t-68.5 -23
t-68.5 23t-42.5 69q-4 18 -4 39t5 41q5 23 16 39.5t26 27.5t32.5 16t35.5 5z" />
    <glyph glyph-name="guillemotright" unicode="&#xbb;" 
d="M435 274q5 -8 5 -14t-5 -14l-96 -161q-2 -4 -8 -9.5t-17 -5.5h-19q-14 0 -19.5 8.5t3.5 24.5l85 145q8 13 0 24l-85 145q-9 16 -3.5 24.5t19.5 8.5h19q11 0 17 -5.5t8 -9.5zM273 274q5 -8 5 -14t-5 -14l-96 -161q-2 -4 -8 -9.5t-17 -5.5h-19q-14 0 -19.5 8.5t3.5 24.5
l85 145q8 13 0 24l-85 145q-9 16 -3.5 24.5t19.5 8.5h19q11 0 17 -5.5t8 -9.5z" />
    <glyph glyph-name="onequarter" unicode="&#xbc;" 
d="M112 15q-9 -15 -21 -15h-15q-10 0 -16 8.5t0 19.5l387 657q9 15 22 15h13q10 0 16 -9t0 -19zM135 602q0 2 -1.5 2.5t-2.5 -0.5l-73 -71q-2 -2 -6 -2.5t-4 4.5v57q0 6 3.5 12t6.5 9l74 82q3 5 10 5h46q10 0 10 -10v-329q0 -10 -10 -10h-45q-8 0 -8 10v241zM493 115
q10 0 10 -10v-35q0 -10 -10 -10h-20q-5 0 -5 -5v-45q0 -10 -10 -10h-37q-10 0 -10 10v45q0 5 -5 5h-130q-10 0 -10 10v37q0 3 2.5 6t5.5 8l132 222q4 7 10 7h42q10 0 10 -10v-220q0 -5 5 -5h20zM337 119q-2 -4 2 -4h67q5 0 5 5v120q0 2 -2 2.5t-3 -1.5z" />
    <glyph glyph-name="onehalf" unicode="&#xbd;" 
d="M107 15q-9 -15 -21 -15h-15q-10 0 -16 8.5t0 19.5l387 657q9 15 22 15h13q10 0 16 -9t0 -19zM130 602q0 2 -1.5 2.5t-2.5 -0.5l-73 -71q-2 -2 -6 -2.5t-4 4.5v57q0 6 3.5 12t6.5 9l74 82q3 5 10 5h46q10 0 10 -10v-329q0 -10 -10 -10h-45q-8 0 -8 10v241zM457 259
q0 17 -10 26t-26 9q-17 0 -26 -9.5t-9 -25.5v-8q0 -10 -10 -10h-40q-10 0 -10 10v8q0 40 27.5 67.5t67.5 27.5q22 0 39.5 -8t29.5 -21t18.5 -30.5t6.5 -35.5q0 -58 -39 -105l-74 -88q-2 -2 -1 -5t5 -3h107q4 0 7 -1.5t3 -8.5v-38q0 -10 -10 -10h-181q-10 0 -10 10v46
q0 6 1 8.5t3 4.5l99 115q16 18 24 36t8 39z" />
    <glyph glyph-name="threequarters" unicode="&#xbe;" 
d="M117 15q-9 -15 -21 -15h-15q-10 0 -16 8.5t0 19.5l387 657q9 15 22 15h13q10 0 16 -9t0 -19zM493 115q10 0 10 -10v-35q0 -10 -10 -10h-20q-5 0 -5 -5v-45q0 -10 -10 -10h-37q-10 0 -10 10v45q0 5 -5 5h-130q-10 0 -10 10v37q0 3 2.5 6t5.5 8l132 222q4 7 10 7h42
q10 0 10 -10v-220q0 -5 5 -5h20zM337 119q-2 -4 2 -4h67q5 0 5 5v120q0 2 -2 2.5t-3 -1.5zM184 456q0 16 -9.5 32t-34.5 16h-8q-10 0 -10 10v41q0 10 10 10h8q22 0 29 13.5t7 27.5q0 21 -12 29.5t-25 8.5t-24.5 -9t-11.5 -24v-8q0 -10 -10 -10h-42q-10 0 -10 10v8
q0 40 28 67.5t70 27.5q20 0 38.5 -7.5t32 -20t21.5 -30t8 -37.5q0 -21 -7.5 -39t-21.5 -30q-7 -7 -1 -12q17 -14 27 -34.5t10 -44.5q0 -43 -28.5 -73t-78.5 -30q-22 0 -41.5 8t-33.5 22t-22.5 33t-8.5 40v4q0 10 10 10h43q10 0 10 -10v-4q0 -16 11.5 -28t31.5 -12
q25 0 35 14.5t10 30.5z" />
    <glyph glyph-name="questiondown" unicode="&#xbf;" 
d="M155 -27q0 -51 32.5 -82t89.5 -31q25 0 47 10.5t38 28.5t25 42t9 52v7q0 8 6 14t14 6h20q8 0 14 -6t6 -14v-7q0 -40 -13.5 -75t-37.5 -61.5t-57 -41.5t-71 -15q-40 0 -73.5 12.5t-58 35t-38 54.5t-13.5 71q0 27 7.5 48.5t19 39t25.5 32t27 28.5q7 7 21 19.5t28 27
t24.5 30.5t10.5 31v71q0 8 6 14t14 6h20q8 0 14 -6t6 -14q0 -36 -1.5 -59.5t-3.5 -38t-5.5 -22t-7.5 -12.5q-26 -30 -45.5 -46.5t-34.5 -31.5q-8 -8 -18.5 -18t-21 -24.5t-17.5 -32.5t-7 -42zM238 494q0 16 16 16h62q16 0 16 -16v-63q0 -6 -4.5 -11t-11.5 -5h-62
q-7 0 -11.5 5t-4.5 11v63z" />
    <glyph glyph-name="Agrave" unicode="&#xc0;" 
d="M104 15q-3 -15 -19 -15h-25q-12 0 -17 6.5t-3 13.5l191 665q3 15 19 15h50q16 0 19 -15l191 -665q2 -7 -3 -13.5t-17 -6.5h-25q-16 0 -19 15l-49 169q-5 14 -19 14h-206q-14 0 -19 -14zM179 271q-3 -11 8 -11h176q11 0 8 11l-91 340q-2 6 -4 6h-2q-3 0 -4 -6zM209 895
q11 0 16.5 -5.5t9.5 -10.5l76 -109q4 -5 0 -12.5t-14 -7.5h-19q-14 0 -19.5 3.5t-10.5 8.5l-108 112q-5 5 -2 13t13 8h58z" />
    <glyph glyph-name="Aacute" unicode="&#xc1;" 
d="M104 15q-3 -15 -19 -15h-25q-12 0 -17 6.5t-3 13.5l191 665q3 15 19 15h50q16 0 19 -15l191 -665q2 -7 -3 -13.5t-17 -6.5h-25q-16 0 -19 15l-49 169q-5 14 -19 14h-206q-14 0 -19 -14zM179 271q-3 -11 8 -11h176q11 0 8 11l-91 340q-2 6 -4 6h-2q-3 0 -4 -6zM389 895
q10 0 13 -8t-2 -13l-108 -112q-5 -5 -10.5 -8.5t-19.5 -3.5h-19q-10 0 -14 7.5t0 12.5l76 109q4 5 9.5 10.5t16.5 5.5h58z" />
    <glyph glyph-name="Acircumflex" unicode="&#xc2;" 
d="M104 15q-3 -15 -19 -15h-25q-12 0 -17 6.5t-3 13.5l191 665q3 15 19 15h50q16 0 19 -15l191 -665q2 -7 -3 -13.5t-17 -6.5h-25q-16 0 -19 15l-49 169q-5 14 -19 14h-206q-14 0 -19 -14zM179 271q-3 -11 8 -11h176q11 0 8 11l-91 340q-2 6 -4 6h-2q-3 0 -4 -6zM202 767
q-5 -5 -12.5 -10.5t-18.5 -5.5h-43q-10 0 -13 8t2 13l118 112q5 5 10.5 8.5t19.5 3.5h22q13 0 18.5 -3.5t10.5 -8.5l118 -112q5 -5 2 -13t-13 -8h-43q-11 0 -18.5 5.5t-12.5 10.5l-67 65q-7 7 -14 0z" />
    <glyph glyph-name="Atilde" unicode="&#xc3;" 
d="M104 15q-3 -15 -19 -15h-25q-12 0 -17 6.5t-3 13.5l191 665q3 15 19 15h50q16 0 19 -15l191 -665q2 -7 -3 -13.5t-17 -6.5h-25q-16 0 -19 15l-49 169q-5 14 -19 14h-206q-14 0 -19 -14zM179 271q-3 -11 8 -11h176q11 0 8 11l-91 340q-2 6 -4 6h-2q-3 0 -4 -6zM345 832
q19 0 29.5 6.5t16.5 14.5t15.5 4t9.5 -18v-24q0 -20 -20.5 -35.5t-50.5 -15.5q-24 0 -39.5 4t-29 8.5t-30 8.5t-41.5 4q-17 0 -27.5 -5.5t-18.5 -15.5q-6 -7 -15.5 -3.5t-9.5 17.5v24q0 20 20.5 35.5t50.5 15.5q24 0 39.5 -4t29 -8.5t29.5 -8.5t42 -4z" />
    <glyph glyph-name="Adieresis" unicode="&#xc4;" 
d="M104 15q-3 -15 -19 -15h-25q-12 0 -17 6.5t-3 13.5l191 665q3 15 19 15h50q16 0 19 -15l191 -665q2 -7 -3 -13.5t-17 -6.5h-25q-16 0 -19 15l-49 169q-5 14 -19 14h-206q-14 0 -19 -14zM179 271q-3 -11 8 -11h176q11 0 8 11l-91 340q-2 6 -4 6h-2q-3 0 -4 -6zM231 778
q0 -16 -16 -16h-52q-16 0 -16 16v53q0 6 4.5 11t11.5 5h52q7 0 11.5 -5t4.5 -11v-53zM402 778q0 -16 -16 -16h-52q-16 0 -16 16v53q0 6 4.5 11t11.5 5h52q7 0 11.5 -5t4.5 -11v-53z" />
    <glyph glyph-name="Aring" unicode="&#xc5;" 
d="M104 15q-3 -15 -19 -15h-25q-12 0 -17 6.5t-3 13.5l191 665q3 15 19 15h50q16 0 19 -15l191 -665q2 -7 -3 -13.5t-17 -6.5h-25q-16 0 -19 15l-49 169q-5 14 -19 14h-206q-14 0 -19 -14zM179 271q-3 -11 8 -11h176q11 0 8 11l-91 340q-2 6 -4 6h-2q-3 0 -4 -6zM165 840
q0 23 8.5 43t23.5 35t35 23.5t43 8.5t43 -8.5t35 -23.5t23.5 -35t8.5 -43t-8.5 -43t-23.5 -35t-35 -23.5t-43 -8.5t-43 8.5t-35 23.5t-23.5 35t-8.5 43zM219 840q0 -23 16.5 -39.5t39.5 -16.5q24 0 39.5 16.5t15.5 39.5q0 24 -15.5 39.5t-39.5 15.5q-23 0 -39.5 -15.5
t-16.5 -39.5z" />
    <glyph glyph-name="AE" unicode="&#xc6;" 
d="M295 188q0 10 -10 10h-128q-14 0 -19 -14l-49 -169q-3 -15 -19 -15h-25q-12 0 -17 6.5t-3 13.5l191 665q3 15 19 15h278q8 0 14 -6t6 -14v-24q0 -8 -6 -14t-14 -6h-144q-10 0 -10 -10v-227q0 -10 10 -10h133q8 0 14 -6t6 -14v-23q0 -8 -6 -14t-14 -6h-133q-10 0 -10 -10
v-242q0 -10 10 -10h146q8 0 14 -6t6 -14v-24q0 -8 -6 -14t-14 -6h-200q-8 0 -14 6t-6 14v168zM285 260q10 0 10 10v337q0 10 -10 10h-21q-5 0 -7 -3.5t-3 -6.5l-90 -336q-3 -11 8 -11h113z" />
    <glyph glyph-name="Ccedilla" unicode="&#xc7;" 
d="M435 204q0 8 6 14t14 6h27q8 0 14 -6t6 -14v-4q0 -49 -18 -87.5t-48.5 -65.5t-71 -41t-85.5 -14q-91 0 -150.5 55.5t-72.5 152.5q-4 30 -6 69.5t-2 81t2 80.5t6 69q6 41 23 78.5t45 66.5t66.5 46t88.5 17q49 0 90.5 -17t70.5 -45.5t45.5 -66.5t16.5 -79v-4q0 -8 -6 -14
t-14 -6h-27q-8 0 -14 6t-6 14v4q0 28 -11 54t-31.5 46t-49 32t-64.5 12t-63 -12t-46.5 -32.5t-31 -46.5t-15.5 -53q-5 -31 -7 -70t-2 -80t2 -80t7 -70q3 -22 12.5 -47t28 -46.5t46.5 -36t69 -14.5q40 0 69.5 14t49 35.5t28.5 47t9 47.5v4zM287 -184q-4 -16 -19 -16h-37
q-10 0 -14 5.5t-2 12.5l38 121q4 16 19 16h27q10 0 14 -5.5t2 -12.5z" />
    <glyph glyph-name="Egrave" unicode="&#xc8;" 
d="M161 399q0 -10 10 -10h268q8 0 14 -6t6 -14v-23q0 -8 -6 -14t-14 -6h-268q-10 0 -10 -10v-242q0 -10 10 -10h281q8 0 14 -6t6 -14v-24q0 -8 -6 -14t-14 -6h-335q-8 0 -14 6t-6 14v660q0 8 6 14t14 6h333q8 0 14 -6t6 -14v-24q0 -8 -6 -14t-14 -6h-279q-10 0 -10 -10v-227
zM219 895q11 0 16.5 -5.5t9.5 -10.5l76 -109q4 -5 0 -12.5t-14 -7.5h-19q-14 0 -19.5 3.5t-10.5 8.5l-108 112q-5 5 -2 13t13 8h58z" />
    <glyph glyph-name="Eacute" unicode="&#xc9;" 
d="M161 399q0 -10 10 -10h268q8 0 14 -6t6 -14v-23q0 -8 -6 -14t-14 -6h-268q-10 0 -10 -10v-242q0 -10 10 -10h281q8 0 14 -6t6 -14v-24q0 -8 -6 -14t-14 -6h-335q-8 0 -14 6t-6 14v660q0 8 6 14t14 6h333q8 0 14 -6t6 -14v-24q0 -8 -6 -14t-14 -6h-279q-10 0 -10 -10v-227
zM389 895q10 0 13 -8t-2 -13l-108 -112q-5 -5 -10.5 -8.5t-19.5 -3.5h-19q-10 0 -14 7.5t0 12.5l76 109q4 5 9.5 10.5t16.5 5.5h58z" />
    <glyph glyph-name="Ecircumflex" unicode="&#xca;" 
d="M161 399q0 -10 10 -10h268q8 0 14 -6t6 -14v-23q0 -8 -6 -14t-14 -6h-268q-10 0 -10 -10v-242q0 -10 10 -10h281q8 0 14 -6t6 -14v-24q0 -8 -6 -14t-14 -6h-335q-8 0 -14 6t-6 14v660q0 8 6 14t14 6h333q8 0 14 -6t6 -14v-24q0 -8 -6 -14t-14 -6h-279q-10 0 -10 -10v-227
zM212 767q-5 -5 -12.5 -10.5t-18.5 -5.5h-43q-10 0 -13 8t2 13l118 112q5 5 10.5 8.5t19.5 3.5h22q13 0 18.5 -3.5t10.5 -8.5l118 -112q5 -5 2 -13t-13 -8h-43q-11 0 -18.5 5.5t-12.5 10.5l-67 65q-7 7 -14 0z" />
    <glyph glyph-name="Edieresis" unicode="&#xcb;" 
d="M161 399q0 -10 10 -10h268q8 0 14 -6t6 -14v-23q0 -8 -6 -14t-14 -6h-268q-10 0 -10 -10v-242q0 -10 10 -10h281q8 0 14 -6t6 -14v-24q0 -8 -6 -14t-14 -6h-335q-8 0 -14 6t-6 14v660q0 8 6 14t14 6h333q8 0 14 -6t6 -14v-24q0 -8 -6 -14t-14 -6h-279q-10 0 -10 -10v-227
zM241 778q0 -16 -16 -16h-52q-16 0 -16 16v53q0 6 4.5 11t11.5 5h52q7 0 11.5 -5t4.5 -11v-53zM412 778q0 -16 -16 -16h-52q-16 0 -16 16v53q0 6 4.5 11t11.5 5h52q7 0 11.5 -5t4.5 -11v-53z" />
    <glyph glyph-name="Igrave" unicode="&#xcc;" 
d="M242 630q0 10 -10 10h-125q-8 0 -14 6t-6 14v20q0 8 6 14t14 6h335q8 0 14 -6t6 -14v-20q0 -8 -6 -14t-14 -6h-125q-10 0 -10 -10v-559q0 -10 10 -10h135q8 0 14 -6t6 -14v-21q0 -8 -6 -14t-14 -6h-355q-8 0 -14 6t-6 14v21q0 8 6 14t14 6h135q10 0 10 10v559zM219 895
q11 0 16.5 -5.5t9.5 -10.5l76 -109q4 -5 0 -12.5t-14 -7.5h-19q-14 0 -19.5 3.5t-10.5 8.5l-108 112q-5 5 -2 13t13 8h58z" />
    <glyph glyph-name="Iacute" unicode="&#xcd;" 
d="M242 630q0 10 -10 10h-125q-8 0 -14 6t-6 14v20q0 8 6 14t14 6h335q8 0 14 -6t6 -14v-20q0 -8 -6 -14t-14 -6h-125q-10 0 -10 -10v-559q0 -10 10 -10h135q8 0 14 -6t6 -14v-21q0 -8 -6 -14t-14 -6h-355q-8 0 -14 6t-6 14v21q0 8 6 14t14 6h135q10 0 10 10v559zM389 895
q10 0 13 -8t-2 -13l-108 -112q-5 -5 -10.5 -8.5t-19.5 -3.5h-19q-10 0 -14 7.5t0 12.5l76 109q4 5 9.5 10.5t16.5 5.5h58z" />
    <glyph glyph-name="Icircumflex" unicode="&#xce;" 
d="M242 630q0 10 -10 10h-125q-8 0 -14 6t-6 14v20q0 8 6 14t14 6h335q8 0 14 -6t6 -14v-20q0 -8 -6 -14t-14 -6h-125q-10 0 -10 -10v-559q0 -10 10 -10h135q8 0 14 -6t6 -14v-21q0 -8 -6 -14t-14 -6h-355q-8 0 -14 6t-6 14v21q0 8 6 14t14 6h135q10 0 10 10v559zM202 767
q-5 -5 -12.5 -10.5t-18.5 -5.5h-43q-10 0 -13 8t2 13l118 112q5 5 10.5 8.5t19.5 3.5h22q13 0 18.5 -3.5t10.5 -8.5l118 -112q5 -5 2 -13t-13 -8h-43q-11 0 -18.5 5.5t-12.5 10.5l-67 65q-7 7 -14 0z" />
    <glyph glyph-name="Idieresis" unicode="&#xcf;" 
d="M242 630q0 10 -10 10h-125q-8 0 -14 6t-6 14v20q0 8 6 14t14 6h335q8 0 14 -6t6 -14v-20q0 -8 -6 -14t-14 -6h-125q-10 0 -10 -10v-559q0 -10 10 -10h135q8 0 14 -6t6 -14v-21q0 -8 -6 -14t-14 -6h-355q-8 0 -14 6t-6 14v21q0 8 6 14t14 6h135q10 0 10 10v559zM231 778
q0 -16 -16 -16h-52q-16 0 -16 16v53q0 6 4.5 11t11.5 5h52q7 0 11.5 -5t4.5 -11v-53zM402 778q0 -16 -16 -16h-52q-16 0 -16 16v53q0 6 4.5 11t11.5 5h52q7 0 11.5 -5t4.5 -11v-53z" />
    <glyph glyph-name="Eth" unicode="&#xd0;" 
d="M69 680q0 8 6 14t14 6h180q49 0 88 -16t67 -43t45 -63.5t23 -77.5q4 -30 6 -69t2 -80.5t-2 -81t-6 -69.5q-13 -97 -72.5 -148.5t-150.5 -51.5h-180q-8 0 -14 6t-6 14v296q0 10 -10 10h-22q-8 0 -14 6t-6 14v23q0 8 6 14t14 6h22q10 0 10 10v281zM133 74q0 -10 10 -10h126
q40 0 68.5 13t47 33t28 44t12.5 46q4 31 6.5 70t2.5 80t-2.5 80t-6.5 70q-4 27 -15.5 52t-31 43.5t-46.5 29.5t-63 11h-126q-10 0 -10 -10v-227q0 -10 10 -10h100q8 0 14 -6t6 -14v-23q0 -8 -6 -14t-14 -6h-100q-10 0 -10 -10v-242z" />
    <glyph glyph-name="Ntilde" unicode="&#xd1;" 
d="M475 20q0 -8 -6 -14t-14 -6h-52q-8 0 -12 3t-9 14l-239 574q-2 3 -5 2.5t-3 -4.5v-569q0 -8 -6 -14t-14 -6h-20q-8 0 -14 6t-6 14v660q0 8 6 14t14 6h52q8 0 12 -3t9 -14l239 -569q2 -3 5 -2.5t3 4.5v564q0 8 6 14t14 6h20q8 0 14 -6t6 -14v-660zM345 832q19 0 29.5 6.5
t16.5 14.5t15.5 4t9.5 -18v-24q0 -20 -20.5 -35.5t-50.5 -15.5q-24 0 -39.5 4t-29 8.5t-30 8.5t-41.5 4q-17 0 -27.5 -5.5t-18.5 -15.5q-6 -7 -15.5 -3.5t-9.5 17.5v24q0 20 20.5 35.5t50.5 15.5q24 0 39.5 -4t29 -8.5t29.5 -8.5t42 -4z" />
    <glyph glyph-name="Ograve" unicode="&#xd2;" 
d="M275 644q-36 0 -63 -12t-46.5 -32.5t-31 -46.5t-15.5 -53q-5 -31 -7 -70t-2 -80t2 -80t7 -70q3 -22 12.5 -47t28 -46.5t46.5 -36t69 -14.5q40 0 68.5 14.5t47 36t28 46.5t12.5 47q4 31 6.5 70t2.5 80t-2.5 80t-6.5 70q-4 27 -15.5 53t-31 46.5t-46.5 32.5t-63 12z
M275 708q49 0 88 -17t67 -46t45 -66.5t23 -78.5q4 -30 6 -69t2 -80.5t-2 -81t-6 -69.5q-13 -97 -72.5 -152.5t-150.5 -55.5t-150.5 55.5t-72.5 152.5q-4 30 -6 69.5t-2 81t2 80.5t6 69q6 41 23 78.5t45 66.5t66.5 46t88.5 17zM219 895q11 0 16.5 -5.5t9.5 -10.5l76 -109
q4 -5 0 -12.5t-14 -7.5h-19q-14 0 -19.5 3.5t-10.5 8.5l-108 112q-5 5 -2 13t13 8h58z" />
    <glyph glyph-name="Oacute" unicode="&#xd3;" 
d="M275 644q-36 0 -63 -12t-46.5 -32.5t-31 -46.5t-15.5 -53q-5 -31 -7 -70t-2 -80t2 -80t7 -70q3 -22 12.5 -47t28 -46.5t46.5 -36t69 -14.5q40 0 68.5 14.5t47 36t28 46.5t12.5 47q4 31 6.5 70t2.5 80t-2.5 80t-6.5 70q-4 27 -15.5 53t-31 46.5t-46.5 32.5t-63 12z
M275 708q49 0 88 -17t67 -46t45 -66.5t23 -78.5q4 -30 6 -69t2 -80.5t-2 -81t-6 -69.5q-13 -97 -72.5 -152.5t-150.5 -55.5t-150.5 55.5t-72.5 152.5q-4 30 -6 69.5t-2 81t2 80.5t6 69q6 41 23 78.5t45 66.5t66.5 46t88.5 17zM399 895q10 0 13 -8t-2 -13l-108 -112
q-5 -5 -10.5 -8.5t-19.5 -3.5h-19q-10 0 -14 7.5t0 12.5l76 109q4 5 9.5 10.5t16.5 5.5h58z" />
    <glyph glyph-name="Ocircumflex" unicode="&#xd4;" 
d="M275 644q-36 0 -63 -12t-46.5 -32.5t-31 -46.5t-15.5 -53q-5 -31 -7 -70t-2 -80t2 -80t7 -70q3 -22 12.5 -47t28 -46.5t46.5 -36t69 -14.5q40 0 68.5 14.5t47 36t28 46.5t12.5 47q4 31 6.5 70t2.5 80t-2.5 80t-6.5 70q-4 27 -15.5 53t-31 46.5t-46.5 32.5t-63 12z
M275 708q49 0 88 -17t67 -46t45 -66.5t23 -78.5q4 -30 6 -69t2 -80.5t-2 -81t-6 -69.5q-13 -97 -72.5 -152.5t-150.5 -55.5t-150.5 55.5t-72.5 152.5q-4 30 -6 69.5t-2 81t2 80.5t6 69q6 41 23 78.5t45 66.5t66.5 46t88.5 17zM202 767q-5 -5 -12.5 -10.5t-18.5 -5.5h-43
q-10 0 -13 8t2 13l118 112q5 5 10.5 8.5t19.5 3.5h22q13 0 18.5 -3.5t10.5 -8.5l118 -112q5 -5 2 -13t-13 -8h-43q-11 0 -18.5 5.5t-12.5 10.5l-67 65q-7 7 -14 0z" />
    <glyph glyph-name="Otilde" unicode="&#xd5;" 
d="M275 644q-36 0 -63 -12t-46.5 -32.5t-31 -46.5t-15.5 -53q-5 -31 -7 -70t-2 -80t2 -80t7 -70q3 -22 12.5 -47t28 -46.5t46.5 -36t69 -14.5q40 0 68.5 14.5t47 36t28 46.5t12.5 47q4 31 6.5 70t2.5 80t-2.5 80t-6.5 70q-4 27 -15.5 53t-31 46.5t-46.5 32.5t-63 12z
M275 708q49 0 88 -17t67 -46t45 -66.5t23 -78.5q4 -30 6 -69t2 -80.5t-2 -81t-6 -69.5q-13 -97 -72.5 -152.5t-150.5 -55.5t-150.5 55.5t-72.5 152.5q-4 30 -6 69.5t-2 81t2 80.5t6 69q6 41 23 78.5t45 66.5t66.5 46t88.5 17zM345 832q19 0 29.5 6.5t16.5 14.5t15.5 4
t9.5 -18v-24q0 -20 -20.5 -35.5t-50.5 -15.5q-24 0 -39.5 4t-29 8.5t-30 8.5t-41.5 4q-17 0 -27.5 -5.5t-18.5 -15.5q-6 -7 -15.5 -3.5t-9.5 17.5v24q0 20 20.5 35.5t50.5 15.5q24 0 39.5 -4t29 -8.5t29.5 -8.5t42 -4z" />
    <glyph glyph-name="Odieresis" unicode="&#xd6;" 
d="M275 644q-36 0 -63 -12t-46.5 -32.5t-31 -46.5t-15.5 -53q-5 -31 -7 -70t-2 -80t2 -80t7 -70q3 -22 12.5 -47t28 -46.5t46.5 -36t69 -14.5q40 0 68.5 14.5t47 36t28 46.5t12.5 47q4 31 6.5 70t2.5 80t-2.5 80t-6.5 70q-4 27 -15.5 53t-31 46.5t-46.5 32.5t-63 12z
M275 708q49 0 88 -17t67 -46t45 -66.5t23 -78.5q4 -30 6 -69t2 -80.5t-2 -81t-6 -69.5q-13 -97 -72.5 -152.5t-150.5 -55.5t-150.5 55.5t-72.5 152.5q-4 30 -6 69.5t-2 81t2 80.5t6 69q6 41 23 78.5t45 66.5t66.5 46t88.5 17zM231 778q0 -16 -16 -16h-52q-16 0 -16 16v53
q0 6 4.5 11t11.5 5h52q7 0 11.5 -5t4.5 -11v-53zM402 778q0 -16 -16 -16h-52q-16 0 -16 16v53q0 6 4.5 11t11.5 5h52q7 0 11.5 -5t4.5 -11v-53z" />
    <glyph glyph-name="multiply" unicode="&#xd7;" 
d="M224 243q7 7 0 14l-112 113q-6 5 -6 13.5t6 14.5l15 15q6 6 14.5 6t13.5 -6l113 -112q7 -7 14 0l113 112q5 6 13.5 6t14.5 -6l15 -15q5 -5 5 -13.5t-5 -14.5l-113 -112q-7 -7 0 -14l113 -114q6 -5 6 -13.5t-6 -14.5l-15 -15q-6 -6 -14.5 -6t-13.5 6l-114 113q-7 7 -14 0
l-112 -113q-6 -5 -14.5 -5t-13.5 5l-15 15q-6 6 -5.5 14t5.5 14z" />
    <glyph glyph-name="Oslash" unicode="&#xd8;" 
d="M431 200q4 31 6.5 70t2.5 80t-2.5 80t-6.5 70q-3 14 -5 21.5t-6 19.5q-1 2 -2.5 3t-4.5 -4l-238 -440q-4 -7 4 -13q12 -11 39.5 -21t56.5 -10q40 0 68.5 14.5t47 36t28 46.5t12.5 47zM275 644q-36 0 -63 -12t-46.5 -32.5t-31 -46.5t-15.5 -53q-5 -37 -7.5 -85.5
t-1.5 -97.5t5.5 -91.5t13.5 -67.5q1 -2 3.5 -3.5t5.5 3.5l239 439q4 6 -4 14t-23 15.5t-34.5 12.5t-40.5 5zM457 621q-4 -6 2 -13q8 -11 21 -40t18 -68q4 -30 6 -69t2 -80.5t-2 -81t-6 -69.5q-13 -97 -72.5 -152.5t-150.5 -55.5q-62 0 -109 26q-6 3 -11.5 6.5t-10.5 7.5
q-1 1 -3 1.5t-4 -4.5l-8 -14q-9 -15 -21 -15h-29q-10 0 -14.5 6.5t0.5 17.5l28 52q2 5 1 7l-2 4q-22 27 -33 77.5t-14.5 109.5t-1 119t8.5 107q5 41 22 78.5t45 66.5t67 46t89 17q40 0 72.5 -11t58.5 -31q2 -1 4.5 -2t5.5 4l9 17q7 15 19 15h30q10 0 14.5 -6.5t-0.5 -15.5z
" />
    <glyph glyph-name="Ugrave" unicode="&#xd9;" 
d="M124 207q0 -30 11.5 -57.5t32 -48t48 -33t59.5 -12.5t59.5 12.5t48 33t32 48t11.5 57.5v473q0 8 6 14t14 6h24q8 0 14 -6t6 -14v-473q0 -45 -17 -84t-46 -68t-68 -46t-84 -17t-84 17t-68 46t-46 68t-17 84v473q0 8 6 14t14 6h24q8 0 14 -6t6 -14v-473zM219 895
q11 0 16.5 -5.5t9.5 -10.5l76 -109q4 -5 0 -12.5t-14 -7.5h-19q-14 0 -19.5 3.5t-10.5 8.5l-108 112q-5 5 -2 13t13 8h58z" />
    <glyph glyph-name="Uacute" unicode="&#xda;" 
d="M124 207q0 -30 11.5 -57.5t32 -48t48 -33t59.5 -12.5t59.5 12.5t48 33t32 48t11.5 57.5v473q0 8 6 14t14 6h24q8 0 14 -6t6 -14v-473q0 -45 -17 -84t-46 -68t-68 -46t-84 -17t-84 17t-68 46t-46 68t-17 84v473q0 8 6 14t14 6h24q8 0 14 -6t6 -14v-473zM389 895
q10 0 13 -8t-2 -13l-108 -112q-5 -5 -10.5 -8.5t-19.5 -3.5h-19q-10 0 -14 7.5t0 12.5l76 109q4 5 9.5 10.5t16.5 5.5h58z" />
    <glyph glyph-name="Ucircumflex" unicode="&#xdb;" 
d="M124 207q0 -30 11.5 -57.5t32 -48t48 -33t59.5 -12.5t59.5 12.5t48 33t32 48t11.5 57.5v473q0 8 6 14t14 6h24q8 0 14 -6t6 -14v-473q0 -45 -17 -84t-46 -68t-68 -46t-84 -17t-84 17t-68 46t-46 68t-17 84v473q0 8 6 14t14 6h24q8 0 14 -6t6 -14v-473zM202 767
q-5 -5 -12.5 -10.5t-18.5 -5.5h-43q-10 0 -13 8t2 13l118 112q5 5 10.5 8.5t19.5 3.5h22q13 0 18.5 -3.5t10.5 -8.5l118 -112q5 -5 2 -13t-13 -8h-43q-11 0 -18.5 5.5t-12.5 10.5l-67 65q-7 7 -14 0z" />
    <glyph glyph-name="Udieresis" unicode="&#xdc;" 
d="M124 207q0 -30 11.5 -57.5t32 -48t48 -33t59.5 -12.5t59.5 12.5t48 33t32 48t11.5 57.5v473q0 8 6 14t14 6h24q8 0 14 -6t6 -14v-473q0 -45 -17 -84t-46 -68t-68 -46t-84 -17t-84 17t-68 46t-46 68t-17 84v473q0 8 6 14t14 6h24q8 0 14 -6t6 -14v-473zM231 778
q0 -16 -16 -16h-52q-16 0 -16 16v53q0 6 4.5 11t11.5 5h52q7 0 11.5 -5t4.5 -11v-53zM402 778q0 -16 -16 -16h-52q-16 0 -16 16v53q0 6 4.5 11t11.5 5h52q7 0 11.5 -5t4.5 -11v-53z" />
    <glyph glyph-name="Yacute" unicode="&#xdd;" 
d="M272 328q4 -10 8 0l137 357q5 15 19 15h32q10 0 15.5 -8.5t0.5 -19.5l-175 -431v-221q0 -8 -6 -14t-14 -6h-26q-8 0 -14 6t-6 14v220l-177 432q-5 11 0.5 19.5t15.5 8.5h32q14 0 19 -15zM389 895q10 0 13 -8t-2 -13l-108 -112q-5 -5 -10.5 -8.5t-19.5 -3.5h-19
q-10 0 -14 7.5t0 12.5l76 109q4 5 9.5 10.5t16.5 5.5h58z" />
    <glyph glyph-name="Thorn" unicode="&#xde;" 
d="M431 380q0 30 -11.5 56.5t-31.5 46.5t-46.5 31.5t-56.5 11.5h-116q-10 0 -10 -10v-322q0 -10 10 -10h116q30 0 56.5 11.5t46.5 31.5t31.5 46.5t11.5 56.5v50zM495 330q0 -44 -16.5 -82t-45 -66.5t-67 -45t-81.5 -16.5h-116q-10 0 -10 -10v-90q0 -8 -6 -14t-14 -6h-24
q-8 0 -14 6t-6 14v660q0 8 6 14t14 6h24q8 0 14 -6t6 -14v-80q0 -10 10 -10h116q43 0 81.5 -16.5t67 -45t45 -67t16.5 -81.5v-50z" />
    <glyph glyph-name="germandbls" unicode="&#xdf;" 
d="M83 517q0 42 13.5 77.5t37.5 61t58 40t75 14.5t75 -15t58.5 -41.5t38 -61.5t13.5 -75q0 -42 -16 -76.5t-42 -60.5q-5 -5 -6.5 -11.5t5.5 -12.5q33 -29 53.5 -66.5t20.5 -91.5q0 -43 -15 -79.5t-41.5 -62.5t-63.5 -41t-80 -15h-20q-8 0 -14 6t-6 14v19q0 8 6 14t14 6h20
q29 0 55 11t45 30t30 44t11 54q0 27 -9.5 52t-27 44t-43.5 30.5t-59 11.5h-7q-8 0 -14 6t-6 14v20q0 8 6 14t14 6h7q26 0 48.5 9t39.5 25t26.5 38t9.5 49q0 63 -35 98.5t-91 35.5q-28 0 -51 -10.5t-39 -29t-24.5 -43t-8.5 -51.5v-497q0 -8 -6 -14t-14 -6h-21q-8 0 -14 6
t-6 14v497z" />
    <glyph glyph-name="agrave" unicode="&#xe0;" 
d="M251 241q-42 0 -74 -23t-32 -67q0 -27 9.5 -46.5t26 -32.5t37.5 -19.5t45 -6.5q69 0 106.5 32t37.5 93v60q0 10 -10 10h-146zM283 455q-23 0 -44 -6.5t-37 -18t-26 -27.5t-10 -36q0 -13 -8 -15t-15 -2h-14q-20 0 -20 20q0 35 15 61t40 43.5t56 26.5t63 9q37 0 69.5 -10
t57 -30.5t39 -51.5t14.5 -74v-324q0 -8 -6 -14t-14 -6h-9q-10 0 -14 7q-4 6 -7 13.5t-13 7.5q-7 0 -18 -6t-27 -13t-37.5 -13t-49.5 -6q-46 0 -80.5 13t-57 35t-33.5 51t-11 61q0 31 11 58t32 46.5t52 30.5t70 11h143q10 0 10 10v39q0 49 -34 79.5t-87 30.5zM239 730
q11 0 16.5 -5.5t9.5 -10.5l76 -109q4 -5 0 -12.5t-14 -7.5h-19q-14 0 -19.5 3.5t-10.5 8.5l-108 112q-5 5 -2 13t13 8h58z" />
    <glyph glyph-name="aacute" unicode="&#xe1;" 
d="M251 241q-42 0 -74 -23t-32 -67q0 -27 9.5 -46.5t26 -32.5t37.5 -19.5t45 -6.5q69 0 106.5 32t37.5 93v60q0 10 -10 10h-146zM283 455q-23 0 -44 -6.5t-37 -18t-26 -27.5t-10 -36q0 -13 -8 -15t-15 -2h-14q-20 0 -20 20q0 35 15 61t40 43.5t56 26.5t63 9q37 0 69.5 -10
t57 -30.5t39 -51.5t14.5 -74v-324q0 -8 -6 -14t-14 -6h-9q-10 0 -14 7q-4 6 -7 13.5t-13 7.5q-7 0 -18 -6t-27 -13t-37.5 -13t-49.5 -6q-46 0 -80.5 13t-57 35t-33.5 51t-11 61q0 31 11 58t32 46.5t52 30.5t70 11h143q10 0 10 10v39q0 49 -34 79.5t-87 30.5zM409 730
q10 0 13 -8t-2 -13l-108 -112q-5 -5 -10.5 -8.5t-19.5 -3.5h-19q-10 0 -14 7.5t0 12.5l76 109q4 5 9.5 10.5t16.5 5.5h58z" />
    <glyph glyph-name="acircumflex" unicode="&#xe2;" 
d="M251 241q-42 0 -74 -23t-32 -67q0 -27 9.5 -46.5t26 -32.5t37.5 -19.5t45 -6.5q69 0 106.5 32t37.5 93v60q0 10 -10 10h-146zM283 455q-23 0 -44 -6.5t-37 -18t-26 -27.5t-10 -36q0 -13 -8 -15t-15 -2h-14q-20 0 -20 20q0 35 15 61t40 43.5t56 26.5t63 9q37 0 69.5 -10
t57 -30.5t39 -51.5t14.5 -74v-324q0 -8 -6 -14t-14 -6h-9q-10 0 -14 7q-4 6 -7 13.5t-13 7.5q-7 0 -18 -6t-27 -13t-37.5 -13t-49.5 -6q-46 0 -80.5 13t-57 35t-33.5 51t-11 61q0 31 11 58t32 46.5t52 30.5t70 11h143q10 0 10 10v39q0 49 -34 79.5t-87 30.5zM217 601
q-5 -5 -12.5 -10.5t-18.5 -5.5h-43q-10 0 -13 8t2 13l118 112q5 5 10.5 8.5t19.5 3.5h22q13 0 18.5 -3.5t10.5 -8.5l118 -112q5 -5 2 -13t-13 -8h-43q-11 0 -18.5 5.5t-12.5 10.5l-67 65q-7 7 -14 0z" />
    <glyph glyph-name="atilde" unicode="&#xe3;" 
d="M251 241q-42 0 -74 -23t-32 -67q0 -27 9.5 -46.5t26 -32.5t37.5 -19.5t45 -6.5q69 0 106.5 32t37.5 93v60q0 10 -10 10h-146zM283 455q-23 0 -44 -6.5t-37 -18t-26 -27.5t-10 -36q0 -13 -8 -15t-15 -2h-14q-20 0 -20 20q0 35 15 61t40 43.5t56 26.5t63 9q37 0 69.5 -10
t57 -30.5t39 -51.5t14.5 -74v-324q0 -8 -6 -14t-14 -6h-9q-10 0 -14 7q-4 6 -7 13.5t-13 7.5q-7 0 -18 -6t-27 -13t-37.5 -13t-49.5 -6q-46 0 -80.5 13t-57 35t-33.5 51t-11 61q0 31 11 58t32 46.5t52 30.5t70 11h143q10 0 10 10v39q0 49 -34 79.5t-87 30.5zM360 676
q19 0 29.5 6.5t16.5 14.5t15.5 4t9.5 -18v-24q0 -20 -20.5 -35.5t-50.5 -15.5q-24 0 -39.5 4t-29 8.5t-30 8.5t-41.5 4q-17 0 -27.5 -5.5t-18.5 -15.5q-6 -7 -15.5 -3.5t-9.5 17.5v24q0 20 20.5 35.5t50.5 15.5q24 0 39.5 -4t29 -8.5t29.5 -8.5t42 -4z" />
    <glyph glyph-name="adieresis" unicode="&#xe4;" 
d="M251 241q-42 0 -74 -23t-32 -67q0 -27 9.5 -46.5t26 -32.5t37.5 -19.5t45 -6.5q69 0 106.5 32t37.5 93v60q0 10 -10 10h-146zM283 455q-23 0 -44 -6.5t-37 -18t-26 -27.5t-10 -36q0 -13 -8 -15t-15 -2h-14q-20 0 -20 20q0 35 15 61t40 43.5t56 26.5t63 9q37 0 69.5 -10
t57 -30.5t39 -51.5t14.5 -74v-324q0 -8 -6 -14t-14 -6h-9q-10 0 -14 7q-4 6 -7 13.5t-13 7.5q-7 0 -18 -6t-27 -13t-37.5 -13t-49.5 -6q-46 0 -80.5 13t-57 35t-33.5 51t-11 61q0 31 11 58t32 46.5t52 30.5t70 11h143q10 0 10 10v39q0 49 -34 79.5t-87 30.5zM246 638
q0 -16 -16 -16h-52q-16 0 -16 16v53q0 6 4.5 11t11.5 5h52q7 0 11.5 -5t4.5 -11v-53zM417 638q0 -16 -16 -16h-52q-16 0 -16 16v53q0 6 4.5 11t11.5 5h52q7 0 11.5 -5t4.5 -11v-53z" />
    <glyph glyph-name="aring" unicode="&#xe5;" 
d="M251 241q-42 0 -74 -23t-32 -67q0 -27 9.5 -46.5t26 -32.5t37.5 -19.5t45 -6.5q69 0 106.5 32t37.5 93v60q0 10 -10 10h-146zM283 455q-23 0 -44 -6.5t-37 -18t-26 -27.5t-10 -36q0 -13 -8 -15t-15 -2h-14q-20 0 -20 20q0 35 15 61t40 43.5t56 26.5t63 9q37 0 69.5 -10
t57 -30.5t39 -51.5t14.5 -74v-324q0 -8 -6 -14t-14 -6h-9q-10 0 -14 7q-4 6 -7 13.5t-13 7.5q-7 0 -18 -6t-27 -13t-37.5 -13t-49.5 -6q-46 0 -80.5 13t-57 35t-33.5 51t-11 61q0 31 11 58t32 46.5t52 30.5t70 11h143q10 0 10 10v39q0 49 -34 79.5t-87 30.5zM180 670
q0 23 8.5 43t23.5 35t35 23.5t43 8.5t43 -8.5t35 -23.5t23.5 -35t8.5 -43t-8.5 -43t-23.5 -35t-35 -23.5t-43 -8.5t-43 8.5t-35 23.5t-23.5 35t-8.5 43zM234 670q0 -23 16.5 -39.5t39.5 -16.5q24 0 39.5 16.5t15.5 39.5q0 24 -15.5 39.5t-39.5 15.5q-23 0 -39.5 -15.5
t-16.5 -39.5z" />
    <glyph glyph-name="ae" unicode="&#xe6;" 
d="M289 38q-6 8 -20 8t-20 -9q-15 -22 -39 -34.5t-57 -12.5q-39 0 -67 14t-46 36.5t-26 51t-8 58.5t10.5 56.5t31 46.5t49 31.5t64.5 11.5h67q10 0 10 10v39q0 49 -19 79.5t-56 30.5q-41 0 -62 -24t-21 -64q0 -13 -8 -15t-15 -2h-14q-20 0 -20 20q0 33 11 59t29.5 44
t44 27.5t55.5 9.5q35 0 59.5 -12.5t40.5 -33.5q5 -7 14.5 -7t15.5 7q18 21 42.5 33.5t59.5 12.5q34 0 62 -15.5t47.5 -42.5t30 -63.5t10.5 -78.5v-64q-1 -8 -6.5 -14t-13.5 -6h-217q-10 0 -10 -10q0 -36 5.5 -66.5t17.5 -53t30.5 -35t43.5 -12.5q21 0 36 8.5t25 22
t16.5 30.5t9.5 33q2 10 9 13.5t14 3.5h17q8 0 13.5 -4.5t3.5 -15.5q-5 -29 -16 -56t-29 -48t-42.5 -33.5t-56.5 -12.5q-37 0 -63 12.5t-43 35.5zM161 241q-43 0 -69.5 -25t-26.5 -65q0 -51 22.5 -78t65.5 -27q39 0 63.5 37.5t24.5 101.5v46q0 10 -10 10h-70zM300 292
q0 -10 10 -10h170q10 0 10 10q0 70 -22 114.5t-72 44.5q-45 0 -70.5 -42t-25.5 -117z" />
    <glyph glyph-name="ccedilla" unicode="&#xe7;" 
d="M283 49q33 0 57 10.5t40 27t23.5 36.5t7.5 40q0 10 6 13.5t13 3.5h21q8 0 14 -6t6 -14q0 -34 -13.5 -64.5t-38.5 -54t-59.5 -37.5t-76.5 -14q-45 0 -81 15t-62 40.5t-41 60.5t-18 74q-2 30 -2 70t2 70q3 39 18 74t41 60.5t62 40.5t81 15q42 0 76.5 -14t59.5 -37.5
t38.5 -54t13.5 -64.5q0 -8 -4.5 -14t-12.5 -6h-23q-7 0 -13 4t-6 12q0 22 -8.5 43t-25 37t-40.5 25.5t-55 9.5q-38 0 -64 -13t-42.5 -32.5t-24.5 -42.5t-10 -43q-3 -31 -3 -70t3 -70q2 -20 10 -43t24.5 -42.5t42.5 -32.5t64 -13zM287 -184q-4 -16 -19 -16h-37q-10 0 -14 5.5
t-2 12.5l38 121q4 16 19 16h27q10 0 14 -5.5t2 -12.5z" />
    <glyph glyph-name="egrave" unicode="&#xe8;" 
d="M132 216q0 -36 8.5 -66.5t26.5 -53t45.5 -35t66.5 -12.5q29 0 51.5 8t39 21.5t27 30t16.5 34.5q3 10 9.5 13.5t13.5 3.5h20q8 0 13.5 -4.5t3.5 -15.5q-5 -33 -21 -60.5t-41.5 -47.5t-59 -31t-72.5 -11q-45 0 -81.5 15t-63 40.5t-42 60.5t-18.5 74q-2 30 -2 70t2 70
q3 39 18.5 74t42 60.5t63 40.5t81.5 15q42 0 78.5 -16t63.5 -43t42.5 -63.5t15.5 -77.5v-64q0 -8 -6 -14t-14 -6h-317q-10 0 -10 -10zM134 292q0 -10 10 -10h270q10 0 10 10q0 38 -11 67.5t-30.5 50t-45.5 31t-57 10.5q-67 0 -106.5 -41t-39.5 -118zM229 730q11 0 16.5 -5.5
t9.5 -10.5l76 -109q4 -5 0 -12.5t-14 -7.5h-19q-14 0 -19.5 3.5t-10.5 8.5l-108 112q-5 5 -2 13t13 8h58z" />
    <glyph glyph-name="eacute" unicode="&#xe9;" 
d="M132 216q0 -36 8.5 -66.5t26.5 -53t45.5 -35t66.5 -12.5q29 0 51.5 8t39 21.5t27 30t16.5 34.5q3 10 9.5 13.5t13.5 3.5h20q8 0 13.5 -4.5t3.5 -15.5q-5 -33 -21 -60.5t-41.5 -47.5t-59 -31t-72.5 -11q-45 0 -81.5 15t-63 40.5t-42 60.5t-18.5 74q-2 30 -2 70t2 70
q3 39 18.5 74t42 60.5t63 40.5t81.5 15q42 0 78.5 -16t63.5 -43t42.5 -63.5t15.5 -77.5v-64q0 -8 -6 -14t-14 -6h-317q-10 0 -10 -10zM134 292q0 -10 10 -10h270q10 0 10 10q0 38 -11 67.5t-30.5 50t-45.5 31t-57 10.5q-67 0 -106.5 -41t-39.5 -118zM399 730q10 0 13 -8
t-2 -13l-108 -112q-5 -5 -10.5 -8.5t-19.5 -3.5h-19q-10 0 -14 7.5t0 12.5l76 109q4 5 9.5 10.5t16.5 5.5h58z" />
    <glyph glyph-name="ecircumflex" unicode="&#xea;" 
d="M132 216q0 -36 8.5 -66.5t26.5 -53t45.5 -35t66.5 -12.5q29 0 51.5 8t39 21.5t27 30t16.5 34.5q3 10 9.5 13.5t13.5 3.5h20q8 0 13.5 -4.5t3.5 -15.5q-5 -33 -21 -60.5t-41.5 -47.5t-59 -31t-72.5 -11q-45 0 -81.5 15t-63 40.5t-42 60.5t-18.5 74q-2 30 -2 70t2 70
q3 39 18.5 74t42 60.5t63 40.5t81.5 15q42 0 78.5 -16t63.5 -43t42.5 -63.5t15.5 -77.5v-64q0 -8 -6 -14t-14 -6h-317q-10 0 -10 -10zM134 292q0 -10 10 -10h270q10 0 10 10q0 38 -11 67.5t-30.5 50t-45.5 31t-57 10.5q-67 0 -106.5 -41t-39.5 -118zM212 601
q-5 -5 -12.5 -10.5t-18.5 -5.5h-43q-10 0 -13 8t2 13l118 112q5 5 10.5 8.5t19.5 3.5h22q13 0 18.5 -3.5t10.5 -8.5l118 -112q5 -5 2 -13t-13 -8h-43q-11 0 -18.5 5.5t-12.5 10.5l-67 65q-7 7 -14 0z" />
    <glyph glyph-name="edieresis" unicode="&#xeb;" 
d="M132 216q0 -36 8.5 -66.5t26.5 -53t45.5 -35t66.5 -12.5q29 0 51.5 8t39 21.5t27 30t16.5 34.5q3 10 9.5 13.5t13.5 3.5h20q8 0 13.5 -4.5t3.5 -15.5q-5 -33 -21 -60.5t-41.5 -47.5t-59 -31t-72.5 -11q-45 0 -81.5 15t-63 40.5t-42 60.5t-18.5 74q-2 30 -2 70t2 70
q3 39 18.5 74t42 60.5t63 40.5t81.5 15q42 0 78.5 -16t63.5 -43t42.5 -63.5t15.5 -77.5v-64q0 -8 -6 -14t-14 -6h-317q-10 0 -10 -10zM134 292q0 -10 10 -10h270q10 0 10 10q0 38 -11 67.5t-30.5 50t-45.5 31t-57 10.5q-67 0 -106.5 -41t-39.5 -118zM241 638q0 -16 -16 -16
h-52q-16 0 -16 16v53q0 6 4.5 11t11.5 5h52q7 0 11.5 -5t4.5 -11v-53zM412 638q0 -16 -16 -16h-52q-16 0 -16 16v53q0 6 4.5 11t11.5 5h52q7 0 11.5 -5t4.5 -11v-53z" />
    <glyph glyph-name="igrave" unicode="&#xec;" 
d="M239 730q11 0 16.5 -5.5t9.5 -10.5l76 -109q4 -5 0 -12.5t-14 -7.5h-19q-14 0 -19.5 3.5t-10.5 8.5l-108 112q-5 5 -2 13t13 8h58zM131 440q-8 0 -14 6t-6 14v20q0 8 6 14t14 6h175q8 0 14 -6t6 -14v-410q0 -10 10 -10h131q8 0 14 -6t6 -14v-20q0 -8 -6 -14t-14 -6h-346
q-8 0 -14 6t-6 14v20q0 8 6 14t14 6h135q10 0 10 10v360q0 10 -10 10h-125z" />
    <glyph glyph-name="iacute" unicode="&#xed;" 
d="M399 730q10 0 13 -8t-2 -13l-108 -112q-5 -5 -10.5 -8.5t-19.5 -3.5h-19q-10 0 -14 7.5t0 12.5l76 109q4 5 9.5 10.5t16.5 5.5h58zM131 440q-8 0 -14 6t-6 14v20q0 8 6 14t14 6h175q8 0 14 -6t6 -14v-410q0 -10 10 -10h131q8 0 14 -6t6 -14v-20q0 -8 -6 -14t-14 -6h-346
q-8 0 -14 6t-6 14v20q0 8 6 14t14 6h135q10 0 10 10v360q0 10 -10 10h-125z" />
    <glyph glyph-name="icircumflex" unicode="&#xee;" 
d="M131 440q-8 0 -14 6t-6 14v20q0 8 6 14t14 6h175q8 0 14 -6t6 -14v-410q0 -10 10 -10h131q8 0 14 -6t6 -14v-20q0 -8 -6 -14t-14 -6h-346q-8 0 -14 6t-6 14v20q0 8 6 14t14 6h135q10 0 10 10v360q0 10 -10 10h-125zM222 601q-5 -5 -12.5 -10.5t-18.5 -5.5h-43
q-10 0 -13 8t2 13l118 112q5 5 10.5 8.5t19.5 3.5h22q13 0 18.5 -3.5t10.5 -8.5l118 -112q5 -5 2 -13t-13 -8h-43q-11 0 -18.5 5.5t-12.5 10.5l-67 65q-7 7 -14 0z" />
    <glyph glyph-name="idieresis" unicode="&#xef;" 
d="M251 638q0 -16 -16 -16h-52q-16 0 -16 16v53q0 6 4.5 11t11.5 5h52q7 0 11.5 -5t4.5 -11v-53zM422 638q0 -16 -16 -16h-52q-16 0 -16 16v53q0 6 4.5 11t11.5 5h52q7 0 11.5 -5t4.5 -11v-53zM131 440q-8 0 -14 6t-6 14v20q0 8 6 14t14 6h175q8 0 14 -6t6 -14v-410
q0 -10 10 -10h131q8 0 14 -6t6 -14v-20q0 -8 -6 -14t-14 -6h-346q-8 0 -14 6t-6 14v20q0 8 6 14t14 6h135q10 0 10 10v360q0 10 -10 10h-125z" />
    <glyph glyph-name="eth" unicode="&#xf0;" 
d="M271 49q37 0 63.5 13t43.5 32.5t25.5 42.5t10.5 43q1 15 1.5 25.5t0.5 19.5t-0.5 19.5t-1.5 25.5q-2 20 -10.5 43t-25.5 42.5t-43.5 32.5t-63.5 13q-38 0 -64.5 -13t-43.5 -32.5t-25.5 -42.5t-9.5 -43q-1 -15 -1.5 -25.5t-0.5 -19.5t0.5 -19.5t1.5 -25.5q1 -20 9.5 -43
t25.5 -42.5t43.5 -32.5t64.5 -13zM194 641q-8 0 -14 6t-6 14v19q0 8 6 14t14 6h36q35 0 65.5 -11t56.5 -29q5 -3 9 0q12 8 29.5 18t43.5 27q8 5 16.5 0.5t8.5 -14.5v-17q0 -10 -2.5 -14.5t-10.5 -9.5q-14 -9 -22 -14t-20 -13q-7 -5 -4 -10q27 -37 44 -86.5t24 -106.5
q7 -60 8.5 -118.5t-5.5 -121.5q-4 -39 -19 -74t-40 -60.5t-60.5 -40.5t-80.5 -15t-81.5 15t-63 40.5t-42 60.5t-18.5 74q-1 15 -1.5 25.5t-0.5 19.5t0.5 19.5t1.5 25.5q3 39 18.5 74t42 60.5t63 40.5t81.5 15q26 0 46 -5.5t35 -13t25.5 -16t16.5 -14.5q4 -5 7.5 -3t3.5 7
q-2 48 -14.5 89.5t-32.5 73.5q-5 9 -10 4q-30 -17 -51.5 -29.5t-34.5 -20.5q-8 -5 -18 -1t-10 15v11q0 8 2 14.5t13 13.5q11 6 21.5 12t27.5 16q7 4 4 9.5t-9 7.5q-28 11 -63 11h-36z" />
    <glyph glyph-name="ntilde" unicode="&#xf1;" 
d="M163 477q11 0 20.5 5t22 11.5t30.5 11.5t46 5q39 0 72 -11t57 -33t37 -54.5t13 -75.5v-316q0 -8 -6 -14t-14 -6h-19q-8 0 -14 6t-6 14v316q0 63 -36.5 89t-90.5 26q-27 0 -50 -8.5t-40.5 -23.5t-27 -35t-9.5 -43v-321q0 -8 -6 -14t-14 -6h-19q-8 0 -14 6t-6 14v460
q0 8 6 14t14 6h16q7 0 14 -7q5 -5 10 -10.5t14 -5.5zM345 676q19 0 29.5 6.5t16.5 14.5t15.5 4t9.5 -18v-24q0 -20 -20.5 -35.5t-50.5 -15.5q-24 0 -39.5 4t-29 8.5t-30 8.5t-41.5 4q-17 0 -27.5 -5.5t-18.5 -15.5q-6 -7 -15.5 -3.5t-9.5 17.5v24q0 20 20.5 35.5t50.5 15.5
q24 0 39.5 -4t29 -8.5t29.5 -8.5t42 -4z" />
    <glyph glyph-name="ograve" unicode="&#xf2;" 
d="M275 510q45 0 81 -15t62 -40.5t41 -60.5t18 -74q2 -30 2 -70t-2 -70q-3 -39 -18 -74t-41 -60.5t-62 -40.5t-81 -15t-81 15t-62 40.5t-41 60.5t-18 74q-2 30 -2 70t2 70q3 39 18 74t41 60.5t62 40.5t81 15zM275 49q37 0 63.5 13t43 32.5t24.5 42.5t10 43q3 31 3 70t-3 70
q-2 20 -10 43t-24.5 42.5t-43 32.5t-63.5 13q-38 0 -64 -13t-42.5 -32.5t-24.5 -42.5t-10 -43q-3 -31 -3 -70t3 -70q2 -20 10 -43t24.5 -42.5t42.5 -32.5t64 -13zM229 730q11 0 16.5 -5.5t9.5 -10.5l76 -109q4 -5 0 -12.5t-14 -7.5h-19q-14 0 -19.5 3.5t-10.5 8.5l-108 112
q-5 5 -2 13t13 8h58z" />
    <glyph glyph-name="oacute" unicode="&#xf3;" 
d="M275 510q45 0 81 -15t62 -40.5t41 -60.5t18 -74q2 -30 2 -70t-2 -70q-3 -39 -18 -74t-41 -60.5t-62 -40.5t-81 -15t-81 15t-62 40.5t-41 60.5t-18 74q-2 30 -2 70t2 70q3 39 18 74t41 60.5t62 40.5t81 15zM275 49q37 0 63.5 13t43 32.5t24.5 42.5t10 43q3 31 3 70t-3 70
q-2 20 -10 43t-24.5 42.5t-43 32.5t-63.5 13q-38 0 -64 -13t-42.5 -32.5t-24.5 -42.5t-10 -43q-3 -31 -3 -70t3 -70q2 -20 10 -43t24.5 -42.5t42.5 -32.5t64 -13zM389 730q10 0 13 -8t-2 -13l-108 -112q-5 -5 -10.5 -8.5t-19.5 -3.5h-19q-10 0 -14 7.5t0 12.5l76 109
q4 5 9.5 10.5t16.5 5.5h58z" />
    <glyph glyph-name="ocircumflex" unicode="&#xf4;" 
d="M275 510q45 0 81 -15t62 -40.5t41 -60.5t18 -74q2 -30 2 -70t-2 -70q-3 -39 -18 -74t-41 -60.5t-62 -40.5t-81 -15t-81 15t-62 40.5t-41 60.5t-18 74q-2 30 -2 70t2 70q3 39 18 74t41 60.5t62 40.5t81 15zM275 49q37 0 63.5 13t43 32.5t24.5 42.5t10 43q3 31 3 70t-3 70
q-2 20 -10 43t-24.5 42.5t-43 32.5t-63.5 13q-38 0 -64 -13t-42.5 -32.5t-24.5 -42.5t-10 -43q-3 -31 -3 -70t3 -70q2 -20 10 -43t24.5 -42.5t42.5 -32.5t64 -13zM202 601q-5 -5 -12.5 -10.5t-18.5 -5.5h-43q-10 0 -13 8t2 13l118 112q5 5 10.5 8.5t19.5 3.5h22
q13 0 18.5 -3.5t10.5 -8.5l118 -112q5 -5 2 -13t-13 -8h-43q-11 0 -18.5 5.5t-12.5 10.5l-67 65q-7 7 -14 0z" />
    <glyph glyph-name="otilde" unicode="&#xf5;" 
d="M275 510q45 0 81 -15t62 -40.5t41 -60.5t18 -74q2 -30 2 -70t-2 -70q-3 -39 -18 -74t-41 -60.5t-62 -40.5t-81 -15t-81 15t-62 40.5t-41 60.5t-18 74q-2 30 -2 70t2 70q3 39 18 74t41 60.5t62 40.5t81 15zM275 49q37 0 63.5 13t43 32.5t24.5 42.5t10 43q3 31 3 70t-3 70
q-2 20 -10 43t-24.5 42.5t-43 32.5t-63.5 13q-38 0 -64 -13t-42.5 -32.5t-24.5 -42.5t-10 -43q-3 -31 -3 -70t3 -70q2 -20 10 -43t24.5 -42.5t42.5 -32.5t64 -13zM345 676q19 0 29.5 6.5t16.5 14.5t15.5 4t9.5 -18v-24q0 -20 -20.5 -35.5t-50.5 -15.5q-24 0 -39.5 4t-29 8.5
t-30 8.5t-41.5 4q-17 0 -27.5 -5.5t-18.5 -15.5q-6 -7 -15.5 -3.5t-9.5 17.5v24q0 20 20.5 35.5t50.5 15.5q24 0 39.5 -4t29 -8.5t29.5 -8.5t42 -4z" />
    <glyph glyph-name="odieresis" unicode="&#xf6;" 
d="M275 510q45 0 81 -15t62 -40.5t41 -60.5t18 -74q2 -30 2 -70t-2 -70q-3 -39 -18 -74t-41 -60.5t-62 -40.5t-81 -15t-81 15t-62 40.5t-41 60.5t-18 74q-2 30 -2 70t2 70q3 39 18 74t41 60.5t62 40.5t81 15zM275 49q37 0 63.5 13t43 32.5t24.5 42.5t10 43q3 31 3 70t-3 70
q-2 20 -10 43t-24.5 42.5t-43 32.5t-63.5 13q-38 0 -64 -13t-42.5 -32.5t-24.5 -42.5t-10 -43q-3 -31 -3 -70t3 -70q2 -20 10 -43t24.5 -42.5t42.5 -32.5t64 -13zM231 638q0 -16 -16 -16h-52q-16 0 -16 16v53q0 6 4.5 11t11.5 5h52q7 0 11.5 -5t4.5 -11v-53zM402 638
q0 -16 -16 -16h-52q-16 0 -16 16v53q0 6 4.5 11t11.5 5h52q7 0 11.5 -5t4.5 -11v-53z" />
    <glyph glyph-name="divide" unicode="&#xf7;" 
d="M465 286q8 0 14 -6t6 -14v-30q0 -8 -6 -14t-14 -6h-380q-8 0 -14 6t-6 14v30q0 8 6 14t14 6h380zM328 20q0 -8 -6 -14t-14 -6h-70q-8 0 -14 6t-6 14v70q0 8 6 14t14 6h70q8 0 14 -6t6 -14v-70zM328 400q0 -8 -6 -14t-14 -6h-70q-8 0 -14 6t-6 14v70q0 8 6 14t14 6h70
q8 0 14 -6t6 -14v-70z" />
    <glyph glyph-name="oslash" unicode="&#xf8;" 
d="M125 15q-12 -15 -23 -15h-29q-10 0 -13.5 7.5t4.5 17.5l38 48q4 5 3 6.5t-2 3.5q-25 42 -30 97q-2 30 -2 70t2 70q3 39 18 74t41 60.5t62 40.5t81 15q41 0 73 -12t58 -34q1 -1 3 -1.5t4 2.5l16 20q6 8 10.5 11.5t11.5 3.5h26q10 0 14.5 -8t-3.5 -17l-40 -51q-4 -5 -1 -8
q25 -42 30 -96q2 -30 2 -70t-2 -70q-3 -39 -18 -74t-41 -60.5t-62 -40.5t-81 -15q-40 0 -72.5 11.5t-57.5 31.5q-1 1 -2.5 2t-4.5 -3zM275 451q-38 0 -64 -13t-42.5 -32.5t-24.5 -42.5t-10 -43q-3 -31 -3 -70t3 -70q2 -22 10 -43q1 -2 2.5 -4t4.5 2l219 275q3 4 0 7
q-17 14 -40 24t-55 10zM275 49q37 0 63.5 13t43 32.5t24.5 42.5t10 43q3 31 3 70t-3 70q-2 11 -4 21.5t-7 21.5q-1 2 -2 3t-4 -3l-216 -275q-3 -4 -2 -6t2 -3q17 -14 39.5 -22t52.5 -8z" />
    <glyph glyph-name="ugrave" unicode="&#xf9;" 
d="M387 23q-11 0 -20.5 -5t-22 -11.5t-30.5 -11.5t-46 -5q-39 0 -72 11t-57 33t-37 54.5t-13 75.5v316q0 8 6 14t14 6h19q8 0 14 -6t6 -14v-316q0 -63 36.5 -89t90.5 -26q27 0 50 8.5t40.5 23.5t27 35t9.5 43v321q0 8 6 14t14 6h19q8 0 14 -6t6 -14v-460q0 -8 -6 -14t-14 -6
h-16q-7 0 -14 7q-5 5 -10 10.5t-14 5.5zM219 730q11 0 16.5 -5.5t9.5 -10.5l76 -109q4 -5 0 -12.5t-14 -7.5h-19q-14 0 -19.5 3.5t-10.5 8.5l-108 112q-5 5 -2 13t13 8h58z" />
    <glyph glyph-name="uacute" unicode="&#xfa;" 
d="M387 23q-11 0 -20.5 -5t-22 -11.5t-30.5 -11.5t-46 -5q-39 0 -72 11t-57 33t-37 54.5t-13 75.5v316q0 8 6 14t14 6h19q8 0 14 -6t6 -14v-316q0 -63 36.5 -89t90.5 -26q27 0 50 8.5t40.5 23.5t27 35t9.5 43v321q0 8 6 14t14 6h19q8 0 14 -6t6 -14v-460q0 -8 -6 -14t-14 -6
h-16q-7 0 -14 7q-5 5 -10 10.5t-14 5.5zM389 730q10 0 13 -8t-2 -13l-108 -112q-5 -5 -10.5 -8.5t-19.5 -3.5h-19q-10 0 -14 7.5t0 12.5l76 109q4 5 9.5 10.5t16.5 5.5h58z" />
    <glyph glyph-name="ucircumflex" unicode="&#xfb;" 
d="M387 23q-11 0 -20.5 -5t-22 -11.5t-30.5 -11.5t-46 -5q-39 0 -72 11t-57 33t-37 54.5t-13 75.5v316q0 8 6 14t14 6h19q8 0 14 -6t6 -14v-316q0 -63 36.5 -89t90.5 -26q27 0 50 8.5t40.5 23.5t27 35t9.5 43v321q0 8 6 14t14 6h19q8 0 14 -6t6 -14v-460q0 -8 -6 -14t-14 -6
h-16q-7 0 -14 7q-5 5 -10 10.5t-14 5.5zM202 601q-5 -5 -12.5 -10.5t-18.5 -5.5h-43q-10 0 -13 8t2 13l118 112q5 5 10.5 8.5t19.5 3.5h22q13 0 18.5 -3.5t10.5 -8.5l118 -112q5 -5 2 -13t-13 -8h-43q-11 0 -18.5 5.5t-12.5 10.5l-67 65q-7 7 -14 0z" />
    <glyph glyph-name="udieresis" unicode="&#xfc;" 
d="M387 23q-11 0 -20.5 -5t-22 -11.5t-30.5 -11.5t-46 -5q-39 0 -72 11t-57 33t-37 54.5t-13 75.5v316q0 8 6 14t14 6h19q8 0 14 -6t6 -14v-316q0 -63 36.5 -89t90.5 -26q27 0 50 8.5t40.5 23.5t27 35t9.5 43v321q0 8 6 14t14 6h19q8 0 14 -6t6 -14v-460q0 -8 -6 -14t-14 -6
h-16q-7 0 -14 7q-5 5 -10 10.5t-14 5.5zM231 638q0 -16 -16 -16h-52q-16 0 -16 16v53q0 6 4.5 11t11.5 5h52q7 0 11.5 -5t4.5 -11v-53zM402 638q0 -16 -16 -16h-52q-16 0 -16 16v53q0 6 4.5 11t11.5 5h52q7 0 11.5 -5t4.5 -11v-53z" />
    <glyph glyph-name="yacute" unicode="&#xfd;" 
d="M281 117q4 -10 8 0l134 368q5 15 19 15h28q12 0 17 -7.5t2 -15.5l-254 -662q-5 -15 -19 -15h-22q-12 0 -17 7.5t-2 15.5l74 201q3 8 1 13l-189 440q-3 8 2 15.5t17 7.5h28q14 0 19 -15zM389 730q10 0 13 -8t-2 -13l-108 -112q-5 -5 -10.5 -8.5t-19.5 -3.5h-19
q-10 0 -14 7.5t0 12.5l76 109q4 5 9.5 10.5t16.5 5.5h58z" />
    <glyph glyph-name="thorn" unicode="&#xfe;" 
d="M288 451q-33 0 -56 -13t-37 -32.5t-21 -42.5t-9 -43q-3 -31 -3 -70t3 -70q2 -20 9 -43t21 -42.5t37 -32.5t56 -13q36 0 61 13t40.5 32.5t23 42.5t9.5 43q4 31 4 70t-4 70q-2 20 -9.5 43t-23 42.5t-40 32.5t-61.5 13zM104 687q0 8 6 14t14 6h19q8 0 14 -6t6 -14v-181
q0 -7 5.5 -14t16.5 -7q7 0 18.5 4t25.5 8.5t30.5 8.5t33.5 4q39 0 72.5 -15t58.5 -40.5t40.5 -60.5t18.5 -74q2 -30 2 -70t-2 -70q-3 -39 -18.5 -74t-40.5 -60.5t-58.5 -40.5t-72.5 -15q-17 0 -33.5 4t-30.5 8.5t-25.5 8.5t-18.5 4q-11 0 -16.5 -7t-5.5 -14v-174
q0 -8 -6 -14t-14 -6h-19q-8 0 -14 6t-6 14v867z" />
    <glyph glyph-name="ydieresis" unicode="&#xff;" 
d="M281 117q4 -10 8 0l134 368q5 15 19 15h28q12 0 17 -7.5t2 -15.5l-254 -662q-5 -15 -19 -15h-22q-12 0 -17 7.5t-2 15.5l74 201q3 8 1 13l-189 440q-3 8 2 15.5t17 7.5h28q14 0 19 -15zM231 638q0 -16 -16 -16h-52q-16 0 -16 16v53q0 6 4.5 11t11.5 5h52q7 0 11.5 -5
t4.5 -11v-53zM402 638q0 -16 -16 -16h-52q-16 0 -16 16v53q0 6 4.5 11t11.5 5h52q7 0 11.5 -5t4.5 -11v-53z" />
    <glyph glyph-name="Amacron" unicode="&#x100;" 
d="M104 15q-3 -15 -19 -15h-25q-12 0 -17 6.5t-3 13.5l191 665q3 15 19 15h50q16 0 19 -15l191 -665q2 -7 -3 -13.5t-17 -6.5h-25q-16 0 -19 15l-49 169q-5 14 -19 14h-206q-14 0 -19 -14zM179 271q-3 -11 8 -11h176q11 0 8 11l-91 340q-2 6 -4 6h-2q-3 0 -4 -6zM154 765
q-8 0 -14 6t-6 14v20q0 8 6 14t14 6h242q8 0 14 -6t6 -14v-20q0 -8 -6 -14t-14 -6h-242z" />
    <glyph glyph-name="amacron" unicode="&#x101;" 
d="M251 241q-42 0 -74 -23t-32 -67q0 -27 9.5 -46.5t26 -32.5t37.5 -19.5t45 -6.5q69 0 106.5 32t37.5 93v60q0 10 -10 10h-146zM283 455q-23 0 -44 -6.5t-37 -18t-26 -27.5t-10 -36q0 -13 -8 -15t-15 -2h-14q-20 0 -20 20q0 35 15 61t40 43.5t56 26.5t63 9q37 0 69.5 -10
t57 -30.5t39 -51.5t14.5 -74v-324q0 -8 -6 -14t-14 -6h-9q-10 0 -14 7q-4 6 -7 13.5t-13 7.5q-7 0 -18 -6t-27 -13t-37.5 -13t-49.5 -6q-46 0 -80.5 13t-57 35t-33.5 51t-11 61q0 31 11 58t32 46.5t52 30.5t70 11h143q10 0 10 10v39q0 49 -34 79.5t-87 30.5zM169 634
q-8 0 -14 6t-6 14v20q0 8 6 14t14 6h242q8 0 14 -6t6 -14v-20q0 -8 -6 -14t-14 -6h-242z" />
    <glyph glyph-name="Abreve" unicode="&#x102;" 
d="M104 15q-3 -15 -19 -15h-25q-12 0 -17 6.5t-3 13.5l191 665q3 15 19 15h50q16 0 19 -15l191 -665q2 -7 -3 -13.5t-17 -6.5h-25q-16 0 -19 15l-49 169q-5 14 -19 14h-206q-14 0 -19 -14zM179 271q-3 -11 8 -11h176q11 0 8 11l-91 340q-2 6 -4 6h-2q-3 0 -4 -6zM356 878
q0 7 4.5 12t12.5 5h23q7 0 12 -5t5 -12q0 -27 -10 -50t-28.5 -40.5t-43.5 -27.5t-55 -10t-55.5 10t-44 27.5t-28.5 40.5t-10 50q0 7 5 12t12 5h23q8 0 12.5 -5t4.5 -12q0 -35 23 -55.5t58 -20.5t57.5 20.5t22.5 55.5z" />
    <glyph glyph-name="abreve" unicode="&#x103;" 
d="M251 241q-42 0 -74 -23t-32 -67q0 -27 9.5 -46.5t26 -32.5t37.5 -19.5t45 -6.5q69 0 106.5 32t37.5 93v60q0 10 -10 10h-146zM283 455q-23 0 -44 -6.5t-37 -18t-26 -27.5t-10 -36q0 -13 -8 -15t-15 -2h-14q-20 0 -20 20q0 35 15 61t40 43.5t56 26.5t63 9q37 0 69.5 -10
t57 -30.5t39 -51.5t14.5 -74v-324q0 -8 -6 -14t-14 -6h-9q-10 0 -14 7q-4 6 -7 13.5t-13 7.5q-7 0 -18 -6t-27 -13t-37.5 -13t-49.5 -6q-46 0 -80.5 13t-57 35t-33.5 51t-11 61q0 31 11 58t32 46.5t52 30.5t70 11h143q10 0 10 10v39q0 49 -34 79.5t-87 30.5zM371 713
q0 7 4.5 12t12.5 5h23q7 0 12 -5t5 -12q0 -27 -10 -50t-28.5 -40.5t-43.5 -27.5t-55 -10t-55.5 10t-44 27.5t-28.5 40.5t-10 50q0 7 5 12t12 5h23q8 0 12.5 -5t4.5 -12q0 -35 23 -55.5t58 -20.5t57.5 20.5t22.5 55.5z" />
    <glyph glyph-name="Aogonek" unicode="&#x104;" 
d="M362 260q11 0 8 11l-91 340q-2 6 -4 6h-2q-3 0 -4 -6l-91 -340q-3 -11 8 -11h176zM171 198q-14 0 -19 -14l-49 -169q-3 -15 -19 -15h-25q-12 0 -17 6.5t-3 13.5l191 665q3 15 19 15h50q16 0 19 -15l191 -665q2 -7 -3 -13.5t-17 -6.5h-9q-40 0 -67.5 -18.5t-27.5 -57.5
q0 -41 28 -57.5t76 -16.5q8 0 14 -6t6 -14v-20q0 -8 -6 -14t-14 -6q-36 0 -66 7.5t-52 23t-34 40t-12 58.5q0 27 9 49t24 38.5t35 28t41 17.5l-38 132q-5 14 -19 14h-206z" />
    <glyph glyph-name="aogonek" unicode="&#x105;" 
d="M283 455q-23 0 -44 -6.5t-37 -18t-26 -27.5t-10 -36q0 -13 -8 -15t-15 -2h-14q-20 0 -20 20q0 35 15 61t40 43.5t56 26.5t63 9q37 0 69.5 -10t57 -30.5t39 -51.5t14.5 -74v-324q0 -8 -6 -14t-14 -6q-22 0 -42 -3.5t-35 -12.5t-23.5 -23.5t-8.5 -36.5q0 -40 28 -57t76 -17
q8 0 14 -6t6 -14v-20q0 -8 -6 -14t-14 -6q-36 0 -66 7.5t-52 23t-34 40t-12 58.5q0 24 8 42t22 32q-17 -3 -36 -3q-46 0 -80.5 13t-57 35t-33.5 51t-11 61q0 31 11 58t32 46.5t52 30.5t70 11h143q10 0 10 10v39q0 24 -9 44t-25 35t-38.5 23t-48.5 8zM251 241q-42 0 -74 -23
t-32 -67q0 -27 9.5 -46.5t26 -32.5t37.5 -19.5t45 -6.5q69 0 106.5 32t37.5 93v60q0 10 -10 10h-146z" />
    <glyph glyph-name="Cacute" unicode="&#x106;" 
d="M435 204q0 8 6 14t14 6h27q8 0 14 -6t6 -14v-4q0 -49 -18 -87.5t-48.5 -65.5t-71 -41t-85.5 -14q-91 0 -150.5 55.5t-72.5 152.5q-4 30 -6 69.5t-2 81t2 80.5t6 69q6 41 23 78.5t45 66.5t66.5 46t88.5 17q49 0 90.5 -17t70.5 -45.5t45.5 -66.5t16.5 -79v-4q0 -8 -6 -14
t-14 -6h-27q-8 0 -14 6t-6 14v4q0 28 -11 54t-31.5 46t-49 32t-64.5 12t-63 -12t-46.5 -32.5t-31 -46.5t-15.5 -53q-5 -31 -7 -70t-2 -80t2 -80t7 -70q3 -22 12.5 -47t28 -46.5t46.5 -36t69 -14.5q40 0 69.5 14t49 35.5t28.5 47t9 47.5v4zM399 895q10 0 13 -8t-2 -13
l-108 -112q-5 -5 -10.5 -8.5t-19.5 -3.5h-19q-10 0 -14 7.5t0 12.5l76 109q4 5 9.5 10.5t16.5 5.5h58z" />
    <glyph glyph-name="cacute" unicode="&#x107;" 
d="M283 49q33 0 57 10.5t40 27t23.5 36.5t7.5 40q0 10 6 13.5t13 3.5h21q8 0 14 -6t6 -14q0 -34 -13.5 -64.5t-38.5 -54t-59.5 -37.5t-76.5 -14q-45 0 -81 15t-62 40.5t-41 60.5t-18 74q-2 30 -2 70t2 70q3 39 18 74t41 60.5t62 40.5t81 15q42 0 76.5 -14t59.5 -37.5
t38.5 -54t13.5 -64.5q0 -8 -4.5 -14t-12.5 -6h-23q-7 0 -13 4t-6 12q0 22 -8.5 43t-25 37t-40.5 25.5t-55 9.5q-38 0 -64 -13t-42.5 -32.5t-24.5 -42.5t-10 -43q-3 -31 -3 -70t3 -70q2 -20 10 -43t24.5 -42.5t42.5 -32.5t64 -13zM399 730q10 0 13 -8t-2 -13l-108 -112
q-5 -5 -10.5 -8.5t-19.5 -3.5h-19q-10 0 -14 7.5t0 12.5l76 109q4 5 9.5 10.5t16.5 5.5h58z" />
    <glyph glyph-name="Ccircumflex" unicode="&#x108;" 
d="M435 204q0 8 6 14t14 6h27q8 0 14 -6t6 -14v-4q0 -49 -18 -87.5t-48.5 -65.5t-71 -41t-85.5 -14q-91 0 -150.5 55.5t-72.5 152.5q-4 30 -6 69.5t-2 81t2 80.5t6 69q6 41 23 78.5t45 66.5t66.5 46t88.5 17q49 0 90.5 -17t70.5 -45.5t45.5 -66.5t16.5 -79v-4q0 -8 -6 -14
t-14 -6h-27q-8 0 -14 6t-6 14v4q0 28 -11 54t-31.5 46t-49 32t-64.5 12t-63 -12t-46.5 -32.5t-31 -46.5t-15.5 -53q-5 -31 -7 -70t-2 -80t2 -80t7 -70q3 -22 12.5 -47t28 -46.5t46.5 -36t69 -14.5q40 0 69.5 14t49 35.5t28.5 47t9 47.5v4zM212 767q-5 -5 -12.5 -10.5
t-18.5 -5.5h-43q-10 0 -13 8t2 13l118 112q5 5 10.5 8.5t19.5 3.5h22q13 0 18.5 -3.5t10.5 -8.5l118 -112q5 -5 2 -13t-13 -8h-43q-11 0 -18.5 5.5t-12.5 10.5l-67 65q-7 7 -14 0z" />
    <glyph glyph-name="ccircumflex" unicode="&#x109;" 
d="M283 49q33 0 57 10.5t40 27t23.5 36.5t7.5 40q0 10 6 13.5t13 3.5h21q8 0 14 -6t6 -14q0 -34 -13.5 -64.5t-38.5 -54t-59.5 -37.5t-76.5 -14q-45 0 -81 15t-62 40.5t-41 60.5t-18 74q-2 30 -2 70t2 70q3 39 18 74t41 60.5t62 40.5t81 15q42 0 76.5 -14t59.5 -37.5
t38.5 -54t13.5 -64.5q0 -8 -4.5 -14t-12.5 -6h-23q-7 0 -13 4t-6 12q0 22 -8.5 43t-25 37t-40.5 25.5t-55 9.5q-38 0 -64 -13t-42.5 -32.5t-24.5 -42.5t-10 -43q-3 -31 -3 -70t3 -70q2 -20 10 -43t24.5 -42.5t42.5 -32.5t64 -13zM212 601q-5 -5 -12.5 -10.5t-18.5 -5.5h-43
q-10 0 -13 8t2 13l118 112q5 5 10.5 8.5t19.5 3.5h22q13 0 18.5 -3.5t10.5 -8.5l118 -112q5 -5 2 -13t-13 -8h-43q-11 0 -18.5 5.5t-12.5 10.5l-67 65q-7 7 -14 0z" />
    <glyph glyph-name="Cdotaccent" unicode="&#x10a;" 
d="M435 204q0 8 6 14t14 6h27q8 0 14 -6t6 -14v-4q0 -49 -18 -87.5t-48.5 -65.5t-71 -41t-85.5 -14q-91 0 -150.5 55.5t-72.5 152.5q-4 30 -6 69.5t-2 81t2 80.5t6 69q6 41 23 78.5t45 66.5t66.5 46t88.5 17q49 0 90.5 -17t70.5 -45.5t45.5 -66.5t16.5 -79v-4q0 -8 -6 -14
t-14 -6h-27q-8 0 -14 6t-6 14v4q0 28 -11 54t-31.5 46t-49 32t-64.5 12t-63 -12t-46.5 -32.5t-31 -46.5t-15.5 -53q-5 -31 -7 -70t-2 -80t2 -80t7 -70q3 -22 12.5 -47t28 -46.5t46.5 -36t69 -14.5q40 0 69.5 14t49 35.5t28.5 47t9 47.5v4zM320 770q0 -16 -16 -16h-58
q-16 0 -16 16v59q0 6 4.5 11t11.5 5h58q7 0 11.5 -5t4.5 -11v-59z" />
    <glyph glyph-name="cdotaccent" unicode="&#x10b;" 
d="M283 49q33 0 57 10.5t40 27t23.5 36.5t7.5 40q0 10 6 13.5t13 3.5h21q8 0 14 -6t6 -14q0 -34 -13.5 -64.5t-38.5 -54t-59.5 -37.5t-76.5 -14q-45 0 -81 15t-62 40.5t-41 60.5t-18 74q-2 30 -2 70t2 70q3 39 18 74t41 60.5t62 40.5t81 15q42 0 76.5 -14t59.5 -37.5
t38.5 -54t13.5 -64.5q0 -8 -4.5 -14t-12.5 -6h-23q-7 0 -13 4t-6 12q0 22 -8.5 43t-25 37t-40.5 25.5t-55 9.5q-38 0 -64 -13t-42.5 -32.5t-24.5 -42.5t-10 -43q-3 -31 -3 -70t3 -70q2 -20 10 -43t24.5 -42.5t42.5 -32.5t64 -13zM330 632q0 -16 -16 -16h-58q-16 0 -16 16v59
q0 6 4.5 11t11.5 5h58q7 0 11.5 -5t4.5 -11v-59z" />
    <glyph glyph-name="Ccaron" unicode="&#x10c;" 
d="M435 204q0 8 6 14t14 6h27q8 0 14 -6t6 -14v-4q0 -49 -18 -87.5t-48.5 -65.5t-71 -41t-85.5 -14q-91 0 -150.5 55.5t-72.5 152.5q-4 30 -6 69.5t-2 81t2 80.5t6 69q6 41 23 78.5t45 66.5t66.5 46t88.5 17q49 0 90.5 -17t70.5 -45.5t45.5 -66.5t16.5 -79v-4q0 -8 -6 -14
t-14 -6h-27q-8 0 -14 6t-6 14v4q0 28 -11 54t-31.5 46t-49 32t-64.5 12t-63 -12t-46.5 -32.5t-31 -46.5t-15.5 -53q-5 -31 -7 -70t-2 -80t2 -80t7 -70q3 -22 12.5 -47t28 -46.5t46.5 -36t69 -14.5q40 0 69.5 14t49 35.5t28.5 47t9 47.5v4zM267 815q7 -7 14 0l68 65
q5 5 12.5 10.5t18.5 5.5h42q10 0 13 -8t-2 -13l-118 -112q-5 -5 -10.5 -8.5t-18.5 -3.5h-22q-14 0 -19.5 3.5t-10.5 8.5l-118 112q-5 5 -2 13t13 8h43q11 0 18.5 -5.5t12.5 -10.5z" />
    <glyph glyph-name="ccaron" unicode="&#x10d;" 
d="M283 49q33 0 57 10.5t40 27t23.5 36.5t7.5 40q0 10 6 13.5t13 3.5h21q8 0 14 -6t6 -14q0 -34 -13.5 -64.5t-38.5 -54t-59.5 -37.5t-76.5 -14q-45 0 -81 15t-62 40.5t-41 60.5t-18 74q-2 30 -2 70t2 70q3 39 18 74t41 60.5t62 40.5t81 15q42 0 76.5 -14t59.5 -37.5
t38.5 -54t13.5 -64.5q0 -8 -4.5 -14t-12.5 -6h-23q-7 0 -13 4t-6 12q0 22 -8.5 43t-25 37t-40.5 25.5t-55 9.5q-38 0 -64 -13t-42.5 -32.5t-24.5 -42.5t-10 -43q-3 -31 -3 -70t3 -70q2 -20 10 -43t24.5 -42.5t42.5 -32.5t64 -13zM277 649q7 -7 14 0l68 65q5 5 12.5 10.5
t18.5 5.5h42q10 0 13 -8t-2 -13l-118 -112q-5 -5 -10.5 -8.5t-18.5 -3.5h-22q-14 0 -19.5 3.5t-10.5 8.5l-118 112q-5 5 -2 13t13 8h43q11 0 18.5 -5.5t12.5 -10.5z" />
    <glyph glyph-name="Dcaron" unicode="&#x10e;" 
d="M89 0q-8 0 -14 6t-6 14v660q0 8 6 14t14 6h180q49 0 88 -16t67 -43t45 -63.5t23 -77.5q4 -30 6 -69t2 -80.5t-2 -81t-6 -69.5q-13 -97 -72.5 -148.5t-150.5 -51.5h-180zM269 64q40 0 68.5 13t47 33t28 44t12.5 46q4 31 6.5 70t2.5 80t-2.5 80t-6.5 70q-4 27 -15.5 52
t-31 43.5t-46.5 29.5t-63 11h-126q-10 0 -10 -10v-552q0 -10 10 -10h126zM257 815q7 -7 14 0l68 65q5 5 12.5 10.5t18.5 5.5h42q10 0 13 -8t-2 -13l-118 -112q-5 -5 -10.5 -8.5t-18.5 -3.5h-22q-14 0 -19.5 3.5t-10.5 8.5l-118 112q-5 5 -2 13t13 8h43q11 0 18.5 -5.5
t12.5 -10.5z" />
    <glyph glyph-name="dcaron" unicode="&#x10f;" 
d="M282 49q33 0 56 13t37 32.5t21 42.5t9 43q3 31 3 70t-3 70q-2 20 -9 43t-21 42.5t-37 32.5t-56 13q-36 0 -61 -13t-40.5 -32.5t-23 -42.5t-9.5 -43q-4 -31 -4 -70t4 -70q2 -20 9.5 -43t23 -42.5t40 -32.5t61.5 -13zM277 -10q-39 0 -72.5 15t-58.5 40.5t-40.5 60.5
t-18.5 74q-2 30 -2 70t2 70q3 39 18.5 74t40.5 60.5t58.5 40.5t72.5 15q24 0 40.5 -4t28.5 -8.5t20 -8.5t16 -4q11 0 18 5.5t7 19.5v177q0 8 6 14t14 6h19q8 0 14 -6t6 -14v-667q0 -8 -6 -14t-14 -6h-16q-7 0 -14 7q-5 5 -11 10.5t-14 5.5q-11 0 -19.5 -5t-20.5 -11.5
t-29 -11.5t-45 -5zM536 595q-8 0 -14 6t-6 14v65q0 8 6 14t14 6h60q8 0 14 -6t6 -14v-70q0 -21 -5 -31.5t-11 -19.5l-25 -36q-4 -5 -9.5 -11.5t-19.5 -6.5h-10q-9 0 -14.5 7.5t-0.5 16.5l28 51q3 5 0.5 10t-8.5 5h-5z" />
    <glyph glyph-name="Dcroat" unicode="&#x110;" 
d="M69 680q0 8 6 14t14 6h180q49 0 88 -16t67 -43t45 -63.5t23 -77.5q4 -30 6 -69t2 -80.5t-2 -81t-6 -69.5q-13 -97 -72.5 -148.5t-150.5 -51.5h-180q-8 0 -14 6t-6 14v296q0 10 -10 10h-22q-8 0 -14 6t-6 14v23q0 8 6 14t14 6h22q10 0 10 10v281zM133 74q0 -10 10 -10h126
q40 0 68.5 13t47 33t28 44t12.5 46q4 31 6.5 70t2.5 80t-2.5 80t-6.5 70q-4 27 -15.5 52t-31 43.5t-46.5 29.5t-63 11h-126q-10 0 -10 -10v-227q0 -10 10 -10h100q8 0 14 -6t6 -14v-23q0 -8 -6 -14t-14 -6h-100q-10 0 -10 -10v-242z" />
    <glyph glyph-name="dcroat" unicode="&#x111;" 
d="M283 49q33 0 56 13t37 32.5t21 42.5t9 43q3 31 3 70t-3 70q-2 20 -9 43t-21 42.5t-37 32.5t-56 13q-36 0 -61 -13t-40.5 -32.5t-23 -42.5t-9.5 -43q-4 -31 -4 -70t4 -70q2 -20 9.5 -43t23 -42.5t40 -32.5t61.5 -13zM408 567q0 10 -10 10h-70q-8 0 -14 6t-6 14v10
q0 8 6 14t14 6h70q10 0 10 10v50q0 8 6 14t14 6h19q8 0 14 -6t6 -14v-50q0 -10 10 -10h35q8 0 14 -6t6 -14v-10q0 -8 -6 -14t-14 -6h-35q-10 0 -10 -10v-547q0 -8 -6 -14t-14 -6h-16q-7 0 -14 7q-5 5 -11 10.5t-14 5.5q-11 0 -19.5 -5t-20.5 -11.5t-29 -11.5t-45 -5
q-39 0 -72.5 15t-58.5 40.5t-40.5 60.5t-18.5 74q-2 30 -2 70t2 70q3 39 18.5 74t40.5 60.5t58.5 40.5t72.5 15q24 0 40.5 -4t28.5 -8.5t20 -8.5t16 -4q11 0 18 5.5t7 19.5v57z" />
    <glyph glyph-name="Emacron" unicode="&#x112;" 
d="M161 399q0 -10 10 -10h268q8 0 14 -6t6 -14v-23q0 -8 -6 -14t-14 -6h-268q-10 0 -10 -10v-242q0 -10 10 -10h281q8 0 14 -6t6 -14v-24q0 -8 -6 -14t-14 -6h-335q-8 0 -14 6t-6 14v660q0 8 6 14t14 6h333q8 0 14 -6t6 -14v-24q0 -8 -6 -14t-14 -6h-279q-10 0 -10 -10v-227
zM164 765q-8 0 -14 6t-6 14v20q0 8 6 14t14 6h242q8 0 14 -6t6 -14v-20q0 -8 -6 -14t-14 -6h-242z" />
    <glyph glyph-name="emacron" unicode="&#x113;" 
d="M132 216q0 -36 8.5 -66.5t26.5 -53t45.5 -35t66.5 -12.5q29 0 51.5 8t39 21.5t27 30t16.5 34.5q3 10 9.5 13.5t13.5 3.5h20q8 0 13.5 -4.5t3.5 -15.5q-5 -33 -21 -60.5t-41.5 -47.5t-59 -31t-72.5 -11q-45 0 -81.5 15t-63 40.5t-42 60.5t-18.5 74q-2 30 -2 70t2 70
q3 39 18.5 74t42 60.5t63 40.5t81.5 15q42 0 78.5 -16t63.5 -43t42.5 -63.5t15.5 -77.5v-64q0 -8 -6 -14t-14 -6h-317q-10 0 -10 -10zM134 292q0 -10 10 -10h270q10 0 10 10q0 38 -11 67.5t-30.5 50t-45.5 31t-57 10.5q-67 0 -106.5 -41t-39.5 -118zM164 634q-8 0 -14 6
t-6 14v20q0 8 6 14t14 6h242q8 0 14 -6t6 -14v-20q0 -8 -6 -14t-14 -6h-242z" />
    <glyph glyph-name="Ebreve" unicode="&#x114;" 
d="M161 399q0 -10 10 -10h268q8 0 14 -6t6 -14v-23q0 -8 -6 -14t-14 -6h-268q-10 0 -10 -10v-242q0 -10 10 -10h281q8 0 14 -6t6 -14v-24q0 -8 -6 -14t-14 -6h-335q-8 0 -14 6t-6 14v660q0 8 6 14t14 6h333q8 0 14 -6t6 -14v-24q0 -8 -6 -14t-14 -6h-279q-10 0 -10 -10v-227
zM366 878q0 7 4.5 12t12.5 5h23q7 0 12 -5t5 -12q0 -27 -10 -50t-28.5 -40.5t-43.5 -27.5t-55 -10t-55.5 10t-44 27.5t-28.5 40.5t-10 50q0 7 5 12t12 5h23q8 0 12.5 -5t4.5 -12q0 -35 23 -55.5t58 -20.5t57.5 20.5t22.5 55.5z" />
    <glyph glyph-name="ebreve" unicode="&#x115;" 
d="M132 216q0 -36 8.5 -66.5t26.5 -53t45.5 -35t66.5 -12.5q29 0 51.5 8t39 21.5t27 30t16.5 34.5q3 10 9.5 13.5t13.5 3.5h20q8 0 13.5 -4.5t3.5 -15.5q-5 -33 -21 -60.5t-41.5 -47.5t-59 -31t-72.5 -11q-45 0 -81.5 15t-63 40.5t-42 60.5t-18.5 74q-2 30 -2 70t2 70
q3 39 18.5 74t42 60.5t63 40.5t81.5 15q42 0 78.5 -16t63.5 -43t42.5 -63.5t15.5 -77.5v-64q0 -8 -6 -14t-14 -6h-317q-10 0 -10 -10zM134 292q0 -10 10 -10h270q10 0 10 10q0 38 -11 67.5t-30.5 50t-45.5 31t-57 10.5q-67 0 -106.5 -41t-39.5 -118zM366 713q0 7 4.5 12
t12.5 5h23q7 0 12 -5t5 -12q0 -27 -10 -50t-28.5 -40.5t-43.5 -27.5t-55 -10t-55.5 10t-44 27.5t-28.5 40.5t-10 50q0 7 5 12t12 5h23q8 0 12.5 -5t4.5 -12q0 -35 23 -55.5t58 -20.5t57.5 20.5t22.5 55.5z" />
    <glyph glyph-name="Edotaccent" unicode="&#x116;" 
d="M161 399q0 -10 10 -10h268q8 0 14 -6t6 -14v-23q0 -8 -6 -14t-14 -6h-268q-10 0 -10 -10v-242q0 -10 10 -10h281q8 0 14 -6t6 -14v-24q0 -8 -6 -14t-14 -6h-335q-8 0 -14 6t-6 14v660q0 8 6 14t14 6h333q8 0 14 -6t6 -14v-24q0 -8 -6 -14t-14 -6h-279q-10 0 -10 -10v-227
zM330 770q0 -16 -16 -16h-58q-16 0 -16 16v59q0 6 4.5 11t11.5 5h58q7 0 11.5 -5t4.5 -11v-59z" />
    <glyph glyph-name="edotaccent" unicode="&#x117;" 
d="M132 216q0 -36 8.5 -66.5t26.5 -53t45.5 -35t66.5 -12.5q29 0 51.5 8t39 21.5t27 30t16.5 34.5q3 10 9.5 13.5t13.5 3.5h20q8 0 13.5 -4.5t3.5 -15.5q-5 -33 -21 -60.5t-41.5 -47.5t-59 -31t-72.5 -11q-45 0 -81.5 15t-63 40.5t-42 60.5t-18.5 74q-2 30 -2 70t2 70
q3 39 18.5 74t42 60.5t63 40.5t81.5 15q42 0 78.5 -16t63.5 -43t42.5 -63.5t15.5 -77.5v-64q0 -8 -6 -14t-14 -6h-317q-10 0 -10 -10zM134 292q0 -10 10 -10h270q10 0 10 10q0 38 -11 67.5t-30.5 50t-45.5 31t-57 10.5q-67 0 -106.5 -41t-39.5 -118zM330 632q0 -16 -16 -16
h-58q-16 0 -16 16v59q0 6 4.5 11t11.5 5h58q7 0 11.5 -5t4.5 -11v-59z" />
    <glyph glyph-name="Eogonek" unicode="&#x118;" 
d="M161 399q0 -10 10 -10h268q8 0 14 -6t6 -14v-23q0 -8 -6 -14t-14 -6h-268q-10 0 -10 -10v-242q0 -10 10 -10h281q8 0 14 -6t6 -14v-24q0 -14 -9 -17t-20 -3q-40 0 -67.5 -18.5t-27.5 -57.5q0 -40 28 -57t76 -17q8 0 14 -6t6 -14v-20q0 -8 -6 -14t-14 -6q-36 0 -66 7.5
t-52 23t-34 40t-12 58.5q0 26 8 46t22 35h-201q-8 0 -14 6t-6 14v660q0 8 6 14t14 6h333q8 0 14 -6t6 -14v-24q0 -8 -6 -14t-14 -6h-279q-10 0 -10 -10v-227z" />
    <glyph glyph-name="eogonek" unicode="&#x119;" 
d="M420 40q-10 -10 -23 -21.5t-24.5 -25.5t-19.5 -31t-8 -38q0 -40 28 -57t76 -17q8 0 14 -6t6 -14v-20q0 -8 -6 -14t-14 -6q-36 0 -66 7.5t-52 23t-34 40t-12 58.5q0 41 21 73q-7 -1 -13.5 -1.5t-13.5 -0.5q-45 0 -81.5 15t-63 40.5t-42 60.5t-18.5 74q-2 30 -2 70t2 70
q3 39 18.5 74t42 60.5t63 40.5t81.5 15q42 0 78.5 -16t63.5 -43t42.5 -63.5t15.5 -77.5v-64q0 -8 -6 -14t-14 -6h-317q-10 0 -10 -10q0 -36 8.5 -66.5t26.5 -53t45.5 -35t66.5 -12.5q29 0 51.5 8t39 21.5t27 30t16.5 34.5q3 10 9.5 13.5t13.5 3.5h20q8 0 13.5 -4.5
t3.5 -15.5q-5 -32 -18.5 -55.5t-34.5 -44.5zM134 292q0 -10 10 -10h270q10 0 10 10q0 38 -11 67.5t-30.5 50t-45.5 31t-57 10.5q-67 0 -106.5 -41t-39.5 -118z" />
    <glyph glyph-name="Ecaron" unicode="&#x11a;" 
d="M161 399q0 -10 10 -10h268q8 0 14 -6t6 -14v-23q0 -8 -6 -14t-14 -6h-268q-10 0 -10 -10v-242q0 -10 10 -10h281q8 0 14 -6t6 -14v-24q0 -8 -6 -14t-14 -6h-335q-8 0 -14 6t-6 14v660q0 8 6 14t14 6h333q8 0 14 -6t6 -14v-24q0 -8 -6 -14t-14 -6h-279q-10 0 -10 -10v-227
zM267 815q7 -7 14 0l68 65q5 5 12.5 10.5t18.5 5.5h42q10 0 13 -8t-2 -13l-118 -112q-5 -5 -10.5 -8.5t-18.5 -3.5h-22q-14 0 -19.5 3.5t-10.5 8.5l-118 112q-5 5 -2 13t13 8h43q11 0 18.5 -5.5t12.5 -10.5z" />
    <glyph glyph-name="ecaron" unicode="&#x11b;" 
d="M132 216q0 -36 8.5 -66.5t26.5 -53t45.5 -35t66.5 -12.5q29 0 51.5 8t39 21.5t27 30t16.5 34.5q3 10 9.5 13.5t13.5 3.5h20q8 0 13.5 -4.5t3.5 -15.5q-5 -33 -21 -60.5t-41.5 -47.5t-59 -31t-72.5 -11q-45 0 -81.5 15t-63 40.5t-42 60.5t-18.5 74q-2 30 -2 70t2 70
q3 39 18.5 74t42 60.5t63 40.5t81.5 15q42 0 78.5 -16t63.5 -43t42.5 -63.5t15.5 -77.5v-64q0 -8 -6 -14t-14 -6h-317q-10 0 -10 -10zM134 292q0 -10 10 -10h270q10 0 10 10q0 38 -11 67.5t-30.5 50t-45.5 31t-57 10.5q-67 0 -106.5 -41t-39.5 -118zM277 649q7 -7 14 0
l68 65q5 5 12.5 10.5t18.5 5.5h42q10 0 13 -8t-2 -13l-118 -112q-5 -5 -10.5 -8.5t-18.5 -3.5h-22q-14 0 -19.5 3.5t-10.5 8.5l-118 112q-5 5 -2 13t13 8h43q11 0 18.5 -5.5t12.5 -10.5z" />
    <glyph glyph-name="Gcircumflex" unicode="&#x11c;" 
d="M438 308q0 10 -10 10h-122q-8 0 -14 6t-6 14v24q0 8 6 14t14 6h176q8 0 14 -6t6 -14v-162q0 -49 -18 -87.5t-48.5 -65.5t-71 -41t-85.5 -14q-91 0 -150.5 55.5t-72.5 152.5q-4 30 -6 69.5t-2 81t2 80.5t6 69q6 41 23 78.5t45 66.5t66.5 46t88.5 17q49 0 90.5 -16.5
t70.5 -44.5t45.5 -66t16.5 -81v-4q0 -8 -6 -14t-14 -6h-27q-8 0 -14 6t-6 14v4q0 31 -11 57.5t-31.5 45.5t-49 30t-64.5 11t-63 -12t-46.5 -32.5t-31 -46.5t-15.5 -53q-5 -31 -7 -70t-2 -80t2 -80t7 -70q3 -22 12.5 -47t28 -46.5t46.5 -36t69 -14.5q40 0 70 14t50 35.5
t29.5 47t9.5 47.5v108zM202 767q-5 -5 -12.5 -10.5t-18.5 -5.5h-43q-10 0 -13 8t2 13l118 112q5 5 10.5 8.5t19.5 3.5h22q13 0 18.5 -3.5t10.5 -8.5l118 -112q5 -5 2 -13t-13 -8h-43q-11 0 -18.5 5.5t-12.5 10.5l-67 65q-7 7 -14 0z" />
    <glyph glyph-name="gcircumflex" unicode="&#x11d;" 
d="M446 500q8 0 14 -6t6 -14v-510q0 -36 -13 -69t-36.5 -57.5t-56 -39t-72.5 -14.5q-30 0 -58.5 8.5t-52.5 26t-41.5 43t-24.5 59.5q-5 23 18 23h16q13 0 18 -6t8 -14q5 -14 14 -28.5t23 -26t34 -19t46 -7.5q28 0 50 10.5t37.5 27.5t23.5 38.5t8 44.5v20q0 25 -22 25
q-8 0 -19 -4t-25 -8.5t-30.5 -8.5t-33.5 -4q-39 0 -72.5 15t-58.5 40.5t-40.5 60.5t-18.5 74q-2 30 -2 70t2 70q3 39 18.5 74t40.5 60.5t58.5 40.5t72.5 15q28 0 45 -5t29 -11.5t20.5 -11.5t19.5 -5q8 0 14 5.5t11 10.5q7 7 14 7h16zM282 451q-37 0 -61.5 -13t-40 -32.5
t-23 -42.5t-9.5 -43q-4 -31 -4 -70t4 -70q2 -20 9.5 -43t23 -42.5t40.5 -32.5t61 -13q33 0 56 13t37 32.5t21 42.5t9 43q3 31 3 70t-3 70q-2 20 -9 43t-21 42.5t-37 32.5t-56 13zM212 601q-5 -5 -12.5 -10.5t-18.5 -5.5h-43q-10 0 -13 8t2 13l118 112q5 5 10.5 8.5t19.5 3.5
h22q13 0 18.5 -3.5t10.5 -8.5l118 -112q5 -5 2 -13t-13 -8h-43q-11 0 -18.5 5.5t-12.5 10.5l-67 65q-7 7 -14 0z" />
    <glyph glyph-name="Gbreve" unicode="&#x11e;" 
d="M438 308q0 10 -10 10h-122q-8 0 -14 6t-6 14v24q0 8 6 14t14 6h176q8 0 14 -6t6 -14v-162q0 -49 -18 -87.5t-48.5 -65.5t-71 -41t-85.5 -14q-91 0 -150.5 55.5t-72.5 152.5q-4 30 -6 69.5t-2 81t2 80.5t6 69q6 41 23 78.5t45 66.5t66.5 46t88.5 17q49 0 90.5 -16.5
t70.5 -44.5t45.5 -66t16.5 -81v-4q0 -8 -6 -14t-14 -6h-27q-8 0 -14 6t-6 14v4q0 31 -11 57.5t-31.5 45.5t-49 30t-64.5 11t-63 -12t-46.5 -32.5t-31 -46.5t-15.5 -53q-5 -31 -7 -70t-2 -80t2 -80t7 -70q3 -22 12.5 -47t28 -46.5t46.5 -36t69 -14.5q40 0 70 14t50 35.5
t29.5 47t9.5 47.5v108zM356 878q0 7 4.5 12t12.5 5h23q7 0 12 -5t5 -12q0 -27 -10 -50t-28.5 -40.5t-43.5 -27.5t-55 -10t-55.5 10t-44 27.5t-28.5 40.5t-10 50q0 7 5 12t12 5h23q8 0 12.5 -5t4.5 -12q0 -35 23 -55.5t58 -20.5t57.5 20.5t22.5 55.5z" />
    <glyph glyph-name="gbreve" unicode="&#x11f;" 
d="M446 500q8 0 14 -6t6 -14v-510q0 -36 -13 -69t-36.5 -57.5t-56 -39t-72.5 -14.5q-30 0 -58.5 8.5t-52.5 26t-41.5 43t-24.5 59.5q-5 23 18 23h16q13 0 18 -6t8 -14q5 -14 14 -28.5t23 -26t34 -19t46 -7.5q28 0 50 10.5t37.5 27.5t23.5 38.5t8 44.5v20q0 25 -22 25
q-8 0 -19 -4t-25 -8.5t-30.5 -8.5t-33.5 -4q-39 0 -72.5 15t-58.5 40.5t-40.5 60.5t-18.5 74q-2 30 -2 70t2 70q3 39 18.5 74t40.5 60.5t58.5 40.5t72.5 15q28 0 45 -5t29 -11.5t20.5 -11.5t19.5 -5q8 0 14 5.5t11 10.5q7 7 14 7h16zM282 451q-37 0 -61.5 -13t-40 -32.5
t-23 -42.5t-9.5 -43q-4 -31 -4 -70t4 -70q2 -20 9.5 -43t23 -42.5t40.5 -32.5t61 -13q33 0 56 13t37 32.5t21 42.5t9 43q3 31 3 70t-3 70q-2 20 -9 43t-21 42.5t-37 32.5t-56 13zM366 713q0 7 4.5 12t12.5 5h23q7 0 12 -5t5 -12q0 -27 -10 -50t-28.5 -40.5t-43.5 -27.5
t-55 -10t-55.5 10t-44 27.5t-28.5 40.5t-10 50q0 7 5 12t12 5h23q8 0 12.5 -5t4.5 -12q0 -35 23 -55.5t58 -20.5t57.5 20.5t22.5 55.5z" />
    <glyph glyph-name="Gdotaccent" unicode="&#x120;" 
d="M438 308q0 10 -10 10h-122q-8 0 -14 6t-6 14v24q0 8 6 14t14 6h176q8 0 14 -6t6 -14v-162q0 -49 -18 -87.5t-48.5 -65.5t-71 -41t-85.5 -14q-91 0 -150.5 55.5t-72.5 152.5q-4 30 -6 69.5t-2 81t2 80.5t6 69q6 41 23 78.5t45 66.5t66.5 46t88.5 17q49 0 90.5 -16.5
t70.5 -44.5t45.5 -66t16.5 -81v-4q0 -8 -6 -14t-14 -6h-27q-8 0 -14 6t-6 14v4q0 31 -11 57.5t-31.5 45.5t-49 30t-64.5 11t-63 -12t-46.5 -32.5t-31 -46.5t-15.5 -53q-5 -31 -7 -70t-2 -80t2 -80t7 -70q3 -22 12.5 -47t28 -46.5t46.5 -36t69 -14.5q40 0 70 14t50 35.5
t29.5 47t9.5 47.5v108zM320 770q0 -16 -16 -16h-58q-16 0 -16 16v59q0 6 4.5 11t11.5 5h58q7 0 11.5 -5t4.5 -11v-59z" />
    <glyph glyph-name="gdotaccent" unicode="&#x121;" 
d="M446 500q8 0 14 -6t6 -14v-510q0 -36 -13 -69t-36.5 -57.5t-56 -39t-72.5 -14.5q-30 0 -58.5 8.5t-52.5 26t-41.5 43t-24.5 59.5q-5 23 18 23h16q13 0 18 -6t8 -14q5 -14 14 -28.5t23 -26t34 -19t46 -7.5q28 0 50 10.5t37.5 27.5t23.5 38.5t8 44.5v20q0 25 -22 25
q-8 0 -19 -4t-25 -8.5t-30.5 -8.5t-33.5 -4q-39 0 -72.5 15t-58.5 40.5t-40.5 60.5t-18.5 74q-2 30 -2 70t2 70q3 39 18.5 74t40.5 60.5t58.5 40.5t72.5 15q28 0 45 -5t29 -11.5t20.5 -11.5t19.5 -5q8 0 14 5.5t11 10.5q7 7 14 7h16zM282 451q-37 0 -61.5 -13t-40 -32.5
t-23 -42.5t-9.5 -43q-4 -31 -4 -70t4 -70q2 -20 9.5 -43t23 -42.5t40.5 -32.5t61 -13q33 0 56 13t37 32.5t21 42.5t9 43q3 31 3 70t-3 70q-2 20 -9 43t-21 42.5t-37 32.5t-56 13zM330 632q0 -16 -16 -16h-58q-16 0 -16 16v59q0 6 4.5 11t11.5 5h58q7 0 11.5 -5t4.5 -11v-59z
" />
    <glyph glyph-name="Gcommaaccent" unicode="&#x122;" 
d="M438 308q0 10 -10 10h-122q-8 0 -14 6t-6 14v24q0 8 6 14t14 6h176q8 0 14 -6t6 -14v-162q0 -49 -18 -87.5t-48.5 -65.5t-71 -41t-85.5 -14q-91 0 -150.5 55.5t-72.5 152.5q-4 30 -6 69.5t-2 81t2 80.5t6 69q6 41 23 78.5t45 66.5t66.5 46t88.5 17q49 0 90.5 -16.5
t70.5 -44.5t45.5 -66t16.5 -81v-4q0 -8 -6 -14t-14 -6h-27q-8 0 -14 6t-6 14v4q0 31 -11 57.5t-31.5 45.5t-49 30t-64.5 11t-63 -12t-46.5 -32.5t-31 -46.5t-15.5 -53q-5 -31 -7 -70t-2 -80t2 -80t7 -70q3 -22 12.5 -47t28 -46.5t46.5 -36t69 -14.5q40 0 70 14t50 35.5
t29.5 47t9.5 47.5v108zM246 -150q-8 0 -14 6t-6 14v65q0 8 6 14t14 6h60q8 0 14 -6t6 -14v-70q0 -21 -5 -31.5t-11 -19.5l-25 -36q-4 -5 -9.5 -11.5t-19.5 -6.5h-10q-9 0 -14.5 7.5t-0.5 16.5l28 51q3 5 0.5 10t-8.5 5h-5z" />
    <glyph glyph-name="gcommaaccent" unicode="&#x123;" 
d="M446 500q8 0 14 -6t6 -14v-510q0 -36 -13 -69t-36.5 -57.5t-56 -39t-72.5 -14.5q-30 0 -58.5 8.5t-52.5 26t-41.5 43t-24.5 59.5q-5 23 18 23h16q13 0 18 -6t8 -14q5 -14 14 -28.5t23 -26t34 -19t46 -7.5q28 0 50 10.5t37.5 27.5t23.5 38.5t8 44.5v20q0 25 -22 25
q-8 0 -19 -4t-25 -8.5t-30.5 -8.5t-33.5 -4q-39 0 -72.5 15t-58.5 40.5t-40.5 60.5t-18.5 74q-2 30 -2 70t2 70q3 39 18.5 74t40.5 60.5t58.5 40.5t72.5 15q28 0 45 -5t29 -11.5t20.5 -11.5t19.5 -5q8 0 14 5.5t11 10.5q7 7 14 7h16zM282 451q-37 0 -61.5 -13t-40 -32.5
t-23 -42.5t-9.5 -43q-4 -31 -4 -70t4 -70q2 -20 9.5 -43t23 -42.5t40.5 -32.5t61 -13q33 0 56 13t37 32.5t21 42.5t9 43q3 31 3 70t-3 70q-2 20 -9 43t-21 42.5t-37 32.5t-56 13zM310 681q8 0 14 -6t6 -14v-65q0 -8 -6 -14t-14 -6h-60q-8 0 -14 6t-6 14v70q0 21 5 31.5
t11 19.5l25 36q4 5 9.5 11.5t19.5 6.5h10q9 0 14.5 -7.5t0.5 -16.5l-28 -51q-3 -5 -0.5 -10t8.5 -5h5z" />
    <glyph glyph-name="Hcircumflex" unicode="&#x124;" 
d="M134 400q0 -10 10 -10h262q10 0 10 10v280q0 8 6 14t14 6h24q8 0 14 -6t6 -14v-660q0 -8 -6 -14t-14 -6h-24q-8 0 -14 6t-6 14v296q0 10 -10 10h-262q-10 0 -10 -10v-296q0 -8 -6 -14t-14 -6h-24q-8 0 -14 6t-6 14v660q0 8 6 14t14 6h24q8 0 14 -6t6 -14v-280zM202 767
q-5 -5 -12.5 -10.5t-18.5 -5.5h-43q-10 0 -13 8t2 13l118 112q5 5 10.5 8.5t19.5 3.5h22q13 0 18.5 -3.5t10.5 -8.5l118 -112q5 -5 2 -13t-13 -8h-43q-11 0 -18.5 5.5t-12.5 10.5l-67 65q-7 7 -14 0z" />
    <glyph glyph-name="hcircumflex" unicode="&#x125;" 
d="M114 0q-8 0 -14 6t-6 14v667q0 8 6 14t14 6h19q8 0 14 -6t6 -14v-181q0 -7 5.5 -14t16.5 -7q7 0 16.5 4t22.5 8.5t29.5 8.5t38.5 4q39 0 71.5 -14t55 -38t35 -55.5t12.5 -66.5v-316q0 -8 -6 -14t-14 -6h-19q-8 0 -14 6t-6 14v316q0 51 -34 83t-88 32q-27 0 -49.5 -8.5
t-38.5 -23.5t-25 -35t-9 -43v-321q0 -8 -6 -14t-14 -6h-19zM192 767q-5 -5 -12.5 -10.5t-18.5 -5.5h-43q-10 0 -13 8t2 13l118 112q5 5 10.5 8.5t19.5 3.5h22q13 0 18.5 -3.5t10.5 -8.5l118 -112q5 -5 2 -13t-13 -8h-43q-11 0 -18.5 5.5t-12.5 10.5l-67 65q-7 7 -14 0z" />
    <glyph glyph-name="Hbar" unicode="&#x126;" 
d="M134 585q0 -10 10 -10h262q10 0 10 10v95q0 8 6 14t14 6h24q8 0 14 -6t6 -14v-660q0 -8 -6 -14t-14 -6h-24q-8 0 -14 6t-6 14v296q0 10 -10 10h-262q-10 0 -10 -10v-296q0 -8 -6 -14t-14 -6h-24q-8 0 -14 6t-6 14v660q0 8 6 14t14 6h24q8 0 14 -6t6 -14v-95zM134 400
q0 -10 10 -10h262q10 0 10 10v101q0 10 -10 10h-262q-10 0 -10 -10v-101z" />
    <glyph glyph-name="hbar" unicode="&#x127;" 
d="M153 506q0 -7 5.5 -14t16.5 -7q7 0 16.5 4t22.5 8.5t29.5 8.5t38.5 4q39 0 71.5 -14t55 -38t35 -55.5t12.5 -66.5v-316q0 -8 -6 -14t-14 -6h-19q-8 0 -14 6t-6 14v316q0 51 -34 83t-88 32q-27 0 -49.5 -8.5t-38.5 -23.5t-25 -35t-9 -43v-321q0 -8 -6 -14t-14 -6h-19
q-8 0 -14 6t-6 14v547q0 10 -10 10h-35q-8 0 -14 6t-6 14v10q0 8 6 14t14 6h35q10 0 10 10v50q0 8 6 14t14 6h19q8 0 14 -6t6 -14v-50q0 -10 10 -10h70q8 0 14 -6t6 -14v-10q0 -8 -6 -14t-14 -6h-70q-10 0 -10 -10v-61z" />
    <glyph glyph-name="Itilde" unicode="&#x128;" 
d="M242 630q0 10 -10 10h-125q-8 0 -14 6t-6 14v20q0 8 6 14t14 6h335q8 0 14 -6t6 -14v-20q0 -8 -6 -14t-14 -6h-125q-10 0 -10 -10v-559q0 -10 10 -10h135q8 0 14 -6t6 -14v-21q0 -8 -6 -14t-14 -6h-355q-8 0 -14 6t-6 14v21q0 8 6 14t14 6h135q10 0 10 10v559zM345 832
q19 0 29.5 6.5t16.5 14.5t15.5 4t9.5 -18v-24q0 -20 -20.5 -35.5t-50.5 -15.5q-24 0 -39.5 4t-29 8.5t-30 8.5t-41.5 4q-17 0 -27.5 -5.5t-18.5 -15.5q-6 -7 -15.5 -3.5t-9.5 17.5v24q0 20 20.5 35.5t50.5 15.5q24 0 39.5 -4t29 -8.5t29.5 -8.5t42 -4z" />
    <glyph glyph-name="itilde" unicode="&#x129;" 
d="M365 676q19 0 29.5 6.5t16.5 14.5t15.5 4t9.5 -18v-24q0 -20 -20.5 -35.5t-50.5 -15.5q-24 0 -39.5 4t-29 8.5t-30 8.5t-41.5 4q-17 0 -27.5 -5.5t-18.5 -15.5q-6 -7 -15.5 -3.5t-9.5 17.5v24q0 20 20.5 35.5t50.5 15.5q24 0 39.5 -4t29 -8.5t29.5 -8.5t42 -4zM131 440
q-8 0 -14 6t-6 14v20q0 8 6 14t14 6h175q8 0 14 -6t6 -14v-410q0 -10 10 -10h131q8 0 14 -6t6 -14v-20q0 -8 -6 -14t-14 -6h-346q-8 0 -14 6t-6 14v20q0 8 6 14t14 6h135q10 0 10 10v360q0 10 -10 10h-125z" />
    <glyph glyph-name="Imacron" unicode="&#x12a;" 
d="M242 630q0 10 -10 10h-125q-8 0 -14 6t-6 14v20q0 8 6 14t14 6h335q8 0 14 -6t6 -14v-20q0 -8 -6 -14t-14 -6h-125q-10 0 -10 -10v-559q0 -10 10 -10h135q8 0 14 -6t6 -14v-21q0 -8 -6 -14t-14 -6h-355q-8 0 -14 6t-6 14v21q0 8 6 14t14 6h135q10 0 10 10v559zM154 765
q-8 0 -14 6t-6 14v20q0 8 6 14t14 6h242q8 0 14 -6t6 -14v-20q0 -8 -6 -14t-14 -6h-242z" />
    <glyph glyph-name="imacron" unicode="&#x12b;" 
d="M174 634q-8 0 -14 6t-6 14v20q0 8 6 14t14 6h242q8 0 14 -6t6 -14v-20q0 -8 -6 -14t-14 -6h-242zM131 440q-8 0 -14 6t-6 14v20q0 8 6 14t14 6h175q8 0 14 -6t6 -14v-410q0 -10 10 -10h131q8 0 14 -6t6 -14v-20q0 -8 -6 -14t-14 -6h-346q-8 0 -14 6t-6 14v20q0 8 6 14
t14 6h135q10 0 10 10v360q0 10 -10 10h-125z" />
    <glyph glyph-name="Ibreve" unicode="&#x12c;" 
d="M242 630q0 10 -10 10h-125q-8 0 -14 6t-6 14v20q0 8 6 14t14 6h335q8 0 14 -6t6 -14v-20q0 -8 -6 -14t-14 -6h-125q-10 0 -10 -10v-559q0 -10 10 -10h135q8 0 14 -6t6 -14v-21q0 -8 -6 -14t-14 -6h-355q-8 0 -14 6t-6 14v21q0 8 6 14t14 6h135q10 0 10 10v559zM356 878
q0 7 4.5 12t12.5 5h23q7 0 12 -5t5 -12q0 -27 -10 -50t-28.5 -40.5t-43.5 -27.5t-55 -10t-55.5 10t-44 27.5t-28.5 40.5t-10 50q0 7 5 12t12 5h23q8 0 12.5 -5t4.5 -12q0 -35 23 -55.5t58 -20.5t57.5 20.5t22.5 55.5z" />
    <glyph glyph-name="ibreve" unicode="&#x12d;" 
d="M376 713q0 7 4.5 12t12.5 5h23q7 0 12 -5t5 -12q0 -27 -10 -50t-28.5 -40.5t-43.5 -27.5t-55 -10t-55.5 10t-44 27.5t-28.5 40.5t-10 50q0 7 5 12t12 5h23q8 0 12.5 -5t4.5 -12q0 -35 23 -55.5t58 -20.5t57.5 20.5t22.5 55.5zM131 440q-8 0 -14 6t-6 14v20q0 8 6 14t14 6
h175q8 0 14 -6t6 -14v-410q0 -10 10 -10h131q8 0 14 -6t6 -14v-20q0 -8 -6 -14t-14 -6h-346q-8 0 -14 6t-6 14v20q0 8 6 14t14 6h135q10 0 10 10v360q0 10 -10 10h-125z" />
    <glyph glyph-name="Iogonek" unicode="&#x12e;" 
d="M241 -210q-36 0 -66 7.5t-52 23t-34 40t-12 58.5v122q0 8 6 14t14 6h135q10 0 10 10v559q0 10 -10 10h-125q-8 0 -14 6t-6 14v20q0 8 6 14t14 6h335q8 0 14 -6t6 -14v-20q0 -8 -6 -14t-14 -6h-125q-10 0 -10 -10v-559q0 -10 10 -10h135q8 0 14 -6t6 -14v-21q0 -8 -6 -14
t-14 -6h-315v-76q0 -40 28 -57t76 -17h69q8 0 14 -6t6 -14v-20q0 -8 -6 -14t-14 -6h-69z" />
    <glyph glyph-name="iogonek" unicode="&#x12f;" 
d="M337 638q0 -16 -16 -16h-52q-16 0 -16 16v53q0 6 4.5 11t11.5 5h52q7 0 11.5 -5t4.5 -11v-53zM161 -76q0 -40 28 -57t76 -17h69q8 0 14 -6t6 -14v-20q0 -8 -6 -14t-14 -6h-69q-36 0 -66 7.5t-52 23t-34 40t-12 58.5v121q0 8 6 14t14 6h135q10 0 10 10v360q0 10 -10 10
h-125q-8 0 -14 6t-6 14v20q0 8 6 14t14 6h175q8 0 14 -6t6 -14v-410q0 -10 10 -10h131q8 0 14 -6t6 -14v-20q0 -8 -6 -14t-14 -6h-306v-76z" />
    <glyph glyph-name="Idotaccent" unicode="&#x130;" 
d="M242 630q0 10 -10 10h-125q-8 0 -14 6t-6 14v20q0 8 6 14t14 6h335q8 0 14 -6t6 -14v-20q0 -8 -6 -14t-14 -6h-125q-10 0 -10 -10v-559q0 -10 10 -10h135q8 0 14 -6t6 -14v-21q0 -8 -6 -14t-14 -6h-355q-8 0 -14 6t-6 14v21q0 8 6 14t14 6h135q10 0 10 10v559zM320 770
q0 -16 -16 -16h-58q-16 0 -16 16v59q0 6 4.5 11t11.5 5h58q7 0 11.5 -5t4.5 -11v-59z" />
    <glyph glyph-name="dotlessi" unicode="&#x131;" 
d="M111 440q-8 0 -14 6t-6 14v20q0 8 6 14t14 6h175q8 0 14 -6t6 -14v-410q0 -10 10 -10h131q8 0 14 -6t6 -14v-20q0 -8 -6 -14t-14 -6h-346q-8 0 -14 6t-6 14v20q0 8 6 14t14 6h135q10 0 10 10v360q0 10 -10 10h-125z" />
    <glyph glyph-name="Jcircumflex" unicode="&#x134;" 
d="M120 192q0 -27 10 -51.5t27.5 -43.5t42.5 -30t55 -11q60 0 98 34.5t38 111.5v478q0 8 6 14t14 6h24q8 0 14 -6t6 -14v-488q0 -46 -15.5 -83t-42.5 -63t-63.5 -40t-78.5 -14q-41 0 -77.5 16t-63.5 43t-43 63.5t-16 77.5v8q0 8 6 14t14 6h25q8 0 14 -6t6 -14v-8zM202 767
q-5 -5 -12.5 -10.5t-18.5 -5.5h-43q-10 0 -13 8t2 13l118 112q5 5 10.5 8.5t19.5 3.5h22q13 0 18.5 -3.5t10.5 -8.5l118 -112q5 -5 2 -13t-13 -8h-43q-11 0 -18.5 5.5t-12.5 10.5l-67 65q-7 7 -14 0z" />
    <glyph glyph-name="jcircumflex" unicode="&#x135;" 
d="M384 -35q0 -45 -12 -78t-33 -54.5t-49.5 -32t-61.5 -10.5t-62 12.5t-51 34.5t-34.5 51t-12.5 62q0 8 6 14t15 6h21q8 0 14 -6t6 -14q0 -19 7 -36.5t20 -31t31 -22t40 -8.5q44 0 69.5 25t25.5 76v477q0 10 -10 10h-149q-8 0 -14 6t-6 14v20q0 8 6 14t14 6h200q8 0 14 -6
t6 -14v-515zM202 601q-5 -5 -12.5 -10.5t-18.5 -5.5h-43q-10 0 -13 8t2 13l118 112q5 5 10.5 8.5t19.5 3.5h22q13 0 18.5 -3.5t10.5 -8.5l118 -112q5 -5 2 -13t-13 -8h-43q-11 0 -18.5 5.5t-12.5 10.5l-67 65q-7 7 -14 0z" />
    <glyph glyph-name="Kcommaaccent" unicode="&#x136;" 
d="M425 689q2 3 8.5 7t17.5 4h16q18 0 22 -12.5t-5 -23.5l-267 -291q-5 -6 -6 -11.5t5 -12.5l284 -312q8 -10 5 -23.5t-23 -13.5h-22q-11 0 -17 5t-9 8l-259 286q-2 2 -5 2t-3 -4v-277q0 -8 -6 -14t-14 -6h-24q-8 0 -14 6t-6 14v660q0 8 6 14t14 6h24q8 0 14 -6t6 -14v-264
q0 -4 3 -4t5 2zM246 -150q-8 0 -14 6t-6 14v65q0 8 6 14t14 6h60q8 0 14 -6t6 -14v-70q0 -21 -5 -31.5t-11 -19.5l-25 -36q-4 -5 -9.5 -11.5t-19.5 -6.5h-10q-9 0 -14.5 7.5t-0.5 16.5l28 51q3 5 0.5 10t-8.5 5h-5z" />
    <glyph glyph-name="kcommaaccent" unicode="&#x137;" 
d="M186 209q-2 2 -5 2t-3 -4v-187q0 -8 -6 -14t-14 -6h-19q-8 0 -14 6t-6 14v667q0 8 6 14t14 6h19q8 0 14 -6t6 -14v-375q0 -8 8 -2l201 177q4 4 10.5 8.5t17.5 4.5h18q17 0 19.5 -12.5t-5.5 -20.5l-219 -195q-13 -13 0 -24l234 -213q11 -10 6.5 -22.5t-20.5 -12.5h-20
q-11 0 -18.5 5.5t-11.5 9.5zM246 -150q-8 0 -14 6t-6 14v65q0 8 6 14t14 6h60q8 0 14 -6t6 -14v-70q0 -21 -5 -31.5t-11 -19.5l-25 -36q-4 -5 -9.5 -11.5t-19.5 -6.5h-10q-9 0 -14.5 7.5t-0.5 16.5l28 51q3 5 0.5 10t-8.5 5h-5z" />
    <glyph glyph-name="kgreenlandic" unicode="&#x138;" 
d="M186 209q-2 2 -5 2t-3 -4v-187q0 -8 -6 -14t-14 -6h-19q-8 0 -14 6t-6 14v460q0 8 6 14t14 6h19q8 0 14 -6t6 -14v-168q0 -8 8 -2l201 177q4 4 10.5 8.5t17.5 4.5h18q17 0 19.5 -12.5t-5.5 -20.5l-219 -195q-13 -13 0 -24l234 -213q11 -10 6.5 -22.5t-20.5 -12.5h-20
q-11 0 -18.5 5.5t-11.5 9.5z" />
    <glyph glyph-name="Lacute" unicode="&#x139;" 
d="M184 74q0 -10 10 -10h265q8 0 14 -6t6 -14v-24q0 -8 -6 -14t-14 -6h-319q-8 0 -14 6t-6 14v660q0 8 6 14t14 6h24q8 0 14 -6t6 -14v-606zM309 895q10 0 13 -8t-2 -13l-108 -112q-5 -5 -10.5 -8.5t-19.5 -3.5h-19q-10 0 -14 7.5t0 12.5l76 109q4 5 9.5 10.5t16.5 5.5h58z
" />
    <glyph glyph-name="lacute" unicode="&#x13a;" 
d="M115 647q-8 0 -14 6t-6 14v20q0 8 6 14t14 6h171q8 0 14 -6t6 -14v-617q0 -10 10 -10h127q8 0 14 -6t6 -14v-20q0 -8 -6 -14t-14 -6h-348q-8 0 -14 6t-6 14v20q0 8 6 14t14 6h139q5 0 8.5 2.5t3.5 7.5v567q0 10 -10 10h-121zM389 895q10 0 13 -8t-2 -13l-108 -112
q-5 -5 -10.5 -8.5t-19.5 -3.5h-19q-10 0 -14 7.5t0 12.5l76 109q4 5 9.5 10.5t16.5 5.5h58z" />
    <glyph glyph-name="Lcommaaccent" unicode="&#x13b;" 
d="M184 74q0 -10 10 -10h265q8 0 14 -6t6 -14v-24q0 -8 -6 -14t-14 -6h-319q-8 0 -14 6t-6 14v660q0 8 6 14t14 6h24q8 0 14 -6t6 -14v-606zM256 -150q-8 0 -14 6t-6 14v65q0 8 6 14t14 6h60q8 0 14 -6t6 -14v-70q0 -21 -5 -31.5t-11 -19.5l-25 -36q-4 -5 -9.5 -11.5
t-19.5 -6.5h-10q-9 0 -14.5 7.5t-0.5 16.5l28 51q3 5 0.5 10t-8.5 5h-5z" />
    <glyph glyph-name="lcommaaccent" unicode="&#x13c;" 
d="M115 647q-8 0 -14 6t-6 14v20q0 8 6 14t14 6h171q8 0 14 -6t6 -14v-617q0 -10 10 -10h127q8 0 14 -6t6 -14v-20q0 -8 -6 -14t-14 -6h-348q-8 0 -14 6t-6 14v20q0 8 6 14t14 6h139q5 0 8.5 2.5t3.5 7.5v567q0 10 -10 10h-121zM246 -150q-8 0 -14 6t-6 14v65q0 8 6 14t14 6
h60q8 0 14 -6t6 -14v-70q0 -21 -5 -31.5t-11 -19.5l-25 -36q-4 -5 -9.5 -11.5t-19.5 -6.5h-10q-9 0 -14.5 7.5t-0.5 16.5l28 51q3 5 0.5 10t-8.5 5h-5z" />
    <glyph glyph-name="Lcaron" unicode="&#x13d;" 
d="M184 74q0 -10 10 -10h265q8 0 14 -6t6 -14v-24q0 -8 -6 -14t-14 -6h-319q-8 0 -14 6t-6 14v660q0 8 6 14t14 6h24q8 0 14 -6t6 -14v-606zM302 596q-8 0 -14 6t-6 14v65q0 8 6 14t14 6h60q8 0 14 -6t6 -14v-70q0 -21 -5 -31.5t-11 -19.5l-25 -36q-4 -5 -9.5 -11.5
t-19.5 -6.5h-10q-9 0 -14.5 7.5t-0.5 16.5l28 51q3 5 0.5 10t-8.5 5h-5z" />
    <glyph glyph-name="lcaron" unicode="&#x13e;" 
d="M115 647q-8 0 -14 6t-6 14v20q0 8 6 14t14 6h171q8 0 14 -6t6 -14v-617q0 -10 10 -10h127q8 0 14 -6t6 -14v-20q0 -8 -6 -14t-14 -6h-348q-8 0 -14 6t-6 14v20q0 8 6 14t14 6h139q5 0 8.5 2.5t3.5 7.5v567q0 10 -10 10h-121zM418 595q-8 0 -14 6t-6 14v65q0 8 6 14t14 6
h60q8 0 14 -6t6 -14v-70q0 -21 -5 -31.5t-11 -19.5l-25 -36q-4 -5 -9.5 -11.5t-19.5 -6.5h-10q-9 0 -14.5 7.5t-0.5 16.5l28 51q3 5 0.5 10t-8.5 5h-5z" />
    <glyph glyph-name="Ldot" unicode="&#x13f;" 
d="M184 74q0 -10 10 -10h265q8 0 14 -6t6 -14v-24q0 -8 -6 -14t-14 -6h-319q-8 0 -14 6t-6 14v660q0 8 6 14t14 6h24q8 0 14 -6t6 -14v-606zM364 275q0 -16 -16 -16h-58q-16 0 -16 16v59q0 6 4.5 11t11.5 5h58q7 0 11.5 -5t4.5 -11v-59z" />
    <glyph glyph-name="ldot" unicode="&#x140;" 
d="M115 647q-8 0 -14 6t-6 14v20q0 8 6 14t14 6h171q8 0 14 -6t6 -14v-617q0 -10 10 -10h127q8 0 14 -6t6 -14v-20q0 -8 -6 -14t-14 -6h-348q-8 0 -14 6t-6 14v20q0 8 6 14t14 6h139q5 0 8.5 2.5t3.5 7.5v567q0 10 -10 10h-121zM480 275q0 -16 -16 -16h-58q-16 0 -16 16v59
q0 6 4.5 11t11.5 5h58q7 0 11.5 -5t4.5 -11v-59z" />
    <glyph glyph-name="Lslash" unicode="&#x141;" 
d="M184 74q0 -10 10 -10h265q8 0 14 -6t6 -14v-24q0 -8 -6 -14t-14 -6h-319q-8 0 -14 6t-6 14v223q0 5 -3.5 6t-5.5 -1l-33 -23q-8 -5 -18 -1t-10 15v17q0 8 2 14t13 14l47 33q8 6 8 14v349q0 8 6 14t14 6h24q8 0 14 -6t6 -14v-295q0 -3 3 -4.5t6 0.5l137 97q7 5 16 0.5
t9 -14.5v-21q0 -10 -6.5 -17.5t-13.5 -12.5l-145 -103q-6 -5 -6 -10v-226z" />
    <glyph glyph-name="lslash" unicode="&#x142;" 
d="M246 637q0 10 -10 10h-121q-8 0 -14 6t-6 14v20q0 8 6 14t14 6h171q8 0 14 -6t6 -14v-304q0 -3 3 -4.5t6 0.5l54 36q7 5 16 0.5t9 -14.5v-21q0 -10 -6.5 -17.5t-13.5 -12.5l-62 -42q-6 -5 -6 -10v-228q0 -10 10 -10h127q8 0 14 -6t6 -14v-20q0 -8 -6 -14t-14 -6h-348
q-8 0 -14 6t-6 14v20q0 8 6 14t14 6h140q11 0 11 10v181q0 5 -3.5 6t-5.5 -1l-36 -23q-8 -5 -18 -1t-10 15v17q0 8 2 14t13 14l50 33q8 6 8 14v298z" />
    <glyph glyph-name="Nacute" unicode="&#x143;" 
d="M475 20q0 -8 -6 -14t-14 -6h-52q-8 0 -12 3t-9 14l-239 574q-2 3 -5 2.5t-3 -4.5v-569q0 -8 -6 -14t-14 -6h-20q-8 0 -14 6t-6 14v660q0 8 6 14t14 6h52q8 0 12 -3t9 -14l239 -569q2 -3 5 -2.5t3 4.5v564q0 8 6 14t14 6h20q8 0 14 -6t6 -14v-660zM389 895q10 0 13 -8
t-2 -13l-108 -112q-5 -5 -10.5 -8.5t-19.5 -3.5h-19q-10 0 -14 7.5t0 12.5l76 109q4 5 9.5 10.5t16.5 5.5h58z" />
    <glyph glyph-name="nacute" unicode="&#x144;" 
d="M163 477q11 0 20.5 5t22 11.5t30.5 11.5t46 5q39 0 72 -11t57 -33t37 -54.5t13 -75.5v-316q0 -8 -6 -14t-14 -6h-19q-8 0 -14 6t-6 14v316q0 63 -36.5 89t-90.5 26q-27 0 -50 -8.5t-40.5 -23.5t-27 -35t-9.5 -43v-321q0 -8 -6 -14t-14 -6h-19q-8 0 -14 6t-6 14v460
q0 8 6 14t14 6h16q7 0 14 -7q5 -5 10 -10.5t14 -5.5zM389 730q10 0 13 -8t-2 -13l-108 -112q-5 -5 -10.5 -8.5t-19.5 -3.5h-19q-10 0 -14 7.5t0 12.5l76 109q4 5 9.5 10.5t16.5 5.5h58z" />
    <glyph glyph-name="Ncommaaccent" unicode="&#x145;" 
d="M475 20q0 -8 -6 -14t-14 -6h-52q-8 0 -12 3t-9 14l-239 574q-2 3 -5 2.5t-3 -4.5v-569q0 -8 -6 -14t-14 -6h-20q-8 0 -14 6t-6 14v660q0 8 6 14t14 6h52q8 0 12 -3t9 -14l239 -569q2 -3 5 -2.5t3 4.5v564q0 8 6 14t14 6h20q8 0 14 -6t6 -14v-660zM246 -150q-8 0 -14 6
t-6 14v65q0 8 6 14t14 6h60q8 0 14 -6t6 -14v-70q0 -21 -5 -31.5t-11 -19.5l-25 -36q-4 -5 -9.5 -11.5t-19.5 -6.5h-10q-9 0 -14.5 7.5t-0.5 16.5l28 51q3 5 0.5 10t-8.5 5h-5z" />
    <glyph glyph-name="ncommaaccent" unicode="&#x146;" 
d="M163 477q11 0 20.5 5t22 11.5t30.5 11.5t46 5q39 0 72 -11t57 -33t37 -54.5t13 -75.5v-316q0 -8 -6 -14t-14 -6h-19q-8 0 -14 6t-6 14v316q0 63 -36.5 89t-90.5 26q-27 0 -50 -8.5t-40.5 -23.5t-27 -35t-9.5 -43v-321q0 -8 -6 -14t-14 -6h-19q-8 0 -14 6t-6 14v460
q0 8 6 14t14 6h16q7 0 14 -7q5 -5 10 -10.5t14 -5.5zM246 -150q-8 0 -14 6t-6 14v65q0 8 6 14t14 6h60q8 0 14 -6t6 -14v-70q0 -21 -5 -31.5t-11 -19.5l-25 -36q-4 -5 -9.5 -11.5t-19.5 -6.5h-10q-9 0 -14.5 7.5t-0.5 16.5l28 51q3 5 0.5 10t-8.5 5h-5z" />
    <glyph glyph-name="Ncaron" unicode="&#x147;" 
d="M475 20q0 -8 -6 -14t-14 -6h-52q-8 0 -12 3t-9 14l-239 574q-2 3 -5 2.5t-3 -4.5v-569q0 -8 -6 -14t-14 -6h-20q-8 0 -14 6t-6 14v660q0 8 6 14t14 6h52q8 0 12 -3t9 -14l239 -569q2 -3 5 -2.5t3 4.5v564q0 8 6 14t14 6h20q8 0 14 -6t6 -14v-660zM267 815q7 -7 14 0
l68 65q5 5 12.5 10.5t18.5 5.5h42q10 0 13 -8t-2 -13l-118 -112q-5 -5 -10.5 -8.5t-18.5 -3.5h-22q-14 0 -19.5 3.5t-10.5 8.5l-118 112q-5 5 -2 13t13 8h43q11 0 18.5 -5.5t12.5 -10.5z" />
    <glyph glyph-name="ncaron" unicode="&#x148;" 
d="M163 477q11 0 20.5 5t22 11.5t30.5 11.5t46 5q39 0 72 -11t57 -33t37 -54.5t13 -75.5v-316q0 -8 -6 -14t-14 -6h-19q-8 0 -14 6t-6 14v316q0 63 -36.5 89t-90.5 26q-27 0 -50 -8.5t-40.5 -23.5t-27 -35t-9.5 -43v-321q0 -8 -6 -14t-14 -6h-19q-8 0 -14 6t-6 14v460
q0 8 6 14t14 6h16q7 0 14 -7q5 -5 10 -10.5t14 -5.5zM267 649q7 -7 14 0l68 65q5 5 12.5 10.5t18.5 5.5h42q10 0 13 -8t-2 -13l-118 -112q-5 -5 -10.5 -8.5t-18.5 -3.5h-22q-14 0 -19.5 3.5t-10.5 8.5l-118 112q-5 5 -2 13t13 8h43q11 0 18.5 -5.5t12.5 -10.5z" />
    <glyph glyph-name="Eng" unicode="&#x14a;" 
d="M143 591q-2 3 -5 2.5t-3 -4.5v-569q0 -8 -6 -14t-14 -6h-20q-8 0 -14 6t-6 14v660q0 8 6 14t14 6h52q8 0 12 -3t9 -14l239 -523q2 -3 5 -2.5t3 4.5v518q0 8 6 14t14 6h20q8 0 14 -6t6 -14v-705q0 -93 -45 -139t-125 -46q-8 0 -14 6t-6 14v24q0 8 6 14t14 6q55 0 80.5 28
t25.5 91v27z" />
    <glyph glyph-name="eng" unicode="&#x14b;" 
d="M296 -154q56 0 81 32.5t25 94.5v363q0 63 -36.5 89t-90.5 26q-27 0 -50 -8.5t-40.5 -23.5t-27 -35t-9.5 -43v-321q0 -8 -6 -14t-14 -6h-19q-8 0 -14 6t-6 14v460q0 8 6 14t14 6h16q6 0 10 -3.5t8 -8t8.5 -8t11.5 -3.5q11 0 20.5 5t22 11.5t30.5 11.5t46 5q39 0 72 -11
t57 -33t37 -54.5t13 -75.5v-361q0 -93 -42.5 -139t-122.5 -46q-8 0 -14 6t-6 14v16q0 8 6 14t14 6z" />
    <glyph glyph-name="Omacron" unicode="&#x14c;" 
d="M275 644q-36 0 -63 -12t-46.5 -32.5t-31 -46.5t-15.5 -53q-5 -31 -7 -70t-2 -80t2 -80t7 -70q3 -22 12.5 -47t28 -46.5t46.5 -36t69 -14.5q40 0 68.5 14.5t47 36t28 46.5t12.5 47q4 31 6.5 70t2.5 80t-2.5 80t-6.5 70q-4 27 -15.5 53t-31 46.5t-46.5 32.5t-63 12z
M275 708q49 0 88 -17t67 -46t45 -66.5t23 -78.5q4 -30 6 -69t2 -80.5t-2 -81t-6 -69.5q-13 -97 -72.5 -152.5t-150.5 -55.5t-150.5 55.5t-72.5 152.5q-4 30 -6 69.5t-2 81t2 80.5t6 69q6 41 23 78.5t45 66.5t66.5 46t88.5 17zM154 765q-8 0 -14 6t-6 14v20q0 8 6 14t14 6
h242q8 0 14 -6t6 -14v-20q0 -8 -6 -14t-14 -6h-242z" />
    <glyph glyph-name="omacron" unicode="&#x14d;" 
d="M275 510q45 0 81 -15t62 -40.5t41 -60.5t18 -74q2 -30 2 -70t-2 -70q-3 -39 -18 -74t-41 -60.5t-62 -40.5t-81 -15t-81 15t-62 40.5t-41 60.5t-18 74q-2 30 -2 70t2 70q3 39 18 74t41 60.5t62 40.5t81 15zM275 49q37 0 63.5 13t43 32.5t24.5 42.5t10 43q3 31 3 70t-3 70
q-2 20 -10 43t-24.5 42.5t-43 32.5t-63.5 13q-38 0 -64 -13t-42.5 -32.5t-24.5 -42.5t-10 -43q-3 -31 -3 -70t3 -70q2 -20 10 -43t24.5 -42.5t42.5 -32.5t64 -13zM154 634q-8 0 -14 6t-6 14v20q0 8 6 14t14 6h242q8 0 14 -6t6 -14v-20q0 -8 -6 -14t-14 -6h-242z" />
    <glyph glyph-name="Obreve" unicode="&#x14e;" 
d="M275 644q-36 0 -63 -12t-46.5 -32.5t-31 -46.5t-15.5 -53q-5 -31 -7 -70t-2 -80t2 -80t7 -70q3 -22 12.5 -47t28 -46.5t46.5 -36t69 -14.5q40 0 68.5 14.5t47 36t28 46.5t12.5 47q4 31 6.5 70t2.5 80t-2.5 80t-6.5 70q-4 27 -15.5 53t-31 46.5t-46.5 32.5t-63 12z
M275 708q49 0 88 -17t67 -46t45 -66.5t23 -78.5q4 -30 6 -69t2 -80.5t-2 -81t-6 -69.5q-13 -97 -72.5 -152.5t-150.5 -55.5t-150.5 55.5t-72.5 152.5q-4 30 -6 69.5t-2 81t2 80.5t6 69q6 41 23 78.5t45 66.5t66.5 46t88.5 17zM356 878q0 7 4.5 12t12.5 5h23q7 0 12 -5t5 -12
q0 -27 -10 -50t-28.5 -40.5t-43.5 -27.5t-55 -10t-55.5 10t-44 27.5t-28.5 40.5t-10 50q0 7 5 12t12 5h23q8 0 12.5 -5t4.5 -12q0 -35 23 -55.5t58 -20.5t57.5 20.5t22.5 55.5z" />
    <glyph glyph-name="obreve" unicode="&#x14f;" 
d="M275 510q45 0 81 -15t62 -40.5t41 -60.5t18 -74q2 -30 2 -70t-2 -70q-3 -39 -18 -74t-41 -60.5t-62 -40.5t-81 -15t-81 15t-62 40.5t-41 60.5t-18 74q-2 30 -2 70t2 70q3 39 18 74t41 60.5t62 40.5t81 15zM275 49q37 0 63.5 13t43 32.5t24.5 42.5t10 43q3 31 3 70t-3 70
q-2 20 -10 43t-24.5 42.5t-43 32.5t-63.5 13q-38 0 -64 -13t-42.5 -32.5t-24.5 -42.5t-10 -43q-3 -31 -3 -70t3 -70q2 -20 10 -43t24.5 -42.5t42.5 -32.5t64 -13zM356 713q0 7 4.5 12t12.5 5h23q7 0 12 -5t5 -12q0 -27 -10 -50t-28.5 -40.5t-43.5 -27.5t-55 -10t-55.5 10
t-44 27.5t-28.5 40.5t-10 50q0 7 5 12t12 5h23q8 0 12.5 -5t4.5 -12q0 -35 23 -55.5t58 -20.5t57.5 20.5t22.5 55.5z" />
    <glyph glyph-name="Ohungarumlaut" unicode="&#x150;" 
d="M275 644q-36 0 -63 -12t-46.5 -32.5t-31 -46.5t-15.5 -53q-5 -31 -7 -70t-2 -80t2 -80t7 -70q3 -22 12.5 -47t28 -46.5t46.5 -36t69 -14.5q40 0 68.5 14.5t47 36t28 46.5t12.5 47q4 31 6.5 70t2.5 80t-2.5 80t-6.5 70q-4 27 -15.5 53t-31 46.5t-46.5 32.5t-63 12z
M275 708q49 0 88 -17t67 -46t45 -66.5t23 -78.5q4 -30 6 -69t2 -80.5t-2 -81t-6 -69.5q-13 -97 -72.5 -152.5t-150.5 -55.5t-150.5 55.5t-72.5 152.5q-4 30 -6 69.5t-2 81t2 80.5t6 69q6 41 23 78.5t45 66.5t66.5 46t88.5 17zM321 895q10 0 13 -8t-2 -13l-108 -112
q-5 -5 -10.5 -8.5t-19.5 -3.5h-19q-10 0 -14 7.5t0 12.5l76 109q4 5 9.5 10.5t16.5 5.5h58zM478 895q10 0 13 -8t-2 -13l-108 -112q-5 -5 -10.5 -8.5t-19.5 -3.5h-19q-10 0 -14 7.5t0 12.5l76 109q4 5 9.5 10.5t16.5 5.5h58z" />
    <glyph glyph-name="ohungarumlaut" unicode="&#x151;" 
d="M275 510q45 0 81 -15t62 -40.5t41 -60.5t18 -74q2 -30 2 -70t-2 -70q-3 -39 -18 -74t-41 -60.5t-62 -40.5t-81 -15t-81 15t-62 40.5t-41 60.5t-18 74q-2 30 -2 70t2 70q3 39 18 74t41 60.5t62 40.5t81 15zM275 49q37 0 63.5 13t43 32.5t24.5 42.5t10 43q3 31 3 70t-3 70
q-2 20 -10 43t-24.5 42.5t-43 32.5t-63.5 13q-38 0 -64 -13t-42.5 -32.5t-24.5 -42.5t-10 -43q-3 -31 -3 -70t3 -70q2 -20 10 -43t24.5 -42.5t42.5 -32.5t64 -13zM321 730q10 0 13 -8t-2 -13l-108 -112q-5 -5 -10.5 -8.5t-19.5 -3.5h-19q-10 0 -14 7.5t0 12.5l76 109
q4 5 9.5 10.5t16.5 5.5h58zM478 730q10 0 13 -8t-2 -13l-108 -112q-5 -5 -10.5 -8.5t-19.5 -3.5h-19q-10 0 -14 7.5t0 12.5l76 109q4 5 9.5 10.5t16.5 5.5h58z" />
    <glyph glyph-name="OE" unicode="&#x152;" 
d="M487 700q8 0 14 -6t6 -14v-24q0 -8 -6 -14t-14 -6h-131q-10 0 -10 -10v-227q0 -10 10 -10h120q8 0 14 -6t6 -14v-23q0 -8 -6 -14t-14 -6h-120q-10 0 -10 -10v-242q0 -10 10 -10h133q8 0 14 -6t6 -14v-24q0 -8 -6 -14t-14 -6h-225q-91 0 -145.5 51.5t-67.5 148.5
q-4 30 -6 69.5t-2 81t2 80.5t6 69q6 41 21 77.5t41.5 63.5t63.5 43t87 16h223zM264 64q8 0 14 6t6 14v532q0 8 -6 14t-14 6q-36 0 -61.5 -11t-43 -29.5t-27.5 -43.5t-14 -52q-5 -31 -7 -70t-2 -80t2 -80t7 -70q3 -22 11 -46t24.5 -44t43 -33t67.5 -13z" />
    <glyph glyph-name="oe" unicode="&#x153;" 
d="M292 28q-7 8 -21.5 8.5t-22.5 -7.5q-20 -16 -38.5 -27.5t-49.5 -11.5q-41 0 -70 21t-47.5 57.5t-27.5 84.5t-9 102t9.5 100.5t28.5 81t48 54t68 19.5q38 0 56 -11.5t35 -30.5q7 -8 18.5 -9.5t21.5 8.5q18 20 42 31.5t57 11.5q34 0 62 -15.5t47.5 -42.5t30 -63.5
t10.5 -78.5v-64q-1 -8 -6.5 -14t-13.5 -6h-217q-10 0 -10 -10q0 -36 5.5 -66.5t17.5 -53t30.5 -35t43.5 -12.5q21 0 36 8.5t25 22t16.5 30.5t9.5 33q2 10 9 13.5t14 3.5h17q8 0 13.5 -4.5t3.5 -15.5q-5 -29 -16 -56t-29 -48t-42.5 -33.5t-56.5 -12.5q-66 0 -98 38zM295 292
q0 -10 10 -10h170q10 0 10 10q0 70 -22 114.5t-72 44.5q-45 0 -70.5 -42t-25.5 -117zM72 255q0 -41 4.5 -78t15 -65.5t27 -45.5t41.5 -17t40.5 17t24.5 45.5t12 65.5t3 78q0 40 -3 76t-12 62.5t-24.5 42t-40.5 15.5t-41.5 -15.5t-27 -42t-15 -62.5t-4.5 -76z" />
    <glyph glyph-name="Racute" unicode="&#x154;" 
d="M157 636q-10 0 -10 -10v-272q0 -10 10 -10h116q30 0 56.5 11.5t46.5 31.5t31.5 46.5t11.5 56.5t-11.5 56.5t-31.5 46.5t-46.5 31.5t-56.5 11.5h-116zM157 280q-10 0 -10 -10v-250q0 -8 -6 -14t-14 -6h-24q-8 0 -14 6t-6 14v660q0 8 6 14t14 6h170q43 0 81.5 -16.5t67 -45
t45 -67t16.5 -81.5q0 -68 -32.5 -112t-86.5 -78q-18 -12 -7 -32l126 -238q6 -11 1 -20.5t-20 -9.5h-22q-11 0 -18 6t-12 14.5t-9 18t-8 17.5l-110 212q-2 5 -6.5 8.5t-12.5 3.5h-109zM379 895q10 0 13 -8t-2 -13l-108 -112q-5 -5 -10.5 -8.5t-19.5 -3.5h-19q-10 0 -14 7.5
t0 12.5l76 109q4 5 9.5 10.5t16.5 5.5h58z" />
    <glyph glyph-name="racute" unicode="&#x155;" 
d="M438 340q0 48 -34 79.5t-94 31.5q-27 0 -50.5 -9t-40.5 -25t-27 -38.5t-10 -48.5v-310q0 -8 -6 -14t-14 -6h-19q-8 0 -14 6t-6 14v460q0 8 6 14t14 6h16q7 0 14 -7q5 -5 11 -10.5t14 -5.5q11 0 21 5l23 11.5t31.5 11.5t46.5 5q38 0 70.5 -12t56 -34t37 -53.5t13.5 -70.5
q0 -8 -6 -14t-14 -6h-19q-8 0 -14 6t-6 14zM409 730q10 0 13 -8t-2 -13l-108 -112q-5 -5 -10.5 -8.5t-19.5 -3.5h-19q-10 0 -14 7.5t0 12.5l76 109q4 5 9.5 10.5t16.5 5.5h58z" />
    <glyph glyph-name="Rcommaaccent" unicode="&#x156;" 
d="M157 636q-10 0 -10 -10v-272q0 -10 10 -10h116q30 0 56.5 11.5t46.5 31.5t31.5 46.5t11.5 56.5t-11.5 56.5t-31.5 46.5t-46.5 31.5t-56.5 11.5h-116zM157 280q-10 0 -10 -10v-250q0 -8 -6 -14t-14 -6h-24q-8 0 -14 6t-6 14v660q0 8 6 14t14 6h170q43 0 81.5 -16.5t67 -45
t45 -67t16.5 -81.5q0 -68 -32.5 -112t-86.5 -78q-18 -12 -7 -32l126 -238q6 -11 1 -20.5t-20 -9.5h-22q-11 0 -18 6t-12 14.5t-9 18t-8 17.5l-110 212q-2 5 -6.5 8.5t-12.5 3.5h-109zM236 -150q-8 0 -14 6t-6 14v65q0 8 6 14t14 6h60q8 0 14 -6t6 -14v-70q0 -21 -5 -31.5
t-11 -19.5l-25 -36q-4 -5 -9.5 -11.5t-19.5 -6.5h-10q-9 0 -14.5 7.5t-0.5 16.5l28 51q3 5 0.5 10t-8.5 5h-5z" />
    <glyph glyph-name="rcommaaccent" unicode="&#x157;" 
d="M438 340q0 48 -34 79.5t-94 31.5q-27 0 -50.5 -9t-40.5 -25t-27 -38.5t-10 -48.5v-310q0 -8 -6 -14t-14 -6h-19q-8 0 -14 6t-6 14v460q0 8 6 14t14 6h16q7 0 14 -7q5 -5 11 -10.5t14 -5.5q11 0 21 5l23 11.5t31.5 11.5t46.5 5q38 0 70.5 -12t56 -34t37 -53.5t13.5 -70.5
q0 -8 -6 -14t-14 -6h-19q-8 0 -14 6t-6 14zM123 -150q-8 0 -14 6t-6 14v65q0 8 6 14t14 6h60q8 0 14 -6t6 -14v-70q0 -21 -5 -31.5t-11 -19.5l-25 -36q-4 -5 -9.5 -11.5t-19.5 -6.5h-10q-9 0 -14.5 7.5t-0.5 16.5l28 51q3 5 0.5 10t-8.5 5h-5z" />
    <glyph glyph-name="Rcaron" unicode="&#x158;" 
d="M157 636q-10 0 -10 -10v-272q0 -10 10 -10h116q30 0 56.5 11.5t46.5 31.5t31.5 46.5t11.5 56.5t-11.5 56.5t-31.5 46.5t-46.5 31.5t-56.5 11.5h-116zM157 280q-10 0 -10 -10v-250q0 -8 -6 -14t-14 -6h-24q-8 0 -14 6t-6 14v660q0 8 6 14t14 6h170q43 0 81.5 -16.5t67 -45
t45 -67t16.5 -81.5q0 -68 -32.5 -112t-86.5 -78q-18 -12 -7 -32l126 -238q6 -11 1 -20.5t-20 -9.5h-22q-11 0 -18 6t-12 14.5t-9 18t-8 17.5l-110 212q-2 5 -6.5 8.5t-12.5 3.5h-109zM257 815q7 -7 14 0l68 65q5 5 12.5 10.5t18.5 5.5h42q10 0 13 -8t-2 -13l-118 -112
q-5 -5 -10.5 -8.5t-18.5 -3.5h-22q-14 0 -19.5 3.5t-10.5 8.5l-118 112q-5 5 -2 13t13 8h43q11 0 18.5 -5.5t12.5 -10.5z" />
    <glyph glyph-name="rcaron" unicode="&#x159;" 
d="M438 340q0 48 -34 79.5t-94 31.5q-27 0 -50.5 -9t-40.5 -25t-27 -38.5t-10 -48.5v-310q0 -8 -6 -14t-14 -6h-19q-8 0 -14 6t-6 14v460q0 8 6 14t14 6h16q7 0 14 -7q5 -5 11 -10.5t14 -5.5q11 0 21 5l23 11.5t31.5 11.5t46.5 5q38 0 70.5 -12t56 -34t37 -53.5t13.5 -70.5
q0 -8 -6 -14t-14 -6h-19q-8 0 -14 6t-6 14zM297 649q7 -7 14 0l68 65q5 5 12.5 10.5t18.5 5.5h42q10 0 13 -8t-2 -13l-118 -112q-5 -5 -10.5 -8.5t-18.5 -3.5h-22q-14 0 -19.5 3.5t-10.5 8.5l-118 112q-5 5 -2 13t13 8h43q11 0 18.5 -5.5t12.5 -10.5z" />
    <glyph glyph-name="Sacute" unicode="&#x15a;" 
d="M425 200q0 34 -11.5 57.5t-34.5 40.5t-56 28.5t-76 21.5q-27 6 -57 17.5t-54.5 31t-40.5 49.5t-16 74q0 45 16 80t43 59t62.5 36.5t74.5 12.5q44 0 80 -15t61.5 -40.5t39.5 -59.5t14 -73v-13q0 -8 -6 -14t-14 -6h-24q-8 0 -14 6t-6 14v13q0 27 -10 49.5t-27.5 39
t-41.5 26t-52 9.5q-33 0 -58 -10.5t-41 -28t-24 -40t-8 -45.5q0 -34 16 -54t40 -32t52.5 -19t54.5 -15q40 -12 74 -27.5t58 -38.5t37.5 -55.5t13.5 -78.5q0 -49 -17.5 -87.5t-47.5 -65.5t-69 -41t-81 -14q-48 0 -88 16.5t-68 45t-43.5 66t-15.5 80.5v16q0 8 6 14t14 6h25
q8 0 14 -6t6 -14v-16q0 -26 9.5 -52t28.5 -46.5t47 -33t65 -12.5q69 0 109 40t41 104zM409 895q10 0 13 -8t-2 -13l-108 -112q-5 -5 -10.5 -8.5t-19.5 -3.5h-19q-10 0 -14 7.5t0 12.5l76 109q4 5 9.5 10.5t16.5 5.5h58z" />
    <glyph glyph-name="sacute" unicode="&#x15b;" 
d="M82 163q0 8 6 14t14 6h19q8 0 14 -6t6 -14q0 -27 10.5 -48.5t28.5 -36.5t42.5 -22.5t52.5 -7.5q62 0 97.5 28t35.5 69q0 24 -13 40t-33 26.5t-44.5 16.5t-47.5 9q-33 5 -64 13.5t-54.5 24t-38 39t-14.5 58.5q0 29 14.5 54.5t39 44t56.5 29t66 10.5t65 -10t55 -29.5
t38.5 -47t14.5 -63.5q0 -8 -6 -14t-14 -6h-19q-8 0 -14 6t-6 14q0 38 -31 66t-83 28q-53 0 -84.5 -25t-31.5 -57q0 -21 10.5 -34t26.5 -21t36 -12.5t38 -7.5q31 -6 66 -15t64 -25.5t48 -43.5t19 -68q0 -32 -13.5 -60t-39 -49t-61 -33.5t-78.5 -12.5q-38 0 -72.5 11t-61.5 33
t-43 54.5t-16 74.5zM399 730q10 0 13 -8t-2 -13l-108 -112q-5 -5 -10.5 -8.5t-19.5 -3.5h-19q-10 0 -14 7.5t0 12.5l76 109q4 5 9.5 10.5t16.5 5.5h58z" />
    <glyph glyph-name="Scircumflex" unicode="&#x15c;" 
d="M425 200q0 34 -11.5 57.5t-34.5 40.5t-56 28.5t-76 21.5q-27 6 -57 17.5t-54.5 31t-40.5 49.5t-16 74q0 45 16 80t43 59t62.5 36.5t74.5 12.5q44 0 80 -15t61.5 -40.5t39.5 -59.5t14 -73v-13q0 -8 -6 -14t-14 -6h-24q-8 0 -14 6t-6 14v13q0 27 -10 49.5t-27.5 39
t-41.5 26t-52 9.5q-33 0 -58 -10.5t-41 -28t-24 -40t-8 -45.5q0 -34 16 -54t40 -32t52.5 -19t54.5 -15q40 -12 74 -27.5t58 -38.5t37.5 -55.5t13.5 -78.5q0 -49 -17.5 -87.5t-47.5 -65.5t-69 -41t-81 -14q-48 0 -88 16.5t-68 45t-43.5 66t-15.5 80.5v16q0 8 6 14t14 6h25
q8 0 14 -6t6 -14v-16q0 -26 9.5 -52t28.5 -46.5t47 -33t65 -12.5q69 0 109 40t41 104zM212 767q-5 -5 -12.5 -10.5t-18.5 -5.5h-43q-10 0 -13 8t2 13l118 112q5 5 10.5 8.5t19.5 3.5h22q13 0 18.5 -3.5t10.5 -8.5l118 -112q5 -5 2 -13t-13 -8h-43q-11 0 -18.5 5.5
t-12.5 10.5l-67 65q-7 7 -14 0z" />
    <glyph glyph-name="scircumflex" unicode="&#x15d;" 
d="M82 163q0 8 6 14t14 6h19q8 0 14 -6t6 -14q0 -27 10.5 -48.5t28.5 -36.5t42.5 -22.5t52.5 -7.5q62 0 97.5 28t35.5 69q0 24 -13 40t-33 26.5t-44.5 16.5t-47.5 9q-33 5 -64 13.5t-54.5 24t-38 39t-14.5 58.5q0 29 14.5 54.5t39 44t56.5 29t66 10.5t65 -10t55 -29.5
t38.5 -47t14.5 -63.5q0 -8 -6 -14t-14 -6h-19q-8 0 -14 6t-6 14q0 38 -31 66t-83 28q-53 0 -84.5 -25t-31.5 -57q0 -21 10.5 -34t26.5 -21t36 -12.5t38 -7.5q31 -6 66 -15t64 -25.5t48 -43.5t19 -68q0 -32 -13.5 -60t-39 -49t-61 -33.5t-78.5 -12.5q-38 0 -72.5 11t-61.5 33
t-43 54.5t-16 74.5zM207 601q-5 -5 -12.5 -10.5t-18.5 -5.5h-43q-10 0 -13 8t2 13l118 112q5 5 10.5 8.5t19.5 3.5h22q13 0 18.5 -3.5t10.5 -8.5l118 -112q5 -5 2 -13t-13 -8h-43q-11 0 -18.5 5.5t-12.5 10.5l-67 65q-7 7 -14 0z" />
    <glyph glyph-name="Scedilla" unicode="&#x15e;" 
d="M425 200q0 34 -11.5 57.5t-34.5 40.5t-56 28.5t-76 21.5q-27 6 -57 17.5t-54.5 31t-40.5 49.5t-16 74q0 45 16 80t43 59t62.5 36.5t74.5 12.5q44 0 80 -15t61.5 -40.5t39.5 -59.5t14 -73v-13q0 -8 -6 -14t-14 -6h-24q-8 0 -14 6t-6 14v13q0 27 -10 49.5t-27.5 39
t-41.5 26t-52 9.5q-33 0 -58 -10.5t-41 -28t-24 -40t-8 -45.5q0 -34 16 -54t40 -32t52.5 -19t54.5 -15q40 -12 74 -27.5t58 -38.5t37.5 -55.5t13.5 -78.5q0 -49 -17.5 -87.5t-47.5 -65.5t-69 -41t-81 -14q-48 0 -88 16.5t-68 45t-43.5 66t-15.5 80.5v16q0 8 6 14t14 6h25
q8 0 14 -6t6 -14v-16q0 -26 9.5 -52t28.5 -46.5t47 -33t65 -12.5q69 0 109 40t41 104zM287 -184q-4 -16 -19 -16h-37q-10 0 -14 5.5t-2 12.5l38 121q4 16 19 16h27q10 0 14 -5.5t2 -12.5z" />
    <glyph glyph-name="scedilla" unicode="&#x15f;" 
d="M82 163q0 8 6 14t14 6h19q8 0 14 -6t6 -14q0 -27 10.5 -48.5t28.5 -36.5t42.5 -22.5t52.5 -7.5q62 0 97.5 28t35.5 69q0 24 -13 40t-33 26.5t-44.5 16.5t-47.5 9q-33 5 -64 13.5t-54.5 24t-38 39t-14.5 58.5q0 29 14.5 54.5t39 44t56.5 29t66 10.5t65 -10t55 -29.5
t38.5 -47t14.5 -63.5q0 -8 -6 -14t-14 -6h-19q-8 0 -14 6t-6 14q0 38 -31 66t-83 28q-53 0 -84.5 -25t-31.5 -57q0 -21 10.5 -34t26.5 -21t36 -12.5t38 -7.5q31 -6 66 -15t64 -25.5t48 -43.5t19 -68q0 -32 -13.5 -60t-39 -49t-61 -33.5t-78.5 -12.5q-38 0 -72.5 11t-61.5 33
t-43 54.5t-16 74.5zM287 -184q-4 -16 -19 -16h-37q-10 0 -14 5.5t-2 12.5l38 121q4 16 19 16h27q10 0 14 -5.5t2 -12.5z" />
    <glyph glyph-name="Scaron" unicode="&#x160;" 
d="M425 200q0 34 -11.5 57.5t-34.5 40.5t-56 28.5t-76 21.5q-27 6 -57 17.5t-54.5 31t-40.5 49.5t-16 74q0 45 16 80t43 59t62.5 36.5t74.5 12.5q44 0 80 -15t61.5 -40.5t39.5 -59.5t14 -73v-13q0 -8 -6 -14t-14 -6h-24q-8 0 -14 6t-6 14v13q0 27 -10 49.5t-27.5 39
t-41.5 26t-52 9.5q-33 0 -58 -10.5t-41 -28t-24 -40t-8 -45.5q0 -34 16 -54t40 -32t52.5 -19t54.5 -15q40 -12 74 -27.5t58 -38.5t37.5 -55.5t13.5 -78.5q0 -49 -17.5 -87.5t-47.5 -65.5t-69 -41t-81 -14q-48 0 -88 16.5t-68 45t-43.5 66t-15.5 80.5v16q0 8 6 14t14 6h25
q8 0 14 -6t6 -14v-16q0 -26 9.5 -52t28.5 -46.5t47 -33t65 -12.5q69 0 109 40t41 104zM267 815q7 -7 14 0l68 65q5 5 12.5 10.5t18.5 5.5h42q10 0 13 -8t-2 -13l-118 -112q-5 -5 -10.5 -8.5t-18.5 -3.5h-22q-14 0 -19.5 3.5t-10.5 8.5l-118 112q-5 5 -2 13t13 8h43
q11 0 18.5 -5.5t12.5 -10.5z" />
    <glyph glyph-name="scaron" unicode="&#x161;" 
d="M82 163q0 8 6 14t14 6h19q8 0 14 -6t6 -14q0 -27 10.5 -48.5t28.5 -36.5t42.5 -22.5t52.5 -7.5q62 0 97.5 28t35.5 69q0 24 -13 40t-33 26.5t-44.5 16.5t-47.5 9q-33 5 -64 13.5t-54.5 24t-38 39t-14.5 58.5q0 29 14.5 54.5t39 44t56.5 29t66 10.5t65 -10t55 -29.5
t38.5 -47t14.5 -63.5q0 -8 -6 -14t-14 -6h-19q-8 0 -14 6t-6 14q0 38 -31 66t-83 28q-53 0 -84.5 -25t-31.5 -57q0 -21 10.5 -34t26.5 -21t36 -12.5t38 -7.5q31 -6 66 -15t64 -25.5t48 -43.5t19 -68q0 -32 -13.5 -60t-39 -49t-61 -33.5t-78.5 -12.5q-38 0 -72.5 11t-61.5 33
t-43 54.5t-16 74.5zM272 649q7 -7 14 0l68 65q5 5 12.5 10.5t18.5 5.5h42q10 0 13 -8t-2 -13l-118 -112q-5 -5 -10.5 -8.5t-18.5 -3.5h-22q-14 0 -19.5 3.5t-10.5 8.5l-118 112q-5 5 -2 13t13 8h43q11 0 18.5 -5.5t12.5 -10.5z" />
    <glyph glyph-name="Tcommaaccent" unicode="&#x162;" 
d="M66 636q-8 0 -14 6t-6 14v24q0 8 6 14t14 6h420q8 0 14 -6t6 -14v-24q0 -8 -6 -14t-14 -6h-167q-10 0 -10 -10v-606q0 -8 -6 -14t-14 -6h-25q-8 0 -14 6t-6 14v606q0 10 -10 10h-168zM246 -150q-8 0 -14 6t-6 14v65q0 8 6 14t14 6h60q8 0 14 -6t6 -14v-70q0 -21 -5 -31.5
t-11 -19.5l-25 -36q-4 -5 -9.5 -11.5t-19.5 -6.5h-10q-9 0 -14.5 7.5t-0.5 16.5l28 51q3 5 0.5 10t-8.5 5h-5z" />
    <glyph glyph-name="tcommaaccent" unicode="&#x163;" 
d="M239 160q0 -53 28.5 -81.5t66.5 -28.5q43 0 67.5 29t24.5 71q0 8 6 14t14 6h21q8 0 14 -6t6 -14q0 -33 -11.5 -62t-32 -51t-48.5 -34.5t-61 -12.5t-61.5 12.5t-49 34.5t-32.5 51t-12 62v276q0 10 -10 10h-111q-8 0 -14 6t-6 14v19q0 8 6 14t14 6h111q10 0 10 10v155
q0 8 6 14t14 6h20q8 0 14 -6t6 -14v-155q0 -10 10 -10h166q8 0 14 -6t6 -14v-19q0 -8 -6 -14t-14 -6h-166q-10 0 -10 -10v-266zM246 -150q-8 0 -14 6t-6 14v65q0 8 6 14t14 6h60q8 0 14 -6t6 -14v-70q0 -21 -5 -31.5t-11 -19.5l-25 -36q-4 -5 -9.5 -11.5t-19.5 -6.5h-10
q-9 0 -14.5 7.5t-0.5 16.5l28 51q3 5 0.5 10t-8.5 5h-5z" />
    <glyph glyph-name="Tcaron" unicode="&#x164;" 
d="M66 636q-8 0 -14 6t-6 14v24q0 8 6 14t14 6h420q8 0 14 -6t6 -14v-24q0 -8 -6 -14t-14 -6h-167q-10 0 -10 -10v-606q0 -8 -6 -14t-14 -6h-25q-8 0 -14 6t-6 14v606q0 10 -10 10h-168zM267 815q7 -7 14 0l68 65q5 5 12.5 10.5t18.5 5.5h42q10 0 13 -8t-2 -13l-118 -112
q-5 -5 -10.5 -8.5t-18.5 -3.5h-22q-14 0 -19.5 3.5t-10.5 8.5l-118 112q-5 5 -2 13t13 8h43q11 0 18.5 -5.5t12.5 -10.5z" />
    <glyph glyph-name="tcaron" unicode="&#x165;" 
d="M239 160q0 -53 28.5 -81.5t66.5 -28.5q43 0 67.5 29t24.5 71q0 8 6 14t14 6h21q8 0 14 -6t6 -14q0 -33 -11.5 -62t-32 -51t-48.5 -34.5t-61 -12.5t-61.5 12.5t-49 34.5t-32.5 51t-12 62v276q0 10 -10 10h-111q-8 0 -14 6t-6 14v19q0 8 6 14t14 6h111q10 0 10 10v155
q0 8 6 14t14 6h20q8 0 14 -6t6 -14v-155q0 -10 10 -10h106q8 0 14 -6t6 -14v-19q0 -8 -6 -14t-14 -6h-106q-10 0 -10 -10v-266zM418 595q-8 0 -14 6t-6 14v65q0 8 6 14t14 6h60q8 0 14 -6t6 -14v-70q0 -21 -5 -31.5t-11 -19.5l-25 -36q-4 -5 -9.5 -11.5t-19.5 -6.5h-10
q-9 0 -14.5 7.5t-0.5 16.5l28 51q3 5 0.5 10t-8.5 5h-5z" />
    <glyph glyph-name="Tbar" unicode="&#x166;" 
d="M244 430q0 10 -10 10h-148q-8 0 -14 6t-6 14v20q0 8 6 14t14 6h148q10 0 10 10v116q0 10 -10 10h-168q-8 0 -14 6t-6 14v24q0 8 6 14t14 6h420q8 0 14 -6t6 -14v-24q0 -8 -6 -14t-14 -6h-167q-10 0 -10 -10v-116q0 -10 10 -10h147q8 0 14 -6t6 -14v-20q0 -8 -6 -14
t-14 -6h-147q-10 0 -10 -10v-410q0 -8 -6 -14t-14 -6h-25q-8 0 -14 6t-6 14v410z" />
    <glyph glyph-name="tbar" unicode="&#x167;" 
d="M239 160q0 -53 28.5 -81.5t66.5 -28.5q43 0 67.5 29t24.5 71q0 8 6 14t14 6h21q8 0 14 -6t6 -14q0 -33 -11.5 -62t-32 -51t-48.5 -34.5t-61 -12.5t-61.5 12.5t-49 34.5t-32.5 51t-12 62v93q0 8 -10 8h-105q-8 0 -14 6t-6 14v20q0 8 6 14t14 6h105q10 0 10 10v105
q0 10 -10 10h-111q-8 0 -14 6t-6 14v19q0 8 6 14t14 6h111q10 0 10 10v155q0 8 6 14t14 6h20q8 0 14 -6t6 -14v-155q0 -10 10 -10h166q8 0 14 -6t6 -14v-19q0 -8 -6 -14t-14 -6h-166q-10 0 -10 -10v-105q0 -10 10 -10h130q8 0 14 -6t6 -14v-20q0 -8 -6 -14t-14 -6h-130
q-10 0 -10 -10v-81z" />
    <glyph glyph-name="Utilde" unicode="&#x168;" 
d="M124 207q0 -30 11.5 -57.5t32 -48t48 -33t59.5 -12.5t59.5 12.5t48 33t32 48t11.5 57.5v473q0 8 6 14t14 6h24q8 0 14 -6t6 -14v-473q0 -45 -17 -84t-46 -68t-68 -46t-84 -17t-84 17t-68 46t-46 68t-17 84v473q0 8 6 14t14 6h24q8 0 14 -6t6 -14v-473zM345 832
q19 0 29.5 6.5t16.5 14.5t15.5 4t9.5 -18v-24q0 -20 -20.5 -35.5t-50.5 -15.5q-24 0 -39.5 4t-29 8.5t-30 8.5t-41.5 4q-17 0 -27.5 -5.5t-18.5 -15.5q-6 -7 -15.5 -3.5t-9.5 17.5v24q0 20 20.5 35.5t50.5 15.5q24 0 39.5 -4t29 -8.5t29.5 -8.5t42 -4z" />
    <glyph glyph-name="utilde" unicode="&#x169;" 
d="M387 23q-11 0 -20.5 -5t-22 -11.5t-30.5 -11.5t-46 -5q-39 0 -72 11t-57 33t-37 54.5t-13 75.5v316q0 8 6 14t14 6h19q8 0 14 -6t6 -14v-316q0 -63 36.5 -89t90.5 -26q27 0 50 8.5t40.5 23.5t27 35t9.5 43v321q0 8 6 14t14 6h19q8 0 14 -6t6 -14v-460q0 -8 -6 -14t-14 -6
h-16q-7 0 -14 7q-5 5 -10 10.5t-14 5.5zM345 676q19 0 29.5 6.5t16.5 14.5t15.5 4t9.5 -18v-24q0 -20 -20.5 -35.5t-50.5 -15.5q-24 0 -39.5 4t-29 8.5t-30 8.5t-41.5 4q-17 0 -27.5 -5.5t-18.5 -15.5q-6 -7 -15.5 -3.5t-9.5 17.5v24q0 20 20.5 35.5t50.5 15.5q24 0 39.5 -4
t29 -8.5t29.5 -8.5t42 -4z" />
    <glyph glyph-name="Umacron" unicode="&#x16a;" 
d="M124 207q0 -30 11.5 -57.5t32 -48t48 -33t59.5 -12.5t59.5 12.5t48 33t32 48t11.5 57.5v473q0 8 6 14t14 6h24q8 0 14 -6t6 -14v-473q0 -45 -17 -84t-46 -68t-68 -46t-84 -17t-84 17t-68 46t-46 68t-17 84v473q0 8 6 14t14 6h24q8 0 14 -6t6 -14v-473zM154 765
q-8 0 -14 6t-6 14v20q0 8 6 14t14 6h242q8 0 14 -6t6 -14v-20q0 -8 -6 -14t-14 -6h-242z" />
    <glyph glyph-name="umacron" unicode="&#x16b;" 
d="M387 23q-11 0 -20.5 -5t-22 -11.5t-30.5 -11.5t-46 -5q-39 0 -72 11t-57 33t-37 54.5t-13 75.5v316q0 8 6 14t14 6h19q8 0 14 -6t6 -14v-316q0 -63 36.5 -89t90.5 -26q27 0 50 8.5t40.5 23.5t27 35t9.5 43v321q0 8 6 14t14 6h19q8 0 14 -6t6 -14v-460q0 -8 -6 -14t-14 -6
h-16q-7 0 -14 7q-5 5 -10 10.5t-14 5.5zM154 634q-8 0 -14 6t-6 14v20q0 8 6 14t14 6h242q8 0 14 -6t6 -14v-20q0 -8 -6 -14t-14 -6h-242z" />
    <glyph glyph-name="Ubreve" unicode="&#x16c;" 
d="M124 207q0 -30 11.5 -57.5t32 -48t48 -33t59.5 -12.5t59.5 12.5t48 33t32 48t11.5 57.5v473q0 8 6 14t14 6h24q8 0 14 -6t6 -14v-473q0 -45 -17 -84t-46 -68t-68 -46t-84 -17t-84 17t-68 46t-46 68t-17 84v473q0 8 6 14t14 6h24q8 0 14 -6t6 -14v-473zM356 878
q0 7 4.5 12t12.5 5h23q7 0 12 -5t5 -12q0 -27 -10 -50t-28.5 -40.5t-43.5 -27.5t-55 -10t-55.5 10t-44 27.5t-28.5 40.5t-10 50q0 7 5 12t12 5h23q8 0 12.5 -5t4.5 -12q0 -35 23 -55.5t58 -20.5t57.5 20.5t22.5 55.5z" />
    <glyph glyph-name="ubreve" unicode="&#x16d;" 
d="M387 23q-11 0 -20.5 -5t-22 -11.5t-30.5 -11.5t-46 -5q-39 0 -72 11t-57 33t-37 54.5t-13 75.5v316q0 8 6 14t14 6h19q8 0 14 -6t6 -14v-316q0 -63 36.5 -89t90.5 -26q27 0 50 8.5t40.5 23.5t27 35t9.5 43v321q0 8 6 14t14 6h19q8 0 14 -6t6 -14v-460q0 -8 -6 -14t-14 -6
h-16q-7 0 -14 7q-5 5 -10 10.5t-14 5.5zM356 713q0 7 4.5 12t12.5 5h23q7 0 12 -5t5 -12q0 -27 -10 -50t-28.5 -40.5t-43.5 -27.5t-55 -10t-55.5 10t-44 27.5t-28.5 40.5t-10 50q0 7 5 12t12 5h23q8 0 12.5 -5t4.5 -12q0 -35 23 -55.5t58 -20.5t57.5 20.5t22.5 55.5z" />
    <glyph glyph-name="Uring" unicode="&#x16e;" 
d="M124 207q0 -30 11.5 -57.5t32 -48t48 -33t59.5 -12.5t59.5 12.5t48 33t32 48t11.5 57.5v473q0 8 6 14t14 6h24q8 0 14 -6t6 -14v-473q0 -45 -17 -84t-46 -68t-68 -46t-84 -17t-84 17t-68 46t-46 68t-17 84v473q0 8 6 14t14 6h24q8 0 14 -6t6 -14v-473zM165 840
q0 23 8.5 43t23.5 35t35 23.5t43 8.5t43 -8.5t35 -23.5t23.5 -35t8.5 -43t-8.5 -43t-23.5 -35t-35 -23.5t-43 -8.5t-43 8.5t-35 23.5t-23.5 35t-8.5 43zM219 840q0 -23 16.5 -39.5t39.5 -16.5q24 0 39.5 16.5t15.5 39.5q0 24 -15.5 39.5t-39.5 15.5q-23 0 -39.5 -15.5
t-16.5 -39.5z" />
    <glyph glyph-name="uring" unicode="&#x16f;" 
d="M387 23q-11 0 -20.5 -5t-22 -11.5t-30.5 -11.5t-46 -5q-39 0 -72 11t-57 33t-37 54.5t-13 75.5v316q0 8 6 14t14 6h19q8 0 14 -6t6 -14v-316q0 -63 36.5 -89t90.5 -26q27 0 50 8.5t40.5 23.5t27 35t9.5 43v321q0 8 6 14t14 6h19q8 0 14 -6t6 -14v-460q0 -8 -6 -14t-14 -6
h-16q-7 0 -14 7q-5 5 -10 10.5t-14 5.5zM165 670q0 23 8.5 43t23.5 35t35 23.5t43 8.5t43 -8.5t35 -23.5t23.5 -35t8.5 -43t-8.5 -43t-23.5 -35t-35 -23.5t-43 -8.5t-43 8.5t-35 23.5t-23.5 35t-8.5 43zM219 670q0 -23 16.5 -39.5t39.5 -16.5q24 0 39.5 16.5t15.5 39.5
q0 24 -15.5 39.5t-39.5 15.5q-23 0 -39.5 -15.5t-16.5 -39.5z" />
    <glyph glyph-name="Uhungarumlaut" unicode="&#x170;" 
d="M124 207q0 -30 11.5 -57.5t32 -48t48 -33t59.5 -12.5t59.5 12.5t48 33t32 48t11.5 57.5v473q0 8 6 14t14 6h24q8 0 14 -6t6 -14v-473q0 -45 -17 -84t-46 -68t-68 -46t-84 -17t-84 17t-68 46t-46 68t-17 84v473q0 8 6 14t14 6h24q8 0 14 -6t6 -14v-473zM321 895
q10 0 13 -8t-2 -13l-108 -112q-5 -5 -10.5 -8.5t-19.5 -3.5h-19q-10 0 -14 7.5t0 12.5l76 109q4 5 9.5 10.5t16.5 5.5h58zM478 895q10 0 13 -8t-2 -13l-108 -112q-5 -5 -10.5 -8.5t-19.5 -3.5h-19q-10 0 -14 7.5t0 12.5l76 109q4 5 9.5 10.5t16.5 5.5h58z" />
    <glyph glyph-name="uhungarumlaut" unicode="&#x171;" 
d="M387 23q-11 0 -20.5 -5t-22 -11.5t-30.5 -11.5t-46 -5q-39 0 -72 11t-57 33t-37 54.5t-13 75.5v316q0 8 6 14t14 6h19q8 0 14 -6t6 -14v-316q0 -63 36.5 -89t90.5 -26q27 0 50 8.5t40.5 23.5t27 35t9.5 43v321q0 8 6 14t14 6h19q8 0 14 -6t6 -14v-460q0 -8 -6 -14t-14 -6
h-16q-7 0 -14 7q-5 5 -10 10.5t-14 5.5zM311 730q10 0 13 -8t-2 -13l-108 -112q-5 -5 -10.5 -8.5t-19.5 -3.5h-19q-10 0 -14 7.5t0 12.5l76 109q4 5 9.5 10.5t16.5 5.5h58zM468 730q10 0 13 -8t-2 -13l-108 -112q-5 -5 -10.5 -8.5t-19.5 -3.5h-19q-10 0 -14 7.5t0 12.5
l76 109q4 5 9.5 10.5t16.5 5.5h58z" />
    <glyph glyph-name="Uogonek" unicode="&#x172;" 
d="M124 207q0 -30 11.5 -57.5t32 -48t48 -33t59.5 -12.5t59.5 12.5t48 33t32 48t11.5 57.5v473q0 8 6 14t14 6h24q8 0 14 -6t6 -14v-473q0 -41 -14.5 -76t-37.5 -64q-12 -14 -27.5 -29.5t-30 -33.5t-24.5 -38t-10 -42q0 -40 28 -57t76 -17q8 0 14 -6t6 -14v-20q0 -8 -6 -14
t-14 -6q-36 0 -66 7.5t-52 23t-34 40t-12 58.5q0 44 24 76q-17 -3 -35 -3q-45 0 -84 17t-68 46t-46 68t-17 84v473q0 8 6 14t14 6h24q8 0 14 -6t6 -14v-473z" />
    <glyph glyph-name="uogonek" unicode="&#x173;" 
d="M441 0q-50 0 -79.5 -18t-29.5 -58t28 -57t76 -17q8 0 14 -6t6 -14v-20q0 -8 -6 -14t-14 -6q-36 0 -66 7.5t-52 23t-34 40t-12 58.5q0 23 7.5 41.5t20.5 32.5q-15 -3 -32 -3q-39 0 -72 11t-57 33t-37 54.5t-13 75.5v316q0 8 6 14t14 6h19q8 0 14 -6t6 -14v-316
q0 -63 36.5 -89t90.5 -26q27 0 50 8.5t40.5 23.5t27 35t9.5 43v321q0 8 6 14t14 6h19q8 0 14 -6t6 -14v-460q0 -8 -6 -14t-14 -6z" />
    <glyph glyph-name="Wcircumflex" unicode="&#x174;" 
d="M371 111q1 -5 6 -5t6 5l62 574q1 8 6.5 11.5t12.5 3.5h25q12 0 16.5 -6t3.5 -14l-82 -665q-1 -8 -6.5 -11.5t-12.5 -3.5h-67q-7 0 -12.5 3.5t-6.5 11.5l-42 362q-1 4 -3 4t-3 -4l-56 -362q-3 -15 -19 -15h-67q-7 0 -12.5 3.5t-6.5 11.5l-73 665q-1 8 3.5 14t16.5 6h25
q7 0 12.5 -3.5t6.5 -11.5l58 -574q1 -5 6 -5t6 5l60 374q3 15 19 15h46q16 0 19 -15zM202 767q-5 -5 -12.5 -10.5t-18.5 -5.5h-43q-10 0 -13 8t2 13l118 112q5 5 10.5 8.5t19.5 3.5h22q13 0 18.5 -3.5t10.5 -8.5l118 -112q5 -5 2 -13t-13 -8h-43q-11 0 -18.5 5.5t-12.5 10.5
l-67 65q-7 7 -14 0z" />
    <glyph glyph-name="wcircumflex" unicode="&#x175;" 
d="M291 390q16 0 19 -15l49 -252q2 -6 7 -6t7 6l67 362q3 15 19 15h21q12 0 16.5 -7.5t2.5 -15.5l-94 -462q-3 -15 -19 -15h-37q-16 0 -19 15l-49 258q-1 5 -6 5t-6 -5l-49 -258q-3 -15 -19 -15h-37q-16 0 -19 15l-94 462q-2 8 2.5 15.5t16.5 7.5h21q16 0 19 -15l67 -362
q2 -6 7 -6t7 6l49 252q3 15 19 15h32zM202 601q-5 -5 -12.5 -10.5t-18.5 -5.5h-43q-10 0 -13 8t2 13l118 112q5 5 10.5 8.5t19.5 3.5h22q13 0 18.5 -3.5t10.5 -8.5l118 -112q5 -5 2 -13t-13 -8h-43q-11 0 -18.5 5.5t-12.5 10.5l-67 65q-7 7 -14 0z" />
    <glyph glyph-name="Ycircumflex" unicode="&#x176;" 
d="M272 328q4 -10 8 0l137 357q5 15 19 15h32q10 0 15.5 -8.5t0.5 -19.5l-175 -431v-221q0 -8 -6 -14t-14 -6h-26q-8 0 -14 6t-6 14v220l-177 432q-5 11 0.5 19.5t15.5 8.5h32q14 0 19 -15zM202 767q-5 -5 -12.5 -10.5t-18.5 -5.5h-43q-10 0 -13 8t2 13l118 112
q5 5 10.5 8.5t19.5 3.5h22q13 0 18.5 -3.5t10.5 -8.5l118 -112q5 -5 2 -13t-13 -8h-43q-11 0 -18.5 5.5t-12.5 10.5l-67 65q-7 7 -14 0z" />
    <glyph glyph-name="ycircumflex" unicode="&#x177;" 
d="M281 117q4 -10 8 0l134 368q5 15 19 15h28q12 0 17 -7.5t2 -15.5l-254 -662q-5 -15 -19 -15h-22q-12 0 -17 7.5t-2 15.5l74 201q3 8 1 13l-189 440q-3 8 2 15.5t17 7.5h28q14 0 19 -15zM202 601q-5 -5 -12.5 -10.5t-18.5 -5.5h-43q-10 0 -13 8t2 13l118 112q5 5 10.5 8.5
t19.5 3.5h22q13 0 18.5 -3.5t10.5 -8.5l118 -112q5 -5 2 -13t-13 -8h-43q-11 0 -18.5 5.5t-12.5 10.5l-67 65q-7 7 -14 0z" />
    <glyph glyph-name="Ydieresis" unicode="&#x178;" 
d="M272 328q4 -10 8 0l137 357q5 15 19 15h32q10 0 15.5 -8.5t0.5 -19.5l-175 -431v-221q0 -8 -6 -14t-14 -6h-26q-8 0 -14 6t-6 14v220l-177 432q-5 11 0.5 19.5t15.5 8.5h32q14 0 19 -15zM231 778q0 -16 -16 -16h-52q-16 0 -16 16v53q0 6 4.5 11t11.5 5h52q7 0 11.5 -5
t4.5 -11v-53zM402 778q0 -16 -16 -16h-52q-16 0 -16 16v53q0 6 4.5 11t11.5 5h52q7 0 11.5 -5t4.5 -11v-53z" />
    <glyph glyph-name="Zacute" unicode="&#x179;" 
d="M145 75q-2 -4 -0.5 -7t6.5 -3h310q8 0 14 -6t6 -14v-25q0 -8 -6 -14t-14 -6h-372q-8 0 -14 6t-6 14v47q0 8 5 16l325 543q2 4 0.5 7t-6.5 3h-294q-8 0 -14 6t-6 14v24q0 8 6 14t14 6h352q8 0 14 -6t6 -14v-44q0 -8 -5 -16zM389 895q10 0 13 -8t-2 -13l-108 -112
q-5 -5 -10.5 -8.5t-19.5 -3.5h-19q-10 0 -14 7.5t0 12.5l76 109q4 5 9.5 10.5t16.5 5.5h58z" />
    <glyph glyph-name="zacute" unicode="&#x17a;" 
d="M385 432q3 4 1.5 7t-6.5 3h-270q-8 0 -14 6t-6 14v18q0 8 6 14t14 6h330q8 0 14 -6t6 -14v-29q0 -14 -6.5 -23.5t-13.5 -17.5l-284 -342q-3 -4 -1.5 -7t6.5 -3h289q8 0 14 -6t6 -14v-18q0 -8 -6 -14t-14 -6h-350q-8 0 -14 6t-6 14v31q0 10 2 15t11 16zM389 730
q10 0 13 -8t-2 -13l-108 -112q-5 -5 -10.5 -8.5t-19.5 -3.5h-19q-10 0 -14 7.5t0 12.5l76 109q4 5 9.5 10.5t16.5 5.5h58z" />
    <glyph glyph-name="Zdotaccent" unicode="&#x17b;" 
d="M145 75q-2 -4 -0.5 -7t6.5 -3h310q8 0 14 -6t6 -14v-25q0 -8 -6 -14t-14 -6h-372q-8 0 -14 6t-6 14v47q0 8 5 16l325 543q2 4 0.5 7t-6.5 3h-294q-8 0 -14 6t-6 14v24q0 8 6 14t14 6h352q8 0 14 -6t6 -14v-44q0 -8 -5 -16zM320 770q0 -16 -16 -16h-58q-16 0 -16 16v59
q0 6 4.5 11t11.5 5h58q7 0 11.5 -5t4.5 -11v-59z" />
    <glyph glyph-name="zdotaccent" unicode="&#x17c;" 
d="M385 432q3 4 1.5 7t-6.5 3h-270q-8 0 -14 6t-6 14v18q0 8 6 14t14 6h330q8 0 14 -6t6 -14v-29q0 -14 -6.5 -23.5t-13.5 -17.5l-284 -342q-3 -4 -1.5 -7t6.5 -3h289q8 0 14 -6t6 -14v-18q0 -8 -6 -14t-14 -6h-350q-8 0 -14 6t-6 14v31q0 10 2 15t11 16zM320 632
q0 -16 -16 -16h-58q-16 0 -16 16v59q0 6 4.5 11t11.5 5h58q7 0 11.5 -5t4.5 -11v-59z" />
    <glyph glyph-name="Zcaron" unicode="&#x17d;" 
d="M145 75q-2 -4 -0.5 -7t6.5 -3h310q8 0 14 -6t6 -14v-25q0 -8 -6 -14t-14 -6h-372q-8 0 -14 6t-6 14v47q0 8 5 16l325 543q2 4 0.5 7t-6.5 3h-294q-8 0 -14 6t-6 14v24q0 8 6 14t14 6h352q8 0 14 -6t6 -14v-44q0 -8 -5 -16zM267 815q7 -7 14 0l68 65q5 5 12.5 10.5
t18.5 5.5h42q10 0 13 -8t-2 -13l-118 -112q-5 -5 -10.5 -8.5t-18.5 -3.5h-22q-14 0 -19.5 3.5t-10.5 8.5l-118 112q-5 5 -2 13t13 8h43q11 0 18.5 -5.5t12.5 -10.5z" />
    <glyph glyph-name="zcaron" unicode="&#x17e;" 
d="M385 432q3 4 1.5 7t-6.5 3h-270q-8 0 -14 6t-6 14v18q0 8 6 14t14 6h330q8 0 14 -6t6 -14v-29q0 -14 -6.5 -23.5t-13.5 -17.5l-284 -342q-3 -4 -1.5 -7t6.5 -3h289q8 0 14 -6t6 -14v-18q0 -8 -6 -14t-14 -6h-350q-8 0 -14 6t-6 14v31q0 10 2 15t11 16zM267 649q7 -7 14 0
l68 65q5 5 12.5 10.5t18.5 5.5h42q10 0 13 -8t-2 -13l-118 -112q-5 -5 -10.5 -8.5t-18.5 -3.5h-22q-14 0 -19.5 3.5t-10.5 8.5l-118 112q-5 5 -2 13t13 8h43q11 0 18.5 -5.5t12.5 -10.5z" />
    <glyph glyph-name="longs" unicode="&#x17f;" 
d="M291 20q0 -8 -6 -14t-14 -6h-20q-8 0 -14 6t-6 14v406q0 10 -10 10h-137q-8 0 -14 6t-6 14v19q0 8 6 14t14 6h137q10 0 10 10v15q0 42 12.5 76.5t35 59t53.5 38t69 13.5h45q8 0 14 -6t6 -14v-16q0 -8 -6 -14t-14 -6h-45q-29 0 -49.5 -10.5t-34 -28.5t-20 -42t-6.5 -50
v-500z" />
    <glyph glyph-name="florin" unicode="&#x192;" 
d="M256 426q0 10 -10 10h-127q-8 0 -14 6t-6 14v19q0 8 6 14t14 6h127q10 0 10 10v15q0 42 12.5 76.5t35 59t53.5 38t69 13.5h55q8 0 14 -6t6 -14v-16q0 -8 -6 -14t-14 -6h-55q-29 0 -49.5 -10.5t-34 -28.5t-20 -42t-6.5 -50v-15q0 -10 10 -10h144q8 0 14 -6t6 -14v-19
q0 -8 -6 -14t-14 -6h-144q-10 0 -10 -10v-456q0 -41 -6 -73t-22.5 -53.5t-44.5 -32.5t-71 -11h-31q-8 0 -14 6t-6 14v20q0 8 5.5 14t13.5 6h34q24 0 39.5 5.5t25 18.5t13.5 34t4 52v456z" />
    <glyph glyph-name="Aringacute" unicode="&#x1fa;" 
d="M417 1065q10 0 13 -8t-2 -13l-103 -106q27 -14 43.5 -40t16.5 -58q0 -23 -8.5 -43t-23.5 -35t-35 -23.5t-43 -8.5t-43 8.5t-35 23.5t-23.5 35t-8.5 43q0 43 28.5 73.5t69.5 35.5l70 100q4 5 9.5 10.5t16.5 5.5h58zM219 840q0 -23 16.5 -39.5t39.5 -16.5q24 0 39.5 16.5
t15.5 39.5q0 24 -15.5 39.5t-39.5 15.5q-23 0 -39.5 -15.5t-16.5 -39.5zM104 15q-3 -15 -19 -15h-25q-12 0 -17 6.5t-3 13.5l191 665q3 15 19 15h50q16 0 19 -15l191 -665q2 -7 -3 -13.5t-17 -6.5h-25q-16 0 -19 15l-49 169q-5 14 -19 14h-206q-14 0 -19 -14zM179 271
q-3 -11 8 -11h176q11 0 8 11l-91 340q-2 6 -4 6h-2q-3 0 -4 -6z" />
    <glyph glyph-name="aringacute" unicode="&#x1fb;" 
d="M432 895q10 0 13 -8t-2 -13l-103 -106q27 -14 43.5 -40t16.5 -58q0 -23 -8.5 -43t-23.5 -35t-35 -23.5t-43 -8.5t-43 8.5t-35 23.5t-23.5 35t-8.5 43q0 43 28.5 73.5t69.5 35.5l70 100q4 5 9.5 10.5t16.5 5.5h58zM234 670q0 -23 16.5 -39.5t39.5 -16.5q24 0 39.5 16.5
t15.5 39.5q0 24 -15.5 39.5t-39.5 15.5q-23 0 -39.5 -15.5t-16.5 -39.5zM251 241q-42 0 -74 -23t-32 -67q0 -27 9.5 -46.5t26 -32.5t37.5 -19.5t45 -6.5q69 0 106.5 32t37.5 93v60q0 10 -10 10h-146zM283 455q-23 0 -44 -6.5t-37 -18t-26 -27.5t-10 -36q0 -13 -8 -15t-15 -2
h-14q-20 0 -20 20q0 35 15 61t40 43.5t56 26.5t63 9q37 0 69.5 -10t57 -30.5t39 -51.5t14.5 -74v-324q0 -8 -6 -14t-14 -6h-9q-10 0 -14 7q-4 6 -7 13.5t-13 7.5q-7 0 -18 -6t-27 -13t-37.5 -13t-49.5 -6q-46 0 -80.5 13t-57 35t-33.5 51t-11 61q0 31 11 58t32 46.5t52 30.5
t70 11h143q10 0 10 10v39q0 49 -34 79.5t-87 30.5z" />
    <glyph glyph-name="AEacute" unicode="&#x1fc;" 
d="M295 188q0 10 -10 10h-128q-14 0 -19 -14l-49 -169q-3 -15 -19 -15h-25q-12 0 -17 6.5t-3 13.5l191 665q3 15 19 15h278q8 0 14 -6t6 -14v-24q0 -8 -6 -14t-14 -6h-144q-10 0 -10 -10v-227q0 -10 10 -10h133q8 0 14 -6t6 -14v-23q0 -8 -6 -14t-14 -6h-133q-10 0 -10 -10
v-242q0 -10 10 -10h146q8 0 14 -6t6 -14v-24q0 -8 -6 -14t-14 -6h-200q-8 0 -14 6t-6 14v168zM285 260q10 0 10 10v337q0 10 -10 10h-21q-5 0 -7 -3.5t-3 -6.5l-90 -336q-3 -11 8 -11h113zM459 895q10 0 13 -8t-2 -13l-108 -112q-5 -5 -10.5 -8.5t-19.5 -3.5h-19
q-10 0 -14 7.5t0 12.5l76 109q4 5 9.5 10.5t16.5 5.5h58z" />
    <glyph glyph-name="aeacute" unicode="&#x1fd;" 
d="M289 38q-6 8 -20 8t-20 -9q-15 -22 -39 -34.5t-57 -12.5q-39 0 -67 14t-46 36.5t-26 51t-8 58.5t10.5 56.5t31 46.5t49 31.5t64.5 11.5h67q10 0 10 10v39q0 49 -19 79.5t-56 30.5q-41 0 -62 -24t-21 -64q0 -13 -8 -15t-15 -2h-14q-20 0 -20 20q0 33 11 59t29.5 44
t44 27.5t55.5 9.5q35 0 59.5 -12.5t40.5 -33.5q5 -7 14.5 -7t15.5 7q18 21 42.5 33.5t59.5 12.5q34 0 62 -15.5t47.5 -42.5t30 -63.5t10.5 -78.5v-64q-1 -8 -6.5 -14t-13.5 -6h-217q-10 0 -10 -10q0 -36 5.5 -66.5t17.5 -53t30.5 -35t43.5 -12.5q21 0 36 8.5t25 22
t16.5 30.5t9.5 33q2 10 9 13.5t14 3.5h17q8 0 13.5 -4.5t3.5 -15.5q-5 -29 -16 -56t-29 -48t-42.5 -33.5t-56.5 -12.5q-37 0 -63 12.5t-43 35.5zM161 241q-43 0 -69.5 -25t-26.5 -65q0 -51 22.5 -78t65.5 -27q39 0 63.5 37.5t24.5 101.5v46q0 10 -10 10h-70zM300 292
q0 -10 10 -10h170q10 0 10 10q0 70 -22 114.5t-72 44.5q-45 0 -70.5 -42t-25.5 -117zM409 730q10 0 13 -8t-2 -13l-108 -112q-5 -5 -10.5 -8.5t-19.5 -3.5h-19q-10 0 -14 7.5t0 12.5l76 109q4 5 9.5 10.5t16.5 5.5h58z" />
    <glyph glyph-name="Oslashacute" unicode="&#x1fe;" 
d="M399 895q10 0 13 -8t-2 -13l-108 -112q-5 -5 -10.5 -8.5t-19.5 -3.5h-19q-10 0 -14 7.5t0 12.5l76 109q4 5 9.5 10.5t16.5 5.5h58zM431 200q4 31 6.5 70t2.5 80t-2.5 80t-6.5 70q-3 14 -5 21.5t-6 19.5q-1 2 -2.5 3t-4.5 -4l-238 -440q-4 -7 4 -13q12 -11 39.5 -21
t56.5 -10q40 0 68.5 14.5t47 36t28 46.5t12.5 47zM275 644q-36 0 -63 -12t-46.5 -32.5t-31 -46.5t-15.5 -53q-5 -37 -7.5 -85.5t-1.5 -97.5t5.5 -91.5t13.5 -67.5q1 -2 3.5 -3.5t5.5 3.5l239 439q4 6 -4 14t-23 15.5t-34.5 12.5t-40.5 5zM457 621q-4 -6 2 -13q8 -11 21 -40
t18 -68q4 -30 6 -69t2 -80.5t-2 -81t-6 -69.5q-13 -97 -72.5 -152.5t-150.5 -55.5q-62 0 -109 26q-6 3 -11.5 6.5t-10.5 7.5q-1 1 -3 1.5t-4 -4.5l-8 -14q-9 -15 -21 -15h-29q-10 0 -14.5 6.5t0.5 17.5l28 52q2 5 1 7l-2 4q-22 27 -33 77.5t-14.5 109.5t-1 119t8.5 107
q5 41 22 78.5t45 66.5t67 46t89 17q40 0 72.5 -11t58.5 -31q2 -1 4.5 -2t5.5 4l9 17q7 15 19 15h30q10 0 14.5 -6.5t-0.5 -15.5z" />
    <glyph glyph-name="oslashacute" unicode="&#x1ff;" 
d="M389 730q10 0 13 -8t-2 -13l-108 -112q-5 -5 -10.5 -8.5t-19.5 -3.5h-19q-10 0 -14 7.5t0 12.5l76 109q4 5 9.5 10.5t16.5 5.5h58zM125 15q-12 -15 -23 -15h-29q-10 0 -13.5 7.5t4.5 17.5l38 48q4 5 3 6.5t-2 3.5q-25 42 -30 97q-2 30 -2 70t2 70q3 39 18 74t41 60.5
t62 40.5t81 15q41 0 73 -12t58 -34q1 -1 3 -1.5t4 2.5l16 20q6 8 10.5 11.5t11.5 3.5h26q10 0 14.5 -8t-3.5 -17l-40 -51q-4 -5 -1 -8q25 -42 30 -96q2 -30 2 -70t-2 -70q-3 -39 -18 -74t-41 -60.5t-62 -40.5t-81 -15q-40 0 -72.5 11.5t-57.5 31.5q-1 1 -2.5 2t-4.5 -3z
M275 451q-38 0 -64 -13t-42.5 -32.5t-24.5 -42.5t-10 -43q-3 -31 -3 -70t3 -70q2 -22 10 -43q1 -2 2.5 -4t4.5 2l219 275q3 4 0 7q-17 14 -40 24t-55 10zM275 49q37 0 63.5 13t43 32.5t24.5 42.5t10 43q3 31 3 70t-3 70q-2 11 -4 21.5t-7 21.5q-1 2 -2 3t-4 -3l-216 -275
q-3 -4 -2 -6t2 -3q17 -14 39.5 -22t52.5 -8z" />
    <glyph glyph-name="Scommaaccent" unicode="&#x218;" 
d="M425 200q0 34 -11.5 57.5t-34.5 40.5t-56 28.5t-76 21.5q-27 6 -57 17.5t-54.5 31t-40.5 49.5t-16 74q0 45 16 80t43 59t62.5 36.5t74.5 12.5q44 0 80 -15t61.5 -40.5t39.5 -59.5t14 -73v-13q0 -8 -6 -14t-14 -6h-24q-8 0 -14 6t-6 14v13q0 27 -10 49.5t-27.5 39
t-41.5 26t-52 9.5q-33 0 -58 -10.5t-41 -28t-24 -40t-8 -45.5q0 -34 16 -54t40 -32t52.5 -19t54.5 -15q40 -12 74 -27.5t58 -38.5t37.5 -55.5t13.5 -78.5q0 -49 -17.5 -87.5t-47.5 -65.5t-69 -41t-81 -14q-48 0 -88 16.5t-68 45t-43.5 66t-15.5 80.5v16q0 8 6 14t14 6h25
q8 0 14 -6t6 -14v-16q0 -26 9.5 -52t28.5 -46.5t47 -33t65 -12.5q69 0 109 40t41 104zM236 -150q-8 0 -14 6t-6 14v65q0 8 6 14t14 6h60q8 0 14 -6t6 -14v-70q0 -21 -5 -31.5t-11 -19.5l-25 -36q-4 -5 -9.5 -11.5t-19.5 -6.5h-10q-9 0 -14.5 7.5t-0.5 16.5l28 51q3 5 0.5 10
t-8.5 5h-5z" />
    <glyph glyph-name="scommaaccent" unicode="&#x219;" 
d="M82 163q0 8 6 14t14 6h19q8 0 14 -6t6 -14q0 -27 10.5 -48.5t28.5 -36.5t42.5 -22.5t52.5 -7.5q62 0 97.5 28t35.5 69q0 24 -13 40t-33 26.5t-44.5 16.5t-47.5 9q-33 5 -64 13.5t-54.5 24t-38 39t-14.5 58.5q0 29 14.5 54.5t39 44t56.5 29t66 10.5t65 -10t55 -29.5
t38.5 -47t14.5 -63.5q0 -8 -6 -14t-14 -6h-19q-8 0 -14 6t-6 14q0 38 -31 66t-83 28q-53 0 -84.5 -25t-31.5 -57q0 -21 10.5 -34t26.5 -21t36 -12.5t38 -7.5q31 -6 66 -15t64 -25.5t48 -43.5t19 -68q0 -32 -13.5 -60t-39 -49t-61 -33.5t-78.5 -12.5q-38 0 -72.5 11t-61.5 33
t-43 54.5t-16 74.5zM246 -150q-8 0 -14 6t-6 14v65q0 8 6 14t14 6h60q8 0 14 -6t6 -14v-70q0 -21 -5 -31.5t-11 -19.5l-25 -36q-4 -5 -9.5 -11.5t-19.5 -6.5h-10q-9 0 -14.5 7.5t-0.5 16.5l28 51q3 5 0.5 10t-8.5 5h-5z" />
    <glyph glyph-name="uni021A" unicode="&#x21a;" 
d="M66 636q-8 0 -14 6t-6 14v24q0 8 6 14t14 6h420q8 0 14 -6t6 -14v-24q0 -8 -6 -14t-14 -6h-167q-10 0 -10 -10v-606q0 -8 -6 -14t-14 -6h-25q-8 0 -14 6t-6 14v606q0 10 -10 10h-168zM246 -150q-8 0 -14 6t-6 14v65q0 8 6 14t14 6h60q8 0 14 -6t6 -14v-70q0 -21 -5 -31.5
t-11 -19.5l-25 -36q-4 -5 -9.5 -11.5t-19.5 -6.5h-10q-9 0 -14.5 7.5t-0.5 16.5l28 51q3 5 0.5 10t-8.5 5h-5z" />
    <glyph glyph-name="uni021B" unicode="&#x21b;" 
d="M239 160q0 -53 28.5 -81.5t66.5 -28.5q43 0 67.5 29t24.5 71q0 8 6 14t14 6h21q8 0 14 -6t6 -14q0 -33 -11.5 -62t-32 -51t-48.5 -34.5t-61 -12.5t-61.5 12.5t-49 34.5t-32.5 51t-12 62v276q0 10 -10 10h-111q-8 0 -14 6t-6 14v19q0 8 6 14t14 6h111q10 0 10 10v155
q0 8 6 14t14 6h20q8 0 14 -6t6 -14v-155q0 -10 10 -10h166q8 0 14 -6t6 -14v-19q0 -8 -6 -14t-14 -6h-166q-10 0 -10 -10v-266zM246 -150q-8 0 -14 6t-6 14v65q0 8 6 14t14 6h60q8 0 14 -6t6 -14v-70q0 -21 -5 -31.5t-11 -19.5l-25 -36q-4 -5 -9.5 -11.5t-19.5 -6.5h-10
q-9 0 -14.5 7.5t-0.5 16.5l28 51q3 5 0.5 10t-8.5 5h-5z" />
    <glyph glyph-name="hsuperior" unicode="&#x2b0;" 
d="M179 346q-10 0 -10 10v334q0 10 10 10h40q10 0 10 -10v-91q0 -3 3 -6.5t8 -3.5q8 0 17 6t26 6q46 0 72 -24.5t26 -68.5v-152q0 -10 -10 -10h-40q-10 0 -10 10v147q0 17 -13 27.5t-33 10.5t-33 -12t-13 -28v-145q0 -10 -10 -10h-40z" />
    <glyph glyph-name="jsuperior" unicode="&#x2b2;" 
d="M355 649q0 -8 -8 -8h-42q-8 0 -8 8v43q0 8 8 8h42q8 0 8 -8v-43zM356 322q0 -32 -20 -56.5t-62 -24.5q-33 0 -56.5 23.5t-23.5 56.5q0 10 10 10h39q8 0 10 -10q1 -5 4.5 -13t16.5 -8t16.5 8t3.5 15v213q0 5 -5 5h-71q-10 0 -10 10v35q0 10 10 10h128q10 0 10 -10v-264z
" />
    <glyph glyph-name="wsuperior" unicode="&#x2b7;" 
d="M285 541q6 0 9 -7l26 -74q1 -2 3.5 -2.5t3.5 2.5l12 129q1 7 9 7h38q6 0 8.5 -4t1.5 -8l-38 -230q-1 -8 -10 -8h-36q-7 0 -10 8l-24 67q-1 2 -3 2t-3 -3l-24 -66q-3 -8 -10 -8h-36q-8 0 -10 8l-38 231q-1 4 1.5 7.5t8.5 3.5h38q8 0 9 -8l12 -127q0 -3 3 -3.5t4 2.5l26 74
q3 7 9 7h20z" />
    <glyph glyph-name="ysuperior" unicode="&#x2b8;" 
d="M272 447q2 -5 4 0l49 142q3 7 10 7h44q6 0 9 -4t1 -8l-127 -331q-3 -7 -10 -7h-42q-6 0 -9 4t-1 8l37 103l1.5 3t-0.5 3l-78 218q-2 4 1 7.5t8 3.5h47q6 0 9 -7z" />
    <glyph glyph-name="apostrophemod" unicode="&#x2bc;" 
d="M241 590q-8 0 -14 6t-6 14v70q0 8 6 14t14 6h70q8 0 14 -6t6 -14v-75q0 -21 -5 -31.5t-11 -19.5l-40 -56q-4 -5 -9.5 -11.5t-19.5 -6.5h-10q-9 0 -14.5 7.5t-0.5 16.5l38 71q3 5 0.5 10t-8.5 5h-10z" />
    <glyph glyph-name="circumflex" unicode="&#x2c6;" 
d="M202 601q-5 -5 -12.5 -10.5t-18.5 -5.5h-43q-10 0 -13 8t2 13l118 112q5 5 10.5 8.5t19.5 3.5h22q13 0 18.5 -3.5t10.5 -8.5l118 -112q5 -5 2 -13t-13 -8h-43q-11 0 -18.5 5.5t-12.5 10.5l-67 65q-7 7 -14 0z" />
    <glyph glyph-name="caron" unicode="&#x2c7;" 
d="M267 649q7 -7 14 0l68 65q5 5 12.5 10.5t18.5 5.5h42q10 0 13 -8t-2 -13l-118 -112q-5 -5 -10.5 -8.5t-18.5 -3.5h-22q-14 0 -19.5 3.5t-10.5 8.5l-118 112q-5 5 -2 13t13 8h43q11 0 18.5 -5.5t12.5 -10.5z" />
    <glyph glyph-name="breve" unicode="&#x2d8;" 
d="M356 713q0 7 4.5 12t12.5 5h23q7 0 12 -5t5 -12q0 -27 -10 -50t-28.5 -40.5t-43.5 -27.5t-55 -10t-55.5 10t-44 27.5t-28.5 40.5t-10 50q0 7 5 12t12 5h23q8 0 12.5 -5t4.5 -12q0 -35 23 -55.5t58 -20.5t57.5 20.5t22.5 55.5z" />
    <glyph glyph-name="dotaccent" unicode="&#x2d9;" 
d="M320 632q0 -16 -16 -16h-58q-16 0 -16 16v59q0 6 4.5 11t11.5 5h58q7 0 11.5 -5t4.5 -11v-59z" />
    <glyph glyph-name="ring" unicode="&#x2da;" 
d="M165 670q0 23 8.5 43t23.5 35t35 23.5t43 8.5t43 -8.5t35 -23.5t23.5 -35t8.5 -43t-8.5 -43t-23.5 -35t-35 -23.5t-43 -8.5t-43 8.5t-35 23.5t-23.5 35t-8.5 43zM219 670q0 -23 16.5 -39.5t39.5 -16.5q24 0 39.5 16.5t15.5 39.5q0 24 -15.5 39.5t-39.5 15.5
q-23 0 -39.5 -15.5t-16.5 -39.5z" />
    <glyph glyph-name="ogonek" unicode="&#x2db;" 
d="M334 0q-43 0 -73.5 -17.5t-30.5 -58.5q0 -40 28 -57t76 -17q8 0 14 -6t6 -14v-20q0 -8 -6 -14t-14 -6q-36 0 -66 7.5t-52 23t-34 40t-12 58.5q0 36 15.5 62.5t39.5 44t53 26t56 8.5q8 0 14 -6t6 -14v-20q0 -8 -6 -14t-14 -6z" />
    <glyph glyph-name="tilde" unicode="&#x2dc;" 
d="M345 676q19 0 29.5 6.5t16.5 14.5t15.5 4t9.5 -18v-24q0 -20 -20.5 -35.5t-50.5 -15.5q-24 0 -39.5 4t-29 8.5t-30 8.5t-41.5 4q-17 0 -27.5 -5.5t-18.5 -15.5q-6 -7 -15.5 -3.5t-9.5 17.5v24q0 20 20.5 35.5t50.5 15.5q24 0 39.5 -4t29 -8.5t29.5 -8.5t42 -4z" />
    <glyph glyph-name="hungarumlaut" unicode="&#x2dd;" 
d="M283 730q10 0 13 -8t-2 -13l-108 -112q-5 -5 -10.5 -8.5t-19.5 -3.5h-19q-10 0 -14 7.5t0 12.5l76 109q4 5 9.5 10.5t16.5 5.5h58zM440 730q10 0 13 -8t-2 -13l-108 -112q-5 -5 -10.5 -8.5t-19.5 -3.5h-19q-10 0 -14 7.5t0 12.5l76 109q4 5 9.5 10.5t16.5 5.5h58z" />
    <glyph glyph-name="xsuperior" unicode="&#x2e3;" 
d="M232 351q-2 -5 -11 -5h-45q-8 0 -10 5t2 11l66 111q2 3 1 7l-59 99q-4 7 -1.5 12t9.5 5h44q6 0 8 -1.5t3 -3.5l34 -63q2 -4 4 0l33 63q2 5 11 5h45q7 0 9.5 -5.5t-1.5 -11.5l-59 -100q-1 -2 0 -6l67 -111q4 -6 2 -11t-10 -5h-45q-6 0 -8 1.5t-3 3.5l-41 76q-2 2 -4 -1z
" />
    <glyph glyph-name="Delta" unicode="&#x394;" 
d="M47 0q-8 0 -14 6t-6 14v31q0 8 2.5 16.5t4.5 12.5l200 605q6 15 19 15h44q13 0 19 -15l200 -605q2 -4 4.5 -12.5t2.5 -16.5v-31q0 -8 -6 -14t-14 -6h-456zM445 57q6 0 7 4t-1 8l-169 553q-3 6 -6 6h-2q-3 0 -6 -6l-169 -553q-2 -4 -1 -8t7 -4h340z" />
    <glyph glyph-name="Omega" unicode="&#x3a9;" 
d="M386 72q-8 -5 -6 -13.5t13 -8.5h87q8 0 14 -6t6 -14v-10q0 -8 -6 -14t-14 -6h-156q-8 0 -14 6t-6 14v29q0 7 3.5 20.5t21.5 25.5q15 11 38.5 35.5t45.5 62t38 87.5t16 111q0 55 -13.5 102.5t-39 82.5t-61 55t-79.5 20q-45 0 -80.5 -21t-60.5 -56.5t-38 -82.5t-13 -100
q0 -60 15.5 -109.5t37.5 -87.5t45.5 -63t39.5 -36q18 -12 21.5 -25.5t3.5 -20.5v-29q0 -8 -6 -14t-14 -6h-156q-8 0 -14 6t-6 14v10q0 8 6 14t14 6h87q12 0 14 8t-6 13q-27 20 -52.5 54.5t-45 77.5t-31.5 91.5t-12 97.5q0 64 18.5 121t51.5 99t79 66.5t102 24.5
q55 0 101.5 -24.5t80 -66.5t52 -99t18.5 -121q0 -49 -12.5 -97.5t-32 -91t-45 -77t-50.5 -54.5z" />
    <glyph glyph-name="mu" unicode="&#x3bc;" 
d="M89 480q0 8 6 14t14 6h19q8 0 14 -6t6 -14v-316q0 -63 36.5 -89t90.5 -26q27 0 50 8.5t40.5 23.5t27 35t9.5 43v321q0 8 6 14t14 6h19q8 0 14 -6t6 -14v-460q0 -8 -6 -14t-14 -6h-16q-7 0 -14 7q-5 5 -10 10.5t-14 5.5q-11 0 -20.5 -5t-22 -11.5t-30.5 -11.5t-46 -5
q-17 0 -32 4t-27 8.5t-22 8.5t-17 4q-11 0 -16.5 -7t-5.5 -14v-174q0 -8 -6 -14t-14 -6h-19q-8 0 -14 6t-6 14v660z" />
    <glyph glyph-name="pi" unicode="&#x3c0;" 
d="M416 440q-10 0 -10 -10v-260q0 -31 5 -52t16.5 -34t30.5 -18.5t48 -5.5q8 0 14 -6t6 -14v-20q0 -8 -6 -14t-14 -6q-46 0 -77 11t-49.5 32.5t-26 53t-7.5 73.5v260q0 10 -8 10h-157q-10 0 -10 -10v-410q0 -8 -6 -14t-14 -6h-20q-8 0 -14 6t-6 14v410q0 10 -10 10h-60
q-8 0 -14 6t-6 14v20q0 8 6 14t14 6h460q8 0 14 -6t6 -14v-20q0 -8 -6 -14t-14 -6h-85z" />
    <glyph glyph-name="Wgrave" unicode="&#x1e80;" 
d="M371 111q1 -5 6 -5t6 5l62 574q1 8 6.5 11.5t12.5 3.5h25q12 0 16.5 -6t3.5 -14l-82 -665q-1 -8 -6.5 -11.5t-12.5 -3.5h-67q-7 0 -12.5 3.5t-6.5 11.5l-42 362q-1 4 -3 4t-3 -4l-56 -362q-3 -15 -19 -15h-67q-7 0 -12.5 3.5t-6.5 11.5l-73 665q-1 8 3.5 14t16.5 6h25
q7 0 12.5 -3.5t6.5 -11.5l58 -574q1 -5 6 -5t6 5l60 374q3 15 19 15h46q16 0 19 -15zM219 895q11 0 16.5 -5.5t9.5 -10.5l76 -109q4 -5 0 -12.5t-14 -7.5h-19q-14 0 -19.5 3.5t-10.5 8.5l-108 112q-5 5 -2 13t13 8h58z" />
    <glyph glyph-name="wgrave" unicode="&#x1e81;" 
d="M291 390q16 0 19 -15l49 -252q2 -6 7 -6t7 6l67 362q3 15 19 15h21q12 0 16.5 -7.5t2.5 -15.5l-94 -462q-3 -15 -19 -15h-37q-16 0 -19 15l-49 258q-1 5 -6 5t-6 -5l-49 -258q-3 -15 -19 -15h-37q-16 0 -19 15l-94 462q-2 8 2.5 15.5t16.5 7.5h21q16 0 19 -15l67 -362
q2 -6 7 -6t7 6l49 252q3 15 19 15h32zM229 730q11 0 16.5 -5.5t9.5 -10.5l76 -109q4 -5 0 -12.5t-14 -7.5h-19q-14 0 -19.5 3.5t-10.5 8.5l-108 112q-5 5 -2 13t13 8h58z" />
    <glyph glyph-name="Wacute" unicode="&#x1e82;" 
d="M371 111q1 -5 6 -5t6 5l62 574q1 8 6.5 11.5t12.5 3.5h25q12 0 16.5 -6t3.5 -14l-82 -665q-1 -8 -6.5 -11.5t-12.5 -3.5h-67q-7 0 -12.5 3.5t-6.5 11.5l-42 362q-1 4 -3 4t-3 -4l-56 -362q-3 -15 -19 -15h-67q-7 0 -12.5 3.5t-6.5 11.5l-73 665q-1 8 3.5 14t16.5 6h25
q7 0 12.5 -3.5t6.5 -11.5l58 -574q1 -5 6 -5t6 5l60 374q3 15 19 15h46q16 0 19 -15zM389 895q10 0 13 -8t-2 -13l-108 -112q-5 -5 -10.5 -8.5t-19.5 -3.5h-19q-10 0 -14 7.5t0 12.5l76 109q4 5 9.5 10.5t16.5 5.5h58z" />
    <glyph glyph-name="wacute" unicode="&#x1e83;" 
d="M291 390q16 0 19 -15l49 -252q2 -6 7 -6t7 6l67 362q3 15 19 15h21q12 0 16.5 -7.5t2.5 -15.5l-94 -462q-3 -15 -19 -15h-37q-16 0 -19 15l-49 258q-1 5 -6 5t-6 -5l-49 -258q-3 -15 -19 -15h-37q-16 0 -19 15l-94 462q-2 8 2.5 15.5t16.5 7.5h21q16 0 19 -15l67 -362
q2 -6 7 -6t7 6l49 252q3 15 19 15h32zM379 730q10 0 13 -8t-2 -13l-108 -112q-5 -5 -10.5 -8.5t-19.5 -3.5h-19q-10 0 -14 7.5t0 12.5l76 109q4 5 9.5 10.5t16.5 5.5h58z" />
    <glyph glyph-name="Wdieresis" unicode="&#x1e84;" 
d="M371 111q1 -5 6 -5t6 5l62 574q1 8 6.5 11.5t12.5 3.5h25q12 0 16.5 -6t3.5 -14l-82 -665q-1 -8 -6.5 -11.5t-12.5 -3.5h-67q-7 0 -12.5 3.5t-6.5 11.5l-42 362q-1 4 -3 4t-3 -4l-56 -362q-3 -15 -19 -15h-67q-7 0 -12.5 3.5t-6.5 11.5l-73 665q-1 8 3.5 14t16.5 6h25
q7 0 12.5 -3.5t6.5 -11.5l58 -574q1 -5 6 -5t6 5l60 374q3 15 19 15h46q16 0 19 -15zM231 778q0 -16 -16 -16h-52q-16 0 -16 16v53q0 6 4.5 11t11.5 5h52q7 0 11.5 -5t4.5 -11v-53zM402 778q0 -16 -16 -16h-52q-16 0 -16 16v53q0 6 4.5 11t11.5 5h52q7 0 11.5 -5t4.5 -11
v-53z" />
    <glyph glyph-name="wdieresis" unicode="&#x1e85;" 
d="M291 390q16 0 19 -15l49 -252q2 -6 7 -6t7 6l67 362q3 15 19 15h21q12 0 16.5 -7.5t2.5 -15.5l-94 -462q-3 -15 -19 -15h-37q-16 0 -19 15l-49 258q-1 5 -6 5t-6 -5l-49 -258q-3 -15 -19 -15h-37q-16 0 -19 15l-94 462q-2 8 2.5 15.5t16.5 7.5h21q16 0 19 -15l67 -362
q2 -6 7 -6t7 6l49 252q3 15 19 15h32zM231 638q0 -16 -16 -16h-52q-16 0 -16 16v53q0 6 4.5 11t11.5 5h52q7 0 11.5 -5t4.5 -11v-53zM402 638q0 -16 -16 -16h-52q-16 0 -16 16v53q0 6 4.5 11t11.5 5h52q7 0 11.5 -5t4.5 -11v-53z" />
    <glyph glyph-name="Ygrave" unicode="&#x1ef2;" 
d="M272 328q4 -10 8 0l137 357q5 15 19 15h32q10 0 15.5 -8.5t0.5 -19.5l-175 -431v-221q0 -8 -6 -14t-14 -6h-26q-8 0 -14 6t-6 14v220l-177 432q-5 11 0.5 19.5t15.5 8.5h32q14 0 19 -15zM219 895q11 0 16.5 -5.5t9.5 -10.5l76 -109q4 -5 0 -12.5t-14 -7.5h-19
q-14 0 -19.5 3.5t-10.5 8.5l-108 112q-5 5 -2 13t13 8h58z" />
    <glyph glyph-name="ygrave" unicode="&#x1ef3;" 
d="M281 117q4 -10 8 0l134 368q5 15 19 15h28q12 0 17 -7.5t2 -15.5l-254 -662q-5 -15 -19 -15h-22q-12 0 -17 7.5t-2 15.5l74 201q3 8 1 13l-189 440q-3 8 2 15.5t17 7.5h28q14 0 19 -15zM219 730q11 0 16.5 -5.5t9.5 -10.5l76 -109q4 -5 0 -12.5t-14 -7.5h-19
q-14 0 -19.5 3.5t-10.5 8.5l-108 112q-5 5 -2 13t13 8h58z" />
    <glyph glyph-name="endash" unicode="&#x2013;" 
d="M465 296q8 0 14 -6t6 -14v-30q0 -8 -6 -14t-14 -6h-380q-8 0 -14 6t-6 14v30q0 8 6 14t14 6h380z" />
    <glyph glyph-name="emdash" unicode="&#x2014;" 
d="M540 296q8 0 14 -6t6 -14v-30q0 -8 -6 -14t-14 -6h-530q-8 0 -14 6t-6 14v30q0 8 6 14t14 6h530z" />
    <glyph glyph-name="quoteleft" unicode="&#x2018;" 
d="M310 590q8 0 14 -6t6 -14v-70q0 -8 -6 -14t-14 -6h-70q-8 0 -14 6t-6 14v75q0 21 5 31.5t11 19.5l40 56q4 5 9.5 11.5t19.5 6.5h10q9 0 14.5 -7.5t0.5 -16.5l-38 -71q-3 -5 -0.5 -10t8.5 -5h10z" />
    <glyph glyph-name="quoteright" unicode="&#x2019;" 
d="M241 590q-8 0 -14 6t-6 14v70q0 8 6 14t14 6h70q8 0 14 -6t6 -14v-75q0 -21 -5 -31.5t-11 -19.5l-40 -56q-4 -5 -9.5 -11.5t-19.5 -6.5h-10q-9 0 -14.5 7.5t-0.5 16.5l38 71q3 5 0.5 10t-8.5 5h-10z" />
    <glyph glyph-name="quotesinglbase" unicode="&#x201a;" 
d="M241 0q-8 0 -14 6t-6 14v70q0 8 6 14t14 6h70q8 0 14 -6t6 -14v-75q0 -21 -5 -31.5t-11 -19.5l-40 -56q-4 -5 -9.5 -11.5t-19.5 -6.5h-10q-9 0 -14.5 7.5t-0.5 16.5l38 71q3 5 0.5 10t-8.5 5h-10z" />
    <glyph glyph-name="quotedblleft" unicode="&#x201c;" 
d="M228 590q8 0 14 -6t6 -14v-70q0 -8 -6 -14t-14 -6h-70q-8 0 -14 6t-6 14v75q0 21 5 31.5t11 19.5l40 56q4 5 9.5 11.5t19.5 6.5h10q9 0 14.5 -7.5t0.5 -16.5l-38 -71q-3 -5 -0.5 -10t8.5 -5h10zM390 590q8 0 14 -6t6 -14v-70q0 -8 -6 -14t-14 -6h-70q-8 0 -14 6t-6 14v75
q0 21 5 31.5t11 19.5l40 56q4 5 9.5 11.5t19.5 6.5h10q9 0 14.5 -7.5t0.5 -16.5l-38 -71q-3 -5 -0.5 -10t8.5 -5h10z" />
    <glyph glyph-name="quotedblright" unicode="&#x201d;" 
d="M160 590q-8 0 -14 6t-6 14v70q0 8 6 14t14 6h70q8 0 14 -6t6 -14v-75q0 -21 -5 -31.5t-11 -19.5l-40 -56q-4 -5 -9.5 -11.5t-19.5 -6.5h-10q-9 0 -14.5 7.5t-0.5 16.5l38 71q3 5 0.5 10t-8.5 5h-10zM322 590q-8 0 -14 6t-6 14v70q0 8 6 14t14 6h70q8 0 14 -6t6 -14v-75
q0 -21 -5 -31.5t-11 -19.5l-40 -56q-4 -5 -9.5 -11.5t-19.5 -6.5h-10q-9 0 -14.5 7.5t-0.5 16.5l38 71q3 5 0.5 10t-8.5 5h-10z" />
    <glyph glyph-name="quotedblbase" unicode="&#x201e;" 
d="M160 0q-8 0 -14 6t-6 14v70q0 8 6 14t14 6h70q8 0 14 -6t6 -14v-75q0 -21 -5 -31.5t-11 -19.5l-40 -56q-4 -5 -9.5 -11.5t-19.5 -6.5h-10q-9 0 -14.5 7.5t-0.5 16.5l38 71q3 5 0.5 10t-8.5 5h-10zM322 0q-8 0 -14 6t-6 14v70q0 8 6 14t14 6h70q8 0 14 -6t6 -14v-75
q0 -21 -5 -31.5t-11 -19.5l-40 -56q-4 -5 -9.5 -11.5t-19.5 -6.5h-10q-9 0 -14.5 7.5t-0.5 16.5l38 71q3 5 0.5 10t-8.5 5h-10z" />
    <glyph glyph-name="dagger" unicode="&#x2020;" 
d="M305 -100q0 -8 -6 -14t-14 -6h-20q-8 0 -14 6t-6 14v518q0 10 -10 10h-142q-8 0 -14 6t-6 14v19q0 8 6 14t14 6h142q10 0 10 10v183q0 8 6 14t14 6h20q8 0 14 -6t6 -14v-183q0 -10 10 -10h142q8 0 14 -6t6 -14v-19q0 -8 -6 -14t-14 -6h-142q-10 0 -10 -10v-518z" />
    <glyph glyph-name="daggerdbl" unicode="&#x2021;" 
d="M85 179q-8 0 -14 6t-6 14v21q0 8 6 14t14 6h149q10 0 10 10v200q0 10 -10 10h-149q-8 0 -14 6t-6 14v21q0 8 6 14t14 6h149q10 0 10 10v149q0 8 6 14t14 6h22q8 0 14 -6t6 -14v-149q0 -10 10 -10h149q8 0 14 -6t6 -14v-21q0 -8 -6 -14t-14 -6h-149q-10 0 -10 -10v-200
q0 -10 10 -10h149q8 0 14 -6t6 -14v-21q0 -8 -6 -14t-14 -6h-149q-10 0 -10 -10v-149q0 -8 -6 -14t-14 -6h-22q-8 0 -14 6t-6 14v149q0 10 -10 10h-149z" />
    <glyph glyph-name="bullet" unicode="&#x2022;" 
d="M372 218q0 -8 -6 -14t-14 -6h-154q-8 0 -14 6t-6 14v154q0 8 6 14t14 6h154q8 0 14 -6t6 -14v-154z" />
    <glyph glyph-name="ellipsis" unicode="&#x2026;" 
d="M150 20q0 -8 -6 -14t-14 -6h-76q-8 0 -14 6t-6 14v76q0 8 6 14t14 6h76q8 0 14 -6t6 -14v-76zM332 20q0 -8 -6 -14t-14 -6h-76q-8 0 -14 6t-6 14v76q0 8 6 14t14 6h76q8 0 14 -6t6 -14v-76zM515 20q0 -8 -6 -14t-14 -6h-76q-8 0 -14 6t-6 14v76q0 8 6 14t14 6h76
q8 0 14 -6t6 -14v-76z" />
    <glyph glyph-name="perthousand" unicode="&#x2030;" 
d="M108 15q-6 -15 -21 -15h-12q-10 0 -15.5 8.5t-0.5 19.5l264 657q7 15 22 15h13q10 0 15.5 -8.5t0.5 -19.5zM211 150q0 24 4 49t15.5 45t32.5 33t55 13t55 -13t32.5 -33t15.5 -45t4 -49t-4 -49t-15.5 -45t-32.5 -33t-55 -13t-55 13t-32.5 33t-15.5 45t-4 49zM10 550
q0 24 4 49t15.5 45t32.5 33t55 13t55 -13t32.5 -33t15.5 -45t4 -49t-4 -49t-15.5 -45t-32.5 -33t-55 -13t-55 13t-32.5 33t-15.5 45t-4 49zM327 440q0 24 4 49t15.5 45t32.5 33t55 13t55 -13t32.5 -33t15.5 -45t4 -49t-4 -49t-15.5 -45t-32.5 -33t-55 -13t-55 13t-32.5 33
t-15.5 45t-4 49zM64 550q0 -41 13 -67t40 -26t40 26t13 67t-13 67t-40 26t-40 -26t-13 -67zM381 440q0 -41 13 -67t40 -26t40 26t13 67t-13 67t-40 26t-40 -26t-13 -67zM265 150q0 -41 13 -67t40 -26t40 26t13 67t-13 67t-40 26t-40 -26t-13 -67z" />
    <glyph glyph-name="guilsinglleft" unicode="&#x2039;" 
d="M293 435q2 4 8 9.5t17 5.5h19q14 0 19.5 -8.5t-3.5 -24.5l-85 -145q-8 -11 0 -24l85 -145q9 -16 3.5 -24.5t-19.5 -8.5h-19q-11 0 -17 5.5t-8 9.5l-96 161q-5 8 -5 14t5 14z" />
    <glyph glyph-name="guilsinglright" unicode="&#x203a;" 
d="M354 274q5 -8 5 -14t-5 -14l-96 -161q-2 -4 -8 -9.5t-17 -5.5h-19q-14 0 -19.5 8.5t3.5 24.5l85 145q8 13 0 24l-85 145q-9 16 -3.5 24.5t19.5 8.5h19q11 0 17 -5.5t8 -9.5z" />
    <glyph glyph-name="fraction" unicode="&#x2044;" horiz-adv-x="0" 
d="M-167 15q-9 -15 -21 -15h-15q-10 0 -16 8.5t0 19.5l387 657q9 15 22 15h13q10 0 16 -9t0 -19z" />
    <glyph glyph-name="zerosuperior" unicode="&#x2070;" 
d="M165 596q3 20 11 39t22 33.5t33 23t44 8.5q45 0 74.5 -28t35.5 -76q2 -15 2.5 -34.5t0.5 -40.5t-1 -40.5t-2 -34.5q-2 -21 -10.5 -39.5t-22 -33t-33 -23t-44.5 -8.5q-45 0 -74.5 27.5t-35.5 76.5q-2 15 -3 34.5t-1 40.5t1 40.5t3 34.5zM275 640q-16 0 -31.5 -8t-19.5 -36
q-4 -32 -4.5 -75t4.5 -75q3 -23 16.5 -33.5t34.5 -10.5q17 0 32 8t19 36q5 32 5 75t-5 75q-3 23 -16.5 33.5t-34.5 10.5z" />
    <glyph glyph-name="foursuperior" unicode="&#x2074;" 
d="M383 461q10 0 10 -10v-35q0 -10 -10 -10h-20q-5 0 -5 -5v-45q0 -10 -10 -10h-37q-10 0 -10 10v45q0 5 -5 5h-130q-10 0 -10 10v37q0 3 2.5 6t5.5 8l132 222q4 7 10 7h42q10 0 10 -10v-220q0 -5 5 -5h20zM227 465q-2 -4 2 -4h67q5 0 5 5v120q0 2 -2 2.5t-3 -1.5z" />
    <glyph glyph-name="fivesuperior" unicode="&#x2075;" 
d="M243 636q-5 0 -5 -5v-58q0 -4 2.5 -6t8.5 2q9 6 18.5 8t14.5 2q23 0 41.5 -10t31 -26.5t19 -38t6.5 -45.5q0 -48 -27.5 -82.5t-75.5 -34.5q-20 0 -39 7t-34 19t-24.5 29t-9.5 37q0 10 10 10h40q2 0 5.5 -3t4.5 -7q2 -14 13.5 -23t29.5 -9q21 0 34.5 14.5t13.5 42.5
q0 29 -11.5 44.5t-32.5 15.5q-7 0 -17 -2.5t-18 -12.5q-5 -5 -10 -5h-40q-10 0 -10 10v177q0 10 10 10h165q10 0 10 -10v-40q0 -10 -10 -10h-114z" />
    <glyph glyph-name="sixsuperior" unicode="&#x2076;" 
d="M278 570q27 0 46.5 -9.5t32 -25.5t18.5 -37t6 -44q0 -26 -8.5 -46.5t-23 -35t-33 -22.5t-38.5 -8q-34 0 -55.5 15t-33.5 40t-16.5 56.5t-4.5 64.5q0 34 4 67t16 58.5t34 41t58 15.5q41 0 68.5 -27.5t27.5 -67.5q0 -10 -10 -10h-40q-10 0 -10 10q0 14 -9 24.5t-27 10.5
q-20 0 -31 -8.5t-16 -20.5t-6.5 -26.5t-1.5 -26.5q0 -3 2.5 -4.5t5.5 0.5q8 6 21 11t24 5zM278 403q22 0 32.5 17t10.5 35q0 26 -11.5 41t-31.5 15q-24 0 -33 -17t-9 -39q0 -21 11.5 -36.5t30.5 -15.5z" />
    <glyph glyph-name="sevensuperior" unicode="&#x2077;" 
d="M309 631q2 5 -3 5h-121q-10 0 -10 10v40q0 10 10 10h180q10 0 10 -10v-48q0 -3 -3 -10l-116 -274q-3 -8 -9 -8h-48q-7 0 -9 4.5t0 7.5z" />
    <glyph glyph-name="eightsuperior" unicode="&#x2078;" 
d="M275 397q23 0 37.5 15t14.5 33q0 20 -12 36t-40 16q-29 0 -41 -16t-12 -36q0 -18 15 -33t38 -15zM275 558q21 0 34 10t13 37q0 19 -13 30.5t-34 11.5t-34 -11.5t-13 -30.5q0 -27 13 -37t34 -10zM276 700q45 0 75.5 -26.5t30.5 -68.5q0 -21 -8 -38t-22 -31q-8 -6 0 -12
q16 -14 26.5 -34.5t10.5 -44.5q0 -21 -9.5 -40t-25 -33t-36.5 -22t-43 -8q-23 0 -43.5 8t-36.5 22t-25 33t-9 40q0 24 10 44t27 35q8 6 0 12q-13 14 -21 31.5t-8 37.5q0 42 29.5 68.5t77.5 26.5z" />
    <glyph glyph-name="ninesuperior" unicode="&#x2079;" 
d="M271 472q-27 0 -46.5 9.5t-32 25.5t-18.5 37t-6 44q0 26 8.5 46.5t22.5 35t33 22.5t39 8q34 0 55.5 -15t33.5 -40t16.5 -56.5t4.5 -64.5q0 -35 -4 -67.5t-16 -58t-34 -41t-58 -15.5q-41 0 -68.5 27.5t-27.5 67.5q0 10 10 10h40q10 0 10 -10q0 -14 9 -24.5t27 -10.5
q19 0 30.5 8.5t16.5 20.5t6.5 26.5t1.5 26.5q0 3 -2.5 4.5t-5.5 -0.5q-8 -6 -21 -11t-24 -5zM271 639q-22 0 -32.5 -17t-10.5 -35q0 -26 11.5 -41t31.5 -15q24 0 33 17t9 39q0 21 -11.5 36.5t-30.5 15.5z" />
    <glyph glyph-name="plussuperior" unicode="&#x207a;" 
d="M240 501q5 0 5 5v65q0 10 10 10h40q10 0 10 -10v-65q0 -5 5 -5h65q10 0 10 -10v-41q0 -10 -10 -10h-65q-5 0 -5 -5v-64q0 -10 -10 -10h-40q-10 0 -10 10v64q0 5 -5 5h-65q-10 0 -10 10v41q0 10 10 10h65z" />
    <glyph glyph-name="minussuperior" unicode="&#x207b;" 
d="M370 507q10 0 10 -10v-42q0 -10 -10 -10h-190q-10 0 -10 10v42q0 10 10 10h190z" />
    <glyph glyph-name="equalsuperior" unicode="&#x207c;" 
d="M175 489q-10 0 -10 10v39q0 10 10 10h200q10 0 10 -10v-39q0 -10 -10 -10h-200zM175 394q-10 0 -10 10v39q0 10 10 10h200q10 0 10 -10v-39q0 -10 -10 -10h-200z" />
    <glyph glyph-name="parenleftsuperior" unicode="&#x207d;" 
d="M344 357q10 0 10 -10v-36q0 -10 -10 -10h-29q-45 0 -77 28t-38 77q-2 15 -3 41.5t-1 56t1 56t3 41.5q3 20 12 39t23.5 33.5t34.5 23.5t45 9h26q10 0 10 -10v-36q0 -10 -10 -10h-26q-17 0 -35 -10.5t-23 -38.5q-3 -15 -4 -42t-1 -55.5t1.5 -55.5t3.5 -42q4 -22 20 -35.5
t38 -13.5h29z" />
    <glyph glyph-name="parenrightsuperior" unicode="&#x207e;" 
d="M235 357q22 0 38 13.5t20 35.5q2 15 3.5 42t1.5 55.5t-1 55.5t-4 42q-5 28 -23 38.5t-35 10.5h-26q-10 0 -10 10v36q0 10 10 10h26q25 0 45 -9t34.5 -23.5t23.5 -33.5t12 -39q2 -15 3 -41.5t1 -56t-1 -56t-3 -41.5q-6 -49 -38 -77t-77 -28h-29q-10 0 -10 10v36
q0 10 10 10h29z" />
    <glyph glyph-name="nsuperior" unicode="&#x207f;" 
d="M234 585q5 0 8.5 2.5t8 5.5t11.5 5.5t19 2.5q50 0 75.5 -25.5t25.5 -65.5v-154q0 -10 -10 -10h-40q-10 0 -10 10v145q0 19 -13.5 29.5t-33.5 10.5t-33.5 -10t-13.5 -30v-145q0 -10 -10 -10h-40q-10 0 -10 10v230q0 10 10 10h36q3 0 7 -4q2 -2 6 -4.5t7 -2.5z" />
    <glyph glyph-name="zeroinferior" unicode="&#x2080;" 
d="M165 68q3 20 11 39t22 33.5t33 23t44 8.5q45 0 74.5 -28t35.5 -76q2 -15 2.5 -34.5t0.5 -40.5t-1 -40.5t-2 -34.5q-2 -21 -10.5 -39.5t-22 -33t-33 -23t-44.5 -8.5q-45 0 -74.5 27.5t-35.5 76.5q-2 15 -3 34.5t-1 40.5t1 40.5t3 34.5zM275 112q-16 0 -31.5 -8t-19.5 -36
q-4 -32 -4.5 -75t4.5 -75q3 -23 16.5 -33.5t34.5 -10.5q17 0 32 8t19 36q5 32 5 75t-5 75q-3 23 -16.5 33.5t-34.5 10.5z" />
    <glyph glyph-name="oneinferior" unicode="&#x2081;" 
d="M250 70q0 2 -1.5 2.5t-2.5 -0.5l-73 -71q-2 -2 -6 -2.5t-4 4.5v57q0 6 3.5 12t6.5 9l74 82q3 5 10 5h46q10 0 10 -10v-277q0 -5 5 -5h59q10 0 10 -10v-38q0 -10 -10 -10h-204q-10 0 -10 10v38q0 10 10 10h72q5 0 5 5v189z" />
    <glyph glyph-name="twoinferior" unicode="&#x2082;" 
d="M309 77q0 17 -10 26t-26 9q-17 0 -26 -9.5t-9 -25.5v-8q0 -10 -10 -10h-40q-10 0 -10 10v8q0 40 27.5 67.5t67.5 27.5q22 0 39.5 -8t29.5 -21t18.5 -30.5t6.5 -35.5q0 -58 -39 -105l-74 -88q-2 -2 -1 -5t5 -3h107q4 0 7 -1.5t3 -8.5v-38q0 -10 -10 -10h-181q-10 0 -10 10
v46q0 6 1 8.5t3 4.5l99 115q16 18 24 36t8 39z" />
    <glyph glyph-name="threeinferior" unicode="&#x2083;" 
d="M319 -78q0 16 -9.5 32t-34.5 16h-8q-10 0 -10 10v41q0 10 10 10h8q22 0 29 13.5t7 27.5q0 21 -12 29.5t-25 8.5t-24.5 -9t-11.5 -24v-8q0 -10 -10 -10h-42q-10 0 -10 10v8q0 40 28 67.5t70 27.5q20 0 38.5 -7.5t32 -20t21.5 -30t8 -37.5q0 -21 -7.5 -39t-21.5 -30
q-7 -7 -1 -12q17 -14 27 -34.5t10 -44.5q0 -43 -28.5 -73t-78.5 -30q-22 0 -41.5 8t-33.5 22t-22.5 33t-8.5 40v4q0 10 10 10h43q10 0 10 -10v-4q0 -16 11.5 -28t31.5 -12q25 0 35 14.5t10 30.5z" />
    <glyph glyph-name="fourinferior" unicode="&#x2084;" 
d="M383 -67q10 0 10 -10v-35q0 -10 -10 -10h-20q-5 0 -5 -5v-45q0 -10 -10 -10h-37q-10 0 -10 10v45q0 5 -5 5h-130q-10 0 -10 10v37q0 3 2.5 6t5.5 8l132 222q4 7 10 7h42q10 0 10 -10v-220q0 -5 5 -5h20zM227 -63q-2 -4 2 -4h67q5 0 5 5v120q0 2 -2 2.5t-3 -1.5z" />
    <glyph glyph-name="fiveinferior" unicode="&#x2085;" 
d="M243 108q-5 0 -5 -5v-58q0 -4 2.5 -6t8.5 2q9 6 18.5 8t14.5 2q23 0 41.5 -10t31 -26.5t19 -38t6.5 -45.5q0 -48 -27.5 -82.5t-75.5 -34.5q-20 0 -39 7t-34 19t-24.5 29t-9.5 37q0 10 10 10h40q2 0 5.5 -3t4.5 -7q2 -14 13.5 -23t29.5 -9q21 0 34.5 14.5t13.5 42.5
q0 29 -11.5 44.5t-32.5 15.5q-7 0 -17 -2.5t-18 -12.5q-5 -5 -10 -5h-40q-10 0 -10 10v177q0 10 10 10h165q10 0 10 -10v-40q0 -10 -10 -10h-114z" />
    <glyph glyph-name="sixinferior" unicode="&#x2086;" 
d="M278 42q27 0 46.5 -9.5t32 -25.5t18.5 -37t6 -44q0 -26 -8.5 -46.5t-23 -35t-33 -22.5t-38.5 -8q-34 0 -55.5 15t-33.5 40t-16.5 56.5t-4.5 64.5q0 34 4 67t16 58.5t34 41t58 15.5q41 0 68.5 -27.5t27.5 -67.5q0 -10 -10 -10h-40q-10 0 -10 10q0 14 -9 24.5t-27 10.5
q-20 0 -31 -8.5t-16 -20.5t-6.5 -26.5t-1.5 -26.5q0 -3 2.5 -4.5t5.5 0.5q8 6 21 11t24 5zM278 -125q22 0 32.5 17t10.5 35q0 26 -11.5 41t-31.5 15q-24 0 -33 -17t-9 -39q0 -21 11.5 -36.5t30.5 -15.5z" />
    <glyph glyph-name="seveninferior" unicode="&#x2087;" 
d="M309 103q2 5 -3 5h-121q-10 0 -10 10v40q0 10 10 10h180q10 0 10 -10v-48q0 -3 -3 -10l-116 -274q-3 -8 -9 -8h-48q-7 0 -9 4.5t0 7.5z" />
    <glyph glyph-name="eightinferior" unicode="&#x2088;" 
d="M275 -131q23 0 37.5 15t14.5 33q0 20 -12 36t-40 16q-29 0 -41 -16t-12 -36q0 -18 15 -33t38 -15zM275 30q21 0 34 10t13 37q0 19 -13 30.5t-34 11.5t-34 -11.5t-13 -30.5q0 -27 13 -37t34 -10zM276 172q45 0 75.5 -26.5t30.5 -68.5q0 -21 -8 -38t-22 -31q-8 -6 0 -12
q16 -14 26.5 -34.5t10.5 -44.5q0 -21 -9.5 -40t-25 -33t-36.5 -22t-43 -8q-23 0 -43.5 8t-36.5 22t-25 33t-9 40q0 24 10 44t27 35q8 6 0 12q-13 14 -21 31.5t-8 37.5q0 42 29.5 68.5t77.5 26.5z" />
    <glyph glyph-name="nineinferior" unicode="&#x2089;" 
d="M271 -56q-27 0 -46.5 9.5t-32 25.5t-18.5 37t-6 44q0 26 8.5 46.5t22.5 35t33 22.5t39 8q34 0 55.5 -15t33.5 -40t16.5 -56.5t4.5 -64.5q0 -35 -4 -67.5t-16 -58t-34 -41t-58 -15.5q-41 0 -68.5 27.5t-27.5 67.5q0 10 10 10h40q10 0 10 -10q0 -14 9 -24.5t27 -10.5
q19 0 30.5 8.5t16.5 20.5t6.5 26.5t1.5 26.5q0 3 -2.5 4.5t-5.5 -0.5q-8 -6 -21 -11t-24 -5zM271 111q-22 0 -32.5 -17t-10.5 -35q0 -26 11.5 -41t31.5 -15q24 0 33 17t9 39q0 21 -11.5 36.5t-30.5 15.5z" />
    <glyph glyph-name="parenleftinferior" unicode="&#x208d;" 
d="M344 -171q10 0 10 -10v-36q0 -10 -10 -10h-29q-45 0 -77 28t-38 77q-2 15 -3 41.5t-1 56t1 56t3 41.5q3 20 12 39t23.5 33.5t34.5 23.5t45 9h26q10 0 10 -10v-36q0 -10 -10 -10h-26q-17 0 -35 -10.5t-23 -38.5q-3 -15 -4 -42t-1 -55.5t1.5 -55.5t3.5 -42q4 -22 20 -35.5
t38 -13.5h29z" />
    <glyph glyph-name="parenrightinferior" unicode="&#x208e;" 
d="M235 -171q22 0 38 13.5t20 35.5q2 15 3.5 42t1.5 55.5t-1 55.5t-4 42q-5 28 -23 38.5t-35 10.5h-26q-10 0 -10 10v36q0 10 10 10h26q25 0 45 -9t34.5 -23.5t23.5 -33.5t12 -39q2 -15 3 -41.5t1 -56t-1 -56t-3 -41.5q-6 -49 -38 -77t-77 -28h-29q-10 0 -10 10v36
q0 10 10 10h29z" />
    <glyph glyph-name="Euro" unicode="&#x20ac;" 
d="M459 204q0 8 6 14t14 6h27q8 0 14 -6t6 -14v-4q0 -49 -18 -87.5t-48.5 -65.5t-71 -41t-85.5 -14q-44 0 -85.5 16t-73 47.5t-50.5 78.5t-19 109q0 2 -0.5 4.5t-5.5 2.5h-27q-8 0 -14 6t-6 14v25q0 8 6 14t14 6h23q8 0 8 7v73q0 2 -0.5 4t-4.5 2h-26q-8 0 -14 6t-6 14v25
q0 8 6 14t14 6h28q7 0 7 6q0 44 16.5 86.5t46.5 75.5t71.5 53.5t91.5 20.5q49 0 90.5 -17t70.5 -45.5t45.5 -66.5t16.5 -79v-4q0 -8 -6 -14t-14 -6h-27q-8 0 -14 6t-6 14v4q0 28 -11 54t-31.5 46t-49 32t-64.5 12t-65 -14t-50 -37.5t-32.5 -54.5t-11.5 -65q0 -7 5 -7h183
q8 0 14 -6t6 -14v-25q0 -8 -6 -14t-14 -6h-188q-5 0 -5.5 -2.5t-0.5 -4.5v-72q0 -7 6 -7h188q8 0 14 -6t6 -14v-25q0 -8 -6 -14t-14 -6h-184q-5 0 -5.5 -2.5t-0.5 -4.5q0 -37 9 -70.5t28.5 -59.5t50 -41.5t73.5 -15.5q40 0 69.5 14t49 35.5t28.5 47t9 47.5v4z" />
    <glyph glyph-name="afii61289" unicode="&#x2113;" 
d="M70 282q-8 0 -14 6t-6 14v20q0 8 6 14t14 6h48v168q0 40 14 74.5t39 60t59 40.5t73 15t72 -15t57 -40.5t37.5 -60.5t13.5 -74q0 -55 -23.5 -97t-64 -71t-95 -44t-117.5 -15v-73q0 -51 11 -82t33.5 -48.5t58 -23.5t83.5 -6h36q8 0 14 -6t6 -14v-20q0 -8 -6 -14t-14 -6h-36
q-68 0 -115.5 12.5t-77.5 39t-44 67.5t-14 99v74h-48zM183 342q111 0 173 44t62 124q0 30 -9 54t-25 41t-36.5 26t-44.5 9q-27 0 -49.5 -10.5t-38 -28.5t-24 -41.5t-8.5 -49.5v-168z" />
    <glyph glyph-name="afii61352" unicode="&#x2116;" 
d="M345 0q-8 0 -14 6t-6 14v12q0 8 6 14t14 6h154q8 0 14 -6t6 -14v-12q0 -8 -6 -14t-14 -6h-154zM420 343q-36 0 -49.5 -21.5t-13.5 -56.5q0 -36 15.5 -57.5t47.5 -21.5t47.5 21.5t15.5 57.5q0 35 -13.5 56.5t-49.5 21.5zM420 399q51 0 83 -33.5t32 -99.5q0 -59 -26.5 -96
t-88.5 -37t-88.5 37t-26.5 96q0 66 32 99.5t83 33.5zM206 164q1 -3 4.5 -2.5t3.5 4.5v514q0 8 6 14t14 6h20q8 0 14 -6t6 -14v-660q0 -8 -6 -14t-14 -6h-52q-8 0 -13.5 3t-7.5 14l-89 524q-1 3 -4.5 2.5t-3.5 -4.5v-519q0 -8 -6 -14t-14 -6h-20q-8 0 -14 6t-6 14v660
q0 8 6 14t14 6h52q8 0 13.5 -3t7.5 -14z" />
    <glyph glyph-name="trademark" unicode="&#x2122;" 
d="M20 648q-10 0 -10 10v32q0 10 10 10h230q10 0 10 -10v-32q0 -10 -10 -10h-84q-5 0 -5 -5v-283q0 -10 -10 -10h-32q-10 0 -10 10v283q0 5 -5 5h-84zM407 541q2 -5 5 0l41 150q3 9 11 9h60q10 0 10 -10v-330q0 -10 -10 -10h-30q-10 0 -10 10v256q0 2 -2 2.5t-3 -1.5
l-39 -134q-3 -8 -10 -8h-40q-8 0 -11 8l-38 134q-1 2 -3 1.5t-2 -2.5v-256q0 -10 -10 -10h-30q-10 0 -10 10v330q0 10 10 10h60q7 0 10 -9z" />
    <glyph glyph-name="uni2126" unicode="&#x2126;" 
d="M386 72q-8 -5 -6 -13.5t13 -8.5h87q8 0 14 -6t6 -14v-10q0 -8 -6 -14t-14 -6h-156q-8 0 -14 6t-6 14v29q0 7 3.5 20.5t21.5 25.5q15 11 38.5 35.5t45.5 62t38 87.5t16 111q0 55 -13.5 102.5t-39 82.5t-61 55t-79.5 20q-45 0 -80.5 -21t-60.5 -56.5t-38 -82.5t-13 -100
q0 -60 15.5 -109.5t37.5 -87.5t45.5 -63t39.5 -36q18 -12 21.5 -25.5t3.5 -20.5v-29q0 -8 -6 -14t-14 -6h-156q-8 0 -14 6t-6 14v10q0 8 6 14t14 6h87q12 0 14 8t-6 13q-27 20 -52.5 54.5t-45 77.5t-31.5 91.5t-12 97.5q0 64 18.5 121t51.5 99t79 66.5t102 24.5
q55 0 101.5 -24.5t80 -66.5t52 -99t18.5 -121q0 -49 -12.5 -97.5t-32 -91t-45 -77t-50.5 -54.5z" />
    <glyph glyph-name="estimated" unicode="&#x212e;" 
d="M281 50q61 0 101.5 24.5t56.5 68.5q7 17 23 17h16q8 0 13 -4.5t4 -15.5q-3 -33 -20.5 -60.5t-46 -47.5t-66.5 -31t-81 -11q-54 0 -102 25.5t-81 75t-45.5 122t4.5 167.5q8 45 28.5 82t50 63t66.5 40.5t79 14.5q43 0 83.5 -13.5t71.5 -41.5t49.5 -72t18.5 -104v-63
q0 -8 -6 -14t-14 -6h-359q-10 0 -10 -10q3 -46 16 -84t34 -65t50 -42t66 -15zM116 331q0 -10 10 -10h308q10 0 10 10q0 51 -13 87.5t-35 60t-52.5 35t-64.5 11.5q-26 0 -50.5 -8t-45.5 -26t-37 -45.5t-24 -66.5q-5 -23 -6 -48z" />
    <glyph glyph-name="arrowleft" unicode="&#x2190;" 
d="M501 281q8 0 14 -6t6 -14v-17q0 -8 -6 -14t-14 -6h-380l150 -144q12 -11 12 -25v-30q0 -9 -8 -13.5t-16 3.5l-225 225q-12 12 1 27l217 217q9 9 20 3.5t11 -17.5v-27q0 -8 -4.5 -12.5l-10.5 -10.5l-147 -139h380z" />
    <glyph glyph-name="arrowup" unicode="&#x2191;" 
d="M244 460l-139 -147l-10.5 -10.5t-12.5 -4.5h-27q-12 0 -17.5 11t3.5 20l217 217q15 13 27 1l225 -225q8 -8 3.5 -16t-13.5 -8h-30q-14 0 -25 12l-144 150v-440q0 -8 -6 -14t-14 -6h-17q-8 0 -14 6t-6 14v440z" />
    <glyph glyph-name="arrowright" unicode="&#x2192;" 
d="M428 281l-147 139l-10.5 10.5t-4.5 12.5v27q0 12 11 17.5t20 -3.5l217 -217q13 -15 1 -27l-225 -225q-8 -8 -16 -3.5t-8 13.5v30q0 14 12 25l150 144h-380q-8 0 -14 6t-6 14v17q0 8 6 14t14 6h380z" />
    <glyph glyph-name="arrowdown" unicode="&#x2193;" 
d="M244 511q0 8 6 14t14 6h17q8 0 14 -6t6 -14v-440l144 150q11 12 25 12h30q9 0 13.5 -8t-3.5 -16l-225 -225q-12 -12 -27 1l-217 217q-9 9 -3.5 20t17.5 11h27q8 0 12.5 -4.5l10.5 -10.5l139 -147v440z" />
    <glyph glyph-name="uni2196" unicode="&#x2196;" 
d="M472 94q5 -5 5 -14t-5 -14l-12 -12q-5 -5 -14 -5t-14 5l-311 311l4 -208q1 -17 -9 -26l-21 -22q-7 -6 -15.5 -3.5t-8.5 13.5v318q0 18 20 19h306q13 0 17 -12t-5 -20l-19 -19q-5 -5 -11.5 -5.5t-15.5 -0.5l-202 6z" />
    <glyph glyph-name="uni2197" unicode="&#x2197;" 
d="M388 405l-202 -6q-9 0 -15.5 0.5t-11.5 5.5l-19 19q-9 8 -5 20t17 12h306q20 -1 20 -19v-318q0 -11 -8.5 -13.5t-15.5 3.5l-21 22q-10 9 -9 26l4 208l-311 -311q-5 -5 -14 -5t-14 5l-12 12q-5 5 -5 14t5 14z" />
    <glyph glyph-name="uni2198" unicode="&#x2198;" 
d="M77 409q-5 5 -5 14t5 14l12 12q5 5 14 5t14 -5l311 -311l-4 208q-1 17 9 26l21 22q7 6 15.5 3.5t8.5 -13.5v-318q0 -18 -20 -19h-306q-13 0 -17 12t5 20l19 19q5 5 11.5 5.5t15.5 0.5l202 -6z" />
    <glyph glyph-name="uni2199" unicode="&#x2199;" 
d="M161 98l202 6q9 0 15.5 -0.5t11.5 -5.5l19 -19q9 -8 5 -20t-17 -12h-306q-20 1 -20 19v318q0 11 8.5 13.5t15.5 -3.5l21 -22q10 -9 9 -26l-4 -208l311 311q5 5 14 5t14 -5l12 -12q5 -5 5 -14t-5 -14z" />
    <glyph glyph-name="partialdiff" unicode="&#x2202;" 
d="M266 49q37 0 63.5 13t43.5 32.5t25.5 42.5t10.5 43q1 15 1.5 25.5t0.5 19.5t-0.5 19.5t-1.5 25.5q-2 20 -10.5 43t-25.5 42.5t-43.5 32.5t-63.5 13q-38 0 -64.5 -13t-43.5 -32.5t-25.5 -42.5t-9.5 -43q-1 -15 -1.5 -25.5t-0.5 -19.5t0.5 -19.5t1.5 -25.5q1 -20 9.5 -43
t25.5 -42.5t43.5 -32.5t64.5 -13zM189 641q-8 0 -14 6t-6 14v19q0 8 6 14t14 6h36q52 0 93.5 -21.5t71.5 -59t48 -88.5t25 -111t8.5 -118.5t-5.5 -121.5q-4 -39 -19 -74t-40 -60.5t-60.5 -40.5t-80.5 -15t-81.5 15t-63 40.5t-42 60.5t-18.5 74q-1 15 -1.5 25.5t-0.5 19.5
t0.5 19.5t1.5 25.5q3 39 18.5 74t42 60.5t63 40.5t81.5 15q26 0 46 -5.5t35 -13t25.5 -16t16.5 -14.5q4 -5 7.5 -3t3.5 7q-2 46 -12.5 87.5t-31.5 72t-53.5 48.5t-77.5 18h-36z" />
    <glyph glyph-name="uni2206" unicode="&#x2206;" 
d="M47 0q-8 0 -14 6t-6 14v31q0 8 2.5 16.5t4.5 12.5l200 605q6 15 19 15h44q13 0 19 -15l200 -605q2 -4 4.5 -12.5t2.5 -16.5v-31q0 -8 -6 -14t-14 -6h-456zM445 57q6 0 7 4t-1 8l-169 553q-3 6 -6 6h-2q-3 0 -6 -6l-169 -553q-2 -4 -1 -8t7 -4h340z" />
    <glyph glyph-name="product" unicode="&#x220f;" 
d="M433 628q0 10 -10 10h-296q-10 0 -10 -10v-808q0 -8 -6 -14t-14 -6h-22q-8 0 -14 6t-6 14v860q0 8 6 14t14 6h400q8 0 14 -6t6 -14v-860q0 -8 -6 -14t-14 -6h-22q-8 0 -14 6t-6 14v808z" />
    <glyph glyph-name="summation" unicode="&#x2211;" 
d="M74 620q-2 4 -5.5 11.5t-3.5 18.5v30q0 8 6 14t14 6h373q8 0 14 -6t6 -14v-21q0 -8 -6 -14t-14 -6h-305q-7 0 -9 -4t0 -8l172 -347q5 -9 5.5 -18.5t-5.5 -21.5l-182 -367q-2 -4 0 -8t7 -4h319q8 0 14 -6t6 -14v-21q0 -8 -6 -14t-14 -6h-385q-8 0 -14 6t-6 14v30
q0 11 3.5 18.5t5.5 11.5l185 369q3 5 2.5 11t-2.5 10z" />
    <glyph glyph-name="minus" unicode="&#x2212;" 
d="M465 293q8 0 14 -6t6 -14v-24q0 -8 -6 -14t-14 -6h-380q-8 0 -14 6t-6 14v24q0 8 6 14t14 6h380z" />
    <glyph glyph-name="radical" unicode="&#x221a;" 
d="M618 860q8 0 14 -6t6 -14v-15q0 -8 -6 -14t-14 -6h-110l-237 -790q-5 -15 -19 -15h-56q-15 0 -19 15l-118 371q-2 8 2.5 16t16.5 8h20q15 0 19 -15l100 -323q1 -6 6 -6h2q4 0 6 6l230 773q4 15 19 15h138z" />
    <glyph glyph-name="infinity" unicode="&#x221e;" 
d="M267 336q4 -8 10.5 -7.5t9.5 7.5q6 15 16.5 31t25.5 29.5t34 22.5t42 9q61 0 95 -47t34 -122t-34 -122.5t-95 -47.5q-42 0 -70 27.5t-48 64.5q-5 8 -11 7.5t-9 -7.5q-19 -38 -47.5 -65t-70.5 -27q-61 0 -95 47.5t-34 122.5t34 122t95 47q22 0 41 -9t33.5 -22.5
t25.5 -29.5t18 -31zM472 259q0 48 -19.5 79.5t-47.5 31.5q-20 -1 -37 -18t-31 -38q-16 -25 -29 -55q13 -31 29 -56q14 -21 31 -38t37 -17q28 0 47.5 30.5t19.5 80.5zM82 259q0 -50 19.5 -80.5t47.5 -30.5q20 0 37 17t31 38q16 25 29 56q-13 30 -29 55q-14 21 -31 38t-37 18
q-28 0 -47.5 -31.5t-19.5 -79.5z" />
    </font>
</defs>
</svg>
