<svg xmlns="http://www.w3.org/2000/svg">
<defs>
<font id="GTPressuraMono" horiz-adv-x="550" >
  <font-face 
    font-family="GT Pressura Mono Regular"
    font-weight="400"
    font-stretch="normal"
    units-per-em="1000"
    panose-1="2 0 5 6 2 0 0 2 0 4"
    ascent="750"
    descent="-250"
    x-height="500"
    cap-height="700"
    bbox="-197.381 -249 631 1065"
    underline-thickness="50"
    underline-position="-150"
    unicode-range="U+0020-FB02"
  />
<missing-glyph 
d="M184 120q-14 0 -19 -9t-9.5 -19.5t-12.5 -19.5t-27 -9q-21 0 -36.5 13.5t-15.5 31.5t6.5 27t14.5 17t14.5 19t6.5 34q0 17 -8.5 27.5t-19.5 10.5q-12 0 -15.5 -3.5t-14.5 -3.5q-15 0 -22.5 16t-7.5 36q0 14 9.5 26.5t23.5 12.5q10 0 14.5 -5.5t12.5 -5.5q15 0 21 15t6 25
q0 12 -5 24.5t-5 24.5q0 20 11.5 28.5t28.5 8.5q9 0 9 8q0 5 -4 10.5t-4 13.5q0 5 5.5 9.5t10.5 4.5q8 0 13 -5.5t9 -12t8.5 -12t11.5 -5.5q12 0 15 8.5t5 19t7 19t22 8.5q16 0 23.5 -7.5t13.5 -16.5t13.5 -16.5t21.5 -7.5q21 0 28 11.5t7 36.5q0 28 15 40.5t38 12.5
q22 0 34.5 -13t12.5 -35q0 -16 -7.5 -26t-16.5 -16.5t-16.5 -12.5t-7.5 -14q0 -14 12 -22t27 -16.5t27 -21t12 -36.5q0 -14 -5 -22.5t-11 -15t-11 -14t-5 -20.5q0 -10 9.5 -18t34.5 -8q22 0 31 -13t9 -32q0 -22 -15 -37t-37 -15q-12 0 -19.5 8t-15 17t-16 17t-21.5 8
q-11 0 -18 -5.5t-7 -15.5q0 -8 3 -12.5t7 -8.5t7 -10t3 -18q0 -13 -8.5 -23t-26.5 -10q-9 0 -17.5 4.5t-18 10.5t-20.5 10.5t-24 4.5q-9 0 -17.5 -7t-8.5 -24q0 -12 -6.5 -19.5t-17.5 -7.5q-9 0 -12.5 7.5t-7.5 16.5t-11 16.5t-23 7.5zM298 340q0 -17 11.5 -28.5t28.5 -11.5
t30 11.5t13 28.5t-13 32t-30 15t-28.5 -15t-11.5 -32zM281 226q-14 0 -26 5.5t-22 14.5q-5 4 -7 1t2 -8q8 -12 20 -20.5t33 -8.5q20 0 29.5 11.5t14.5 22.5q2 5 -1 6.5t-5 -2.5q-12 -22 -38 -22zM214 335q0 9 4 15t10 6t10 -6t4 -15t-4 -15t-10 -6t-10 6t-4 15zM310 340
q0 9 4 15t10 6t10 -6t4 -15t-4 -15t-10 -6t-10 6t-4 15zM178 340q0 -21 9.5 -35.5t26.5 -14.5t28.5 14.5t11.5 35.5t-11.5 35.5t-28.5 14.5t-26.5 -14.5t-9.5 -35.5zM85 520q0 14 8.5 24t20.5 10q10 0 17 -10t7 -24t-7 -24t-17 -10q-12 0 -20.5 10t-8.5 24z" />
    <glyph glyph-name="IJ" unicode="IJ" 
d="M71 0q-8 0 -14 6t-6 14v48q0 8 6 14t14 6h70q10 0 10 10v505q0 10 -10 10h-60q-8 0 -14 6t-6 14v47q0 8 6 14t14 6h215q8 0 14 -6t6 -14v-47q0 -8 -6 -14t-14 -6h-40q-10 0 -10 -10v-505q0 -10 10 -10h40q24 0 44.5 7.5t36.5 23t25 38.5t9 53v470q0 8 6 14t14 6h55
q8 0 14 -6t6 -14v-480q0 -47 -16.5 -84t-45 -63t-67 -39.5t-81.5 -13.5h-225z" />
    <glyph glyph-name="ij" unicode="ij" 
d="M120 -210q-8 0 -14 6t-6 14v50q0 8 6 14t14 6h127q38 0 64 24.5t26 65.5v435q0 10 -10 10h-125v-395q0 -8 -6 -14t-14 -6h-52q-8 0 -14 6t-6 14v385q0 10 -10 10h-40q-8 0 -14 6t-6 14v45q0 8 6 14t14 6h350q8 0 14 -6t6 -14v-510q0 -36 -13.5 -69t-38 -57.5t-58 -39
t-73.5 -14.5h-127zM434 622q0 -16 -16 -16h-68q-16 0 -16 16v69q0 6 4.5 11t11.5 5h68q7 0 11.5 -5t4.5 -11v-69zM205 622q0 -16 -16 -16h-68q-16 0 -16 16v69q0 6 4.5 11t11.5 5h68q7 0 11.5 -5t4.5 -11v-69z" />
    <glyph glyph-name="napostrophe" unicode="&#x22;n" 
d="M183 477q11 0 19 5t19 11.5t27 11.5t42 5q39 0 74 -14t60.5 -39.5t40.5 -60.5t15 -76v-300q0 -8 -6 -14t-14 -6h-50q-8 0 -14 6t-6 14v300q0 44 -31.5 72t-78.5 28t-78.5 -25.5t-31.5 -69.5v-305q0 -8 -6 -14t-14 -6h-50q-8 0 -14 6t-6 14v460q0 8 6 14t14 6h44
q7 0 14 -7q5 -5 11 -10.5t14 -5.5zM21 599q-8 0 -14 6t-6 14v61q0 8 6 14t14 6h70q8 0 14 -6t6 -14v-61q0 -20 -5.5 -34.5t-14.5 -27.5l-32 -46q-3 -5 -9 -10t-17 -5h-9q-14 0 -19 11t1 22l31 57q3 5 -0.5 9t-8.5 4h-7z" />
    <glyph glyph-name="f_f" unicode="ff" 
d="M515 620q-20 0 -37.5 -8.5t-30 -22.5t-20 -32t-7.5 -37v-15q0 -10 10 -10h72q8 0 14 -6t6 -14v-50q0 -8 -6 -14t-14 -6h-72q-10 0 -10 -10v-375q0 -8 -6 -14t-14 -6h-50q-8 0 -14 6t-6 14v375q0 10 -8 10h-114q-7 0 -7 -10v-375q0 -8 -6 -14t-14 -6h-50q-8 0 -14 6t-6 14
v375q0 10 -10 10h-55q-8 0 -14 6t-6 14v50q0 8 6 14t14 6h55q10 0 10 10v15q0 39 14 73.5t39 59.5t59 39.5t73 14.5q8 0 14 -6t6 -14v-47q0 -8 -6 -14t-14 -6q-20 0 -37.5 -8.5t-30 -22.5t-20 -32t-7.5 -37v-25q0 -10 10 -10h109q10 0 10 10v25q0 39 14 73.5t39 59.5
t59 39.5t73 14.5q8 0 14 -6t6 -14v-47q0 -8 -6 -14t-14 -6z" />
    <glyph glyph-name="fi" unicode="fi" 
d="M212 400q-10 0 -10 -10v-370q0 -8 -6 -14t-14 -6h-50q-8 0 -14 6t-6 14v370q0 10 -10 10h-55q-8 0 -14 6t-6 14v50q0 8 6 14t14 6h55q10 0 10 10v20q0 39 14 73.5t39 59.5t59 39.5t73 14.5h165q7 0 11.5 -5t4.5 -11v-55q0 -16 -16 -16h-165q-20 0 -37.5 -8.5t-30 -22.5
t-20 -32t-7.5 -37v-20q0 -10 10 -10h243q8 0 14 -6t6 -14v-450q0 -8 -6 -14t-14 -6h-52q-8 0 -14 6t-6 14v370q0 10 -10 10h-161z" />
    <glyph glyph-name="fl" unicode="fl" 
d="M392 390q0 10 -10 10h-182q-10 0 -10 -10v-370q0 -8 -6 -14t-14 -6h-50q-8 0 -14 6t-6 14v370q0 10 -10 10h-45q-8 0 -14 6t-6 14v50q0 8 6 14t14 6h45q10 0 10 10v20q0 39 14 73.5t39 59.5t59 39.5t73 14.5h10q8 0 14 -6t6 -14v-47q0 -8 -6 -14t-14 -6h-10
q-20 0 -37.5 -8.5t-30 -22.5t-20 -32t-7.5 -37v-20q0 -10 10 -10h182q10 0 10 10v187q0 8 6 14t14 6h50q8 0 14 -6t6 -14v-667q0 -8 -6 -14t-14 -6h-50q-8 0 -14 6t-6 14v370z" />
    <glyph glyph-name=".notdef" 
d="M184 120q-14 0 -19 -9t-9.5 -19.5t-12.5 -19.5t-27 -9q-21 0 -36.5 13.5t-15.5 31.5t6.5 27t14.5 17t14.5 19t6.5 34q0 17 -8.5 27.5t-19.5 10.5q-12 0 -15.5 -3.5t-14.5 -3.5q-15 0 -22.5 16t-7.5 36q0 14 9.5 26.5t23.5 12.5q10 0 14.5 -5.5t12.5 -5.5q15 0 21 15t6 25
q0 12 -5 24.5t-5 24.5q0 20 11.5 28.5t28.5 8.5q9 0 9 8q0 5 -4 10.5t-4 13.5q0 5 5.5 9.5t10.5 4.5q8 0 13 -5.5t9 -12t8.5 -12t11.5 -5.5q12 0 15 8.5t5 19t7 19t22 8.5q16 0 23.5 -7.5t13.5 -16.5t13.5 -16.5t21.5 -7.5q21 0 28 11.5t7 36.5q0 28 15 40.5t38 12.5
q22 0 34.5 -13t12.5 -35q0 -16 -7.5 -26t-16.5 -16.5t-16.5 -12.5t-7.5 -14q0 -14 12 -22t27 -16.5t27 -21t12 -36.5q0 -14 -5 -22.5t-11 -15t-11 -14t-5 -20.5q0 -10 9.5 -18t34.5 -8q22 0 31 -13t9 -32q0 -22 -15 -37t-37 -15q-12 0 -19.5 8t-15 17t-16 17t-21.5 8
q-11 0 -18 -5.5t-7 -15.5q0 -8 3 -12.5t7 -8.5t7 -10t3 -18q0 -13 -8.5 -23t-26.5 -10q-9 0 -17.5 4.5t-18 10.5t-20.5 10.5t-24 4.5q-9 0 -17.5 -7t-8.5 -24q0 -12 -6.5 -19.5t-17.5 -7.5q-9 0 -12.5 7.5t-7.5 16.5t-11 16.5t-23 7.5zM298 340q0 -17 11.5 -28.5t28.5 -11.5
t30 11.5t13 28.5t-13 32t-30 15t-28.5 -15t-11.5 -32zM281 226q-14 0 -26 5.5t-22 14.5q-5 4 -7 1t2 -8q8 -12 20 -20.5t33 -8.5q20 0 29.5 11.5t14.5 22.5q2 5 -1 6.5t-5 -2.5q-12 -22 -38 -22zM214 335q0 9 4 15t10 6t10 -6t4 -15t-4 -15t-10 -6t-10 6t-4 15zM310 340
q0 9 4 15t10 6t10 -6t4 -15t-4 -15t-10 -6t-10 6t-4 15zM178 340q0 -21 9.5 -35.5t26.5 -14.5t28.5 14.5t11.5 35.5t-11.5 35.5t-28.5 14.5t-26.5 -14.5t-9.5 -35.5zM85 520q0 14 8.5 24t20.5 10q10 0 17 -10t7 -24t-7 -24t-17 -10q-12 0 -20.5 10t-8.5 24z" />
    <glyph glyph-name=".null" horiz-adv-x="0" 
 />
    <glyph glyph-name="nonmarkingreturn" horiz-adv-x="333" 
 />
    <glyph glyph-name="space" unicode=" " 
 />
    <glyph glyph-name="exclam" unicode="!" 
d="M322 210q0 -8 -6 -14t-14 -6h-56q-8 0 -14 6t-6 14v470q0 8 6 14t14 6h56q8 0 14 -6t6 -14v-470zM336 20q0 -8 -6 -14t-14 -6h-83q-8 0 -14 6t-6 14v83q0 8 6 14t14 6h83q8 0 14 -6t6 -14v-83z" />
    <glyph glyph-name="quotedbl" unicode="&#x22;" 
d="M206 460q-2 -8 -7 -14t-13 -6h-25q-8 0 -13 6t-7 14l-32 215q-2 12 5 18.5t15 6.5h90q8 0 15 -6.5t5 -18.5zM406 460q-2 -8 -7 -14t-13 -6h-25q-8 0 -13 6t-7 14l-32 215q-2 12 5 18.5t15 6.5h90q8 0 15 -6.5t5 -18.5z" />
    <glyph glyph-name="numbersign" unicode="#" 
d="M349 430q2 10 -8 10h-96q-10 0 -12 -10l-32 -180q-2 -10 8 -10h96q10 0 12 10zM151 430q2 10 -8 10h-50q-8 0 -13.5 6t-3.5 14l6 37q2 8 9 14t15 6h50q10 0 12 10l27 153q2 8 8.5 14t14.5 6h42q8 0 13.5 -6t3.5 -14l-27 -153q-2 -10 8 -10h96q10 0 12 10l27 153
q2 8 8.5 14t14.5 6h42q8 0 13.5 -6t3.5 -14l-27 -153q-2 -10 8 -10h50q8 0 13 -6t3 -14l-6 -37q-2 -8 -8.5 -14t-14.5 -6h-50q-10 0 -12 -10l-32 -180q-2 -10 8 -10h50q8 0 13 -6t3 -14l-6 -37q-2 -8 -8.5 -14t-14.5 -6h-50q-10 0 -12 -10l-24 -133q-2 -8 -8.5 -14t-14.5 -6
h-42q-8 0 -13.5 6t-3.5 14l24 133q2 10 -8 10h-91q-5 0 -10.5 -2.5t-6.5 -7.5l-24 -133q-2 -8 -8.5 -14t-14.5 -6h-42q-8 0 -13.5 6t-3.5 14l24 133q2 10 -8 10h-50q-8 0 -13.5 6t-3.5 14l6 37q2 8 9 14t15 6h50q10 0 12 10z" />
    <glyph glyph-name="dollar" unicode="$" 
d="M222 704q10 3 10 10v36q0 8 6 14t14 6h45q8 0 14 -6t6 -14v-36q0 -7 10 -10q34 -8 62 -25.5t48 -42t31.5 -54t11.5 -62.5v-13q0 -8 -6 -14t-14 -6h-55q-8 0 -14 6t-6 14v13q0 25 -10 42.5t-26 29t-35.5 16.5t-38.5 5q-49 0 -80 -25t-30 -68q0 -33 14.5 -52.5t36.5 -31
t48.5 -17.5t50.5 -12q85 -19 135 -71.5t50 -135.5q0 -42 -14 -76t-37.5 -60.5t-55 -43.5t-66.5 -24q-10 -3 -10 -10v-36q0 -8 -6 -14t-14 -6h-45q-8 0 -14 6t-6 14v36q0 7 -10 10q-38 9 -69.5 28.5t-54.5 46t-35.5 59.5t-12.5 70v16q0 8 6 14t14 6h56q8 0 14 -6t6 -14v-16
q0 -24 9.5 -45t27 -36t41 -23.5t51.5 -8.5t51.5 8.5t41 24t27 36t9.5 44.5q0 35 -12 56t-34 34.5t-53 21.5t-69 17q-36 8 -66.5 23.5t-53 39t-35 55.5t-12.5 73q0 37 12 67.5t33 54t49 39t59 23.5z" />
    <glyph glyph-name="percent" unicode="%" 
d="M144 15q-8 -15 -21 -15h-27q-10 0 -15.5 8.5t-0.5 19.5l324 657q7 15 22 15h28q10 0 15.5 -8.5t0.5 -19.5zM34 595q3 23 12 43.5t24 35.5t34 24t42 9t42.5 -9t34.5 -24.5t24 -36t12 -42.5q4 -32 4 -69t-4 -69q-3 -23 -12 -43.5t-24 -35.5t-34.5 -24t-42.5 -9t-42.5 9
t-34 24.5t-23.5 36t-12 42.5q-4 32 -4 69t4 69zM146 633q-16 0 -25 -11t-11 -25q-4 -33 -4 -71t4 -71q2 -16 12 -26t24 -10q16 0 25.5 11t11.5 25q4 33 4 71t-4 71q-2 16 -12.5 26t-24.5 10zM290 244q3 23 12 43.5t24 35.5t34 24t42 9t42.5 -9t34.5 -24.5t24 -36t12 -42.5
q4 -32 4 -69t-4 -69q-3 -23 -12 -43.5t-24 -35.5t-34.5 -24t-42.5 -9t-42.5 9t-34 24.5t-23.5 36t-12 42.5q-4 32 -4 69t4 69zM402 282q-16 0 -25 -11t-11 -25q-4 -33 -4 -71t4 -71q2 -16 12 -26t24 -10q16 0 25.5 11t11.5 25q4 33 4 71t-4 71q-2 16 -12.5 26t-24.5 10z" />
    <glyph glyph-name="ampersand" unicode="&#x26;" 
d="M110 369q7 6 5.5 12.5t-5.5 11.5q-20 29 -33 58.5t-13 65.5q0 40 13 73.5t37 58t59 38t79 13.5q40 0 72.5 -13.5t55.5 -38t36 -58t13 -73.5v-15q0 -8 -6 -14t-14 -6h-51q-8 0 -14 6t-6 14v15q0 44 -22 71t-65 27q-51 0 -74 -27t-23 -71q0 -18 11 -40t26 -43t29.5 -39
t22.5 -27l133 -163q2 -3 5 -3t4 4q1 8 2 21q1 11 1.5 29t0.5 44q0 8 6 14t14 6h45q8 0 14 -6t6 -14q0 -41 -1.5 -68.5t-4 -45t-5.5 -27.5t-6 -17q-1 -2 -2 -7t4 -10l77 -88q8 -10 3.5 -23.5t-21.5 -13.5h-49q-11 0 -15 3.5t-7 6.5l-37 40q-5 6 -8.5 4t-5.5 -4
q-29 -27 -66.5 -42.5t-83.5 -15.5q-47 0 -87 17t-69 45.5t-45.5 67t-16.5 81.5q0 46 25 90t57 76zM246 82q26 0 48 8.5t39 22.5q2 2 3.5 4t-1.5 6l-155 188q-2 3 -4 2t-3 -2q-20 -20 -36 -48t-16 -60q0 -24 9 -46t25.5 -38.5t39.5 -26.5t51 -10z" />
    <glyph glyph-name="quotesingle" unicode="'" 
d="M310 460q-2 -8 -7 -14t-13 -6h-25q-8 0 -13 6t-7 14l-34 215q-2 12 5 18.5t15 6.5h90q8 0 15 -6.5t5 -18.5z" />
    <glyph glyph-name="parenleft" unicode="(" 
d="M455 -2q8 0 14 -6t6 -14v-48q0 -8 -6 -14t-14 -6h-48q-45 0 -83.5 14.5t-68 42t-48.5 66.5t-25 87q-3 20 -4.5 51.5t-2.5 68t-0.5 76t1 76t2 67.5t4.5 51q5 41 22 79t45.5 67t68 46.5t89.5 17.5h42q8 0 14 -6t6 -14v-48q0 -8 -6 -14t-14 -6h-42q-49 0 -87.5 -33.5
t-47.5 -88.5q-5 -31 -7.5 -84t-2.5 -111t2.5 -111t7.5 -84q3 -22 13.5 -43.5t28 -39t41 -28.5t52.5 -11h48z" />
    <glyph glyph-name="parenright" unicode=")" 
d="M142 -2q29 0 52.5 11t41 28.5t28 39t13.5 43.5q5 31 7.5 84t2.5 111t-2.5 111t-7.5 84q-9 55 -47.5 88.5t-87.5 33.5h-42q-8 0 -14 6t-6 14v48q0 8 6 14t14 6h42q49 0 89 -17.5t68.5 -46.5t45.5 -67t22 -79q2 -20 4 -51t2.5 -67.5t1 -76t-0.5 -76t-3 -68t-4 -51.5
q-6 -48 -25 -87t-48.5 -66.5t-68 -42t-83.5 -14.5h-48q-8 0 -14 6t-6 14v48q0 8 6 14t14 6h48z" />
    <glyph glyph-name="asterisk" unicode="*" 
d="M314 516l2 -46q0 -8 -6 -14t-14 -6h-42q-8 0 -14 6t-6 14l1 47l-39 -25q-7 -5 -15 -2.5t-12 10.5l-21 36q-5 7 -3 14.5t10 12.5l41 22l-41 22q-8 4 -10 12t3 15l21 37q4 7 11.5 9.5t15.5 -2.5l39 -25l-1 47q0 8 6 14t14 6h42q8 0 14 -6t6 -14l-2 -47l40 25q7 5 15 2.5
t12 -10.5l21 -36q5 -7 3 -14.5t-10 -12.5l-42 -22l42 -22q8 -4 10 -12t-3 -15l-21 -37q-4 -7 -11.5 -9.5t-15.5 2.5z" />
    <glyph glyph-name="plus" unicode="+" 
d="M219 296q10 0 10 10v144q0 8 6 14t14 6h52q8 0 14 -6t6 -14v-144q0 -10 10 -10h144q8 0 14 -6t6 -14v-52q0 -8 -6 -14t-14 -6h-144q-10 0 -10 -10v-144q0 -8 -6 -14t-14 -6h-52q-8 0 -14 6t-6 14v144q0 10 -10 10h-144q-8 0 -14 6t-6 14v52q0 8 6 14t14 6h144z" />
    <glyph glyph-name="comma" unicode="," 
d="M229 0q-8 0 -14 6t-6 14v90q0 8 6 14t14 6h90q8 0 14 -6t6 -14v-90q0 -20 -5.5 -34.5t-14.5 -27.5l-52 -73q-3 -5 -9 -10t-17 -5h-14q-14 0 -19 11t1 22l46 84q3 5 -0.5 9t-8.5 4h-17z" />
    <glyph glyph-name="hyphen" unicode="-" 
d="M411 321q8 0 14 -6t6 -14v-68q0 -8 -6 -14t-14 -6h-273q-8 0 -14 6t-6 14v68q0 8 6 14t14 6h273z" />
    <glyph glyph-name="period" unicode="." 
d="M339 20q0 -8 -6 -14t-14 -6h-90q-8 0 -14 6t-6 14v90q0 8 6 14t14 6h90q8 0 14 -6t6 -14v-90z" />
    <glyph glyph-name="slash" unicode="/" 
d="M187 3q-5 -15 -21 -15h-52q-10 0 -15.5 8.5t-0.5 19.5l266 679q5 15 19 15h52q10 0 15.5 -8.5t0.5 -19.5z" />
    <glyph glyph-name="zero" unicode="0" 
d="M60 500q5 41 20.5 78.5t42.5 66.5t64.5 46t87.5 17q91 0 147 -55.5t68 -152.5q4 -30 5.5 -69.5t1.5 -80.5t-2 -80.5t-5 -69.5q-5 -41 -20.5 -79t-42 -66.5t-65 -45.5t-87.5 -17q-91 0 -147 55.5t-68 152.5q-4 30 -6 69.5t-2 81t2 80.5t6 69zM275 618q-50 0 -84 -31
t-41 -87q-4 -32 -6 -71t-2 -79.5t2 -79.5t6 -70q3 -22 11.5 -43.5t24 -38t37.5 -26.5t52 -10q51 0 84 31.5t41 86.5q4 31 6.5 70t2.5 79.5t-2.5 79.5t-6.5 71q-3 22 -11.5 43.5t-23.5 38t-37.5 26.5t-52.5 10z" />
    <glyph glyph-name="one" unicode="1" 
d="M262 549q0 5 -3.5 5.5t-5.5 -1.5l-143 -159q-5 -5 -13 -4t-8 11v78q0 13 7.5 24t12.5 17l144 171q9 9 20 9h62q8 0 14 -6t6 -14v-581q0 -10 10 -10h120q8 0 14 -6t6 -14v-49q0 -8 -6 -14t-14 -6h-380q-8 0 -14 6t-6 14v49q0 8 6 14t14 6h147q10 0 10 10v450z" />
    <glyph glyph-name="two" unicode="2" 
d="M371 517q0 43 -27.5 72t-71.5 29q-20 0 -37.5 -8.5t-31 -22.5t-21.5 -32t-8 -38v-15q0 -8 -6 -14t-14 -6h-52q-8 0 -14 4.5t-6 15.5v15q0 40 14.5 75t40 60.5t60.5 40.5t75 15t74.5 -15t59.5 -40.5t39.5 -60.5t14.5 -75q0 -58 -19 -105t-57 -92l-188 -215q-4 -5 -2 -10.5
t10 -5.5h252q8 0 14 -4.5t6 -15.5v-49q0 -8 -4.5 -14t-15.5 -6h-362q-8 0 -14 6t-6 14v65q0 11 3 16.5t6 8.5l226 260q62 71 62 147z" />
    <glyph glyph-name="three" unicode="3" 
d="M390 198q0 21 -5.5 42.5t-18 39t-34.5 28.5t-55 11h-12q-8 0 -14 6t-6 14v53q0 8 6 14t14 6h12q25 0 43.5 9t30.5 24t18 34t6 38t-7.5 36.5t-20.5 30.5t-31.5 21t-40.5 8q-23 0 -41.5 -8t-31.5 -21t-20.5 -30.5t-7.5 -36.5v-15q0 -8 -6 -14t-14 -6h-54q-8 0 -14 6t-6 14
v15q0 40 15 75t41 60.5t62 40.5t77 15t76.5 -15t62 -40.5t41.5 -60.5t15 -75q0 -42 -15 -77t-43 -60q-14 -12 -1 -24q33 -29 53.5 -69.5t20.5 -88.5q0 -43 -16.5 -80.5t-45 -65.5t-67 -44t-81.5 -16q-44 0 -82.5 16t-67 44t-45 65.5t-16.5 80.5v7q0 8 6 14t14 6h55
q8 0 14 -6t6 -14v-7q0 -23 8.5 -43t23.5 -35t36.5 -24t47.5 -9q25 0 46.5 9t36.5 24t23.5 35t8.5 43z" />
    <glyph glyph-name="four" unicode="4" 
d="M482 215q8 0 14 -6t6 -14v-45q0 -8 -6 -14t-14 -6h-48q-10 0 -10 -10v-100q0 -8 -6 -14t-14 -6h-47q-8 0 -14 6t-6 14v100q0 10 -10 10h-261q-8 0 -14 6t-6 14v44q0 11 5 19.5t11 18.5l259 454q5 8 9 11t12 3h62q8 0 14 -6t6 -14v-455q0 -10 10 -10h48zM154 223
q-5 -8 4 -8h169q10 0 10 10v314q0 5 -3 5t-5 -3z" />
    <glyph glyph-name="five" unicode="5" 
d="M186 610q-10 0 -10 -10v-150q0 -8 5.5 -12t16.5 4q15 12 38 18t38 6q47 0 85 -19t65 -51.5t41.5 -75.5t14.5 -91t-14 -91t-41 -75.5t-65 -51.5t-86 -19q-40 0 -76.5 14t-65 38.5t-45.5 58t-17 72.5q0 10 6 15t14 5h51q8 0 14 -6t6 -14q0 -21 9.5 -38t25 -29t36 -19
t42.5 -7q56 0 86.5 42t30.5 105q0 64 -31 105.5t-86 41.5q-31 0 -54.5 -17t-35.5 -43q-5 -11 -19 -11h-54q-8 0 -14 6t-6 14v355q0 8 6 14t14 6h323q8 0 14 -6t6 -14v-50q0 -8 -6 -14t-14 -6h-248z" />
    <glyph glyph-name="six" unicode="6" 
d="M281 452q42 0 78.5 -16t63.5 -44t43.5 -65.5t19.5 -79.5q2 -24 0 -52q-2 -42 -18.5 -79t-44 -64.5t-64 -43.5t-78.5 -16q-44 0 -80 16t-63 44.5t-44.5 66t-22.5 81.5q-4 30 -5.5 69.5t-1.5 80.5t2 80.5t5 69.5q5 43 21 81t42.5 66t61.5 44.5t79 16.5q40 0 75 -15
t61 -40.5t41 -60.5t15 -75q0 -8 -6 -14t-14 -6h-52q-8 0 -14 6t-6 14q0 19 -6.5 37t-19 32.5t-31 23t-43.5 8.5q-51 0 -77 -28.5t-37 -83.5q-3 -15 -5 -40.5t-1 -45.5q0 -6 5 -9t11 2q15 11 43.5 25t66.5 14zM169 194q6 -46 34.5 -78t77.5 -32t77.5 32t34.5 78q3 29 0 54
q-6 46 -34.5 79t-77.5 33t-77.5 -29t-34.5 -83q-3 -25 0 -54z" />
    <glyph glyph-name="seven" unicode="7" 
d="M376 600q4 10 -7 10h-274q-8 0 -14 6t-6 14v50q0 8 6 14t14 6h360q8 0 14 -6t6 -14v-67q0 -9 -5 -20l-242 -578q-7 -15 -19 -15h-60q-14 0 -17.5 8.5t-0.5 15.5z" />
    <glyph glyph-name="eight" unicode="8" 
d="M275 84q55 0 90 32.5t35 81.5q0 24 -9.5 45.5t-26 37t-39.5 24.5t-50 9q-56 0 -90.5 -33.5t-34.5 -82.5t34.5 -81.5t90.5 -32.5zM275 414q51 0 81.5 29.5t30.5 73.5t-30.5 72.5t-81.5 28.5t-81.5 -28.5t-30.5 -72.5t30.5 -73.5t81.5 -29.5zM276 708q43 0 80 -15t64 -40.5
t42.5 -60.5t15.5 -75q0 -42 -15.5 -76.5t-42.5 -60.5q-5 -5 -6.5 -11.5t5.5 -12.5q33 -29 53.5 -69.5t20.5 -88.5q0 -43 -16.5 -80.5t-46 -65.5t-69.5 -44t-86 -16q-47 0 -87 16t-69 44t-45.5 65.5t-16.5 80.5q0 48 20 88.5t54 69.5q7 6 5.5 12.5t-6.5 11.5q-26 26 -41.5 61
t-15.5 76q0 40 15 75t42 60.5t64.5 40.5t81.5 15z" />
    <glyph glyph-name="nine" unicode="9" 
d="M381 506q-6 46 -34.5 78t-77.5 32t-77.5 -32t-34.5 -78q-3 -29 0 -54q6 -46 34.5 -79t77.5 -33t77.5 29t34.5 83q3 25 0 54zM273 82q51 0 80.5 32t40.5 86q7 34 7 83q0 7 -5.5 9t-12.5 -3q-15 -12 -45.5 -26.5t-68.5 -14.5q-42 0 -78.5 16t-63.5 44t-43.5 65.5
t-19.5 79.5q-2 24 0 52q2 42 18.5 79t44 64.5t64 43.5t78.5 16q43 0 79.5 -16t63.5 -44.5t44.5 -66.5t22.5 -81q4 -30 5.5 -69.5t1.5 -80.5t-2 -80.5t-5 -69.5q-5 -43 -21.5 -81t-43 -66t-62.5 -44.5t-79 -16.5q-40 0 -77 15t-65 40.5t-44.5 60.5t-16.5 75q0 8 6 14t14 6h52
q8 0 14 -6t6 -14q0 -19 9.5 -37t25 -32.5t35.5 -23t41 -8.5z" />
    <glyph glyph-name="colon" unicode=":" 
d="M340 20q0 -8 -6 -14t-14 -6h-90q-8 0 -14 6t-6 14v90q0 8 6 14t14 6h90q8 0 14 -6t6 -14v-90zM340 380q0 -8 -6 -14t-14 -6h-90q-8 0 -14 6t-6 14v90q0 8 6 14t14 6h90q8 0 14 -6t6 -14v-90z" />
    <glyph glyph-name="semicolon" unicode=";" 
d="M340 380q0 -8 -6 -14t-14 -6h-90q-8 0 -14 6t-6 14v90q0 8 6 14t14 6h90q8 0 14 -6t6 -14v-90zM229 0q-8 0 -14 6t-6 14v90q0 8 6 14t14 6h90q8 0 14 -6t6 -14v-90q0 -20 -5.5 -34.5t-14.5 -27.5l-52 -73q-3 -5 -9 -10t-17 -5h-14q-14 0 -19 11t1 22l46 84q3 5 -0.5 9
t-8.5 4h-17z" />
    <glyph glyph-name="less" unicode="&#x3c;" 
d="M440 100q15 -9 15 -21v-60q0 -12 -7.5 -17t-15.5 -2l-362 204q-15 8 -15 22v49q0 14 15 22l362 203q7 4 15 -1.5t8 -17.5v-60q0 -12 -15 -21l-267 -146q-3 -1 -3 -4t3 -4z" />
    <glyph glyph-name="equal" unicode="=" 
d="M75 296q-8 0 -14 6t-6 14v52q0 8 6 14t14 6h400q8 0 14 -6t6 -14v-52q0 -8 -6 -14t-14 -6h-400zM75 112q-8 0 -14 6t-6 14v52q0 8 6 14t14 6h400q8 0 14 -6t6 -14v-52q0 -8 -6 -14t-14 -6h-400z" />
    <glyph glyph-name="greater" unicode="&#x3e;" 
d="M377 246q8 4 0 8l-267 146q-15 9 -15 21v60q0 12 8 17.5t15 1.5l362 -203q15 -8 15 -22v-49q0 -14 -15 -22l-362 -204q-7 -4 -15 1.5t-8 17.5v60q0 12 15 21z" />
    <glyph glyph-name="question" unicode="?" 
d="M370 517q0 41 -25 71t-71 30q-21 0 -39 -9t-30.5 -23t-19.5 -32.5t-7 -36.5v-15q0 -8 -6 -14t-14 -6h-51q-8 0 -14 6t-6 14v15q0 40 14 75t39 61.5t59.5 41.5t74.5 15t74.5 -14t59.5 -39.5t39.5 -61t14.5 -78.5q0 -31 -11.5 -55.5t-28 -45.5t-36.5 -38.5t-36.5 -33.5
t-28 -31.5t-11.5 -32.5v-70q0 -8 -6 -14t-14 -6h-51q-8 0 -14 6t-6 14v28q0 33 1 65.5t17 51.5q19 22 42 38.5t43.5 33t34 37.5t13.5 53zM327 20q0 -8 -6 -14t-14 -6h-83q-8 0 -14 6t-6 14v83q0 8 6 14t14 6h83q8 0 14 -6t6 -14v-83z" />
    <glyph glyph-name="at" unicode="@" 
d="M282 25q57 0 108 23q10 5 17 0t7 -15v-28q0 -12 -7.5 -17.5t-16.5 -10.5q-16 -9 -46.5 -15.5t-59.5 -6.5q-56 0 -102 18.5t-79 51.5t-51 78.5t-18 99.5v107q0 59 21 107t56 82t80 52.5t93 18.5q117 0 177.5 -63.5t60.5 -176.5v-138q0 -19 -7.5 -36t-20 -29.5t-29.5 -19.5
t-36 -7q-8 0 -19 1t-22 9q-11 7 -19 7.5t-20 -7.5q-27 -15 -65 -15q-75 0 -105 45.5t-30 125.5q0 34 9 64.5t26.5 52.5t42.5 35t57 13q54 0 86.5 -34.5t32.5 -88.5v-120q0 -22 26 -22q10 0 16.5 6t6.5 16v142q0 47 -13 79.5t-35.5 52.5t-54 29t-67.5 9t-67.5 -13.5t-55 -38
t-37 -60t-13.5 -78.5v-103q0 -39 13 -72.5t36 -57.5t54.5 -38t69.5 -14zM334 308q0 23 -13.5 38t-36.5 15t-35.5 -9t-19.5 -23t-8.5 -30.5t-1.5 -32.5q0 -46 13.5 -73.5t51.5 -27.5q23 0 36.5 15t13.5 37v91z" />
    <glyph glyph-name="A" unicode="A" 
d="M129 15q-5 -15 -19 -15h-55q-12 0 -17 6.5t-3 13.5l186 665q3 15 19 15h70q16 0 19 -15l186 -665q2 -7 -3 -13.5t-17 -6.5h-55q-14 0 -19 15l-44 153q-3 14 -19 14h-166q-14 0 -19 -14zM205 286q-3 -11 8 -11h124q11 0 8 11l-65 279q-2 6 -4 6h-2q-3 0 -4 -6z" />
    <glyph glyph-name="B" unicode="B" 
d="M421 379q-14 -12 0 -22q31 -25 51 -67.5t20 -85.5q0 -42 -16 -79.5t-44.5 -65t-67 -43.5t-82.5 -16h-185q-8 0 -14 6t-6 14v660q0 8 6 14t14 6h185q40 0 76 -14t62.5 -38.5t42 -59t15.5 -74.5q0 -35 -14 -72.5t-43 -62.5zM182 605q-10 0 -10 -10v-173q0 -10 10 -10h100
q48 0 74.5 29.5t26.5 72.5q0 22 -8.5 39t-22.5 28.5t-32.5 17.5t-37.5 6h-100zM282 95q23 0 44 8.5t36.5 23.5t25 34.5t9.5 42.5q0 26 -9.5 47.5t-25 37.5t-36.5 24.5t-44 8.5h-100q-10 0 -10 -10v-207q0 -10 10 -10h100z" />
    <glyph glyph-name="C" unicode="C" 
d="M283 87q25 0 48.5 7.5t41.5 21.5t29 35.5t11 48.5q0 11 2.5 22.5t17.5 11.5h55q8 0 14 -6t6 -14q0 -44 -15 -84t-44 -71t-70.5 -49t-95.5 -18q-45 0 -83.5 14.5t-68 41.5t-48.5 65.5t-25 86.5q-4 30 -6 69.5t-2 81t2 80.5t6 69q5 41 22 78.5t45.5 66.5t68 46t89.5 17
q49 0 90 -15.5t71 -44t47 -69.5t17 -93q0 -8 -6 -14t-14 -6h-55q-8 0 -14 6t-6 14q0 25 -7.5 47.5t-23.5 40t-40.5 28.5t-58.5 11q-49 0 -86 -29t-44 -84q-4 -31 -6 -70t-2 -80t2 -80t6 -70q3 -22 12.5 -42.5t26 -36t39.5 -25t52 -9.5z" />
    <glyph glyph-name="D" unicode="D" 
d="M91 0q-8 0 -14 6t-6 14v660q0 8 6 14t14 6h190q43 0 79.5 -16.5t63.5 -45t44.5 -67t22.5 -81.5q4 -30 5.5 -66.5t1.5 -74t-2 -73.5t-5 -66q-5 -43 -22 -81.5t-44.5 -67t-64 -45t-79.5 -16.5h-190zM281 95q23 0 43 9.5t35 25.5t24.5 36.5t12.5 43.5q4 30 5.5 66t1.5 73.5
t-1.5 74t-5.5 66.5q-3 22 -12.5 43t-24.5 37t-35 25.5t-43 9.5h-105q-10 0 -10 -10v-490q0 -10 10 -10h105z" />
    <glyph glyph-name="E" unicode="E" 
d="M202 415q0 -10 10 -10h237q8 0 14 -6t6 -14v-55q0 -8 -6 -14t-14 -6h-237q-10 0 -10 -10v-195q0 -10 10 -10h250q8 0 14 -6t6 -14v-55q0 -8 -6 -14t-14 -6h-335q-8 0 -14 6t-6 14v660q0 8 6 14t14 6h333q8 0 14 -6t6 -14v-55q0 -8 -6 -14t-14 -6h-248q-10 0 -10 -10v-180
z" />
    <glyph glyph-name="F" unicode="F" 
d="M203 20q0 -8 -6 -14t-14 -6h-55q-8 0 -14 6t-6 14v660q0 8 6 14t14 6h333q8 0 14 -6t6 -14v-55q0 -8 -6 -14t-14 -6h-248q-10 0 -10 -10v-180q0 -10 10 -10h237q8 0 14 -6t6 -14v-55q0 -8 -6 -14t-14 -6h-237q-10 0 -10 -10v-280z" />
    <glyph glyph-name="G" unicode="G" 
d="M409 284q0 10 -10 10h-91q-8 0 -14 6t-6 14v55q0 8 6 14t14 6h176q8 0 14 -6t6 -14v-169q0 -44 -16.5 -81.5t-46.5 -66t-71.5 -44.5t-90.5 -16q-45 0 -83.5 14.5t-68 41.5t-48.5 65.5t-25 86.5q-4 30 -6 69.5t-2 81t2 80.5t6 69q5 41 22 78.5t45.5 66.5t68 46t89.5 17
q45 0 86 -14t71.5 -41t49 -65.5t18.5 -87.5v-14q0 -8 -6 -14t-14 -6h-55q-8 0 -14 6t-6 14v14q0 22 -9 42.5t-26 36t-41 25t-54 9.5q-49 0 -86 -29t-44 -84q-4 -31 -6 -70t-2 -80t2 -80t6 -70q3 -22 12.5 -42.5t26 -36t39.5 -25t52 -9.5q25 0 48.5 6.5t41.5 20.5t29 35.5
t11 50.5v84z" />
    <glyph glyph-name="H" unicode="H" 
d="M155 415q0 -10 10 -10h220q10 0 10 10v265q0 8 6 14t14 6h55q8 0 14 -6t6 -14v-660q0 -8 -6 -14t-14 -6h-55q-8 0 -14 6t-6 14v280q0 10 -10 10h-220q-10 0 -10 -10v-280q0 -8 -6 -14t-14 -6h-55q-8 0 -14 6t-6 14v660q0 8 6 14t14 6h55q8 0 14 -6t6 -14v-265z" />
    <glyph glyph-name="I" unicode="I" 
d="M227 603q0 10 -10 10h-110q-8 0 -14 6t-6 14v47q0 8 6 14t14 6h335q8 0 14 -6t6 -14v-47q0 -8 -6 -14t-14 -6h-110q-10 0 -10 -10v-505q0 -10 10 -10h120q8 0 14 -6t6 -14v-48q0 -8 -6 -14t-14 -6h-355q-8 0 -14 6t-6 14v48q0 8 6 14t14 6h120q10 0 10 10v505z" />
    <glyph glyph-name="J" unicode="J" 
d="M125 200q0 -29 11 -50.5t29.5 -35.5t42 -20.5t47.5 -6.5q57 0 93.5 35t36.5 99v459q0 8 6 14t14 6h55q8 0 14 -6t6 -14v-470q0 -50 -18 -90.5t-49 -69t-72 -43.5t-86 -15q-48 0 -89.5 14t-71.5 41t-47 65.5t-17 87.5v30q0 8 6 14t14 6h55q8 0 14 -6t6 -14v-30z" />
    <glyph glyph-name="K" unicode="K" 
d="M178 440q0 -4 3 -4t5 2l194 252q2 3 6.5 6.5t15.5 3.5h55q14 0 19.5 -12.5t-2.5 -23.5l-228 -291q-5 -6 -6 -11.5t5 -12.5l256 -312q8 -10 3.5 -23.5t-21.5 -13.5h-63q-11 0 -15 3.5t-7 6.5l-212 265q-2 2 -5 2t-3 -4v-253q0 -8 -6 -14t-14 -6h-55q-8 0 -14 6t-6 14v660
q0 8 6 14t14 6h55q8 0 14 -6t6 -14v-240z" />
    <glyph glyph-name="L" unicode="L" 
d="M215 105q0 -10 10 -10h244q8 0 14 -6t6 -14v-55q0 -8 -6 -14t-14 -6h-329q-8 0 -14 6t-6 14v660q0 8 6 14t14 6h55q8 0 14 -6t6 -14v-575z" />
    <glyph glyph-name="M" unicode="M" 
d="M270 395q1 -3 4.5 -3.5t5.5 3.5l79 288q6 17 21 17h99q8 0 14 -6t6 -14v-660q0 -8 -6 -14t-14 -6h-48q-8 0 -14 6t-6 14v522q0 5 -4 6t-6 -4l-79 -277q-5 -17 -21 -17h-52q-16 0 -21 17l-79 277q-2 5 -6 4t-4 -6v-522q0 -8 -6 -14t-14 -6h-48q-8 0 -14 6t-6 14v660
q0 8 6 14t14 6h99q15 0 21 -17z" />
    <glyph glyph-name="N" unicode="N" 
d="M485 20q0 -8 -6 -14t-14 -6h-83q-8 0 -12.5 3t-8.5 14l-197 495q-2 3 -5 2.5t-3 -4.5v-490q0 -8 -6 -14t-14 -6h-51q-8 0 -14 6t-6 14v660q0 8 6 14t14 6h83q8 0 12.5 -3t8.5 -14l197 -493q2 -3 5 -2.5t3 4.5v488q0 8 6 14t14 6h51q8 0 14 -6t6 -14v-660z" />
    <glyph glyph-name="O" unicode="O" 
d="M275 613q-49 0 -86 -29t-44 -84q-4 -31 -6 -70t-2 -80t2 -80t6 -70q3 -22 12.5 -42.5t26 -36t39.5 -25t52 -9.5q51 0 86.5 29.5t43.5 83.5q4 31 6.5 70t2.5 80t-2.5 80t-6.5 70q-3 22 -12.5 42.5t-26 36t-39 25t-52.5 9.5zM275 708q45 0 83.5 -14.5t68 -41.5t48.5 -65.5
t25 -86.5q4 -30 5.5 -69.5t1.5 -80.5t-2 -80.5t-5 -69.5q-5 -41 -22 -79t-45.5 -66.5t-68.5 -45.5t-89 -17q-45 0 -83.5 14.5t-68 41.5t-48.5 65.5t-25 86.5q-4 30 -6 69.5t-2 81t2 80.5t6 69q5 41 22 78.5t45.5 66.5t68 46t89.5 17z" />
    <glyph glyph-name="P" unicode="P" 
d="M195 20q0 -8 -6 -14t-14 -6h-55q-8 0 -14 6t-6 14v660q0 8 6 14t14 6h180q43 0 81.5 -16.5t67 -45t45 -67t16.5 -81.5q0 -44 -16.5 -82t-45 -66.5t-67 -45t-81.5 -16.5h-95q-10 0 -10 -10v-250zM205 605q-10 0 -10 -10v-210q0 -10 10 -10h95q23 0 44 9t36.5 24.5t25 36.5
t9.5 45t-9 44.5t-25 36.5t-36.5 25t-44.5 9h-95z" />
    <glyph glyph-name="Q" unicode="Q" 
d="M275 613q-49 0 -86 -29t-44 -84q-4 -31 -6 -70t-2 -80t2 -80t6 -70q3 -22 12.5 -42.5t26 -36t39.5 -25t52 -9.5q51 0 86.5 29.5t43.5 83.5q4 31 6.5 70t2.5 80t-2.5 80t-6.5 70q-3 22 -12.5 42.5t-26 36t-39 25t-52.5 9.5zM436 59q-3 -3 -4 -6t1 -8l53 -107
q5 -11 -0.5 -19.5t-15.5 -8.5h-61q-12 0 -20 15l-37 71q-4 6 -11.5 5t-12.5 -3q-24 -6 -53 -6q-45 0 -83.5 14.5t-68 41.5t-48.5 65.5t-25 86.5q-4 30 -6 69.5t-2 81t2 80.5t6 69q5 41 22 78.5t45.5 66.5t68 46t89.5 17q45 0 83.5 -14.5t68 -41.5t48.5 -65.5t25 -86.5
q4 -30 5.5 -69.5t1.5 -80.5t-2 -80.5t-5 -69.5q-9 -83 -64 -141z" />
    <glyph glyph-name="R" unicode="R" 
d="M195 605q-10 0 -10 -10v-210q0 -10 10 -10h95q23 0 44 9t36.5 24.5t25 36.5t9.5 45t-9 44.5t-25 36.5t-36.5 25t-44.5 9h-95zM195 280q-10 0 -10 -10v-250q0 -8 -6 -14t-14 -6h-55q-8 0 -14 6t-6 14v660q0 8 6 14t14 6h180q43 0 81.5 -16.5t67 -45t45 -67t16.5 -81.5
q0 -57 -29 -104.5t-75 -74.5q-14 -8 -19 -16t2 -22l118 -243q5 -11 0.5 -20.5t-19.5 -9.5h-56q-12 0 -18 5.5t-11 14.5l-118 248q-2 5 -6.5 8.5t-12.5 3.5h-61z" />
    <glyph glyph-name="S" unicode="S" 
d="M404 200q0 35 -12 56t-34 34.5t-53 21.5t-69 17q-36 8 -66.5 23.5t-53 39t-35 55.5t-12.5 73q0 45 17.5 80t46.5 59t66 36.5t76 12.5q44 0 81.5 -15t65 -40.5t43 -59.5t15.5 -73v-13q0 -8 -6 -14t-14 -6h-55q-8 0 -14 6t-6 14v13q0 25 -10 42.5t-26 29t-35.5 16.5
t-38.5 5q-49 0 -79.5 -25t-30.5 -68q0 -33 14.5 -52.5t36.5 -31t48.5 -17.5t50.5 -12q86 -21 135.5 -71t49.5 -136q0 -48 -19 -86.5t-50 -65.5t-72 -41.5t-84 -14.5q-48 0 -89.5 16.5t-71.5 45t-47 66t-17 80.5v16q0 8 6 14t14 6h56q8 0 14 -6t6 -14v-16q0 -24 9.5 -45
t27 -36t41 -23.5t51.5 -8.5t51.5 8.5t41 24t27 36t9.5 44.5z" />
    <glyph glyph-name="T" unicode="T" 
d="M85 605q-8 0 -14 6t-6 14v55q0 8 6 14t14 6h380q8 0 14 -6t6 -14v-55q0 -8 -6 -14t-14 -6h-132q-10 0 -10 -10v-575q0 -8 -6 -14t-14 -6h-55q-8 0 -14 6t-6 14v575q0 10 -10 10h-133z" />
    <glyph glyph-name="U" unicode="U" 
d="M145 200q0 -30 11 -51.5t29.5 -35t42 -20t47.5 -6.5q28 0 52 8.5t41.5 24t27 36t9.5 44.5v480q0 8 6 14t14 6h55q8 0 14 -6t6 -14v-480q0 -45 -18 -83t-49 -66t-72 -43.5t-86 -15.5q-48 0 -89.5 15.5t-71.5 43.5t-47 66t-17 83v480q0 8 6 14t14 6h55q8 0 14 -6t6 -14
v-480z" />
    <glyph glyph-name="V" unicode="V" 
d="M420 685q4 15 19 15h61q12 0 16.5 -7.5t2.5 -15.5l-187 -662q-5 -15 -19 -15h-78q-15 0 -19 15l-186 661q-2 8 2.5 16t16.5 8h60q15 0 19 -15l139 -533q1 -6 6 -6h2q4 0 6 6z" />
    <glyph glyph-name="W" unicode="W" 
d="M378 180q1 -5 6 -5t6 5l45 505q1 8 6.5 11.5t12.5 3.5h49q12 0 16.5 -6t3.5 -14l-72 -665q-1 -8 -6.5 -11.5t-12.5 -3.5h-91q-7 0 -12.5 3.5t-6.5 11.5l-42 302q-1 4 -3 4t-3 -4l-56 -302q-3 -15 -19 -15h-91q-7 0 -12.5 3.5t-6.5 11.5l-63 665q-1 8 3.5 14t16.5 6h49
q7 0 12.5 -3.5t6.5 -11.5l41 -505q1 -5 6 -5t6 5l61 305q3 15 19 15h58q16 0 19 -15z" />
    <glyph glyph-name="X" unicode="X" 
d="M146 15q-7 -15 -21 -15h-66q-10 0 -15.5 8.5t-0.5 19.5l171 334q5 8 1 14l-157 296q-5 11 0.5 19.5t15.5 8.5h64q12 0 19 -15l113 -217q4 -10 8 0l113 217q7 15 19 15h64q10 0 15.5 -8.5t0.5 -19.5l-157 -296q-4 -6 1 -14l172 -334q5 -11 -0.5 -19.5t-15.5 -8.5h-68
q-13 0 -20 15l-124 248q-4 10 -8 0z" />
    <glyph glyph-name="Y" unicode="Y" 
d="M391 685q5 15 19 15h66q10 0 15.5 -8.5t0.5 -19.5l-168 -431v-221q0 -8 -6 -14t-14 -6h-56q-8 0 -14 6t-6 14v220l-170 432q-5 11 0.5 19.5t15.5 8.5h66q14 0 19 -15l113 -311q4 -10 8 0z" />
    <glyph glyph-name="Z" unicode="Z" 
d="M175 103q-2 -4 -0.5 -7t6.5 -3h279q8 0 14 -6t6 -14v-53q0 -8 -6 -14t-14 -6h-372q-8 0 -14 6t-6 14v75q0 8 5 16l294 487q2 4 0.5 7t-6.5 3h-263q-8 0 -14 6t-6 14v52q0 8 6 14t14 6h352q8 0 14 -6t6 -14v-72q0 -8 -5 -16z" />
    <glyph glyph-name="bracketleft" unicode="[" 
d="M291 7q0 -10 10 -10h125q8 0 14 -6t6 -14v-47q0 -8 -6 -14t-14 -6h-202q-8 0 -14 6t-6 14v770q0 8 6 14t14 6h200q8 0 14 -6t6 -14v-47q0 -8 -6 -14t-14 -6h-123q-10 0 -10 -10v-616z" />
    <glyph glyph-name="backslash" unicode="\" 
d="M99 682q-5 11 0.5 19.5t15.5 8.5h52q14 0 19 -15l266 -679q5 -11 -0.5 -19.5t-15.5 -8.5h-52q-16 0 -21 15z" />
    <glyph glyph-name="bracketright" unicode="]" 
d="M259 623q0 10 -10 10h-123q-8 0 -14 6t-6 14v47q0 8 6 14t14 6h200q8 0 14 -6t6 -14v-770q0 -8 -6 -14t-14 -6h-202q-8 0 -14 6t-6 14v47q0 8 6 14t14 6h125q10 0 10 10v616z" />
    <glyph glyph-name="asciicircum" unicode="^" 
d="M217 601q-5 -5 -12.5 -10.5t-18.5 -5.5h-59q-10 0 -13 8t2 13l108 112q5 5 10.5 8.5t19.5 3.5h42q13 0 18.5 -3.5t10.5 -8.5l108 -112q5 -5 2 -13t-13 -8h-59q-11 0 -18.5 5.5t-12.5 10.5l-51 49q-7 7 -14 0z" />
    <glyph glyph-name="underscore" unicode="_" 
d="M520 0q8 0 14 -6t6 -14v-35q0 -8 -6 -14t-14 -6h-490q-8 0 -14 6t-6 14v35q0 8 6 14t14 6h490z" />
    <glyph glyph-name="grave" unicode="`" 
d="M269 730q11 0 16.5 -5.5t9.5 -10.5l76 -109q4 -5 0 -12.5t-14 -7.5h-40q-14 0 -19.5 3.5t-10.5 8.5l-108 112q-5 5 -2 13t13 8h79z" />
    <glyph glyph-name="a" unicode="a" 
d="M249 220q-38 0 -56.5 -18.5t-18.5 -50.5q0 -37 22.5 -57.5t66.5 -20.5q69 0 97.5 27t28.5 78v32q0 10 -10 10h-130zM288 424q-12 0 -28.5 -2t-30.5 -8.5t-24 -17.5t-10 -29q0 -13 -8 -15t-15 -2h-45q-20 0 -20 20q0 35 16.5 61t42.5 43.5t58 26.5t64 9q37 0 70 -9.5
t58 -29t40 -49.5t15 -72v-330q0 -8 -6 -14t-14 -6h-34q-8 0 -14 7q-5 6 -8.5 13.5t-11.5 7.5q-7 0 -15.5 -6t-22 -13t-32.5 -13t-47 -6q-46 0 -80.5 13t-57 35t-33.5 51t-11 61q0 31 11 58.5t32 48.5t52 33t70 12h122q10 0 10 10v33q0 41 -27.5 60t-65.5 19z" />
    <glyph glyph-name="b" unicode="b" 
d="M287 80q52 0 82 30t33 70q2 31 2 70t-2 70q-3 40 -33 70t-82 30t-82 -30t-33 -70q-2 -31 -2 -70t2 -70q3 -40 33 -70t82 -30zM297 -10q-28 0 -45 5t-28 11.5t-19.5 11.5t-19.5 5q-8 0 -14 -5.5t-11 -10.5q-7 -7 -14 -7h-34q-8 0 -14 6t-6 14v667q0 8 6 14t14 6h50
q8 0 14 -6t6 -14v-177q0 -14 5.5 -19.5t16.5 -5.5q7 0 16 4t20.5 8.5t25.5 8.5t31 4q39 0 72.5 -15t58.5 -40.5t40.5 -60.5t18.5 -74q2 -30 2 -70t-2 -70q-3 -39 -18.5 -74t-40.5 -60.5t-58.5 -40.5t-72.5 -15z" />
    <glyph glyph-name="c" unicode="c" 
d="M280 80q46 0 74 24t28 59q0 10 6 13.5t13 3.5h52q8 0 14 -6t6 -14q0 -36 -14.5 -67.5t-40 -54t-61 -35.5t-77.5 -13q-45 0 -81 15t-61.5 40.5t-40 60.5t-17.5 74q-2 30 -2 70t2 70q3 39 17.5 74t40 60.5t61.5 40.5t81 15q42 0 77.5 -13t61 -35.5t40 -54t14.5 -67.5
q0 -8 -4.5 -14t-12.5 -6h-54q-7 0 -13 4t-6 12q0 35 -28 59.5t-75 24.5q-52 0 -79.5 -30t-30.5 -70q-2 -31 -2 -70t2 -70q3 -40 30.5 -70t79.5 -30z" />
    <glyph glyph-name="d" unicode="d" 
d="M264 80q52 0 82 30t33 70q2 31 2 70t-2 70q-3 40 -33 70t-82 30t-82 -30t-33 -70q-2 -31 -2 -70t2 -70q3 -40 33 -70t82 -30zM254 -10q-39 0 -72.5 15t-58.5 40.5t-40.5 60.5t-18.5 74q-2 30 -2 70t2 70q3 39 18.5 74t40.5 60.5t58.5 40.5t72.5 15q17 0 31 -4t25 -8.5
t20 -8.5t17 -4q11 0 16.5 5.5t5.5 19.5v177q0 8 6 14t14 6h50q8 0 14 -6t6 -14v-667q0 -8 -6 -14t-14 -6h-34q-7 0 -14 7q-5 5 -11 10.5t-14 5.5q-11 0 -19.5 -5t-19.5 -11.5t-28 -11.5t-45 -5z" />
    <glyph glyph-name="e" unicode="e" 
d="M163 211q0 -69 32 -100t84 -31q39 0 66.5 17.5t36.5 45.5q3 10 9.5 13.5t13.5 3.5h51q8 0 13.5 -4.5t3.5 -15.5q-5 -33 -21 -60.5t-41.5 -47.5t-59 -31t-72.5 -11q-45 0 -81.5 15t-63 40.5t-42 60.5t-18.5 74q-2 30 -2 70t2 70q3 39 18.5 74t42 60.5t63 40.5t81.5 15
q91 0 145.5 -53t54.5 -147v-69q0 -8 -6 -14t-14 -6h-286q-10 0 -10 -10zM165 311q0 -10 10 -10h208q10 0 10 10q0 52 -33 80.5t-80 28.5q-52 0 -83.5 -31.5t-31.5 -77.5z" />
    <glyph glyph-name="f" unicode="f" 
d="M76 405q-8 0 -14 6t-6 14v50q0 8 6 14t14 6h125q10 0 10 10v15q0 39 14 73.5t39 59.5t59 39.5t73 14.5h60q8 0 14 -6t6 -14v-47q0 -8 -6 -14t-14 -6h-60q-20 0 -37.5 -8.5t-30 -22.5t-20 -32t-7.5 -37v-15q0 -10 10 -10h162q8 0 14 -6t6 -14v-50q0 -8 -6 -14t-14 -6h-162
q-10 0 -10 -10v-375q0 -8 -6 -14t-14 -6h-50q-8 0 -14 6t-6 14v375q0 10 -10 10h-125z" />
    <glyph glyph-name="g" unicode="g" 
d="M444 500q8 0 14 -6t6 -14v-510q0 -36 -13.5 -69t-38 -57.5t-58 -39t-73.5 -14.5q-33 0 -64 8.5t-55.5 26t-41 43t-21.5 59.5q-3 23 18 23h48q16 0 19.5 -6t6.5 -14q10 -25 31 -37.5t59 -12.5t65.5 24.5t27.5 65.5v22q0 14 -5.5 19t-16.5 4q-8 0 -17 -4t-20 -8.5t-25 -8.5
t-31 -4q-39 0 -72.5 15t-58.5 40.5t-40.5 60.5t-18.5 74q-2 30 -2 70t2 70q3 39 18.5 74t40.5 60.5t58.5 40.5t72.5 15q28 0 45 -5t28 -11.5t19.5 -11.5t19.5 -5q8 0 14 5.5t11 10.5q7 7 14 7h34zM269 420q-52 0 -82 -30t-33 -70q-2 -31 -2 -70t2 -70q3 -40 33 -70t82 -30
t82 30t33 70q2 31 2 70t-2 70q-3 40 -33 70t-82 30z" />
    <glyph glyph-name="h" unicode="h" 
d="M108 0q-8 0 -14 6t-6 14v667q0 8 6 14t14 6h50q8 0 14 -6t6 -14v-181q0 -7 5.5 -14t16.5 -7q7 0 16 4t20 8.5t25 8.5t31 4q39 0 74 -15t60.5 -40.5t40.5 -60.5t15 -74v-300q0 -8 -6 -14t-14 -6h-50q-8 0 -14 6t-6 14v300q0 19 -8 37.5t-22.5 32t-34 22t-42.5 8.5
t-43 -7.5t-34 -20.5t-22 -30.5t-8 -36.5v-305q0 -8 -6 -14t-14 -6h-50z" />
    <glyph glyph-name="i" unicode="i" 
d="M346 622q0 -16 -16 -16h-68q-16 0 -16 16v69q0 6 4.5 11t11.5 5h68q7 0 11.5 -5t4.5 -11v-69zM120 415q-8 0 -14 6t-6 14v45q0 8 6 14t14 6h203q8 0 14 -6t6 -14v-385q0 -10 10 -10h127q8 0 14 -6t6 -14v-45q0 -8 -6 -14t-14 -6h-370q-8 0 -14 6t-6 14v45q0 8 6 14t14 6
h131q10 0 10 10v310q0 10 -10 10h-121z" />
    <glyph glyph-name="j" unicode="j" 
d="M417 622q0 -16 -16 -16h-68q-16 0 -16 16v69q0 6 4.5 11t11.5 5h68q7 0 11.5 -5t4.5 -11v-69zM413 -47q0 -33 -12.5 -62.5t-34.5 -52t-51 -35.5t-62 -13t-62 12.5t-51 34.5t-34.5 51t-12.5 62q0 8 6 14t14 6h50q8 0 14 -6t6 -14q0 -27 17.5 -48.5t52.5 -21.5t51 23t16 50
v452q0 10 -10 10h-145q-8 0 -14 6t-6 14v45q0 8 6 14t14 6h228q8 0 14 -6t6 -14v-527z" />
    <glyph glyph-name="k" unicode="k" 
d="M218 181q-2 2 -5 1t-3 -5v-157q0 -8 -6 -14t-14 -6h-50q-8 0 -14 6t-6 14v667q0 8 6 14t14 6h50q8 0 14 -6t6 -14v-346q0 -10 8 -4l163 150q4 4 10.5 8.5t17.5 4.5h54q16 0 20 -12.5t-4 -20.5l-205 -193q-13 -13 0 -24l226 -217q10 -9 4 -21t-20 -12h-63q-11 0 -18.5 5.5
t-11.5 9.5z" />
    <glyph glyph-name="l" unicode="l" 
d="M131 624q-8 0 -14 6t-6 14v43q0 8 6 14t14 6h185q8 0 14 -6t6 -14v-592q0 -10 10 -10h113q8 0 14 -6t6 -14v-45q0 -8 -6 -14t-14 -6h-348q-8 0 -14 6t-6 14v45q0 8 6 14t14 6h125q10 0 10 10v519q0 10 -10 10h-105z" />
    <glyph glyph-name="m" unicode="m" 
d="M290 474q9 11 29.5 23.5t58.5 12.5q39 0 63.5 -14t38 -35.5t18.5 -46.5t5 -47v-347q0 -8 -6 -14t-14 -6h-50q-8 0 -14 6t-6 14v347q0 20 -13 34t-33 14t-33.5 -14t-13.5 -34v-347q0 -8 -6 -14t-14 -6h-50q-8 0 -14 6t-6 14v347q0 20 -13 34t-33 14t-33.5 -14t-13.5 -34
v-347q0 -8 -6 -14t-14 -6h-50q-8 0 -14 6t-6 14v460q0 8 6 14t14 6h34q7 0 14 -7q3 -4 5.5 -6t7.5 -2q4 0 9 4t12.5 8.5t19 8.5t29.5 4q27 0 44 -11t27 -25q4 -6 10 -6t11 6z" />
    <glyph glyph-name="n" unicode="n" 
d="M183 477q11 0 19 5t19 11.5t27 11.5t42 5q39 0 74 -14t60.5 -39.5t40.5 -60.5t15 -76v-300q0 -8 -6 -14t-14 -6h-50q-8 0 -14 6t-6 14v300q0 44 -31.5 72t-78.5 28t-78.5 -25.5t-31.5 -69.5v-305q0 -8 -6 -14t-14 -6h-50q-8 0 -14 6t-6 14v460q0 8 6 14t14 6h44
q7 0 14 -7q5 -5 11 -10.5t14 -5.5z" />
    <glyph glyph-name="o" unicode="o" 
d="M275 510q45 0 81.5 -15t63 -40.5t42 -60.5t18.5 -74q2 -30 2 -70t-2 -70q-3 -39 -18.5 -74t-42 -60.5t-63 -40.5t-81.5 -15t-81.5 15t-63 40.5t-42 60.5t-18.5 74q-2 30 -2 70t2 70q3 39 18.5 74t42 60.5t63 40.5t81.5 15zM275 80q52 0 82 30t33 70q2 31 2 70t-2 70
q-3 40 -33 70t-82 30t-82 -30t-33 -70q-2 -31 -2 -70t2 -70q3 -40 33 -70t82 -30z" />
    <glyph glyph-name="p" unicode="p" 
d="M281 420q-52 0 -82 -30t-33 -70q-2 -31 -2 -70t2 -70q3 -40 33 -70t82 -30t82 30t33 70q2 31 2 70t-2 70q-3 40 -33 70t-82 30zM291 510q39 0 72.5 -15t58.5 -40.5t40.5 -60.5t18.5 -74q2 -30 2 -70t-2 -70q-3 -39 -18.5 -74t-40.5 -60.5t-58.5 -40.5t-72.5 -15
q-17 0 -31 4t-25.5 8.5t-20.5 8.5t-16 4q-11 0 -16.5 -5.5t-5.5 -19.5v-170q0 -8 -6 -14t-14 -6h-50q-8 0 -14 6t-6 14v660q0 8 6 14t14 6h34q7 0 14 -7q5 -5 11 -10.5t14 -5.5q11 0 19.5 5t19.5 11.5t28 11.5t45 5z" />
    <glyph glyph-name="q" unicode="q" 
d="M269 420q-52 0 -82 -30t-33 -70q-2 -31 -2 -70t2 -70q3 -40 33 -70t82 -30t82 30t33 70q2 31 2 70t-2 70q-3 40 -33 70t-82 30zM259 510q28 0 45 -5t28 -11.5t19.5 -11.5t19.5 -5q8 0 14 5.5t11 10.5q7 7 14 7h34q8 0 14 -6t6 -14v-660q0 -8 -6 -14t-14 -6h-50
q-8 0 -14 6t-6 14v170q0 14 -5.5 19.5t-16.5 5.5q-8 0 -17 -4t-20 -8.5t-25 -8.5t-31 -4q-39 0 -72.5 15t-58.5 40.5t-40.5 60.5t-18.5 74q-2 30 -2 70t2 70q3 39 18.5 74t40.5 60.5t58.5 40.5t72.5 15z" />
    <glyph glyph-name="r" unicode="r" 
d="M413 340q0 36 -28 58t-70 22q-23 0 -45 -6.5t-38.5 -19t-26.5 -30t-10 -39.5v-305q0 -8 -6 -14t-14 -6h-50q-8 0 -14 6t-6 14v460q0 8 6 14t14 6h44q7 0 14 -7q5 -5 11 -10.5t14 -5.5q11 0 20 5t21.5 11.5t30 11.5t45.5 5q37 0 69.5 -13t57 -35.5t38.5 -54t14 -67.5
q0 -8 -6 -14t-14 -6h-51q-8 0 -14 6t-6 14z" />
    <glyph glyph-name="s" unicode="s" 
d="M77 163q0 8 6 14t14 6h50q8 0 14 -6t6 -14q0 -27 10.5 -44t26.5 -26.5t35 -13t36 -3.5q20 0 39.5 3t34.5 11.5t24 22.5t9 37q0 16 -8.5 27.5t-23 19t-34 12.5t-41.5 10q-31 6 -63 14.5t-58.5 24t-43 41t-16.5 66.5q0 34 15.5 60.5t41 45.5t58 29t66.5 10t66 -10t57 -29.5
t40 -47t15 -63.5q0 -8 -6 -14t-14 -6h-50q-8 0 -14 6t-6 14q0 26 -20.5 45.5t-67.5 19.5t-67.5 -19t-20.5 -41q0 -27 25.5 -38t62.5 -18q31 -6 66 -13.5t64 -24t48 -45.5t19 -76q0 -40 -16 -70t-43.5 -50t-63 -30t-74.5 -10q-38 0 -73.5 9.5t-63 30.5t-44.5 54t-17 79z" />
    <glyph glyph-name="t" unicode="t" 
d="M270 150q0 -27 19.5 -48.5t50.5 -21.5t50.5 21.5t19.5 48.5q0 8 6 14t14 6h50q8 0 14 -6t6 -14q0 -33 -12.5 -62t-34.5 -51t-51 -34.5t-62 -12.5t-62 12.5t-51 34.5t-34.5 51t-12.5 62v245q0 10 -10 10h-100q-8 0 -14 6t-6 14v50q0 8 6 14t14 6h100q10 0 10 10v155
q0 8 6 14t14 6h50q8 0 14 -6t6 -14v-155q0 -10 10 -10h160q8 0 14 -6t6 -14v-50q0 -8 -6 -14t-14 -6h-160q-10 0 -10 -10v-245z" />
    <glyph glyph-name="u" unicode="u" 
d="M372 23q-11 0 -18.5 -5t-18 -11.5t-26.5 -11.5t-44 -5q-42 0 -77 14t-60 39.5t-39 60.5t-14 76v300q0 8 6 14t14 6h50q8 0 14 -6t6 -14v-300q0 -44 29 -72t81 -28q47 0 78.5 25.5t31.5 69.5v305q0 8 6 14t14 6h50q8 0 14 -6t6 -14v-460q0 -8 -6 -14t-14 -6h-44
q-7 0 -14 7q-5 5 -11 10.5t-14 5.5z" />
    <glyph glyph-name="v" unicode="v" 
d="M398 485q5 15 19 15h62q12 0 17 -7.5t2 -15.5l-176 -462q-6 -15 -19 -15h-55q-13 0 -19 15l-177 462q-3 8 2 15.5t17 7.5h62q14 0 19 -15l116 -333q2 -5 7 -5t7 5z" />
    <glyph glyph-name="w" unicode="w" 
d="M293 390q15 0 19 -15l50 -188q2 -6 7 -6t7 6l45 298q3 15 19 15h49q12 0 16.5 -7.5t2.5 -15.5l-85 -462q-3 -15 -19 -15h-55q-15 0 -19 15l-49 195q-2 5 -6 5t-6 -5l-49 -195q-5 -15 -19 -15h-55q-16 0 -19 15l-85 462q-2 8 2.5 15.5t16.5 7.5h49q16 0 19 -15l45 -298
q1 -6 6.5 -6t7.5 6l50 188q4 15 19 15h36z" />
    <glyph glyph-name="x" unicode="x" 
d="M170 10q-2 -4 -6.5 -7t-15.5 -3h-58q-14 0 -19 10.5t3 22.5l141 224q4 7 1 13l-125 197q-8 12 -3 22.5t19 10.5h56q11 0 15.5 -3t6.5 -7l86 -145q4 -8 8 0l86 145q2 4 6.5 7t15.5 3h56q14 0 19 -10.5t-3 -22.5l-125 -197q-3 -6 1 -13l141 -224q8 -12 3 -22.5t-19 -10.5
h-58q-11 0 -15.5 3t-6.5 7l-101 170q-4 8 -8 0z" />
    <glyph glyph-name="y" unicode="y" 
d="M399 485q5 15 19 15h59q12 0 17 -7.5t2 -15.5l-254 -662q-5 -15 -19 -15h-54q-12 0 -17 7.5t-2 15.5l74 204q3 8 1 13l-172 437q-3 8 2 15.5t17 7.5h61q14 0 19 -15l123 -325q4 -10 8 0z" />
    <glyph glyph-name="z" unicode="z" 
d="M351 404q3 4 1.5 7t-6.5 3h-241q-8 0 -14 6t-6 14v46q0 8 6 14t14 6h340q8 0 14 -6t6 -14v-57q0 -14 -6.5 -23.5t-13.5 -17.5l-252 -286q-3 -4 -1.5 -7t6.5 -3h257q8 0 14 -6t6 -14v-46q0 -8 -6 -14t-14 -6h-360q-8 0 -14 6t-6 14v59q0 10 2 15t11 16z" />
    <glyph glyph-name="braceleft" unicode="{" 
d="M161 255q0 8 -5.5 12.5t-12.5 7.5l-11 5q-8 3 -14 7.5t-6 12.5v40q0 8 6 12.5t14 7.5l11 5q7 3 12.5 7.5t5.5 12.5v125q0 41 13.5 79t39.5 67t64 46.5t88 17.5h42q8 0 14 -6t6 -14v-48q0 -8 -6 -14t-14 -6h-42q-49 0 -82 -33t-33 -89v-125q0 -13 -4.5 -23.5t-11 -19
t-13.5 -14t-12 -8.5q5 -3 12 -9t13.5 -14t11 -18.5t4.5 -23.5v-135q0 -56 33 -89t82 -33h52q8 0 14 -6t6 -14v-48q0 -8 -6 -14t-14 -6h-52q-50 0 -88 17.5t-64 46.5t-39.5 67t-13.5 79v135z" />
    <glyph glyph-name="bar" unicode="|" 
d="M317 -50q0 -8 -6 -14t-14 -6h-45q-8 0 -14 6t-6 14v750q0 8 6 14t14 6h45q8 0 14 -6t6 -14v-750z" />
    <glyph glyph-name="braceright" unicode="}" 
d="M389 120q0 -41 -13.5 -79t-39.5 -67t-64.5 -46.5t-87.5 -17.5h-52q-8 0 -14 6t-6 14v48q0 8 6 14t14 6h52q49 0 82 33t33 89v135q0 13 4.5 23.5t11 18.5t13.5 14t12 9q-5 3 -12 8.5t-13.5 14t-11 19t-4.5 23.5v125q0 56 -33 89t-82 33h-42q-8 0 -14 6t-6 14v48q0 8 6 14
t14 6h42q49 0 87.5 -17.5t64.5 -46.5t39.5 -67t13.5 -79v-125q0 -8 5.5 -12.5t12.5 -7.5l11 -5q8 -3 14 -7.5t6 -12.5v-40q0 -8 -6 -12.5t-14 -7.5l-11 -5q-7 -3 -12.5 -7.5t-5.5 -12.5v-135z" />
    <glyph glyph-name="asciitilde" unicode="~" 
d="M161 235q-17 0 -35.5 -7.5t-26.5 -18.5q-8 -10 -18.5 -8t-10.5 17v50q0 27 26.5 44t64.5 17q39 0 64.5 -7t48 -15.5t48.5 -15.5t67 -7q17 0 35.5 7.5t26.5 18.5q8 10 18.5 8t10.5 -17v-50q0 -27 -26.5 -44t-64.5 -17q-39 0 -64.5 7t-48 15.5t-49 15.5t-66.5 7z" />
    <glyph glyph-name="exclamdown" unicode="&#xa1;" 
d="M321 -180q0 -8 -6 -14t-14 -6h-56q-8 0 -14 6t-6 14v470q0 8 6 14t14 6h56q8 0 14 -6t6 -14v-470zM335 397q0 -8 -6 -14t-14 -6h-83q-8 0 -14 6t-6 14v83q0 8 6 14t14 6h83q8 0 14 -6t6 -14v-83z" />
    <glyph glyph-name="cent" unicode="&#xa2;" 
d="M335 -4q-10 -3 -10 -10v-36q0 -8 -6 -14t-14 -6h-45q-8 0 -14 6t-6 14v35q0 7 -10 10q-68 15 -106.5 66t-43.5 119q-2 30 -2 70t2 70q5 67 43.5 118t105.5 66q11 3 11 10v36q0 8 6 14t14 6h45q8 0 14 -6t6 -14v-36q0 -7 10 -10q63 -15 100.5 -59.5t37.5 -104.5
q0 -8 -4.5 -14t-12.5 -6h-54q-7 0 -13 4t-6 12q0 35 -28 59.5t-75 24.5q-52 0 -79.5 -30t-30.5 -70q-2 -31 -2 -70t2 -70q3 -40 30.5 -70t79.5 -30q46 0 74 24t28 59q0 10 6 13.5t13 3.5h52q8 0 14 -6t6 -14q0 -60 -37.5 -104.5t-100.5 -59.5z" />
    <glyph glyph-name="sterling" unicode="&#xa3;" 
d="M487 530q0 -8 -6 -14t-14 -6h-54q-8 0 -14 6t-6 14v10q0 32 -22 53.5t-54 21.5t-53 -21.5t-21 -53.5v-127q0 -10 10 -10h136q8 0 14 -6t6 -14v-51q0 -8 -6 -14t-14 -6h-136q-5 0 -7.5 -3.5t-2.5 -8.5v-90q0 -14 -1 -29.5t-4 -30t-7.5 -27.5t-11.5 -20q-3 -3 -2 -5.5
t6 -2.5h254q8 0 14 -6t6 -14v-55q0 -8 -6 -14t-14 -6h-404q-9 0 -15 6t-6 14v55q0 8 6 14t14 6h5q30 0 50.5 30.5t20.5 84.5v90q0 5 -2.5 8.5t-7.5 3.5h-57q-8 0 -14 6t-6 14v51q0 8 6 14t14 6h57q10 0 10 10v127q0 35 13 66t36 54t54 36.5t66 13.5t66 -13.5t54 -36.5
t36.5 -54t13.5 -66v-10z" />
    <glyph glyph-name="currency" unicode="&#xa4;" 
d="M277 524q32 0 61.5 -9t55.5 -26l74 73q6 6 14 5.5t13 -6.5l37 -37q6 -5 6.5 -13t-5.5 -14l-74 -73q16 -26 25 -55t9 -61q0 -65 -36 -118l75 -74q6 -6 5.5 -14t-5.5 -14l-37 -37q-6 -5 -14 -5.5t-14 5.5l-75 74q-53 -33 -115 -33q-63 0 -116 33l-75 -75q-6 -6 -14 -5.5
t-13 6.5l-37 37q-6 5 -6.5 13t5.5 14l75 75q-17 26 -26 55.5t-9 62.5q0 32 8.5 61t24.5 54l-72 73q-6 6 -5.5 14t5.5 14l37 37q6 5 14 5.5t14 -5.5l72 -72q26 17 55.5 26t62.5 9zM151 308q0 -26 10 -49t27 -40t40 -27t49 -10t49 10t40 27t27 40t10 49t-10 49t-27 40t-40 27
t-49 10t-49 -10t-40 -27t-27 -40t-10 -49z" />
    <glyph glyph-name="yen" unicode="&#xa5;" 
d="M379 364q-7 0 -9 -5l-13 -37q-2 -5 0 -8.5t7 -3.5h91q8 0 14 -6t6 -14v-43q0 -8 -6 -14t-14 -6h-121q-10 0 -10 -10v-197q0 -8 -6 -14t-14 -6h-56q-8 0 -14 6t-6 14v197q0 10 -10 10h-123q-8 0 -14 6t-6 14v43q0 8 6 14t14 6h92q5 0 7 3.5t0 8.5l-13 37q-2 5 -9 5h-77
q-8 0 -14 6t-6 14v44q0 8 6 14t14 6h39q5 0 7 3.5t0 8.5l-83 212q-5 11 0.5 19.5t15.5 8.5h66q14 0 19 -15l113 -311q4 -10 8 0l111 311q5 15 19 15h66q10 0 15.5 -8.5t0.5 -19.5l-82 -212q-2 -5 0 -8.5t7 -3.5h38q8 0 14 -6t6 -14v-44q0 -8 -6 -14t-14 -6h-76z" />
    <glyph glyph-name="brokenbar" unicode="&#xa6;" 
d="M318 420q0 -8 -6 -14t-14 -6h-46q-8 0 -14 6t-6 14v267q0 8 6 14t14 6h46q8 0 14 -6t6 -14v-267zM318 20q0 -8 -6 -14t-14 -6h-46q-8 0 -14 6t-6 14v267q0 8 6 14t14 6h46q8 0 14 -6t6 -14v-267z" />
    <glyph glyph-name="section" unicode="&#xa7;" 
d="M336 116q10 -8 20 0q19 15 30 31.5t11 36.5q0 13 -6.5 28.5t-23.5 29.5l-151 130q-10 8 -20 0q-17 -15 -29 -33t-12 -38q0 -14 7 -29t24 -30zM135 427q13 9 2 23q-32 44 -32 93q0 39 15.5 69t41 50.5t57.5 31t65 10.5q36 0 68 -11.5t55.5 -33t37 -52.5t13.5 -69v-18
q0 -8 -6 -14t-14 -6h-54q-8 0 -14 6t-6 14v18q0 32 -21.5 53t-58.5 21q-35 0 -57 -16.5t-22 -48.5q0 -44 33 -71l189 -162q20 -17 32.5 -33t19 -31.5t9 -32.5t2.5 -36q0 -40 -20 -72.5t-49 -55.5q-12 -9 -1 -23q27 -34 27 -87q0 -38 -15.5 -67t-40.5 -49t-57.5 -30.5
t-65.5 -10.5q-36 0 -68.5 10t-56.5 30.5t-38.5 51.5t-14.5 73v29q0 8 6 14t14 6h54q8 0 14 -6t6 -14v-29q0 -38 23 -56t61 -18q35 0 56.5 15.5t21.5 50.5q0 22 -10.5 36.5t-26.5 28.5l-172 148q-25 22 -40 41t-23 36.5t-10.5 35t-2.5 36.5q0 38 21 68t53 54z" />
    <glyph glyph-name="dieresis" unicode="&#xa8;" 
d="M239 622q0 -16 -16 -16h-68q-16 0 -16 16v69q0 6 4.5 11t11.5 5h68q7 0 11.5 -5t4.5 -11v-69zM410 622q0 -16 -16 -16h-68q-16 0 -16 16v69q0 6 4.5 11t11.5 5h68q7 0 11.5 -5t4.5 -11v-69z" />
    <glyph glyph-name="copyright" unicode="&#xa9;" 
d="M18 350q0 53 20 100t55 81.5t82 54.5t100 20t100 -20t81.5 -54.5t54.5 -81.5t20 -100t-20 -100t-54.5 -82t-81.5 -55t-100 -20t-100 20t-82 55t-55 82t-20 100zM83 350q0 -40 15 -75t41 -61t61 -41t75 -15t74.5 15t60.5 41t41 61t15 75t-15 74.5t-41 60.5t-60.5 41
t-74.5 15t-75 -15t-61 -41t-41 -60.5t-15 -74.5zM373 305q0 -43 -25 -71.5t-73 -28.5q-35 0 -56.5 15t-32.5 39.5t-13.5 55.5t0.5 63q3 46 26 78.5t76 32.5q48 0 73 -28.5t25 -71.5q0 -11 -9 -11h-40q-4 0 -7.5 1.5t-3.5 6.5q0 21 -11 34t-27 13q-18 0 -27.5 -12t-14 -29.5
t-4.5 -38t2 -37.5q2 -23 13 -39t31 -16q15 0 26 12.5t11 33.5q0 5 3.5 7t8.5 2h37q5 0 8.5 -3t3.5 -8z" />
    <glyph glyph-name="ordfeminine" unicode="&#xaa;" 
d="M197 558q-17 0 -27 -7t-10 -21q0 -27 44 -27q20 0 36.5 10t16.5 31v9q0 5 -5 5h-55zM212 655q-43 0 -43 -19q0 -6 -4 -7t-7 -1h-37q-10 0 -10 10q0 17 8.5 30t22.5 22t32 13.5t38 4.5q18 0 36.5 -5.5t32.5 -16.5t23 -28t9 -40v-155q0 -10 -10 -10h-27q-4 0 -7 3
q-2 3 -4 7t-6 4q-7 0 -21 -9.5t-42 -9.5q-47 0 -71.5 24t-24.5 56q0 31 21.5 57t65.5 26h61q5 0 5 5v9q0 17 -11 23.5t-30 6.5z" />
    <glyph glyph-name="guillemotleft" unicode="&#xab;" 
d="M211 435q2 4 8 9.5t17 5.5h45q14 0 20 -9t-4 -24l-85 -145q-8 -11 0 -24l85 -145q10 -15 4 -24t-20 -9h-45q-11 0 -17 5.5t-8 9.5l-96 161q-5 8 -5 14t5 14zM389 435q2 4 8 9.5t17 5.5h45q14 0 20 -9t-4 -24l-85 -145q-8 -11 0 -24l85 -145q10 -15 4 -24t-20 -9h-45
q-11 0 -17 5.5t-8 9.5l-96 161q-5 8 -5 14t5 14z" />
    <glyph glyph-name="logicalnot" unicode="&#xac;" 
d="M390 200q0 10 -10 10h-310q-8 0 -14 6t-6 14v50q0 8 6 14t14 6h390q8 0 14 -6t6 -14v-170q0 -8 -6 -14t-14 -6h-50q-8 0 -14 6t-6 14v90z" />
    <glyph glyph-name="registered" unicode="&#xae;" 
d="M19 350q0 53 20 100t55 81.5t82 54.5t100 20t100 -20t81.5 -54.5t54.5 -81.5t20 -100t-20 -100t-54.5 -82t-81.5 -55t-100 -20t-100 20t-82 55t-55 82t-20 100zM84 350q0 -40 15 -75t41 -61t61 -41t75 -15t74.5 15t60.5 41t41 61t15 75t-15 74.5t-41 60.5t-60.5 41
t-74.5 15t-75 -15t-61 -41t-41 -60.5t-15 -74.5zM247 430q-2 0 -4 -1.5t-2 -4.5v-54q0 -2 2 -3t4 -1h50q16 0 24 9.5t8 22.5q0 12 -8 22t-24 10h-50zM342 324q-8 -5 -11 -6.5t1 -9.5l43 -76q4 -6 1.5 -11t-10.5 -5h-32q-7 0 -10 3t-6 8l-41 76q-4 7 -9 7h-21q-2 0 -4 -1.5
t-2 -3.5v-78q0 -11 -10 -11h-35q-3 0 -6 3t-3 8v247q0 5 3 8t6 3h101q18 0 33.5 -7t27.5 -19t18.5 -27.5t6.5 -33.5q0 -23 -11.5 -43t-29.5 -31z" />
    <glyph glyph-name="macron" unicode="&#xaf;" 
d="M154 616q-8 0 -14 6t-6 14v38q0 8 6 14t14 6h242q8 0 14 -6t6 -14v-38q0 -8 -6 -14t-14 -6h-242z" />
    <glyph glyph-name="degree" unicode="&#xb0;" 
d="M76 585q0 31 11.5 58t32 47t47.5 31.5t58 11.5t58 -11.5t47 -31.5t31.5 -47t11.5 -58t-11.5 -58t-31.5 -47.5t-47 -32t-58 -11.5t-58 11.5t-47.5 32t-32 47.5t-11.5 58zM157 585q0 -28 20 -48t48 -20t48 20t20 48t-20 48t-48 20t-48 -20t-20 -48z" />
    <glyph glyph-name="plusminus" unicode="&#xb1;" 
d="M219 464q10 0 10 10v144q0 8 6 14t14 6h52q8 0 14 -6t6 -14v-144q0 -10 10 -10h144q8 0 14 -6t6 -14v-52q0 -8 -6 -14t-14 -6h-144q-10 0 -10 -10v-144q0 -8 -6 -14t-14 -6h-52q-8 0 -14 6t-6 14v144q0 10 -10 10h-144q-8 0 -14 6t-6 14v52q0 8 6 14t14 6h144zM472 92
q8 0 14 -6t6 -14v-52q0 -8 -6 -14t-14 -6h-394q-8 0 -14 6t-6 14v52q0 8 6 14t14 6h394z" />
    <glyph glyph-name="twosuperior" unicode="&#xb2;" 
d="M312 596q0 14 -8.5 23.5t-24.5 9.5q-39 0 -39 -33v-9q0 -10 -10 -10h-53q-10 0 -10 10v8q0 22 8.5 42t23.5 34t35 22.5t43 8.5q22 0 42 -8.5t34.5 -22.5t23 -34t8.5 -42q0 -19 -8 -36.5t-21 -31.5l-94 -97q-2 -2 -2 -6.5t7 -4.5h107q10 0 10 -10v-53q0 -10 -10 -10h-200
q-10 0 -10 10v66q0 8 4 12l134 139q2 2 6 10t4 13z" />
    <glyph glyph-name="threesuperior" unicode="&#xb3;" 
d="M315 451q0 20 -12 28.5t-28 8.5h-6q-10 0 -10 10v52q0 10 10 10h6q15 0 25.5 9t10.5 26q0 16 -10 25t-26 9t-26 -9t-10 -25v-8q0 -10 -10 -10h-53q-10 0 -10 10v8q0 22 8.5 41.5t23.5 34t35 23t42 8.5t42 -8.5t35 -23t23.5 -34t8.5 -41.5q0 -19 -7.5 -36t-18.5 -29
q-5 -5 0 -8q14 -11 22 -31t8 -40q0 -23 -9 -43.5t-24.5 -35.5t-36 -23.5t-43.5 -8.5t-43.5 8.5t-36 23.5t-24.5 35.5t-9 43.5v6q0 10 10 10h53q10 0 10 -10v-6q0 -38 40 -38q18 0 29 9.5t11 28.5z" />
    <glyph glyph-name="acute" unicode="&#xb4;" 
d="M359 730q10 0 13 -8t-2 -13l-108 -112q-5 -5 -10.5 -8.5t-19.5 -3.5h-40q-10 0 -14 7.5t0 12.5l76 109q4 5 9.5 10.5t16.5 5.5h79z" />
    <glyph glyph-name="uni00B5" unicode="&#xb5;" 
d="M265 -10q-20 0 -40 8.5t-38 20.5q-7 5 -15.5 2t-8.5 -15v-186q0 -8 -6 -14t-14 -6h-48q-8 0 -14 6t-6 14v660q0 8 6 14t14 6h50q8 0 14 -6t6 -14v-300q0 -44 31 -72t79 -28q47 0 78.5 25.5t31.5 69.5v305q0 8 6 14t14 6h50q8 0 14 -6t6 -14v-460q0 -8 -6 -14t-14 -6h-44
q-6 0 -10 3.5t-8.5 8t-9 8t-11.5 3.5q-11 0 -18.5 -5t-18 -11.5t-26.5 -11.5t-44 -5z" />
    <glyph glyph-name="paragraph" unicode="&#xb6;" 
d="M210 360q-33 0 -62 14t-51 37t-34.5 54t-12.5 65q0 35 13.5 66t36.5 54t54 36.5t66 13.5h240q8 0 14 -6t6 -14v-760q0 -8 -6 -14t-14 -6h-40q-8 0 -14 6t-6 14v695q0 10 -10 10h-80q-10 0 -10 -10v-695q0 -8 -6 -14t-14 -6h-40q-8 0 -14 6t-6 14v430q0 10 -10 10z" />
    <glyph glyph-name="periodcentered" unicode="&#xb7;" 
d="M365 195q0 -8 -6 -14t-14 -6h-140q-8 0 -14 6t-6 14v140q0 8 6 14t14 6h140q8 0 14 -6t6 -14v-140z" />
    <glyph glyph-name="cedilla" unicode="&#xb8;" 
d="M310 -184q-4 -16 -19 -16h-63q-10 0 -14 5.5t-2 12.5l38 121q4 16 19 16h53q10 0 14 -5.5t2 -12.5z" />
    <glyph glyph-name="onesuperior" unicode="&#xb9;" 
d="M247 590q0 5 -4.5 6t-6.5 -1l-58 -52q-5 -5 -12 -1.5t-7 11.5v50q0 6 1 11t7 11l54 57q4 4 11 9t18 5h62q10 0 10 -10v-262q0 -5 5 -5h54q10 0 10 -10v-53q0 -10 -10 -10h-209q-10 0 -10 10v53q0 10 10 10h70q5 0 5 5v166z" />
    <glyph glyph-name="ordmasculine" unicode="&#xba;" 
d="M215 648q-21 0 -33 -9t-17.5 -23t-6 -31.5t1.5 -34.5q3 -19 18 -30.5t37 -11.5q19 0 31.5 8t18.5 21.5t7 30t-2 34.5q-4 21 -17.5 33.5t-37.5 12.5zM215 711q24 0 46.5 -10t39 -29.5t25 -49.5t4.5 -70q-3 -26 -14 -46t-27 -33.5t-35.5 -20.5t-38.5 -7q-24 0 -47 10.5
t-40 31t-25 49.5t-3 67q4 27 15 47.5t27 34t35 20t38 6.5z" />
    <glyph glyph-name="guillemotright" unicode="&#xbb;" 
d="M435 274q5 -8 5 -14t-5 -14l-96 -161q-2 -4 -8 -9.5t-17 -5.5h-45q-14 0 -20 9t4 24l85 145q8 13 0 24l-85 145q-10 15 -4 24t20 9h45q11 0 17 -5.5t8 -9.5zM257 274q5 -8 5 -14t-5 -14l-96 -161q-2 -4 -8 -9.5t-17 -5.5h-45q-14 0 -20 9t4 24l85 145q8 13 0 24l-85 145
q-10 15 -4 24t20 9h45q11 0 17 -5.5t8 -9.5z" />
    <glyph glyph-name="onequarter" unicode="&#xbc;" 
d="M134 15q-8 -15 -21 -15h-27q-10 0 -15.5 8.5t-0.5 19.5l324 657q7 15 22 15h28q10 0 15.5 -8.5t0.5 -19.5zM497 130q10 0 10 -10v-48q0 -10 -10 -10h-17q-5 0 -5 -5v-47q0 -10 -10 -10h-51q-10 0 -10 10v47q0 5 -5 5h-114q-10 0 -10 10v59q0 5 2.5 10t5.5 10l112 192
q3 7 10 7h60q10 0 10 -10v-205q0 -5 5 -5h17zM348 136q-4 -6 4 -6h47q5 0 5 5v93q0 3 -2 3.5t-4 -1.5zM121 594q0 5 -4.5 6t-6.5 -1l-58 -52q-5 -5 -12 -1.5t-7 11.5v50q0 6 1 11t7 11l54 57q4 4 11 9t18 5h62q10 0 10 -10v-330q0 -10 -10 -10h-55q-10 0 -10 10v234z" />
    <glyph glyph-name="onehalf" unicode="&#xbd;" 
d="M121 594q0 5 -4.5 6t-6.5 -1l-58 -52q-5 -5 -12 -1.5t-7 11.5v50q0 6 1 11t7 11l54 57q4 4 11 9t18 5h62q10 0 10 -10v-330q0 -10 -10 -10h-55q-10 0 -10 10v234zM461 250q0 14 -8.5 23.5t-24.5 9.5q-39 0 -39 -33v-9q0 -10 -10 -10h-53q-10 0 -10 10v8q0 22 8.5 42
t23.5 34t35 22.5t43 8.5q22 0 42 -8.5t34.5 -22.5t23 -34t8.5 -42q0 -19 -8 -36.5t-21 -31.5l-94 -97q-2 -2 -2 -6.5t7 -4.5h107q10 0 10 -10v-53q0 -10 -10 -10h-200q-10 0 -10 10v66q0 8 4 12l134 139q2 2 6 10t4 13zM134 15q-8 -15 -21 -15h-27q-10 0 -15.5 8.5
t-0.5 19.5l324 657q7 15 22 15h28q10 0 15.5 -8.5t0.5 -19.5z" />
    <glyph glyph-name="threequarters" unicode="&#xbe;" 
d="M154 15q-8 -15 -21 -15h-27q-10 0 -15.5 8.5t-0.5 19.5l324 657q7 15 22 15h28q10 0 15.5 -8.5t0.5 -19.5zM176 458q0 20 -12 28.5t-28 8.5h-6q-10 0 -10 10v52q0 10 10 10h6q15 0 25.5 9t10.5 26q0 16 -10 25t-26 9t-26 -9t-10 -25v-8q0 -10 -10 -10h-53q-10 0 -10 10v8
q0 22 8.5 41.5t23.5 34t35 23t42 8.5t42 -8.5t35 -23t23.5 -34t8.5 -41.5q0 -19 -7.5 -36t-18.5 -29q-5 -5 0 -8q14 -11 22 -31t8 -40q0 -23 -9 -43.5t-24.5 -35.5t-36 -23.5t-43.5 -8.5t-43.5 8.5t-36 23.5t-24.5 35.5t-9 43.5v6q0 10 10 10h53q10 0 10 -10v-6
q0 -38 40 -38q18 0 29 9.5t11 28.5zM517 130q10 0 10 -10v-48q0 -10 -10 -10h-17q-5 0 -5 -5v-47q0 -10 -10 -10h-51q-10 0 -10 10v47q0 5 -5 5h-114q-10 0 -10 10v59q0 5 2.5 10t5.5 10l112 192q3 7 10 7h60q10 0 10 -10v-205q0 -5 5 -5h17zM368 136q-4 -6 4 -6h47q5 0 5 5
v93q0 3 -2 3.5t-4 -1.5z" />
    <glyph glyph-name="questiondown" unicode="&#xbf;" 
d="M179 -7q0 -41 25 -71t71 -30q21 0 39 9t30.5 23t19.5 32.5t7 36.5v15q0 8 6 14t14 6h51q8 0 14 -6t6 -14v-15q0 -40 -14 -75t-39 -61.5t-59.5 -41.5t-74.5 -15t-74.5 14t-59.5 39.5t-39.5 61t-14.5 78.5q0 54 23.5 91.5t65.5 69.5q11 8 22 15.5t20 16t15 19t6 25.5v70
q0 8 6 14t14 6h51q8 0 14 -6t6 -14v-84q0 -40 -18 -61q-13 -15 -24.5 -24.5t-22.5 -17t-22 -15.5t-23 -19q-16 -16 -28.5 -38t-12.5 -48zM222 490q0 8 6 14t14 6h83q8 0 14 -6t6 -14v-83q0 -8 -6 -14t-14 -6h-83q-8 0 -14 6t-6 14v83z" />
    <glyph glyph-name="Agrave" unicode="&#xc0;" 
d="M129 15q-5 -15 -19 -15h-55q-12 0 -17 6.5t-3 13.5l186 665q3 15 19 15h70q16 0 19 -15l186 -665q2 -7 -3 -13.5t-17 -6.5h-55q-14 0 -19 15l-44 153q-3 14 -19 14h-166q-14 0 -19 -14zM205 286q-3 -11 8 -11h124q11 0 8 11l-65 279q-2 6 -4 6h-2q-3 0 -4 -6zM219 895
q11 0 16.5 -5.5t9.5 -10.5l76 -109q4 -5 0 -12.5t-14 -7.5h-40q-14 0 -19.5 3.5t-10.5 8.5l-108 112q-5 5 -2 13t13 8h79z" />
    <glyph glyph-name="Aacute" unicode="&#xc1;" 
d="M129 15q-5 -15 -19 -15h-55q-12 0 -17 6.5t-3 13.5l186 665q3 15 19 15h70q16 0 19 -15l186 -665q2 -7 -3 -13.5t-17 -6.5h-55q-14 0 -19 15l-44 153q-3 14 -19 14h-166q-14 0 -19 -14zM205 286q-3 -11 8 -11h124q11 0 8 11l-65 279q-2 6 -4 6h-2q-3 0 -4 -6zM409 895
q10 0 13 -8t-2 -13l-108 -112q-5 -5 -10.5 -8.5t-19.5 -3.5h-40q-10 0 -14 7.5t0 12.5l76 109q4 5 9.5 10.5t16.5 5.5h79z" />
    <glyph glyph-name="Acircumflex" unicode="&#xc2;" 
d="M129 15q-5 -15 -19 -15h-55q-12 0 -17 6.5t-3 13.5l186 665q3 15 19 15h70q16 0 19 -15l186 -665q2 -7 -3 -13.5t-17 -6.5h-55q-14 0 -19 15l-44 153q-3 14 -19 14h-166q-14 0 -19 -14zM205 286q-3 -11 8 -11h124q11 0 8 11l-65 279q-2 6 -4 6h-2q-3 0 -4 -6zM217 766
q-5 -5 -12.5 -10.5t-18.5 -5.5h-59q-10 0 -13 8t2 13l108 112q5 5 10.5 8.5t19.5 3.5h42q13 0 18.5 -3.5t10.5 -8.5l108 -112q5 -5 2 -13t-13 -8h-59q-11 0 -18.5 5.5t-12.5 10.5l-51 49q-7 7 -14 0z" />
    <glyph glyph-name="Atilde" unicode="&#xc3;" 
d="M129 15q-5 -15 -19 -15h-55q-12 0 -17 6.5t-3 13.5l186 665q3 15 19 15h70q16 0 19 -15l186 -665q2 -7 -3 -13.5t-17 -6.5h-55q-14 0 -19 15l-44 153q-3 14 -19 14h-166q-14 0 -19 -14zM205 286q-3 -11 8 -11h124q11 0 8 11l-65 279q-2 6 -4 6h-2q-3 0 -4 -6zM345 841
q19 0 29.5 6.5t16.5 14.5t15.5 4t9.5 -18v-40q0 -20 -20.5 -35.5t-50.5 -15.5q-24 0 -39.5 4t-29 8.5t-30 8.5t-41.5 4q-17 0 -27.5 -5.5t-18.5 -15.5q-6 -7 -15.5 -3.5t-9.5 17.5v40q0 20 20.5 35.5t50.5 15.5q24 0 39.5 -4t29 -8.5t29.5 -8.5t42 -4z" />
    <glyph glyph-name="Adieresis" unicode="&#xc4;" 
d="M129 15q-5 -15 -19 -15h-55q-12 0 -17 6.5t-3 13.5l186 665q3 15 19 15h70q16 0 19 -15l186 -665q2 -7 -3 -13.5t-17 -6.5h-55q-14 0 -19 15l-44 153q-3 14 -19 14h-166q-14 0 -19 -14zM205 286q-3 -11 8 -11h124q11 0 8 11l-65 279q-2 6 -4 6h-2q-3 0 -4 -6zM239 766
q0 -16 -16 -16h-68q-16 0 -16 16v69q0 6 4.5 11t11.5 5h68q7 0 11.5 -5t4.5 -11v-69zM410 766q0 -16 -16 -16h-68q-16 0 -16 16v69q0 6 4.5 11t11.5 5h68q7 0 11.5 -5t4.5 -11v-69z" />
    <glyph glyph-name="Aring" unicode="&#xc5;" 
d="M129 15q-5 -15 -19 -15h-55q-12 0 -17 6.5t-3 13.5l186 665q3 15 19 15h70q16 0 19 -15l186 -665q2 -7 -3 -13.5t-17 -6.5h-55q-14 0 -19 15l-44 153q-3 14 -19 14h-166q-14 0 -19 -14zM205 286q-3 -11 8 -11h124q11 0 8 11l-65 279q-2 6 -4 6h-2q-3 0 -4 -6zM165 840
q0 23 8.5 43t23.5 35t35 23.5t43 8.5t43 -8.5t35 -23.5t23.5 -35t8.5 -43t-8.5 -43t-23.5 -35t-35 -23.5t-43 -8.5t-43 8.5t-35 23.5t-23.5 35t-8.5 43zM235 840q0 -17 11.5 -28.5t28.5 -11.5t28.5 11.5t11.5 28.5t-11.5 28.5t-28.5 11.5t-28.5 -11.5t-11.5 -28.5z" />
    <glyph glyph-name="AE" unicode="&#xc6;" 
d="M288 166q0 16 -19 16h-101q-13 0 -16 -14l-44 -153q-3 -15 -19 -15h-55q-12 0 -17 6.5t-3 13.5l183 654q2 7 10 16.5t24 9.5h280q8 0 14 -6t6 -14v-55q0 -8 -6 -14t-14 -6h-118q-10 0 -10 -10v-180q0 -10 10 -10h107q8 0 14 -6t6 -14v-55q0 -8 -6 -14t-14 -6h-107
q-10 0 -10 -10v-195q0 -10 10 -10h120q8 0 14 -6t6 -14v-55q0 -8 -6 -14t-14 -6h-205q-8 0 -14 6t-6 14v146zM278 275q10 0 10 11v309q0 10 -10 10h-3q-7 0 -9.5 -3.5t-3.5 -6.5l-78 -309q-3 -11 8 -11h86z" />
    <glyph glyph-name="Ccedilla" unicode="&#xc7;" 
d="M283 87q25 0 48.5 7.5t41.5 21.5t29 35.5t11 48.5q0 11 2.5 22.5t17.5 11.5h55q8 0 14 -6t6 -14q0 -44 -15 -84t-44 -71t-70.5 -49t-95.5 -18q-45 0 -83.5 14.5t-68 41.5t-48.5 65.5t-25 86.5q-4 30 -6 69.5t-2 81t2 80.5t6 69q5 41 22 78.5t45.5 66.5t68 46t89.5 17
q49 0 90 -15.5t71 -44t47 -69.5t17 -93q0 -8 -6 -14t-14 -6h-55q-8 0 -14 6t-6 14q0 25 -7.5 47.5t-23.5 40t-40.5 28.5t-58.5 11q-49 0 -86 -29t-44 -84q-4 -31 -6 -70t-2 -80t2 -80t6 -70q3 -22 12.5 -42.5t26 -36t39.5 -25t52 -9.5zM310 -184q-4 -16 -19 -16h-63
q-10 0 -14 5.5t-2 12.5l38 121q4 16 19 16h53q10 0 14 -5.5t2 -12.5z" />
    <glyph glyph-name="Egrave" unicode="&#xc8;" 
d="M202 415q0 -10 10 -10h237q8 0 14 -6t6 -14v-55q0 -8 -6 -14t-14 -6h-237q-10 0 -10 -10v-195q0 -10 10 -10h250q8 0 14 -6t6 -14v-55q0 -8 -6 -14t-14 -6h-335q-8 0 -14 6t-6 14v660q0 8 6 14t14 6h333q8 0 14 -6t6 -14v-55q0 -8 -6 -14t-14 -6h-248q-10 0 -10 -10v-180
zM239 895q11 0 16.5 -5.5t9.5 -10.5l76 -109q4 -5 0 -12.5t-14 -7.5h-40q-14 0 -19.5 3.5t-10.5 8.5l-108 112q-5 5 -2 13t13 8h79z" />
    <glyph glyph-name="Eacute" unicode="&#xc9;" 
d="M202 415q0 -10 10 -10h237q8 0 14 -6t6 -14v-55q0 -8 -6 -14t-14 -6h-237q-10 0 -10 -10v-195q0 -10 10 -10h250q8 0 14 -6t6 -14v-55q0 -8 -6 -14t-14 -6h-335q-8 0 -14 6t-6 14v660q0 8 6 14t14 6h333q8 0 14 -6t6 -14v-55q0 -8 -6 -14t-14 -6h-248q-10 0 -10 -10v-180
zM419 895q10 0 13 -8t-2 -13l-108 -112q-5 -5 -10.5 -8.5t-19.5 -3.5h-40q-10 0 -14 7.5t0 12.5l76 109q4 5 9.5 10.5t16.5 5.5h79z" />
    <glyph glyph-name="Ecircumflex" unicode="&#xca;" 
d="M202 415q0 -10 10 -10h237q8 0 14 -6t6 -14v-55q0 -8 -6 -14t-14 -6h-237q-10 0 -10 -10v-195q0 -10 10 -10h250q8 0 14 -6t6 -14v-55q0 -8 -6 -14t-14 -6h-335q-8 0 -14 6t-6 14v660q0 8 6 14t14 6h333q8 0 14 -6t6 -14v-55q0 -8 -6 -14t-14 -6h-248q-10 0 -10 -10v-180
zM237 766q-5 -5 -12.5 -10.5t-18.5 -5.5h-59q-10 0 -13 8t2 13l108 112q5 5 10.5 8.5t19.5 3.5h42q13 0 18.5 -3.5t10.5 -8.5l108 -112q5 -5 2 -13t-13 -8h-59q-11 0 -18.5 5.5t-12.5 10.5l-51 49q-7 7 -14 0z" />
    <glyph glyph-name="Edieresis" unicode="&#xcb;" 
d="M202 415q0 -10 10 -10h237q8 0 14 -6t6 -14v-55q0 -8 -6 -14t-14 -6h-237q-10 0 -10 -10v-195q0 -10 10 -10h250q8 0 14 -6t6 -14v-55q0 -8 -6 -14t-14 -6h-335q-8 0 -14 6t-6 14v660q0 8 6 14t14 6h333q8 0 14 -6t6 -14v-55q0 -8 -6 -14t-14 -6h-248q-10 0 -10 -10v-180
zM259 766q0 -16 -16 -16h-68q-16 0 -16 16v69q0 6 4.5 11t11.5 5h68q7 0 11.5 -5t4.5 -11v-69zM430 766q0 -16 -16 -16h-68q-16 0 -16 16v69q0 6 4.5 11t11.5 5h68q7 0 11.5 -5t4.5 -11v-69z" />
    <glyph glyph-name="Igrave" unicode="&#xcc;" 
d="M227 603q0 10 -10 10h-110q-8 0 -14 6t-6 14v47q0 8 6 14t14 6h335q8 0 14 -6t6 -14v-47q0 -8 -6 -14t-14 -6h-110q-10 0 -10 -10v-505q0 -10 10 -10h120q8 0 14 -6t6 -14v-48q0 -8 -6 -14t-14 -6h-355q-8 0 -14 6t-6 14v48q0 8 6 14t14 6h120q10 0 10 10v505zM219 895
q11 0 16.5 -5.5t9.5 -10.5l76 -109q4 -5 0 -12.5t-14 -7.5h-40q-14 0 -19.5 3.5t-10.5 8.5l-108 112q-5 5 -2 13t13 8h79z" />
    <glyph glyph-name="Iacute" unicode="&#xcd;" 
d="M227 603q0 10 -10 10h-110q-8 0 -14 6t-6 14v47q0 8 6 14t14 6h335q8 0 14 -6t6 -14v-47q0 -8 -6 -14t-14 -6h-110q-10 0 -10 -10v-505q0 -10 10 -10h120q8 0 14 -6t6 -14v-48q0 -8 -6 -14t-14 -6h-355q-8 0 -14 6t-6 14v48q0 8 6 14t14 6h120q10 0 10 10v505zM409 895
q10 0 13 -8t-2 -13l-108 -112q-5 -5 -10.5 -8.5t-19.5 -3.5h-40q-10 0 -14 7.5t0 12.5l76 109q4 5 9.5 10.5t16.5 5.5h79z" />
    <glyph glyph-name="Icircumflex" unicode="&#xce;" 
d="M227 603q0 10 -10 10h-110q-8 0 -14 6t-6 14v47q0 8 6 14t14 6h335q8 0 14 -6t6 -14v-47q0 -8 -6 -14t-14 -6h-110q-10 0 -10 -10v-505q0 -10 10 -10h120q8 0 14 -6t6 -14v-48q0 -8 -6 -14t-14 -6h-355q-8 0 -14 6t-6 14v48q0 8 6 14t14 6h120q10 0 10 10v505zM217 766
q-5 -5 -12.5 -10.5t-18.5 -5.5h-59q-10 0 -13 8t2 13l108 112q5 5 10.5 8.5t19.5 3.5h42q13 0 18.5 -3.5t10.5 -8.5l108 -112q5 -5 2 -13t-13 -8h-59q-11 0 -18.5 5.5t-12.5 10.5l-51 49q-7 7 -14 0z" />
    <glyph glyph-name="Idieresis" unicode="&#xcf;" 
d="M227 603q0 10 -10 10h-110q-8 0 -14 6t-6 14v47q0 8 6 14t14 6h335q8 0 14 -6t6 -14v-47q0 -8 -6 -14t-14 -6h-110q-10 0 -10 -10v-505q0 -10 10 -10h120q8 0 14 -6t6 -14v-48q0 -8 -6 -14t-14 -6h-355q-8 0 -14 6t-6 14v48q0 8 6 14t14 6h120q10 0 10 10v505zM239 766
q0 -16 -16 -16h-68q-16 0 -16 16v69q0 6 4.5 11t11.5 5h68q7 0 11.5 -5t4.5 -11v-69zM410 766q0 -16 -16 -16h-68q-16 0 -16 16v69q0 6 4.5 11t11.5 5h68q7 0 11.5 -5t4.5 -11v-69z" />
    <glyph glyph-name="Eth" unicode="&#xd0;" 
d="M71 680q0 8 6 14t14 6h190q43 0 79.5 -16.5t63.5 -45t44.5 -67t22.5 -81.5q4 -30 5.5 -66.5t1.5 -74t-2 -73.5t-5 -66q-5 -43 -22 -81.5t-44.5 -67t-64 -45t-79.5 -16.5h-190q-8 0 -14 6t-6 14v280q0 10 -10 10h-32q-8 0 -14 6t-6 14v55q0 8 6 14t14 6h32q10 0 10 10v265
zM166 415q0 -10 10 -10h100q8 0 14 -6t6 -14v-55q0 -8 -6 -14t-14 -6h-100q-10 0 -10 -10v-195q0 -10 10 -10h105q23 0 43 9.5t35 25.5t24.5 36.5t12.5 43.5q4 30 5.5 66t1.5 73.5t-1.5 74t-5.5 66.5q-3 22 -12.5 43t-24.5 37t-35 25.5t-43 9.5h-105q-10 0 -10 -10v-180z
" />
    <glyph glyph-name="Ntilde" unicode="&#xd1;" 
d="M485 20q0 -8 -6 -14t-14 -6h-83q-8 0 -12.5 3t-8.5 14l-197 495q-2 3 -5 2.5t-3 -4.5v-490q0 -8 -6 -14t-14 -6h-51q-8 0 -14 6t-6 14v660q0 8 6 14t14 6h83q8 0 12.5 -3t8.5 -14l197 -493q2 -3 5 -2.5t3 4.5v488q0 8 6 14t14 6h51q8 0 14 -6t6 -14v-660zM345 841
q19 0 29.5 6.5t16.5 14.5t15.5 4t9.5 -18v-40q0 -20 -20.5 -35.5t-50.5 -15.5q-24 0 -39.5 4t-29 8.5t-30 8.5t-41.5 4q-17 0 -27.5 -5.5t-18.5 -15.5q-6 -7 -15.5 -3.5t-9.5 17.5v40q0 20 20.5 35.5t50.5 15.5q24 0 39.5 -4t29 -8.5t29.5 -8.5t42 -4z" />
    <glyph glyph-name="Ograve" unicode="&#xd2;" 
d="M275 613q-49 0 -86 -29t-44 -84q-4 -31 -6 -70t-2 -80t2 -80t6 -70q3 -22 12.5 -42.5t26 -36t39.5 -25t52 -9.5q51 0 86.5 29.5t43.5 83.5q4 31 6.5 70t2.5 80t-2.5 80t-6.5 70q-3 22 -12.5 42.5t-26 36t-39 25t-52.5 9.5zM275 708q45 0 83.5 -14.5t68 -41.5t48.5 -65.5
t25 -86.5q4 -30 5.5 -69.5t1.5 -80.5t-2 -80.5t-5 -69.5q-5 -41 -22 -79t-45.5 -66.5t-68.5 -45.5t-89 -17q-45 0 -83.5 14.5t-68 41.5t-48.5 65.5t-25 86.5q-4 30 -6 69.5t-2 81t2 80.5t6 69q5 41 22 78.5t45.5 66.5t68 46t89.5 17zM219 895q11 0 16.5 -5.5t9.5 -10.5
l76 -109q4 -5 0 -12.5t-14 -7.5h-40q-14 0 -19.5 3.5t-10.5 8.5l-108 112q-5 5 -2 13t13 8h79z" />
    <glyph glyph-name="Oacute" unicode="&#xd3;" 
d="M275 613q-49 0 -86 -29t-44 -84q-4 -31 -6 -70t-2 -80t2 -80t6 -70q3 -22 12.5 -42.5t26 -36t39.5 -25t52 -9.5q51 0 86.5 29.5t43.5 83.5q4 31 6.5 70t2.5 80t-2.5 80t-6.5 70q-3 22 -12.5 42.5t-26 36t-39 25t-52.5 9.5zM275 708q45 0 83.5 -14.5t68 -41.5t48.5 -65.5
t25 -86.5q4 -30 5.5 -69.5t1.5 -80.5t-2 -80.5t-5 -69.5q-5 -41 -22 -79t-45.5 -66.5t-68.5 -45.5t-89 -17q-45 0 -83.5 14.5t-68 41.5t-48.5 65.5t-25 86.5q-4 30 -6 69.5t-2 81t2 80.5t6 69q5 41 22 78.5t45.5 66.5t68 46t89.5 17zM409 895q10 0 13 -8t-2 -13l-108 -112
q-5 -5 -10.5 -8.5t-19.5 -3.5h-40q-10 0 -14 7.5t0 12.5l76 109q4 5 9.5 10.5t16.5 5.5h79z" />
    <glyph glyph-name="Ocircumflex" unicode="&#xd4;" 
d="M275 613q-49 0 -86 -29t-44 -84q-4 -31 -6 -70t-2 -80t2 -80t6 -70q3 -22 12.5 -42.5t26 -36t39.5 -25t52 -9.5q51 0 86.5 29.5t43.5 83.5q4 31 6.5 70t2.5 80t-2.5 80t-6.5 70q-3 22 -12.5 42.5t-26 36t-39 25t-52.5 9.5zM275 708q45 0 83.5 -14.5t68 -41.5t48.5 -65.5
t25 -86.5q4 -30 5.5 -69.5t1.5 -80.5t-2 -80.5t-5 -69.5q-5 -41 -22 -79t-45.5 -66.5t-68.5 -45.5t-89 -17q-45 0 -83.5 14.5t-68 41.5t-48.5 65.5t-25 86.5q-4 30 -6 69.5t-2 81t2 80.5t6 69q5 41 22 78.5t45.5 66.5t68 46t89.5 17zM217 766q-5 -5 -12.5 -10.5t-18.5 -5.5
h-59q-10 0 -13 8t2 13l108 112q5 5 10.5 8.5t19.5 3.5h42q13 0 18.5 -3.5t10.5 -8.5l108 -112q5 -5 2 -13t-13 -8h-59q-11 0 -18.5 5.5t-12.5 10.5l-51 49q-7 7 -14 0z" />
    <glyph glyph-name="Otilde" unicode="&#xd5;" 
d="M275 613q-49 0 -86 -29t-44 -84q-4 -31 -6 -70t-2 -80t2 -80t6 -70q3 -22 12.5 -42.5t26 -36t39.5 -25t52 -9.5q51 0 86.5 29.5t43.5 83.5q4 31 6.5 70t2.5 80t-2.5 80t-6.5 70q-3 22 -12.5 42.5t-26 36t-39 25t-52.5 9.5zM275 708q45 0 83.5 -14.5t68 -41.5t48.5 -65.5
t25 -86.5q4 -30 5.5 -69.5t1.5 -80.5t-2 -80.5t-5 -69.5q-5 -41 -22 -79t-45.5 -66.5t-68.5 -45.5t-89 -17q-45 0 -83.5 14.5t-68 41.5t-48.5 65.5t-25 86.5q-4 30 -6 69.5t-2 81t2 80.5t6 69q5 41 22 78.5t45.5 66.5t68 46t89.5 17zM345 841q19 0 29.5 6.5t16.5 14.5
t15.5 4t9.5 -18v-40q0 -20 -20.5 -35.5t-50.5 -15.5q-24 0 -39.5 4t-29 8.5t-30 8.5t-41.5 4q-17 0 -27.5 -5.5t-18.5 -15.5q-6 -7 -15.5 -3.5t-9.5 17.5v40q0 20 20.5 35.5t50.5 15.5q24 0 39.5 -4t29 -8.5t29.5 -8.5t42 -4z" />
    <glyph glyph-name="Odieresis" unicode="&#xd6;" 
d="M275 613q-49 0 -86 -29t-44 -84q-4 -31 -6 -70t-2 -80t2 -80t6 -70q3 -22 12.5 -42.5t26 -36t39.5 -25t52 -9.5q51 0 86.5 29.5t43.5 83.5q4 31 6.5 70t2.5 80t-2.5 80t-6.5 70q-3 22 -12.5 42.5t-26 36t-39 25t-52.5 9.5zM275 708q45 0 83.5 -14.5t68 -41.5t48.5 -65.5
t25 -86.5q4 -30 5.5 -69.5t1.5 -80.5t-2 -80.5t-5 -69.5q-5 -41 -22 -79t-45.5 -66.5t-68.5 -45.5t-89 -17q-45 0 -83.5 14.5t-68 41.5t-48.5 65.5t-25 86.5q-4 30 -6 69.5t-2 81t2 80.5t6 69q5 41 22 78.5t45.5 66.5t68 46t89.5 17zM239 766q0 -16 -16 -16h-68
q-16 0 -16 16v69q0 6 4.5 11t11.5 5h68q7 0 11.5 -5t4.5 -11v-69zM410 766q0 -16 -16 -16h-68q-16 0 -16 16v69q0 6 4.5 11t11.5 5h68q7 0 11.5 -5t4.5 -11v-69z" />
    <glyph glyph-name="multiply" unicode="&#xd7;" 
d="M198 243q7 7 0 14l-113 113q-6 6 -6 14t6 14l37 37q14 14 28 0l113 -113q7 -7 14 0l112 112q6 6 14 6t14 -6l37 -37q6 -6 6 -14t-6 -14l-112 -112q-7 -7 0 -14l113 -113q14 -14 0 -28l-37 -37q-6 -6 -14 -6t-14 6l-113 113q-7 7 -14 0l-112 -112q-6 -6 -14 -6t-14 6
l-37 37q-6 6 -6 14t6 14z" />
    <glyph glyph-name="Oslash" unicode="&#xd8;" 
d="M275 613q-49 0 -86 -29t-44 -84q-3 -28 -5 -63t-2.5 -72t0.5 -73.5t4 -67.5q0 -5 2.5 -7.5t7.5 5.5l210 350q4 7 -3 14.5t-21 13.5t-31 9.5t-32 3.5zM275 87q51 0 86.5 29.5t43.5 83.5q4 28 6 62.5t2.5 71.5t-1 73.5t-4.5 67.5q0 2 -2.5 4t-6.5 -4l-206 -347
q-5 -10 2.5 -17.5t21 -13t30 -8t28.5 -2.5zM123 15q-9 -15 -21 -15h-52q-10 0 -16.5 8.5t0.5 19.5l41 66q5 8 3.5 12t-3.5 6q-13 28 -20.5 74.5t-10.5 100.5t-1.5 110t7.5 103q5 41 22 78.5t45.5 66.5t68 46t89.5 17q78 0 134 -41q2 -2 4.5 -2.5t6.5 4.5l11 16q5 8 8.5 11.5
t10.5 3.5h52q10 0 16 -9t0 -19l-45 -71q-3 -5 -2 -7l2 -4q13 -25 19.5 -53.5t10.5 -62.5q3 -31 4 -67.5t0.5 -73.5t-2.5 -71.5t-5 -61.5q-5 -41 -22 -79t-45.5 -66.5t-68.5 -45.5t-89 -17q-77 0 -132 39q-2 1 -4.5 2t-6.5 -4z" />
    <glyph glyph-name="Ugrave" unicode="&#xd9;" 
d="M145 200q0 -30 11 -51.5t29.5 -35t42 -20t47.5 -6.5q28 0 52 8.5t41.5 24t27 36t9.5 44.5v480q0 8 6 14t14 6h55q8 0 14 -6t6 -14v-480q0 -45 -18 -83t-49 -66t-72 -43.5t-86 -15.5q-48 0 -89.5 15.5t-71.5 43.5t-47 66t-17 83v480q0 8 6 14t14 6h55q8 0 14 -6t6 -14
v-480zM219 895q11 0 16.5 -5.5t9.5 -10.5l76 -109q4 -5 0 -12.5t-14 -7.5h-40q-14 0 -19.5 3.5t-10.5 8.5l-108 112q-5 5 -2 13t13 8h79z" />
    <glyph glyph-name="Uacute" unicode="&#xda;" 
d="M145 200q0 -30 11 -51.5t29.5 -35t42 -20t47.5 -6.5q28 0 52 8.5t41.5 24t27 36t9.5 44.5v480q0 8 6 14t14 6h55q8 0 14 -6t6 -14v-480q0 -45 -18 -83t-49 -66t-72 -43.5t-86 -15.5q-48 0 -89.5 15.5t-71.5 43.5t-47 66t-17 83v480q0 8 6 14t14 6h55q8 0 14 -6t6 -14
v-480zM409 895q10 0 13 -8t-2 -13l-108 -112q-5 -5 -10.5 -8.5t-19.5 -3.5h-40q-10 0 -14 7.5t0 12.5l76 109q4 5 9.5 10.5t16.5 5.5h79z" />
    <glyph glyph-name="Ucircumflex" unicode="&#xdb;" 
d="M145 200q0 -30 11 -51.5t29.5 -35t42 -20t47.5 -6.5q28 0 52 8.5t41.5 24t27 36t9.5 44.5v480q0 8 6 14t14 6h55q8 0 14 -6t6 -14v-480q0 -45 -18 -83t-49 -66t-72 -43.5t-86 -15.5q-48 0 -89.5 15.5t-71.5 43.5t-47 66t-17 83v480q0 8 6 14t14 6h55q8 0 14 -6t6 -14
v-480zM217 766q-5 -5 -12.5 -10.5t-18.5 -5.5h-59q-10 0 -13 8t2 13l108 112q5 5 10.5 8.5t19.5 3.5h42q13 0 18.5 -3.5t10.5 -8.5l108 -112q5 -5 2 -13t-13 -8h-59q-11 0 -18.5 5.5t-12.5 10.5l-51 49q-7 7 -14 0z" />
    <glyph glyph-name="Udieresis" unicode="&#xdc;" 
d="M145 200q0 -30 11 -51.5t29.5 -35t42 -20t47.5 -6.5q28 0 52 8.5t41.5 24t27 36t9.5 44.5v480q0 8 6 14t14 6h55q8 0 14 -6t6 -14v-480q0 -45 -18 -83t-49 -66t-72 -43.5t-86 -15.5q-48 0 -89.5 15.5t-71.5 43.5t-47 66t-17 83v480q0 8 6 14t14 6h55q8 0 14 -6t6 -14
v-480zM239 766q0 -16 -16 -16h-68q-16 0 -16 16v69q0 6 4.5 11t11.5 5h68q7 0 11.5 -5t4.5 -11v-69zM410 766q0 -16 -16 -16h-68q-16 0 -16 16v69q0 6 4.5 11t11.5 5h68q7 0 11.5 -5t4.5 -11v-69z" />
    <glyph glyph-name="Yacute" unicode="&#xdd;" 
d="M391 685q5 15 19 15h66q10 0 15.5 -8.5t0.5 -19.5l-168 -431v-221q0 -8 -6 -14t-14 -6h-56q-8 0 -14 6t-6 14v220l-170 432q-5 11 0.5 19.5t15.5 8.5h66q14 0 19 -15l113 -311q4 -10 8 0zM409 895q10 0 13 -8t-2 -13l-108 -112q-5 -5 -10.5 -8.5t-19.5 -3.5h-40
q-10 0 -14 7.5t0 12.5l76 109q4 5 9.5 10.5t16.5 5.5h79z" />
    <glyph glyph-name="Thorn" unicode="&#xde;" 
d="M395 380q0 24 -9 44.5t-25 36.5t-36.5 25t-44.5 9h-85q-10 0 -10 -10v-260q0 -10 10 -10h85q24 0 44.5 9t36.5 25t25 36.5t9 44.5v50zM490 330q0 -44 -16.5 -82t-45 -66.5t-67 -45t-81.5 -16.5h-85q-10 0 -10 -10v-90q0 -8 -6 -14t-14 -6h-55q-8 0 -14 6t-6 14v660
q0 8 6 14t14 6h55q8 0 14 -6t6 -14v-80q0 -10 10 -10h85q43 0 81.5 -16.5t67 -45t45 -67t16.5 -81.5v-50z" />
    <glyph glyph-name="germandbls" unicode="&#xdf;" 
d="M71 517q0 40 15.5 75t42 61.5t62.5 41.5t77 15t76.5 -15t62 -41.5t41.5 -61.5t15 -75q0 -42 -16 -76.5t-42 -60.5q-5 -5 -6.5 -11.5t5.5 -12.5q33 -29 53.5 -66.5t20.5 -91.5q0 -43 -16.5 -79.5t-45 -62.5t-67 -41t-81.5 -15h-20q-8 0 -14 6t-6 14v50q0 8 6 14t14 6h20
q25 0 47 8.5t38.5 23t25.5 34t9 42.5q0 21 -6 43t-20 39.5t-36.5 29t-55.5 11.5h-12q-8 0 -14 6t-6 14v49q0 8 6 14t14 6h12q26 0 45.5 9t32 23.5t19 34t6.5 40.5q0 42 -28.5 72.5t-76.5 30.5q-49 0 -77 -30.5t-28 -72.5v-497q0 -8 -6 -14t-14 -6h-52q-8 0 -14 6t-6 14v497z
" />
    <glyph glyph-name="agrave" unicode="&#xe0;" 
d="M249 220q-38 0 -56.5 -18.5t-18.5 -50.5q0 -37 22.5 -57.5t66.5 -20.5q69 0 97.5 27t28.5 78v32q0 10 -10 10h-130zM288 424q-12 0 -28.5 -2t-30.5 -8.5t-24 -17.5t-10 -29q0 -13 -8 -15t-15 -2h-45q-20 0 -20 20q0 35 16.5 61t42.5 43.5t58 26.5t64 9q37 0 70 -9.5
t58 -29t40 -49.5t15 -72v-330q0 -8 -6 -14t-14 -6h-34q-8 0 -14 7q-5 6 -8.5 13.5t-11.5 7.5q-7 0 -15.5 -6t-22 -13t-32.5 -13t-47 -6q-46 0 -80.5 13t-57 35t-33.5 51t-11 61q0 31 11 58.5t32 48.5t52 33t70 12h122q10 0 10 10v33q0 41 -27.5 60t-65.5 19zM239 730
q11 0 16.5 -5.5t9.5 -10.5l76 -109q4 -5 0 -12.5t-14 -7.5h-40q-14 0 -19.5 3.5t-10.5 8.5l-108 112q-5 5 -2 13t13 8h79z" />
    <glyph glyph-name="aacute" unicode="&#xe1;" 
d="M249 220q-38 0 -56.5 -18.5t-18.5 -50.5q0 -37 22.5 -57.5t66.5 -20.5q69 0 97.5 27t28.5 78v32q0 10 -10 10h-130zM288 424q-12 0 -28.5 -2t-30.5 -8.5t-24 -17.5t-10 -29q0 -13 -8 -15t-15 -2h-45q-20 0 -20 20q0 35 16.5 61t42.5 43.5t58 26.5t64 9q37 0 70 -9.5
t58 -29t40 -49.5t15 -72v-330q0 -8 -6 -14t-14 -6h-34q-8 0 -14 7q-5 6 -8.5 13.5t-11.5 7.5q-7 0 -15.5 -6t-22 -13t-32.5 -13t-47 -6q-46 0 -80.5 13t-57 35t-33.5 51t-11 61q0 31 11 58.5t32 48.5t52 33t70 12h122q10 0 10 10v33q0 41 -27.5 60t-65.5 19zM429 730
q10 0 13 -8t-2 -13l-108 -112q-5 -5 -10.5 -8.5t-19.5 -3.5h-40q-10 0 -14 7.5t0 12.5l76 109q4 5 9.5 10.5t16.5 5.5h79z" />
    <glyph glyph-name="acircumflex" unicode="&#xe2;" 
d="M249 220q-38 0 -56.5 -18.5t-18.5 -50.5q0 -37 22.5 -57.5t66.5 -20.5q69 0 97.5 27t28.5 78v32q0 10 -10 10h-130zM288 424q-12 0 -28.5 -2t-30.5 -8.5t-24 -17.5t-10 -29q0 -13 -8 -15t-15 -2h-45q-20 0 -20 20q0 35 16.5 61t42.5 43.5t58 26.5t64 9q37 0 70 -9.5
t58 -29t40 -49.5t15 -72v-330q0 -8 -6 -14t-14 -6h-34q-8 0 -14 7q-5 6 -8.5 13.5t-11.5 7.5q-7 0 -15.5 -6t-22 -13t-32.5 -13t-47 -6q-46 0 -80.5 13t-57 35t-33.5 51t-11 61q0 31 11 58.5t32 48.5t52 33t70 12h122q10 0 10 10v33q0 41 -27.5 60t-65.5 19zM237 601
q-5 -5 -12.5 -10.5t-18.5 -5.5h-59q-10 0 -13 8t2 13l108 112q5 5 10.5 8.5t19.5 3.5h42q13 0 18.5 -3.5t10.5 -8.5l108 -112q5 -5 2 -13t-13 -8h-59q-11 0 -18.5 5.5t-12.5 10.5l-51 49q-7 7 -14 0z" />
    <glyph glyph-name="atilde" unicode="&#xe3;" 
d="M249 220q-38 0 -56.5 -18.5t-18.5 -50.5q0 -37 22.5 -57.5t66.5 -20.5q69 0 97.5 27t28.5 78v32q0 10 -10 10h-130zM288 424q-12 0 -28.5 -2t-30.5 -8.5t-24 -17.5t-10 -29q0 -13 -8 -15t-15 -2h-45q-20 0 -20 20q0 35 16.5 61t42.5 43.5t58 26.5t64 9q37 0 70 -9.5
t58 -29t40 -49.5t15 -72v-330q0 -8 -6 -14t-14 -6h-34q-8 0 -14 7q-5 6 -8.5 13.5t-11.5 7.5q-7 0 -15.5 -6t-22 -13t-32.5 -13t-47 -6q-46 0 -80.5 13t-57 35t-33.5 51t-11 61q0 31 11 58.5t32 48.5t52 33t70 12h122q10 0 10 10v33q0 41 -27.5 60t-65.5 19zM365 684
q19 0 29.5 6.5t16.5 14.5t15.5 4t9.5 -18v-40q0 -20 -20.5 -35.5t-50.5 -15.5q-24 0 -39.5 4t-29 8.5t-30 8.5t-41.5 4q-17 0 -27.5 -5.5t-18.5 -15.5q-6 -7 -15.5 -3.5t-9.5 17.5v40q0 20 20.5 35.5t50.5 15.5q24 0 39.5 -4t29 -8.5t29.5 -8.5t42 -4z" />
    <glyph glyph-name="adieresis" unicode="&#xe4;" 
d="M249 220q-38 0 -56.5 -18.5t-18.5 -50.5q0 -37 22.5 -57.5t66.5 -20.5q69 0 97.5 27t28.5 78v32q0 10 -10 10h-130zM288 424q-12 0 -28.5 -2t-30.5 -8.5t-24 -17.5t-10 -29q0 -13 -8 -15t-15 -2h-45q-20 0 -20 20q0 35 16.5 61t42.5 43.5t58 26.5t64 9q37 0 70 -9.5
t58 -29t40 -49.5t15 -72v-330q0 -8 -6 -14t-14 -6h-34q-8 0 -14 7q-5 6 -8.5 13.5t-11.5 7.5q-7 0 -15.5 -6t-22 -13t-32.5 -13t-47 -6q-46 0 -80.5 13t-57 35t-33.5 51t-11 61q0 31 11 58.5t32 48.5t52 33t70 12h122q10 0 10 10v33q0 41 -27.5 60t-65.5 19zM259 622
q0 -16 -16 -16h-68q-16 0 -16 16v69q0 6 4.5 11t11.5 5h68q7 0 11.5 -5t4.5 -11v-69zM430 622q0 -16 -16 -16h-68q-16 0 -16 16v69q0 6 4.5 11t11.5 5h68q7 0 11.5 -5t4.5 -11v-69z" />
    <glyph glyph-name="aring" unicode="&#xe5;" 
d="M249 220q-38 0 -56.5 -18.5t-18.5 -50.5q0 -37 22.5 -57.5t66.5 -20.5q69 0 97.5 27t28.5 78v32q0 10 -10 10h-130zM288 424q-12 0 -28.5 -2t-30.5 -8.5t-24 -17.5t-10 -29q0 -13 -8 -15t-15 -2h-45q-20 0 -20 20q0 35 16.5 61t42.5 43.5t58 26.5t64 9q37 0 70 -9.5
t58 -29t40 -49.5t15 -72v-330q0 -8 -6 -14t-14 -6h-34q-8 0 -14 7q-5 6 -8.5 13.5t-11.5 7.5q-7 0 -15.5 -6t-22 -13t-32.5 -13t-47 -6q-46 0 -80.5 13t-57 35t-33.5 51t-11 61q0 31 11 58.5t32 48.5t52 33t70 12h122q10 0 10 10v33q0 41 -27.5 60t-65.5 19zM186 670
q0 23 8.5 43t23.5 35t35 23.5t43 8.5t43 -8.5t35 -23.5t23.5 -35t8.5 -43t-8.5 -43t-23.5 -35t-35 -23.5t-43 -8.5t-43 8.5t-35 23.5t-23.5 35t-8.5 43zM256 670q0 -17 11.5 -28.5t28.5 -11.5t28.5 11.5t11.5 28.5t-11.5 28.5t-28.5 11.5t-28.5 -11.5t-11.5 -28.5z" />
    <glyph glyph-name="ae" unicode="&#xe6;" 
d="M290 21q-12 8 -19.5 7.5t-18.5 -8.5q-17 -12 -36.5 -21t-47.5 -9q-41 0 -69 13t-45.5 35t-25 51t-7.5 61q0 31 10 58.5t28.5 48t46.5 32.5t64 12h43q10 0 10 10v54q0 26 -14 42.5t-37 16.5q-25 0 -37.5 -18t-12.5 -39q0 -13 -8 -15t-15 -2h-45q-20 0 -20 20q0 27 9 52.5
t26 45t41.5 31t56.5 11.5q31 0 56 -11t40 -28q5 -7 14 -7t16 7q22 23 44 31t48 8q34 0 61 -17t46 -47t28.5 -70t9.5 -86v-49q0 -8 -6 -14t-14 -6h-186q-10 0 -10 -10q0 -136 71 -136q24 0 40 21.5t18 46.5q1 11 8.5 14t14.5 3h41q17 0 17 -20q0 -28 -10 -55t-28 -48t-44 -34
t-57 -13q-32 0 -56.5 10.5t-38.5 20.5zM169 221q-29 0 -43.5 -19t-14.5 -51q0 -37 15 -57.5t44 -20.5q32 0 46.5 27t14.5 78v33q0 10 -10 10h-52zM316 311q0 -10 10 -10h108q10 0 10 10q0 52 -17 83t-41 31q-18 0 -31.5 -9t-22 -25t-12.5 -36.5t-4 -43.5z" />
    <glyph glyph-name="ccedilla" unicode="&#xe7;" 
d="M280 80q46 0 74 24t28 59q0 10 6 13.5t13 3.5h52q8 0 14 -6t6 -14q0 -36 -14.5 -67.5t-40 -54t-61 -35.5t-77.5 -13q-45 0 -81 15t-61.5 40.5t-40 60.5t-17.5 74q-2 30 -2 70t2 70q3 39 17.5 74t40 60.5t61.5 40.5t81 15q42 0 77.5 -13t61 -35.5t40 -54t14.5 -67.5
q0 -8 -4.5 -14t-12.5 -6h-54q-7 0 -13 4t-6 12q0 35 -28 59.5t-75 24.5q-52 0 -79.5 -30t-30.5 -70q-2 -31 -2 -70t2 -70q3 -40 30.5 -70t79.5 -30zM310 -184q-4 -16 -19 -16h-63q-10 0 -14 5.5t-2 12.5l38 121q4 16 19 16h53q10 0 14 -5.5t2 -12.5z" />
    <glyph glyph-name="egrave" unicode="&#xe8;" 
d="M163 211q0 -69 32 -100t84 -31q39 0 66.5 17.5t36.5 45.5q3 10 9.5 13.5t13.5 3.5h51q8 0 13.5 -4.5t3.5 -15.5q-5 -33 -21 -60.5t-41.5 -47.5t-59 -31t-72.5 -11q-45 0 -81.5 15t-63 40.5t-42 60.5t-18.5 74q-2 30 -2 70t2 70q3 39 18.5 74t42 60.5t63 40.5t81.5 15
q91 0 145.5 -53t54.5 -147v-69q0 -8 -6 -14t-14 -6h-286q-10 0 -10 -10zM165 311q0 -10 10 -10h208q10 0 10 10q0 52 -33 80.5t-80 28.5q-52 0 -83.5 -31.5t-31.5 -77.5zM219 730q11 0 16.5 -5.5t9.5 -10.5l76 -109q4 -5 0 -12.5t-14 -7.5h-40q-14 0 -19.5 3.5t-10.5 8.5
l-108 112q-5 5 -2 13t13 8h79z" />
    <glyph glyph-name="eacute" unicode="&#xe9;" 
d="M163 211q0 -69 32 -100t84 -31q39 0 66.5 17.5t36.5 45.5q3 10 9.5 13.5t13.5 3.5h51q8 0 13.5 -4.5t3.5 -15.5q-5 -33 -21 -60.5t-41.5 -47.5t-59 -31t-72.5 -11q-45 0 -81.5 15t-63 40.5t-42 60.5t-18.5 74q-2 30 -2 70t2 70q3 39 18.5 74t42 60.5t63 40.5t81.5 15
q91 0 145.5 -53t54.5 -147v-69q0 -8 -6 -14t-14 -6h-286q-10 0 -10 -10zM165 311q0 -10 10 -10h208q10 0 10 10q0 52 -33 80.5t-80 28.5q-52 0 -83.5 -31.5t-31.5 -77.5zM409 730q10 0 13 -8t-2 -13l-108 -112q-5 -5 -10.5 -8.5t-19.5 -3.5h-40q-10 0 -14 7.5t0 12.5l76 109
q4 5 9.5 10.5t16.5 5.5h79z" />
    <glyph glyph-name="ecircumflex" unicode="&#xea;" 
d="M163 211q0 -69 32 -100t84 -31q39 0 66.5 17.5t36.5 45.5q3 10 9.5 13.5t13.5 3.5h51q8 0 13.5 -4.5t3.5 -15.5q-5 -33 -21 -60.5t-41.5 -47.5t-59 -31t-72.5 -11q-45 0 -81.5 15t-63 40.5t-42 60.5t-18.5 74q-2 30 -2 70t2 70q3 39 18.5 74t42 60.5t63 40.5t81.5 15
q91 0 145.5 -53t54.5 -147v-69q0 -8 -6 -14t-14 -6h-286q-10 0 -10 -10zM165 311q0 -10 10 -10h208q10 0 10 10q0 52 -33 80.5t-80 28.5q-52 0 -83.5 -31.5t-31.5 -77.5zM227 601q-5 -5 -12.5 -10.5t-18.5 -5.5h-59q-10 0 -13 8t2 13l108 112q5 5 10.5 8.5t19.5 3.5h42
q13 0 18.5 -3.5t10.5 -8.5l108 -112q5 -5 2 -13t-13 -8h-59q-11 0 -18.5 5.5t-12.5 10.5l-51 49q-7 7 -14 0z" />
    <glyph glyph-name="edieresis" unicode="&#xeb;" 
d="M163 211q0 -69 32 -100t84 -31q39 0 66.5 17.5t36.5 45.5q3 10 9.5 13.5t13.5 3.5h51q8 0 13.5 -4.5t3.5 -15.5q-5 -33 -21 -60.5t-41.5 -47.5t-59 -31t-72.5 -11q-45 0 -81.5 15t-63 40.5t-42 60.5t-18.5 74q-2 30 -2 70t2 70q3 39 18.5 74t42 60.5t63 40.5t81.5 15
q91 0 145.5 -53t54.5 -147v-69q0 -8 -6 -14t-14 -6h-286q-10 0 -10 -10zM165 311q0 -10 10 -10h208q10 0 10 10q0 52 -33 80.5t-80 28.5q-52 0 -83.5 -31.5t-31.5 -77.5zM245 622q0 -16 -16 -16h-68q-16 0 -16 16v69q0 6 4.5 11t11.5 5h68q7 0 11.5 -5t4.5 -11v-69zM416 622
q0 -16 -16 -16h-68q-16 0 -16 16v69q0 6 4.5 11t11.5 5h68q7 0 11.5 -5t4.5 -11v-69z" />
    <glyph glyph-name="igrave" unicode="&#xec;" 
d="M219 730q11 0 16.5 -5.5t9.5 -10.5l76 -109q4 -5 0 -12.5t-14 -7.5h-40q-14 0 -19.5 3.5t-10.5 8.5l-108 112q-5 5 -2 13t13 8h79zM120 415q-8 0 -14 6t-6 14v45q0 8 6 14t14 6h203q8 0 14 -6t6 -14v-385q0 -10 10 -10h127q8 0 14 -6t6 -14v-45q0 -8 -6 -14t-14 -6h-370
q-8 0 -14 6t-6 14v45q0 8 6 14t14 6h131q10 0 10 10v310q0 10 -10 10h-121z" />
    <glyph glyph-name="iacute" unicode="&#xed;" 
d="M409 730q10 0 13 -8t-2 -13l-108 -112q-5 -5 -10.5 -8.5t-19.5 -3.5h-40q-10 0 -14 7.5t0 12.5l76 109q4 5 9.5 10.5t16.5 5.5h79zM120 415q-8 0 -14 6t-6 14v45q0 8 6 14t14 6h203q8 0 14 -6t6 -14v-385q0 -10 10 -10h127q8 0 14 -6t6 -14v-45q0 -8 -6 -14t-14 -6h-370
q-8 0 -14 6t-6 14v45q0 8 6 14t14 6h131q10 0 10 10v310q0 10 -10 10h-121z" />
    <glyph glyph-name="icircumflex" unicode="&#xee;" 
d="M120 415q-8 0 -14 6t-6 14v45q0 8 6 14t14 6h203q8 0 14 -6t6 -14v-385q0 -10 10 -10h127q8 0 14 -6t6 -14v-45q0 -8 -6 -14t-14 -6h-370q-8 0 -14 6t-6 14v45q0 8 6 14t14 6h131q10 0 10 10v310q0 10 -10 10h-121zM237 601q-5 -5 -12.5 -10.5t-18.5 -5.5h-59
q-10 0 -13 8t2 13l108 112q5 5 10.5 8.5t19.5 3.5h42q13 0 18.5 -3.5t10.5 -8.5l108 -112q5 -5 2 -13t-13 -8h-59q-11 0 -18.5 5.5t-12.5 10.5l-51 49q-7 7 -14 0z" />
    <glyph glyph-name="idieresis" unicode="&#xef;" 
d="M259 622q0 -16 -16 -16h-68q-16 0 -16 16v69q0 6 4.5 11t11.5 5h68q7 0 11.5 -5t4.5 -11v-69zM430 622q0 -16 -16 -16h-68q-16 0 -16 16v69q0 6 4.5 11t11.5 5h68q7 0 11.5 -5t4.5 -11v-69zM120 415q-8 0 -14 6t-6 14v45q0 8 6 14t14 6h203q8 0 14 -6t6 -14v-385
q0 -10 10 -10h127q8 0 14 -6t6 -14v-45q0 -8 -6 -14t-14 -6h-370q-8 0 -14 6t-6 14v45q0 8 6 14t14 6h131q10 0 10 10v310q0 10 -10 10h-121z" />
    <glyph glyph-name="eth" unicode="&#xf0;" 
d="M261 370q-33 0 -55.5 -11.5t-36 -30t-19.5 -42.5t-6 -48q-2 -25 1.5 -53t16 -51t36.5 -38.5t63 -15.5q52 0 82 30t33 70q2 28 1.5 61.5t-11 62t-35 47.5t-70.5 19zM352 663q5 -2 9 1l71 41q8 5 16.5 0.5t8.5 -14.5v-41q0 -10 -2.5 -14.5t-10.5 -9.5l-31 -19q-8 -6 -5 -10
q18 -35 31 -82t20 -99t8.5 -106t-3.5 -103q-5 -44 -18 -83.5t-37 -69t-60.5 -47t-87.5 -17.5q-45 0 -81.5 15t-63 40.5t-42 60.5t-18.5 74q-2 20 -3 34t1 31q0 43 14 82.5t40.5 68.5t65 46.5t87.5 17.5q30 0 50.5 -7.5t36.5 -16.5q13 -5 11 4q-2 13 -6 33t-9 37.5t-11 28.5
t-11 6l-73 -41q-8 -5 -18 -1t-10 15v31q0 7 0.5 11.5t4.5 8.5t12 8.5t22 11.5q8 4 6 8t-9.5 7t-18 4.5t-18.5 1.5h-36q-8 0 -14 6t-6 14v50q0 8 6 14t14 6h36q43 0 75 -9.5t57 -27.5z" />
    <glyph glyph-name="ntilde" unicode="&#xf1;" 
d="M183 477q11 0 19 5t19 11.5t27 11.5t42 5q39 0 74 -14t60.5 -39.5t40.5 -60.5t15 -76v-300q0 -8 -6 -14t-14 -6h-50q-8 0 -14 6t-6 14v300q0 44 -31.5 72t-78.5 28t-78.5 -25.5t-31.5 -69.5v-305q0 -8 -6 -14t-14 -6h-50q-8 0 -14 6t-6 14v460q0 8 6 14t14 6h44
q7 0 14 -7q5 -5 11 -10.5t14 -5.5zM351 684q19 0 29.5 6.5t16.5 14.5t15.5 4t9.5 -18v-40q0 -20 -20.5 -35.5t-50.5 -15.5q-24 0 -39.5 4t-29 8.5t-30 8.5t-41.5 4q-17 0 -27.5 -5.5t-18.5 -15.5q-6 -7 -15.5 -3.5t-9.5 17.5v40q0 20 20.5 35.5t50.5 15.5q24 0 39.5 -4
t29 -8.5t29.5 -8.5t42 -4z" />
    <glyph glyph-name="ograve" unicode="&#xf2;" 
d="M275 510q45 0 81.5 -15t63 -40.5t42 -60.5t18.5 -74q2 -30 2 -70t-2 -70q-3 -39 -18.5 -74t-42 -60.5t-63 -40.5t-81.5 -15t-81.5 15t-63 40.5t-42 60.5t-18.5 74q-2 30 -2 70t2 70q3 39 18.5 74t42 60.5t63 40.5t81.5 15zM275 80q52 0 82 30t33 70q2 31 2 70t-2 70
q-3 40 -33 70t-82 30t-82 -30t-33 -70q-2 -31 -2 -70t2 -70q3 -40 33 -70t82 -30zM219 730q11 0 16.5 -5.5t9.5 -10.5l76 -109q4 -5 0 -12.5t-14 -7.5h-40q-14 0 -19.5 3.5t-10.5 8.5l-108 112q-5 5 -2 13t13 8h79z" />
    <glyph glyph-name="oacute" unicode="&#xf3;" 
d="M275 510q45 0 81.5 -15t63 -40.5t42 -60.5t18.5 -74q2 -30 2 -70t-2 -70q-3 -39 -18.5 -74t-42 -60.5t-63 -40.5t-81.5 -15t-81.5 15t-63 40.5t-42 60.5t-18.5 74q-2 30 -2 70t2 70q3 39 18.5 74t42 60.5t63 40.5t81.5 15zM275 80q52 0 82 30t33 70q2 31 2 70t-2 70
q-3 40 -33 70t-82 30t-82 -30t-33 -70q-2 -31 -2 -70t2 -70q3 -40 33 -70t82 -30zM409 730q10 0 13 -8t-2 -13l-108 -112q-5 -5 -10.5 -8.5t-19.5 -3.5h-40q-10 0 -14 7.5t0 12.5l76 109q4 5 9.5 10.5t16.5 5.5h79z" />
    <glyph glyph-name="ocircumflex" unicode="&#xf4;" 
d="M275 510q45 0 81.5 -15t63 -40.5t42 -60.5t18.5 -74q2 -30 2 -70t-2 -70q-3 -39 -18.5 -74t-42 -60.5t-63 -40.5t-81.5 -15t-81.5 15t-63 40.5t-42 60.5t-18.5 74q-2 30 -2 70t2 70q3 39 18.5 74t42 60.5t63 40.5t81.5 15zM275 80q52 0 82 30t33 70q2 31 2 70t-2 70
q-3 40 -33 70t-82 30t-82 -30t-33 -70q-2 -31 -2 -70t2 -70q3 -40 33 -70t82 -30zM217 601q-5 -5 -12.5 -10.5t-18.5 -5.5h-59q-10 0 -13 8t2 13l108 112q5 5 10.5 8.5t19.5 3.5h42q13 0 18.5 -3.5t10.5 -8.5l108 -112q5 -5 2 -13t-13 -8h-59q-11 0 -18.5 5.5t-12.5 10.5
l-51 49q-7 7 -14 0z" />
    <glyph glyph-name="otilde" unicode="&#xf5;" 
d="M275 510q45 0 81.5 -15t63 -40.5t42 -60.5t18.5 -74q2 -30 2 -70t-2 -70q-3 -39 -18.5 -74t-42 -60.5t-63 -40.5t-81.5 -15t-81.5 15t-63 40.5t-42 60.5t-18.5 74q-2 30 -2 70t2 70q3 39 18.5 74t42 60.5t63 40.5t81.5 15zM275 80q52 0 82 30t33 70q2 31 2 70t-2 70
q-3 40 -33 70t-82 30t-82 -30t-33 -70q-2 -31 -2 -70t2 -70q3 -40 33 -70t82 -30zM345 684q19 0 29.5 6.5t16.5 14.5t15.5 4t9.5 -18v-40q0 -20 -20.5 -35.5t-50.5 -15.5q-24 0 -39.5 4t-29 8.5t-30 8.5t-41.5 4q-17 0 -27.5 -5.5t-18.5 -15.5q-6 -7 -15.5 -3.5t-9.5 17.5
v40q0 20 20.5 35.5t50.5 15.5q24 0 39.5 -4t29 -8.5t29.5 -8.5t42 -4z" />
    <glyph glyph-name="odieresis" unicode="&#xf6;" 
d="M275 510q45 0 81.5 -15t63 -40.5t42 -60.5t18.5 -74q2 -30 2 -70t-2 -70q-3 -39 -18.5 -74t-42 -60.5t-63 -40.5t-81.5 -15t-81.5 15t-63 40.5t-42 60.5t-18.5 74q-2 30 -2 70t2 70q3 39 18.5 74t42 60.5t63 40.5t81.5 15zM275 80q52 0 82 30t33 70q2 31 2 70t-2 70
q-3 40 -33 70t-82 30t-82 -30t-33 -70q-2 -31 -2 -70t2 -70q3 -40 33 -70t82 -30zM239 622q0 -16 -16 -16h-68q-16 0 -16 16v69q0 6 4.5 11t11.5 5h68q7 0 11.5 -5t4.5 -11v-69zM410 622q0 -16 -16 -16h-68q-16 0 -16 16v69q0 6 4.5 11t11.5 5h68q7 0 11.5 -5t4.5 -11v-69z
" />
    <glyph glyph-name="divide" unicode="&#xf7;" 
d="M485 222q0 -8 -6 -14t-14 -6h-380q-8 0 -14 6t-6 14v55q0 8 6 14t14 6h380q8 0 14 -6t6 -14v-55zM343 20q0 -8 -6 -14t-14 -6h-83q-8 0 -14 6t-6 14v83q0 8 6 14t14 6h83q8 0 14 -6t6 -14v-83zM323 490q8 0 14 -6t6 -14v-83q0 -8 -6 -14t-14 -6h-83q-8 0 -14 6t-6 14v83
q0 8 6 14t14 6h83z" />
    <glyph glyph-name="oslash" unicode="&#xf8;" 
d="M275 510q71 0 121 -36q2 -1 3.5 -2t5.5 3l9 10q12 15 24 15h47q10 0 16 -10.5t-2 -19.5l-42 -51q-4 -5 -3 -8.5t2 -5.5q8 -20 15 -41t9 -44q2 -30 2 -70t-2 -70q-3 -39 -18.5 -74t-42 -60.5t-63 -40.5t-81.5 -15q-38 0 -70 10.5t-57 29.5q-2 1 -4 2.5t-5 -3.5l-11 -14
q-5 -7 -10 -11t-15 -4h-48q-10 0 -16 11t2 21l49 58q4 5 3 7l-2 4q-18 36 -21 79q-2 30 -2 70t2 70q3 39 18.5 74t42 60.5t63 40.5t81.5 15zM275 80q52 0 82 30t33 70q2 31 2 70t-2 70q0 3 -2.5 6.5t-6.5 -1.5l-176 -215q-2 -3 -1.5 -6t2.5 -4q28 -20 69 -20zM275 420
q-52 0 -82 -30t-33 -70q-2 -29 -2 -66t2 -68q0 -2 2 -3.5t5 1.5l172 210q2 3 1.5 6t-2.5 4q-29 16 -63 16z" />
    <glyph glyph-name="ugrave" unicode="&#xf9;" 
d="M372 23q-11 0 -18.5 -5t-18 -11.5t-26.5 -11.5t-44 -5q-42 0 -77 14t-60 39.5t-39 60.5t-14 76v300q0 8 6 14t14 6h50q8 0 14 -6t6 -14v-300q0 -44 29 -72t81 -28q47 0 78.5 25.5t31.5 69.5v305q0 8 6 14t14 6h50q8 0 14 -6t6 -14v-460q0 -8 -6 -14t-14 -6h-44
q-7 0 -14 7q-5 5 -11 10.5t-14 5.5zM219 730q11 0 16.5 -5.5t9.5 -10.5l76 -109q4 -5 0 -12.5t-14 -7.5h-40q-14 0 -19.5 3.5t-10.5 8.5l-108 112q-5 5 -2 13t13 8h79z" />
    <glyph glyph-name="uacute" unicode="&#xfa;" 
d="M372 23q-11 0 -18.5 -5t-18 -11.5t-26.5 -11.5t-44 -5q-42 0 -77 14t-60 39.5t-39 60.5t-14 76v300q0 8 6 14t14 6h50q8 0 14 -6t6 -14v-300q0 -44 29 -72t81 -28q47 0 78.5 25.5t31.5 69.5v305q0 8 6 14t14 6h50q8 0 14 -6t6 -14v-460q0 -8 -6 -14t-14 -6h-44
q-7 0 -14 7q-5 5 -11 10.5t-14 5.5zM409 730q10 0 13 -8t-2 -13l-108 -112q-5 -5 -10.5 -8.5t-19.5 -3.5h-40q-10 0 -14 7.5t0 12.5l76 109q4 5 9.5 10.5t16.5 5.5h79z" />
    <glyph glyph-name="ucircumflex" unicode="&#xfb;" 
d="M372 23q-11 0 -18.5 -5t-18 -11.5t-26.5 -11.5t-44 -5q-42 0 -77 14t-60 39.5t-39 60.5t-14 76v300q0 8 6 14t14 6h50q8 0 14 -6t6 -14v-300q0 -44 29 -72t81 -28q47 0 78.5 25.5t31.5 69.5v305q0 8 6 14t14 6h50q8 0 14 -6t6 -14v-460q0 -8 -6 -14t-14 -6h-44
q-7 0 -14 7q-5 5 -11 10.5t-14 5.5zM217 601q-5 -5 -12.5 -10.5t-18.5 -5.5h-59q-10 0 -13 8t2 13l108 112q5 5 10.5 8.5t19.5 3.5h42q13 0 18.5 -3.5t10.5 -8.5l108 -112q5 -5 2 -13t-13 -8h-59q-11 0 -18.5 5.5t-12.5 10.5l-51 49q-7 7 -14 0z" />
    <glyph glyph-name="udieresis" unicode="&#xfc;" 
d="M372 23q-11 0 -18.5 -5t-18 -11.5t-26.5 -11.5t-44 -5q-42 0 -77 14t-60 39.5t-39 60.5t-14 76v300q0 8 6 14t14 6h50q8 0 14 -6t6 -14v-300q0 -44 29 -72t81 -28q47 0 78.5 25.5t31.5 69.5v305q0 8 6 14t14 6h50q8 0 14 -6t6 -14v-460q0 -8 -6 -14t-14 -6h-44
q-7 0 -14 7q-5 5 -11 10.5t-14 5.5zM241 622q0 -16 -16 -16h-68q-16 0 -16 16v69q0 6 4.5 11t11.5 5h68q7 0 11.5 -5t4.5 -11v-69zM412 622q0 -16 -16 -16h-68q-16 0 -16 16v69q0 6 4.5 11t11.5 5h68q7 0 11.5 -5t4.5 -11v-69z" />
    <glyph glyph-name="yacute" unicode="&#xfd;" 
d="M399 485q5 15 19 15h59q12 0 17 -7.5t2 -15.5l-254 -662q-5 -15 -19 -15h-54q-12 0 -17 7.5t-2 15.5l74 204q3 8 1 13l-172 437q-3 8 2 15.5t17 7.5h61q14 0 19 -15l123 -325q4 -10 8 0zM409 730q10 0 13 -8t-2 -13l-108 -112q-5 -5 -10.5 -8.5t-19.5 -3.5h-40
q-10 0 -14 7.5t0 12.5l76 109q4 5 9.5 10.5t16.5 5.5h79z" />
    <glyph glyph-name="thorn" unicode="&#xfe;" 
d="M285 420q-52 0 -82 -30t-33 -70q-2 -31 -2 -70t2 -70q3 -40 33 -70t82 -30t82 30t33 70q2 31 2 70t-2 70q-3 40 -33 70t-82 30zM90 687q0 8 6 14t14 6h50q8 0 14 -6t6 -14v-181q0 -7 5.5 -14t16.5 -7q7 0 16 4t20.5 8.5t25.5 8.5t31 4q39 0 72.5 -15t58.5 -40.5
t40.5 -60.5t18.5 -74q2 -30 2 -70t-2 -70q-3 -39 -18.5 -74t-40.5 -60.5t-58.5 -40.5t-72.5 -15q-17 0 -30.5 4t-25 8.5t-20.5 8.5t-17 4q-11 0 -16.5 -7t-5.5 -14v-174q0 -8 -6 -14t-14 -6h-50q-8 0 -14 6t-6 14v867z" />
    <glyph glyph-name="ydieresis" unicode="&#xff;" 
d="M399 485q5 15 19 15h59q12 0 17 -7.5t2 -15.5l-254 -662q-5 -15 -19 -15h-54q-12 0 -17 7.5t-2 15.5l74 204q3 8 1 13l-172 437q-3 8 2 15.5t17 7.5h61q14 0 19 -15l123 -325q4 -10 8 0zM239 622q0 -16 -16 -16h-68q-16 0 -16 16v69q0 6 4.5 11t11.5 5h68q7 0 11.5 -5
t4.5 -11v-69zM410 622q0 -16 -16 -16h-68q-16 0 -16 16v69q0 6 4.5 11t11.5 5h68q7 0 11.5 -5t4.5 -11v-69z" />
    <glyph glyph-name="Amacron" unicode="&#x100;" 
d="M129 15q-5 -15 -19 -15h-55q-12 0 -17 6.5t-3 13.5l186 665q3 15 19 15h70q16 0 19 -15l186 -665q2 -7 -3 -13.5t-17 -6.5h-55q-14 0 -19 15l-44 153q-3 14 -19 14h-166q-14 0 -19 -14zM205 286q-3 -11 8 -11h124q11 0 8 11l-65 279q-2 6 -4 6h-2q-3 0 -4 -6zM154 761
q-8 0 -14 6t-6 14v38q0 8 6 14t14 6h242q8 0 14 -6t6 -14v-38q0 -8 -6 -14t-14 -6h-242z" />
    <glyph glyph-name="amacron" unicode="&#x101;" 
d="M249 220q-38 0 -56.5 -18.5t-18.5 -50.5q0 -37 22.5 -57.5t66.5 -20.5q69 0 97.5 27t28.5 78v32q0 10 -10 10h-130zM288 424q-12 0 -28.5 -2t-30.5 -8.5t-24 -17.5t-10 -29q0 -13 -8 -15t-15 -2h-45q-20 0 -20 20q0 35 16.5 61t42.5 43.5t58 26.5t64 9q37 0 70 -9.5
t58 -29t40 -49.5t15 -72v-330q0 -8 -6 -14t-14 -6h-34q-8 0 -14 7q-5 6 -8.5 13.5t-11.5 7.5q-7 0 -15.5 -6t-22 -13t-32.5 -13t-47 -6q-46 0 -80.5 13t-57 35t-33.5 51t-11 61q0 31 11 58.5t32 48.5t52 33t70 12h122q10 0 10 10v33q0 41 -27.5 60t-65.5 19zM174 616
q-8 0 -14 6t-6 14v38q0 8 6 14t14 6h242q8 0 14 -6t6 -14v-38q0 -8 -6 -14t-14 -6h-242z" />
    <glyph glyph-name="Abreve" unicode="&#x102;" 
d="M129 15q-5 -15 -19 -15h-55q-12 0 -17 6.5t-3 13.5l186 665q3 15 19 15h70q16 0 19 -15l186 -665q2 -7 -3 -13.5t-17 -6.5h-55q-14 0 -19 15l-44 153q-3 14 -19 14h-166q-14 0 -19 -14zM205 286q-3 -11 8 -11h124q11 0 8 11l-65 279q-2 6 -4 6h-2q-3 0 -4 -6zM335 878
q0 7 4.5 12t12.5 5h43q7 0 12 -5t5 -12q0 -27 -10 -50t-28.5 -40.5t-43.5 -27.5t-55 -10t-55.5 10t-44 27.5t-28.5 40.5t-10 50q0 7 5 12t12 5h43q8 0 12.5 -5t4.5 -12q0 -23 19 -39.5t42 -16.5t41.5 16.5t18.5 39.5z" />
    <glyph glyph-name="abreve" unicode="&#x103;" 
d="M249 220q-38 0 -56.5 -18.5t-18.5 -50.5q0 -37 22.5 -57.5t66.5 -20.5q69 0 97.5 27t28.5 78v32q0 10 -10 10h-130zM288 424q-12 0 -28.5 -2t-30.5 -8.5t-24 -17.5t-10 -29q0 -13 -8 -15t-15 -2h-45q-20 0 -20 20q0 35 16.5 61t42.5 43.5t58 26.5t64 9q37 0 70 -9.5
t58 -29t40 -49.5t15 -72v-330q0 -8 -6 -14t-14 -6h-34q-8 0 -14 7q-5 6 -8.5 13.5t-11.5 7.5q-7 0 -15.5 -6t-22 -13t-32.5 -13t-47 -6q-46 0 -80.5 13t-57 35t-33.5 51t-11 61q0 31 11 58.5t32 48.5t52 33t70 12h122q10 0 10 10v33q0 41 -27.5 60t-65.5 19zM355 713
q0 7 4.5 12t12.5 5h43q7 0 12 -5t5 -12q0 -27 -10 -50t-28.5 -40.5t-43.5 -27.5t-55 -10t-55.5 10t-44 27.5t-28.5 40.5t-10 50q0 7 5 12t12 5h43q8 0 12.5 -5t4.5 -12q0 -23 19 -39.5t42 -16.5t41.5 16.5t18.5 39.5z" />
    <glyph glyph-name="Aogonek" unicode="&#x104;" 
d="M280 565q-2 6 -4 6h-2q-3 0 -4 -6l-65 -279q-3 -11 8 -11h124q11 0 8 11zM515 20q5 -20 -27 -20q-33 0 -53.5 -18.5t-20.5 -50.5q0 -66 76 -66q8 0 14 -6t6 -14v-35q0 -8 -6 -14t-14 -6q-70 0 -114.5 34t-44.5 102q0 45 23 76.5t56 49.5l-33 116q-3 14 -19 14h-166
q-14 0 -19 -14l-44 -153q-5 -15 -19 -15h-55q-12 0 -17 6.5t-3 13.5l186 665q3 15 19 15h70q16 0 19 -15z" />
    <glyph glyph-name="aogonek" unicode="&#x105;" 
d="M451 0q-33 0 -57 -18t-24 -51q0 -66 76 -66q8 0 14 -6t6 -14v-35q0 -8 -6 -14t-14 -6q-70 0 -114.5 34t-44.5 102q0 19 10.5 42.5t24.5 35.5q-10 -6 -27.5 -10t-28.5 -4q-46 0 -80.5 13t-57 35t-33.5 51t-11 61q0 31 11 58.5t32 48.5t52 33t70 12h122q10 0 10 10v33
q0 41 -27.5 60t-65.5 19q-12 0 -28.5 -2t-30.5 -8.5t-24 -17.5t-10 -29q0 -13 -8 -15t-15 -2h-45q-20 0 -20 20q0 35 16.5 61t42.5 43.5t58 26.5t64 9q37 0 70 -9.5t58 -29t40 -49.5t15 -72v-330q0 -8 -6 -14t-14 -6zM249 220q-37 0 -56 -18.5t-19 -50.5q0 -37 22.5 -57.5
t66.5 -20.5q69 0 97.5 27t28.5 78v32q0 10 -10 10h-130z" />
    <glyph glyph-name="Cacute" unicode="&#x106;" 
d="M283 87q25 0 48.5 7.5t41.5 21.5t29 35.5t11 48.5q0 11 2.5 22.5t17.5 11.5h55q8 0 14 -6t6 -14q0 -44 -15 -84t-44 -71t-70.5 -49t-95.5 -18q-45 0 -83.5 14.5t-68 41.5t-48.5 65.5t-25 86.5q-4 30 -6 69.5t-2 81t2 80.5t6 69q5 41 22 78.5t45.5 66.5t68 46t89.5 17
q49 0 90 -15.5t71 -44t47 -69.5t17 -93q0 -8 -6 -14t-14 -6h-55q-8 0 -14 6t-6 14q0 25 -7.5 47.5t-23.5 40t-40.5 28.5t-58.5 11q-49 0 -86 -29t-44 -84q-4 -31 -6 -70t-2 -80t2 -80t6 -70q3 -22 12.5 -42.5t26 -36t39.5 -25t52 -9.5zM419 895q10 0 13 -8t-2 -13l-108 -112
q-5 -5 -10.5 -8.5t-19.5 -3.5h-40q-10 0 -14 7.5t0 12.5l76 109q4 5 9.5 10.5t16.5 5.5h79z" />
    <glyph glyph-name="cacute" unicode="&#x107;" 
d="M280 80q46 0 74 24t28 59q0 10 6 13.5t13 3.5h52q8 0 14 -6t6 -14q0 -36 -14.5 -67.5t-40 -54t-61 -35.5t-77.5 -13q-45 0 -81 15t-61.5 40.5t-40 60.5t-17.5 74q-2 30 -2 70t2 70q3 39 17.5 74t40 60.5t61.5 40.5t81 15q42 0 77.5 -13t61 -35.5t40 -54t14.5 -67.5
q0 -8 -4.5 -14t-12.5 -6h-54q-7 0 -13 4t-6 12q0 35 -28 59.5t-75 24.5q-52 0 -79.5 -30t-30.5 -70q-2 -31 -2 -70t2 -70q3 -40 30.5 -70t79.5 -30zM409 730q10 0 13 -8t-2 -13l-108 -112q-5 -5 -10.5 -8.5t-19.5 -3.5h-40q-10 0 -14 7.5t0 12.5l76 109q4 5 9.5 10.5
t16.5 5.5h79z" />
    <glyph glyph-name="Ccircumflex" unicode="&#x108;" 
d="M283 87q25 0 48.5 7.5t41.5 21.5t29 35.5t11 48.5q0 11 2.5 22.5t17.5 11.5h55q8 0 14 -6t6 -14q0 -44 -15 -84t-44 -71t-70.5 -49t-95.5 -18q-45 0 -83.5 14.5t-68 41.5t-48.5 65.5t-25 86.5q-4 30 -6 69.5t-2 81t2 80.5t6 69q5 41 22 78.5t45.5 66.5t68 46t89.5 17
q49 0 90 -15.5t71 -44t47 -69.5t17 -93q0 -8 -6 -14t-14 -6h-55q-8 0 -14 6t-6 14q0 25 -7.5 47.5t-23.5 40t-40.5 28.5t-58.5 11q-49 0 -86 -29t-44 -84q-4 -31 -6 -70t-2 -80t2 -80t6 -70q3 -22 12.5 -42.5t26 -36t39.5 -25t52 -9.5zM227 766q-5 -5 -12.5 -10.5
t-18.5 -5.5h-59q-10 0 -13 8t2 13l108 112q5 5 10.5 8.5t19.5 3.5h42q13 0 18.5 -3.5t10.5 -8.5l108 -112q5 -5 2 -13t-13 -8h-59q-11 0 -18.5 5.5t-12.5 10.5l-51 49q-7 7 -14 0z" />
    <glyph glyph-name="ccircumflex" unicode="&#x109;" 
d="M280 80q46 0 74 24t28 59q0 10 6 13.5t13 3.5h52q8 0 14 -6t6 -14q0 -36 -14.5 -67.5t-40 -54t-61 -35.5t-77.5 -13q-45 0 -81 15t-61.5 40.5t-40 60.5t-17.5 74q-2 30 -2 70t2 70q3 39 17.5 74t40 60.5t61.5 40.5t81 15q42 0 77.5 -13t61 -35.5t40 -54t14.5 -67.5
q0 -8 -4.5 -14t-12.5 -6h-54q-7 0 -13 4t-6 12q0 35 -28 59.5t-75 24.5q-52 0 -79.5 -30t-30.5 -70q-2 -31 -2 -70t2 -70q3 -40 30.5 -70t79.5 -30zM217 601q-5 -5 -12.5 -10.5t-18.5 -5.5h-59q-10 0 -13 8t2 13l108 112q5 5 10.5 8.5t19.5 3.5h42q13 0 18.5 -3.5t10.5 -8.5
l108 -112q5 -5 2 -13t-13 -8h-59q-11 0 -18.5 5.5t-12.5 10.5l-51 49q-7 7 -14 0z" />
    <glyph glyph-name="Cdotaccent" unicode="&#x10a;" 
d="M283 87q25 0 48.5 7.5t41.5 21.5t29 35.5t11 48.5q0 11 2.5 22.5t17.5 11.5h55q8 0 14 -6t6 -14q0 -44 -15 -84t-44 -71t-70.5 -49t-95.5 -18q-45 0 -83.5 14.5t-68 41.5t-48.5 65.5t-25 86.5q-4 30 -6 69.5t-2 81t2 80.5t6 69q5 41 22 78.5t45.5 66.5t68 46t89.5 17
q49 0 90 -15.5t71 -44t47 -69.5t17 -93q0 -8 -6 -14t-14 -6h-55q-8 0 -14 6t-6 14q0 25 -7.5 47.5t-23.5 40t-40.5 28.5t-58.5 11q-49 0 -86 -29t-44 -84q-4 -31 -6 -70t-2 -80t2 -80t6 -70q3 -22 12.5 -42.5t26 -36t39.5 -25t52 -9.5zM336 766q0 -16 -16 -16h-68
q-16 0 -16 16v69q0 6 4.5 11t11.5 5h68q7 0 11.5 -5t4.5 -11v-69z" />
    <glyph glyph-name="cdotaccent" unicode="&#x10b;" 
d="M280 80q46 0 74 24t28 59q0 10 6 13.5t13 3.5h52q8 0 14 -6t6 -14q0 -36 -14.5 -67.5t-40 -54t-61 -35.5t-77.5 -13q-45 0 -81 15t-61.5 40.5t-40 60.5t-17.5 74q-2 30 -2 70t2 70q3 39 17.5 74t40 60.5t61.5 40.5t81 15q42 0 77.5 -13t61 -35.5t40 -54t14.5 -67.5
q0 -8 -4.5 -14t-12.5 -6h-54q-7 0 -13 4t-6 12q0 35 -28 59.5t-75 24.5q-52 0 -79.5 -30t-30.5 -70q-2 -31 -2 -70t2 -70q3 -40 30.5 -70t79.5 -30zM335 622q0 -16 -16 -16h-68q-16 0 -16 16v69q0 6 4.5 11t11.5 5h68q7 0 11.5 -5t4.5 -11v-69z" />
    <glyph glyph-name="Ccaron" unicode="&#x10c;" 
d="M283 87q25 0 48.5 7.5t41.5 21.5t29 35.5t11 48.5q0 11 2.5 22.5t17.5 11.5h55q8 0 14 -6t6 -14q0 -44 -15 -84t-44 -71t-70.5 -49t-95.5 -18q-45 0 -83.5 14.5t-68 41.5t-48.5 65.5t-25 86.5q-4 30 -6 69.5t-2 81t2 80.5t6 69q5 41 22 78.5t45.5 66.5t68 46t89.5 17
q49 0 90 -15.5t71 -44t47 -69.5t17 -93q0 -8 -6 -14t-14 -6h-55q-8 0 -14 6t-6 14q0 25 -7.5 47.5t-23.5 40t-40.5 28.5t-58.5 11q-49 0 -86 -29t-44 -84q-4 -31 -6 -70t-2 -80t2 -80t6 -70q3 -22 12.5 -42.5t26 -36t39.5 -25t52 -9.5zM267 830q7 -7 14 0l51 49
q5 5 12.5 10.5t18.5 5.5h59q10 0 13 -8t-2 -13l-108 -112q-5 -5 -10.5 -8.5t-18.5 -3.5h-42q-14 0 -19.5 3.5t-10.5 8.5l-108 112q-5 5 -2 13t13 8h59q11 0 18.5 -5.5t12.5 -10.5z" />
    <glyph glyph-name="ccaron" unicode="&#x10d;" 
d="M280 80q46 0 74 24t28 59q0 10 6 13.5t13 3.5h52q8 0 14 -6t6 -14q0 -36 -14.5 -67.5t-40 -54t-61 -35.5t-77.5 -13q-45 0 -81 15t-61.5 40.5t-40 60.5t-17.5 74q-2 30 -2 70t2 70q3 39 17.5 74t40 60.5t61.5 40.5t81 15q42 0 77.5 -13t61 -35.5t40 -54t14.5 -67.5
q0 -8 -4.5 -14t-12.5 -6h-54q-7 0 -13 4t-6 12q0 35 -28 59.5t-75 24.5q-52 0 -79.5 -30t-30.5 -70q-2 -31 -2 -70t2 -70q3 -40 30.5 -70t79.5 -30zM267 665q7 -7 14 0l51 49q5 5 12.5 10.5t18.5 5.5h59q10 0 13 -8t-2 -13l-108 -112q-5 -5 -10.5 -8.5t-18.5 -3.5h-42
q-14 0 -19.5 3.5t-10.5 8.5l-108 112q-5 5 -2 13t13 8h59q11 0 18.5 -5.5t12.5 -10.5z" />
    <glyph glyph-name="Dcaron" unicode="&#x10e;" 
d="M91 0q-8 0 -14 6t-6 14v660q0 8 6 14t14 6h190q43 0 79.5 -16.5t63.5 -45t44.5 -67t22.5 -81.5q4 -30 5.5 -66.5t1.5 -74t-2 -73.5t-5 -66q-5 -43 -22 -81.5t-44.5 -67t-64 -45t-79.5 -16.5h-190zM281 95q23 0 43 9.5t35 25.5t24.5 36.5t12.5 43.5q4 30 5.5 66t1.5 73.5
t-1.5 74t-5.5 66.5q-3 22 -12.5 43t-24.5 37t-35 25.5t-43 9.5h-105q-10 0 -10 -10v-490q0 -10 10 -10h105zM257 830q7 -7 14 0l51 49q5 5 12.5 10.5t18.5 5.5h59q10 0 13 -8t-2 -13l-108 -112q-5 -5 -10.5 -8.5t-18.5 -3.5h-42q-14 0 -19.5 3.5t-10.5 8.5l-108 112
q-5 5 -2 13t13 8h59q11 0 18.5 -5.5t12.5 -10.5z" />
    <glyph glyph-name="dcaron" unicode="&#x10f;" 
d="M264 80q52 0 82 30t33 70q2 31 2 70t-2 70q-3 40 -33 70t-82 30t-82 -30t-33 -70q-2 -31 -2 -70t2 -70q3 -40 33 -70t82 -30zM254 -10q-39 0 -72.5 15t-58.5 40.5t-40.5 60.5t-18.5 74q-2 30 -2 70t2 70q3 39 18.5 74t40.5 60.5t58.5 40.5t72.5 15q17 0 31 -4t25 -8.5
t20 -8.5t17 -4q11 0 16.5 5.5t5.5 19.5v177q0 8 6 14t14 6h50q8 0 14 -6t6 -14v-667q0 -8 -6 -14t-14 -6h-34q-7 0 -14 7q-5 5 -11 10.5t-14 5.5q-11 0 -19.5 -5t-19.5 -11.5t-28 -11.5t-45 -5zM541 599q-8 0 -14 6t-6 14v61q0 8 6 14t14 6h70q8 0 14 -6t6 -14v-61
q0 -20 -5.5 -34.5t-14.5 -27.5l-32 -46q-3 -5 -9 -10t-17 -5h-9q-14 0 -19 11t1 22l31 57q3 5 -0.5 9t-8.5 4h-7z" />
    <glyph glyph-name="Dcroat" unicode="&#x110;" 
d="M71 680q0 8 6 14t14 6h190q43 0 79.5 -16.5t63.5 -45t44.5 -67t22.5 -81.5q4 -30 5.5 -66.5t1.5 -74t-2 -73.5t-5 -66q-5 -43 -22 -81.5t-44.5 -67t-64 -45t-79.5 -16.5h-190q-8 0 -14 6t-6 14v280q0 10 -10 10h-32q-8 0 -14 6t-6 14v55q0 8 6 14t14 6h32q10 0 10 10v265
zM166 415q0 -10 10 -10h100q8 0 14 -6t6 -14v-55q0 -8 -6 -14t-14 -6h-100q-10 0 -10 -10v-195q0 -10 10 -10h105q23 0 43 9.5t35 25.5t24.5 36.5t12.5 43.5q4 30 5.5 66t1.5 73.5t-1.5 74t-5.5 66.5q-3 22 -12.5 43t-24.5 37t-35 25.5t-43 9.5h-105q-10 0 -10 -10v-180z
" />
    <glyph glyph-name="dcroat" unicode="&#x111;" 
d="M265 80q52 0 82 30t33 70q2 31 2 70t-2 70q-3 40 -33 70t-82 30t-82 -30t-33 -70q-2 -31 -2 -70t2 -70q3 -40 33 -70t82 -30zM370 547q0 10 -10 10h-70q-8 0 -14 6t-6 14v40q0 8 6 14t14 6h70q10 0 10 10v40q0 8 6 14t14 6h50q8 0 14 -6t6 -14v-40q0 -10 10 -10h25
q8 0 14 -6t6 -14v-40q0 -8 -6 -14t-14 -6h-25q-10 0 -10 -10v-527q0 -8 -6 -14t-14 -6h-34q-7 0 -14 7q-5 5 -11 10.5t-14 5.5q-11 0 -19.5 -5t-19.5 -11.5t-28 -11.5t-45 -5q-39 0 -72.5 15t-58.5 40.5t-40.5 60.5t-18.5 74q-2 30 -2 70t2 70q3 39 18.5 74t40.5 60.5
t58.5 40.5t72.5 15q17 0 31 -4t25 -8.5t20 -8.5t17 -4q11 0 16.5 5.5t5.5 19.5v37z" />
    <glyph glyph-name="Emacron" unicode="&#x112;" 
d="M202 415q0 -10 10 -10h237q8 0 14 -6t6 -14v-55q0 -8 -6 -14t-14 -6h-237q-10 0 -10 -10v-195q0 -10 10 -10h250q8 0 14 -6t6 -14v-55q0 -8 -6 -14t-14 -6h-335q-8 0 -14 6t-6 14v660q0 8 6 14t14 6h333q8 0 14 -6t6 -14v-55q0 -8 -6 -14t-14 -6h-248q-10 0 -10 -10v-180
zM174 761q-8 0 -14 6t-6 14v38q0 8 6 14t14 6h242q8 0 14 -6t6 -14v-38q0 -8 -6 -14t-14 -6h-242z" />
    <glyph glyph-name="emacron" unicode="&#x113;" 
d="M163 211q0 -69 32 -100t84 -31q39 0 66.5 17.5t36.5 45.5q3 10 9.5 13.5t13.5 3.5h51q8 0 13.5 -4.5t3.5 -15.5q-5 -33 -21 -60.5t-41.5 -47.5t-59 -31t-72.5 -11q-45 0 -81.5 15t-63 40.5t-42 60.5t-18.5 74q-2 30 -2 70t2 70q3 39 18.5 74t42 60.5t63 40.5t81.5 15
q91 0 145.5 -53t54.5 -147v-69q0 -8 -6 -14t-14 -6h-286q-10 0 -10 -10zM165 311q0 -10 10 -10h208q10 0 10 10q0 52 -33 80.5t-80 28.5q-52 0 -83.5 -31.5t-31.5 -77.5zM159 616q-8 0 -14 6t-6 14v38q0 8 6 14t14 6h242q8 0 14 -6t6 -14v-38q0 -8 -6 -14t-14 -6h-242z" />
    <glyph glyph-name="Ebreve" unicode="&#x114;" 
d="M202 415q0 -10 10 -10h237q8 0 14 -6t6 -14v-55q0 -8 -6 -14t-14 -6h-237q-10 0 -10 -10v-195q0 -10 10 -10h250q8 0 14 -6t6 -14v-55q0 -8 -6 -14t-14 -6h-335q-8 0 -14 6t-6 14v660q0 8 6 14t14 6h333q8 0 14 -6t6 -14v-55q0 -8 -6 -14t-14 -6h-248q-10 0 -10 -10v-180
zM355 878q0 7 4.5 12t12.5 5h43q7 0 12 -5t5 -12q0 -27 -10 -50t-28.5 -40.5t-43.5 -27.5t-55 -10t-55.5 10t-44 27.5t-28.5 40.5t-10 50q0 7 5 12t12 5h43q8 0 12.5 -5t4.5 -12q0 -23 19 -39.5t42 -16.5t41.5 16.5t18.5 39.5z" />
    <glyph glyph-name="ebreve" unicode="&#x115;" 
d="M163 211q0 -69 32 -100t84 -31q39 0 66.5 17.5t36.5 45.5q3 10 9.5 13.5t13.5 3.5h51q8 0 13.5 -4.5t3.5 -15.5q-5 -33 -21 -60.5t-41.5 -47.5t-59 -31t-72.5 -11q-45 0 -81.5 15t-63 40.5t-42 60.5t-18.5 74q-2 30 -2 70t2 70q3 39 18.5 74t42 60.5t63 40.5t81.5 15
q91 0 145.5 -53t54.5 -147v-69q0 -8 -6 -14t-14 -6h-286q-10 0 -10 -10zM165 311q0 -10 10 -10h208q10 0 10 10q0 52 -33 80.5t-80 28.5q-52 0 -83.5 -31.5t-31.5 -77.5zM335 713q0 7 4.5 12t12.5 5h43q7 0 12 -5t5 -12q0 -27 -10 -50t-28.5 -40.5t-43.5 -27.5t-55 -10
t-55.5 10t-44 27.5t-28.5 40.5t-10 50q0 7 5 12t12 5h43q8 0 12.5 -5t4.5 -12q0 -23 19 -39.5t42 -16.5t41.5 16.5t18.5 39.5z" />
    <glyph glyph-name="Edotaccent" unicode="&#x116;" 
d="M202 415q0 -10 10 -10h237q8 0 14 -6t6 -14v-55q0 -8 -6 -14t-14 -6h-237q-10 0 -10 -10v-195q0 -10 10 -10h250q8 0 14 -6t6 -14v-55q0 -8 -6 -14t-14 -6h-335q-8 0 -14 6t-6 14v660q0 8 6 14t14 6h333q8 0 14 -6t6 -14v-55q0 -8 -6 -14t-14 -6h-248q-10 0 -10 -10v-180
zM346 766q0 -16 -16 -16h-68q-16 0 -16 16v69q0 6 4.5 11t11.5 5h68q7 0 11.5 -5t4.5 -11v-69z" />
    <glyph glyph-name="edotaccent" unicode="&#x117;" 
d="M163 211q0 -69 32 -100t84 -31q39 0 66.5 17.5t36.5 45.5q3 10 9.5 13.5t13.5 3.5h51q8 0 13.5 -4.5t3.5 -15.5q-5 -33 -21 -60.5t-41.5 -47.5t-59 -31t-72.5 -11q-45 0 -81.5 15t-63 40.5t-42 60.5t-18.5 74q-2 30 -2 70t2 70q3 39 18.5 74t42 60.5t63 40.5t81.5 15
q91 0 145.5 -53t54.5 -147v-69q0 -8 -6 -14t-14 -6h-286q-10 0 -10 -10zM165 311q0 -10 10 -10h208q10 0 10 10q0 52 -33 80.5t-80 28.5q-52 0 -83.5 -31.5t-31.5 -77.5zM330 622q0 -16 -16 -16h-68q-16 0 -16 16v69q0 6 4.5 11t11.5 5h68q7 0 11.5 -5t4.5 -11v-69z" />
    <glyph glyph-name="Eogonek" unicode="&#x118;" 
d="M202 415q0 -10 10 -10h237q8 0 14 -6t6 -14v-55q0 -8 -6 -14t-14 -6h-237q-10 0 -10 -10v-195q0 -10 10 -10h250q8 0 14 -6t6 -14v-55q0 -8 -6 -14t-14 -6q-35 0 -58 -18t-23 -51q0 -66 76 -66q8 0 14 -6t6 -14v-35q0 -8 -6 -14t-14 -6q-35 0 -64 9.5t-50 27t-33 42.5
t-12 57q0 22 7 41.5t19 32.5h-197q-8 0 -14 6t-6 14v660q0 8 6 14t14 6h333q8 0 14 -6t6 -14v-55q0 -8 -6 -14t-14 -6h-248q-10 0 -10 -10v-180z" />
    <glyph glyph-name="eogonek" unicode="&#x119;" 
d="M432 52q-13 -15 -26.5 -29.5t-24 -29.5t-17.5 -30.5t-7 -31.5q0 -66 81 -66q8 0 14 -6t6 -14v-35q0 -8 -6 -14t-14 -6q-77 0 -120.5 34t-43.5 102q0 14 5.5 31.5t14.5 33.5q-5 -1 -15 -1q-45 0 -81.5 15t-63 40.5t-42 60.5t-18.5 74q-2 30 -2 70t2 70q3 39 18.5 74
t42 60.5t63 40.5t81.5 15q91 0 145.5 -53t54.5 -147v-69q0 -8 -6 -14t-14 -6h-286q-10 0 -10 -10q0 -69 32 -100t84 -31q39 0 66.5 17.5t36.5 45.5q3 10 9.5 13.5t13.5 3.5h51q8 0 13.5 -4.5t3.5 -15.5q-8 -52 -41 -88zM165 311q0 -10 10 -10h208q10 0 10 10q0 52 -33 80.5
t-80 28.5q-52 0 -83.5 -31.5t-31.5 -77.5z" />
    <glyph glyph-name="Ecaron" unicode="&#x11a;" 
d="M202 415q0 -10 10 -10h237q8 0 14 -6t6 -14v-55q0 -8 -6 -14t-14 -6h-237q-10 0 -10 -10v-195q0 -10 10 -10h250q8 0 14 -6t6 -14v-55q0 -8 -6 -14t-14 -6h-335q-8 0 -14 6t-6 14v660q0 8 6 14t14 6h333q8 0 14 -6t6 -14v-55q0 -8 -6 -14t-14 -6h-248q-10 0 -10 -10v-180
zM287 830q7 -7 14 0l51 49q5 5 12.5 10.5t18.5 5.5h59q10 0 13 -8t-2 -13l-108 -112q-5 -5 -10.5 -8.5t-18.5 -3.5h-42q-14 0 -19.5 3.5t-10.5 8.5l-108 112q-5 5 -2 13t13 8h59q11 0 18.5 -5.5t12.5 -10.5z" />
    <glyph glyph-name="ecaron" unicode="&#x11b;" 
d="M163 211q0 -69 32 -100t84 -31q39 0 66.5 17.5t36.5 45.5q3 10 9.5 13.5t13.5 3.5h51q8 0 13.5 -4.5t3.5 -15.5q-5 -33 -21 -60.5t-41.5 -47.5t-59 -31t-72.5 -11q-45 0 -81.5 15t-63 40.5t-42 60.5t-18.5 74q-2 30 -2 70t2 70q3 39 18.5 74t42 60.5t63 40.5t81.5 15
q91 0 145.5 -53t54.5 -147v-69q0 -8 -6 -14t-14 -6h-286q-10 0 -10 -10zM165 311q0 -10 10 -10h208q10 0 10 10q0 52 -33 80.5t-80 28.5q-52 0 -83.5 -31.5t-31.5 -77.5zM267 665q7 -7 14 0l51 49q5 5 12.5 10.5t18.5 5.5h59q10 0 13 -8t-2 -13l-108 -112q-5 -5 -10.5 -8.5
t-18.5 -3.5h-42q-14 0 -19.5 3.5t-10.5 8.5l-108 112q-5 5 -2 13t13 8h59q11 0 18.5 -5.5t12.5 -10.5z" />
    <glyph glyph-name="Gcircumflex" unicode="&#x11c;" 
d="M409 284q0 10 -10 10h-91q-8 0 -14 6t-6 14v55q0 8 6 14t14 6h176q8 0 14 -6t6 -14v-169q0 -44 -16.5 -81.5t-46.5 -66t-71.5 -44.5t-90.5 -16q-45 0 -83.5 14.5t-68 41.5t-48.5 65.5t-25 86.5q-4 30 -6 69.5t-2 81t2 80.5t6 69q5 41 22 78.5t45.5 66.5t68 46t89.5 17
q45 0 86 -14t71.5 -41t49 -65.5t18.5 -87.5v-14q0 -8 -6 -14t-14 -6h-55q-8 0 -14 6t-6 14v14q0 22 -9 42.5t-26 36t-41 25t-54 9.5q-49 0 -86 -29t-44 -84q-4 -31 -6 -70t-2 -80t2 -80t6 -70q3 -22 12.5 -42.5t26 -36t39.5 -25t52 -9.5q25 0 48.5 6.5t41.5 20.5t29 35.5
t11 50.5v84zM217 766q-5 -5 -12.5 -10.5t-18.5 -5.5h-59q-10 0 -13 8t2 13l108 112q5 5 10.5 8.5t19.5 3.5h42q13 0 18.5 -3.5t10.5 -8.5l108 -112q5 -5 2 -13t-13 -8h-59q-11 0 -18.5 5.5t-12.5 10.5l-51 49q-7 7 -14 0z" />
    <glyph glyph-name="gcircumflex" unicode="&#x11d;" 
d="M444 500q8 0 14 -6t6 -14v-510q0 -36 -13.5 -69t-38 -57.5t-58 -39t-73.5 -14.5q-33 0 -64 8.5t-55.5 26t-41 43t-21.5 59.5q-3 23 18 23h48q16 0 19.5 -6t6.5 -14q10 -25 31 -37.5t59 -12.5t65.5 24.5t27.5 65.5v22q0 14 -5.5 19t-16.5 4q-8 0 -17 -4t-20 -8.5t-25 -8.5
t-31 -4q-39 0 -72.5 15t-58.5 40.5t-40.5 60.5t-18.5 74q-2 30 -2 70t2 70q3 39 18.5 74t40.5 60.5t58.5 40.5t72.5 15q28 0 45 -5t28 -11.5t19.5 -11.5t19.5 -5q8 0 14 5.5t11 10.5q7 7 14 7h34zM269 420q-52 0 -82 -30t-33 -70q-2 -31 -2 -70t2 -70q3 -40 33 -70t82 -30
t82 30t33 70q2 31 2 70t-2 70q-3 40 -33 70t-82 30zM217 601q-5 -5 -12.5 -10.5t-18.5 -5.5h-59q-10 0 -13 8t2 13l108 112q5 5 10.5 8.5t19.5 3.5h42q13 0 18.5 -3.5t10.5 -8.5l108 -112q5 -5 2 -13t-13 -8h-59q-11 0 -18.5 5.5t-12.5 10.5l-51 49q-7 7 -14 0z" />
    <glyph glyph-name="Gbreve" unicode="&#x11e;" 
d="M409 284q0 10 -10 10h-91q-8 0 -14 6t-6 14v55q0 8 6 14t14 6h176q8 0 14 -6t6 -14v-169q0 -44 -16.5 -81.5t-46.5 -66t-71.5 -44.5t-90.5 -16q-45 0 -83.5 14.5t-68 41.5t-48.5 65.5t-25 86.5q-4 30 -6 69.5t-2 81t2 80.5t6 69q5 41 22 78.5t45.5 66.5t68 46t89.5 17
q45 0 86 -14t71.5 -41t49 -65.5t18.5 -87.5v-14q0 -8 -6 -14t-14 -6h-55q-8 0 -14 6t-6 14v14q0 22 -9 42.5t-26 36t-41 25t-54 9.5q-49 0 -86 -29t-44 -84q-4 -31 -6 -70t-2 -80t2 -80t6 -70q3 -22 12.5 -42.5t26 -36t39.5 -25t52 -9.5q25 0 48.5 6.5t41.5 20.5t29 35.5
t11 50.5v84zM335 878q0 7 4.5 12t12.5 5h43q7 0 12 -5t5 -12q0 -27 -10 -50t-28.5 -40.5t-43.5 -27.5t-55 -10t-55.5 10t-44 27.5t-28.5 40.5t-10 50q0 7 5 12t12 5h43q8 0 12.5 -5t4.5 -12q0 -23 19 -39.5t42 -16.5t41.5 16.5t18.5 39.5z" />
    <glyph glyph-name="gbreve" unicode="&#x11f;" 
d="M444 500q8 0 14 -6t6 -14v-510q0 -36 -13.5 -69t-38 -57.5t-58 -39t-73.5 -14.5q-33 0 -64 8.5t-55.5 26t-41 43t-21.5 59.5q-3 23 18 23h48q16 0 19.5 -6t6.5 -14q10 -25 31 -37.5t59 -12.5t65.5 24.5t27.5 65.5v22q0 14 -5.5 19t-16.5 4q-8 0 -17 -4t-20 -8.5t-25 -8.5
t-31 -4q-39 0 -72.5 15t-58.5 40.5t-40.5 60.5t-18.5 74q-2 30 -2 70t2 70q3 39 18.5 74t40.5 60.5t58.5 40.5t72.5 15q28 0 45 -5t28 -11.5t19.5 -11.5t19.5 -5q8 0 14 5.5t11 10.5q7 7 14 7h34zM269 420q-52 0 -82 -30t-33 -70q-2 -31 -2 -70t2 -70q3 -40 33 -70t82 -30
t82 30t33 70q2 31 2 70t-2 70q-3 40 -33 70t-82 30zM335 713q0 7 4.5 12t12.5 5h43q7 0 12 -5t5 -12q0 -27 -10 -50t-28.5 -40.5t-43.5 -27.5t-55 -10t-55.5 10t-44 27.5t-28.5 40.5t-10 50q0 7 5 12t12 5h43q8 0 12.5 -5t4.5 -12q0 -23 19 -39.5t42 -16.5t41.5 16.5
t18.5 39.5z" />
    <glyph glyph-name="Gdotaccent" unicode="&#x120;" 
d="M409 284q0 10 -10 10h-91q-8 0 -14 6t-6 14v55q0 8 6 14t14 6h176q8 0 14 -6t6 -14v-169q0 -44 -16.5 -81.5t-46.5 -66t-71.5 -44.5t-90.5 -16q-45 0 -83.5 14.5t-68 41.5t-48.5 65.5t-25 86.5q-4 30 -6 69.5t-2 81t2 80.5t6 69q5 41 22 78.5t45.5 66.5t68 46t89.5 17
q45 0 86 -14t71.5 -41t49 -65.5t18.5 -87.5v-14q0 -8 -6 -14t-14 -6h-55q-8 0 -14 6t-6 14v14q0 22 -9 42.5t-26 36t-41 25t-54 9.5q-49 0 -86 -29t-44 -84q-4 -31 -6 -70t-2 -80t2 -80t6 -70q3 -22 12.5 -42.5t26 -36t39.5 -25t52 -9.5q25 0 48.5 6.5t41.5 20.5t29 35.5
t11 50.5v84zM336 766q0 -16 -16 -16h-68q-16 0 -16 16v69q0 6 4.5 11t11.5 5h68q7 0 11.5 -5t4.5 -11v-69z" />
    <glyph glyph-name="gdotaccent" unicode="&#x121;" 
d="M444 500q8 0 14 -6t6 -14v-510q0 -36 -13.5 -69t-38 -57.5t-58 -39t-73.5 -14.5q-33 0 -64 8.5t-55.5 26t-41 43t-21.5 59.5q-3 23 18 23h48q16 0 19.5 -6t6.5 -14q10 -25 31 -37.5t59 -12.5t65.5 24.5t27.5 65.5v22q0 14 -5.5 19t-16.5 4q-8 0 -17 -4t-20 -8.5t-25 -8.5
t-31 -4q-39 0 -72.5 15t-58.5 40.5t-40.5 60.5t-18.5 74q-2 30 -2 70t2 70q3 39 18.5 74t40.5 60.5t58.5 40.5t72.5 15q28 0 45 -5t28 -11.5t19.5 -11.5t19.5 -5q8 0 14 5.5t11 10.5q7 7 14 7h34zM269 420q-52 0 -82 -30t-33 -70q-2 -31 -2 -70t2 -70q3 -40 33 -70t82 -30
t82 30t33 70q2 31 2 70t-2 70q-3 40 -33 70t-82 30zM325 622q0 -16 -16 -16h-68q-16 0 -16 16v69q0 6 4.5 11t11.5 5h68q7 0 11.5 -5t4.5 -11v-69z" />
    <glyph glyph-name="Gcommaaccent" unicode="&#x122;" 
d="M409 284q0 10 -10 10h-91q-8 0 -14 6t-6 14v55q0 8 6 14t14 6h176q8 0 14 -6t6 -14v-169q0 -44 -16.5 -81.5t-46.5 -66t-71.5 -44.5t-90.5 -16q-45 0 -83.5 14.5t-68 41.5t-48.5 65.5t-25 86.5q-4 30 -6 69.5t-2 81t2 80.5t6 69q5 41 22 78.5t45.5 66.5t68 46t89.5 17
q45 0 86 -14t71.5 -41t49 -65.5t18.5 -87.5v-14q0 -8 -6 -14t-14 -6h-55q-8 0 -14 6t-6 14v14q0 22 -9 42.5t-26 36t-41 25t-54 9.5q-49 0 -86 -29t-44 -84q-4 -31 -6 -70t-2 -80t2 -80t6 -70q3 -22 12.5 -42.5t26 -36t39.5 -25t52 -9.5q25 0 48.5 6.5t41.5 20.5t29 35.5
t11 50.5v84zM241 -146q-8 0 -14 6t-6 14v61q0 8 6 14t14 6h70q8 0 14 -6t6 -14v-61q0 -20 -5.5 -34.5t-14.5 -27.5l-32 -46q-3 -5 -9 -10t-17 -5h-9q-14 0 -19 11t1 22l31 57q3 5 -0.5 9t-8.5 4h-7z" />
    <glyph glyph-name="gcommaaccent" unicode="&#x123;" 
d="M444 500q8 0 14 -6t6 -14v-510q0 -36 -13.5 -69t-38 -57.5t-58 -39t-73.5 -14.5q-33 0 -64 8.5t-55.5 26t-41 43t-21.5 59.5q-3 23 18 23h48q16 0 19.5 -6t6.5 -14q10 -25 31 -37.5t59 -12.5t65.5 24.5t27.5 65.5v22q0 14 -5.5 19t-16.5 4q-8 0 -17 -4t-20 -8.5t-25 -8.5
t-31 -4q-39 0 -72.5 15t-58.5 40.5t-40.5 60.5t-18.5 74q-2 30 -2 70t2 70q3 39 18.5 74t40.5 60.5t58.5 40.5t72.5 15q28 0 45 -5t28 -11.5t19.5 -11.5t19.5 -5q8 0 14 5.5t11 10.5q7 7 14 7h34zM269 420q-52 0 -82 -30t-33 -70q-2 -31 -2 -70t2 -70q3 -40 33 -70t82 -30
t82 30t33 70q2 31 2 70t-2 70q-3 40 -33 70t-82 30zM305 677q8 0 14 -6t6 -14v-61q0 -8 -6 -14t-14 -6h-70q-8 0 -14 6t-6 14v61q0 20 5.5 34.5t14.5 27.5l32 46q3 5 9 10t17 5h9q14 0 19 -11t-1 -22l-31 -57q-3 -5 0.5 -9t8.5 -4h7z" />
    <glyph glyph-name="Hcircumflex" unicode="&#x124;" 
d="M155 415q0 -10 10 -10h220q10 0 10 10v265q0 8 6 14t14 6h55q8 0 14 -6t6 -14v-660q0 -8 -6 -14t-14 -6h-55q-8 0 -14 6t-6 14v280q0 10 -10 10h-220q-10 0 -10 -10v-280q0 -8 -6 -14t-14 -6h-55q-8 0 -14 6t-6 14v660q0 8 6 14t14 6h55q8 0 14 -6t6 -14v-265zM217 766
q-5 -5 -12.5 -10.5t-18.5 -5.5h-59q-10 0 -13 8t2 13l108 112q5 5 10.5 8.5t19.5 3.5h42q13 0 18.5 -3.5t10.5 -8.5l108 -112q5 -5 2 -13t-13 -8h-59q-11 0 -18.5 5.5t-12.5 10.5l-51 49q-7 7 -14 0z" />
    <glyph glyph-name="hcircumflex" unicode="&#x125;" 
d="M108 0q-8 0 -14 6t-6 14v667q0 8 6 14t14 6h50q8 0 14 -6t6 -14v-181q0 -7 5.5 -14t16.5 -7q7 0 16 4t20 8.5t25 8.5t31 4q39 0 74 -15t60.5 -40.5t40.5 -60.5t15 -74v-300q0 -8 -6 -14t-14 -6h-50q-8 0 -14 6t-6 14v300q0 19 -8 37.5t-22.5 32t-34 22t-42.5 8.5
t-43 -7.5t-34 -20.5t-22 -30.5t-8 -36.5v-305q0 -8 -6 -14t-14 -6h-50zM197 766q-5 -5 -12.5 -10.5t-18.5 -5.5h-59q-10 0 -13 8t2 13l108 112q5 5 10.5 8.5t19.5 3.5h42q13 0 18.5 -3.5t10.5 -8.5l108 -112q5 -5 2 -13t-13 -8h-59q-11 0 -18.5 5.5t-12.5 10.5l-51 49
q-7 7 -14 0z" />
    <glyph glyph-name="Hbar" unicode="&#x126;" 
d="M155 415q0 -10 10 -10h220q10 0 10 10v80q0 10 -10 10h-220q-10 0 -10 -10v-80zM155 600q0 -10 10 -10h220q10 0 10 10v80q0 8 6 14t14 6h55q8 0 14 -6t6 -14v-660q0 -8 -6 -14t-14 -6h-55q-8 0 -14 6t-6 14v280q0 10 -10 10h-220q-10 0 -10 -10v-280q0 -8 -6 -14t-14 -6
h-55q-8 0 -14 6t-6 14v660q0 8 6 14t14 6h55q8 0 14 -6t6 -14v-80z" />
    <glyph glyph-name="hbar" unicode="&#x127;" 
d="M178 506q0 -7 5.5 -14t16.5 -7q7 0 16 4t20 8.5t25 8.5t31 4q39 0 74 -15t60.5 -40.5t40.5 -60.5t15 -74v-300q0 -8 -6 -14t-14 -6h-50q-8 0 -14 6t-6 14v300q0 19 -8 37.5t-22.5 32t-34 22t-42.5 8.5t-43 -7.5t-34 -20.5t-22 -30.5t-8 -36.5v-305q0 -8 -6 -14t-14 -6
h-50q-8 0 -14 6t-6 14v527q0 10 -10 10h-25q-8 0 -14 6t-6 14v40q0 8 6 14t14 6h25q10 0 10 10v40q0 8 6 14t14 6h50q8 0 14 -6t6 -14v-40q0 -10 10 -10h70q8 0 14 -6t6 -14v-40q0 -8 -6 -14t-14 -6h-70q-10 0 -10 -10v-41z" />
    <glyph glyph-name="Itilde" unicode="&#x128;" 
d="M227 603q0 10 -10 10h-110q-8 0 -14 6t-6 14v47q0 8 6 14t14 6h335q8 0 14 -6t6 -14v-47q0 -8 -6 -14t-14 -6h-110q-10 0 -10 -10v-505q0 -10 10 -10h120q8 0 14 -6t6 -14v-48q0 -8 -6 -14t-14 -6h-355q-8 0 -14 6t-6 14v48q0 8 6 14t14 6h120q10 0 10 10v505zM345 841
q19 0 29.5 6.5t16.5 14.5t15.5 4t9.5 -18v-40q0 -20 -20.5 -35.5t-50.5 -15.5q-24 0 -39.5 4t-29 8.5t-30 8.5t-41.5 4q-17 0 -27.5 -5.5t-18.5 -15.5q-6 -7 -15.5 -3.5t-9.5 17.5v40q0 20 20.5 35.5t50.5 15.5q24 0 39.5 -4t29 -8.5t29.5 -8.5t42 -4z" />
    <glyph glyph-name="itilde" unicode="&#x129;" 
d="M345 684q19 0 29.5 6.5t16.5 14.5t15.5 4t9.5 -18v-40q0 -20 -20.5 -35.5t-50.5 -15.5q-24 0 -39.5 4t-29 8.5t-30 8.5t-41.5 4q-17 0 -27.5 -5.5t-18.5 -15.5q-6 -7 -15.5 -3.5t-9.5 17.5v40q0 20 20.5 35.5t50.5 15.5q24 0 39.5 -4t29 -8.5t29.5 -8.5t42 -4zM120 415
q-8 0 -14 6t-6 14v45q0 8 6 14t14 6h203q8 0 14 -6t6 -14v-385q0 -10 10 -10h127q8 0 14 -6t6 -14v-45q0 -8 -6 -14t-14 -6h-370q-8 0 -14 6t-6 14v45q0 8 6 14t14 6h131q10 0 10 10v310q0 10 -10 10h-121z" />
    <glyph glyph-name="Imacron" unicode="&#x12a;" 
d="M227 603q0 10 -10 10h-110q-8 0 -14 6t-6 14v47q0 8 6 14t14 6h335q8 0 14 -6t6 -14v-47q0 -8 -6 -14t-14 -6h-110q-10 0 -10 -10v-505q0 -10 10 -10h120q8 0 14 -6t6 -14v-48q0 -8 -6 -14t-14 -6h-355q-8 0 -14 6t-6 14v48q0 8 6 14t14 6h120q10 0 10 10v505zM154 761
q-8 0 -14 6t-6 14v38q0 8 6 14t14 6h242q8 0 14 -6t6 -14v-38q0 -8 -6 -14t-14 -6h-242z" />
    <glyph glyph-name="imacron" unicode="&#x12b;" 
d="M154 616q-8 0 -14 6t-6 14v38q0 8 6 14t14 6h242q8 0 14 -6t6 -14v-38q0 -8 -6 -14t-14 -6h-242zM120 415q-8 0 -14 6t-6 14v45q0 8 6 14t14 6h203q8 0 14 -6t6 -14v-385q0 -10 10 -10h127q8 0 14 -6t6 -14v-45q0 -8 -6 -14t-14 -6h-370q-8 0 -14 6t-6 14v45q0 8 6 14
t14 6h131q10 0 10 10v310q0 10 -10 10h-121z" />
    <glyph glyph-name="Ibreve" unicode="&#x12c;" 
d="M227 603q0 10 -10 10h-110q-8 0 -14 6t-6 14v47q0 8 6 14t14 6h335q8 0 14 -6t6 -14v-47q0 -8 -6 -14t-14 -6h-110q-10 0 -10 -10v-505q0 -10 10 -10h120q8 0 14 -6t6 -14v-48q0 -8 -6 -14t-14 -6h-355q-8 0 -14 6t-6 14v48q0 8 6 14t14 6h120q10 0 10 10v505zM335 878
q0 7 4.5 12t12.5 5h43q7 0 12 -5t5 -12q0 -27 -10 -50t-28.5 -40.5t-43.5 -27.5t-55 -10t-55.5 10t-44 27.5t-28.5 40.5t-10 50q0 7 5 12t12 5h43q8 0 12.5 -5t4.5 -12q0 -23 19 -39.5t42 -16.5t41.5 16.5t18.5 39.5z" />
    <glyph glyph-name="ibreve" unicode="&#x12d;" 
d="M335 713q0 7 4.5 12t12.5 5h43q7 0 12 -5t5 -12q0 -27 -10 -50t-28.5 -40.5t-43.5 -27.5t-55 -10t-55.5 10t-44 27.5t-28.5 40.5t-10 50q0 7 5 12t12 5h43q8 0 12.5 -5t4.5 -12q0 -23 19 -39.5t42 -16.5t41.5 16.5t18.5 39.5zM120 415q-8 0 -14 6t-6 14v45q0 8 6 14t14 6
h203q8 0 14 -6t6 -14v-385q0 -10 10 -10h127q8 0 14 -6t6 -14v-45q0 -8 -6 -14t-14 -6h-370q-8 0 -14 6t-6 14v45q0 8 6 14t14 6h131q10 0 10 10v310q0 10 -10 10h-121z" />
    <glyph glyph-name="Iogonek" unicode="&#x12e;" 
d="M241 -210q-72 0 -118 34t-46 102v142q0 8 6 14t14 6h120q10 0 10 10v505q0 10 -10 10h-110q-8 0 -14 6t-6 14v47q0 8 6 14t14 6h335q8 0 14 -6t6 -14v-47q0 -8 -6 -14t-14 -6h-110q-10 0 -10 -10v-505q0 -10 10 -10h120q8 0 14 -6t6 -14v-48q0 -8 -6 -14t-14 -6h-292v-69
q0 -66 81 -66h61q8 0 14 -6t6 -14v-35q0 -8 -6 -14t-14 -6h-61z" />
    <glyph glyph-name="iogonek" unicode="&#x12f;" 
d="M346 622q0 -16 -16 -16h-68q-16 0 -16 16v69q0 6 4.5 11t11.5 5h68q7 0 11.5 -5t4.5 -11v-69zM173 -60q0 -38 20.5 -54t60.5 -16h61q8 0 14 -6t6 -14v-40q0 -8 -6 -14t-14 -6h-61q-72 0 -118 34t-46 102v139q0 8 6 14t14 6h131q10 0 10 10v310q0 10 -10 10h-121
q-8 0 -14 6t-6 14v45q0 8 6 14t14 6h203q8 0 14 -6t6 -14v-385q0 -10 10 -10h127q8 0 14 -6t6 -14v-45q0 -8 -6 -14t-14 -6h-307v-60z" />
    <glyph glyph-name="Idotaccent" unicode="&#x130;" 
d="M227 603q0 10 -10 10h-110q-8 0 -14 6t-6 14v47q0 8 6 14t14 6h335q8 0 14 -6t6 -14v-47q0 -8 -6 -14t-14 -6h-110q-10 0 -10 -10v-505q0 -10 10 -10h120q8 0 14 -6t6 -14v-48q0 -8 -6 -14t-14 -6h-355q-8 0 -14 6t-6 14v48q0 8 6 14t14 6h120q10 0 10 10v505zM325 766
q0 -16 -16 -16h-68q-16 0 -16 16v69q0 6 4.5 11t11.5 5h68q7 0 11.5 -5t4.5 -11v-69z" />
    <glyph glyph-name="dotlessi" unicode="&#x131;" 
d="M120 415q-8 0 -14 6t-6 14v45q0 8 6 14t14 6h203q8 0 14 -6t6 -14v-385q0 -10 10 -10h127q8 0 14 -6t6 -14v-45q0 -8 -6 -14t-14 -6h-370q-8 0 -14 6t-6 14v45q0 8 6 14t14 6h131q10 0 10 10v310q0 10 -10 10h-121z" />
    <glyph glyph-name="Jcircumflex" unicode="&#x134;" 
d="M125 200q0 -29 11 -50.5t29.5 -35.5t42 -20.5t47.5 -6.5q57 0 93.5 35t36.5 99v459q0 8 6 14t14 6h55q8 0 14 -6t6 -14v-470q0 -50 -18 -90.5t-49 -69t-72 -43.5t-86 -15q-48 0 -89.5 14t-71.5 41t-47 65.5t-17 87.5v30q0 8 6 14t14 6h55q8 0 14 -6t6 -14v-30zM257 766
q-5 -5 -12.5 -10.5t-18.5 -5.5h-59q-10 0 -13 8t2 13l108 112q5 5 10.5 8.5t19.5 3.5h42q13 0 18.5 -3.5t10.5 -8.5l108 -112q5 -5 2 -13t-13 -8h-59q-11 0 -18.5 5.5t-12.5 10.5l-51 49q-7 7 -14 0z" />
    <glyph glyph-name="jcircumflex" unicode="&#x135;" 
d="M413 -47q0 -33 -12.5 -62.5t-34.5 -52t-51 -35.5t-62 -13t-62 12.5t-51 34.5t-34.5 51t-12.5 62q0 8 6 14t14 6h50q8 0 14 -6t6 -14q0 -27 17.5 -48.5t52.5 -21.5t51 23t16 50v452q0 10 -10 10h-145q-8 0 -14 6t-6 14v45q0 8 6 14t14 6h228q8 0 14 -6t6 -14v-527z
M247 601q-5 -5 -12.5 -10.5t-18.5 -5.5h-59q-10 0 -13 8t2 13l108 112q5 5 10.5 8.5t19.5 3.5h42q13 0 18.5 -3.5t10.5 -8.5l108 -112q5 -5 2 -13t-13 -8h-59q-11 0 -18.5 5.5t-12.5 10.5l-51 49q-7 7 -14 0z" />
    <glyph glyph-name="Kcommaaccent" unicode="&#x136;" 
d="M178 440q0 -4 3 -4t5 2l194 252q2 3 6.5 6.5t15.5 3.5h55q14 0 19.5 -12.5t-2.5 -23.5l-228 -291q-5 -6 -6 -11.5t5 -12.5l256 -312q8 -10 3.5 -23.5t-21.5 -13.5h-63q-11 0 -15 3.5t-7 6.5l-212 265q-2 2 -5 2t-3 -4v-253q0 -8 -6 -14t-14 -6h-55q-8 0 -14 6t-6 14v660
q0 8 6 14t14 6h55q8 0 14 -6t6 -14v-240zM221 -146q-8 0 -14 6t-6 14v61q0 8 6 14t14 6h70q8 0 14 -6t6 -14v-61q0 -20 -5.5 -34.5t-14.5 -27.5l-32 -46q-3 -5 -9 -10t-17 -5h-9q-14 0 -19 11t1 22l31 57q3 5 -0.5 9t-8.5 4h-7z" />
    <glyph glyph-name="kcommaaccent" unicode="&#x137;" 
d="M218 181q-2 2 -5 1t-3 -5v-157q0 -8 -6 -14t-14 -6h-50q-8 0 -14 6t-6 14v667q0 8 6 14t14 6h50q8 0 14 -6t6 -14v-346q0 -10 8 -4l163 150q4 4 10.5 8.5t17.5 4.5h54q16 0 20 -12.5t-4 -20.5l-205 -193q-13 -13 0 -24l226 -217q10 -9 4 -21t-20 -12h-63q-11 0 -18.5 5.5
t-11.5 9.5zM241 -146q-8 0 -14 6t-6 14v61q0 8 6 14t14 6h70q8 0 14 -6t6 -14v-61q0 -20 -5.5 -34.5t-14.5 -27.5l-32 -46q-3 -5 -9 -10t-17 -5h-9q-14 0 -19 11t1 22l31 57q3 5 -0.5 9t-8.5 4h-7z" />
    <glyph glyph-name="kgreenlandic" unicode="&#x138;" 
d="M218 182q-2 2 -5 2t-3 -4v-160q0 -8 -6 -14t-14 -6h-50q-8 0 -14 6t-6 14v460q0 8 6 14t14 6h50q8 0 14 -6t6 -14v-146q0 -4 3 -4.5t5 2.5l163 155q4 4 9 8.5t16 4.5h57q16 0 20 -12.5t-4 -20.5l-201 -193q-11 -11 0 -24l225 -217q10 -9 4 -21t-20 -12h-72
q-11 0 -16.5 5.5l-9.5 9.5z" />
    <glyph glyph-name="Lacute" unicode="&#x139;" 
d="M215 105q0 -10 10 -10h244q8 0 14 -6t6 -14v-55q0 -8 -6 -14t-14 -6h-329q-8 0 -14 6t-6 14v660q0 8 6 14t14 6h55q8 0 14 -6t6 -14v-575zM339 895q10 0 13 -8t-2 -13l-108 -112q-5 -5 -10.5 -8.5t-19.5 -3.5h-40q-10 0 -14 7.5t0 12.5l76 109q4 5 9.5 10.5t16.5 5.5h79z
" />
    <glyph glyph-name="lacute" unicode="&#x13a;" 
d="M131 624q-8 0 -14 6t-6 14v43q0 8 6 14t14 6h185q8 0 14 -6t6 -14v-592q0 -10 10 -10h113q8 0 14 -6t6 -14v-45q0 -8 -6 -14t-14 -6h-348q-8 0 -14 6t-6 14v45q0 8 6 14t14 6h125q10 0 10 10v519q0 10 -10 10h-105zM409 895q10 0 13 -8t-2 -13l-108 -112
q-5 -5 -10.5 -8.5t-19.5 -3.5h-40q-10 0 -14 7.5t0 12.5l76 109q4 5 9.5 10.5t16.5 5.5h79z" />
    <glyph glyph-name="Lcommaaccent" unicode="&#x13b;" 
d="M215 105q0 -10 10 -10h244q8 0 14 -6t6 -14v-55q0 -8 -6 -14t-14 -6h-329q-8 0 -14 6t-6 14v660q0 8 6 14t14 6h55q8 0 14 -6t6 -14v-575zM261 -146q-8 0 -14 6t-6 14v61q0 8 6 14t14 6h70q8 0 14 -6t6 -14v-61q0 -20 -5.5 -34.5t-14.5 -27.5l-32 -46q-3 -5 -9 -10
t-17 -5h-9q-14 0 -19 11t1 22l31 57q3 5 -0.5 9t-8.5 4h-7z" />
    <glyph glyph-name="lcommaaccent" unicode="&#x13c;" 
d="M131 624q-8 0 -14 6t-6 14v43q0 8 6 14t14 6h185q8 0 14 -6t6 -14v-592q0 -10 10 -10h113q8 0 14 -6t6 -14v-45q0 -8 -6 -14t-14 -6h-348q-8 0 -14 6t-6 14v45q0 8 6 14t14 6h125q10 0 10 10v519q0 10 -10 10h-105zM251 -146q-8 0 -14 6t-6 14v61q0 8 6 14t14 6h70
q8 0 14 -6t6 -14v-61q0 -20 -5.5 -34.5t-14.5 -27.5l-32 -46q-3 -5 -9 -10t-17 -5h-9q-14 0 -19 11t1 22l31 57q3 5 -0.5 9t-8.5 4h-7z" />
    <glyph glyph-name="Lcaron" unicode="&#x13d;" 
d="M215 105q0 -10 10 -10h244q8 0 14 -6t6 -14v-55q0 -8 -6 -14t-14 -6h-329q-8 0 -14 6t-6 14v660q0 8 6 14t14 6h55q8 0 14 -6t6 -14v-575zM339 599q-8 0 -14 6t-6 14v61q0 8 6 14t14 6h70q8 0 14 -6t6 -14v-61q0 -20 -5.5 -34.5t-14.5 -27.5l-32 -46q-3 -5 -9 -10t-17 -5
h-9q-14 0 -19 11t1 22l31 57q3 5 -0.5 9t-8.5 4h-7z" />
    <glyph glyph-name="lcaron" unicode="&#x13e;" 
d="M131 624q-8 0 -14 6t-6 14v43q0 8 6 14t14 6h185q8 0 14 -6t6 -14v-592q0 -10 10 -10h113q8 0 14 -6t6 -14v-45q0 -8 -6 -14t-14 -6h-348q-8 0 -14 6t-6 14v45q0 8 6 14t14 6h125q10 0 10 10v519q0 10 -10 10h-105zM459 599q-8 0 -14 6t-6 14v61q0 8 6 14t14 6h70
q8 0 14 -6t6 -14v-61q0 -20 -5.5 -34.5t-14.5 -27.5l-32 -46q-3 -5 -9 -10t-17 -5h-9q-14 0 -19 11t1 22l31 57q3 5 -0.5 9t-8.5 4h-7z" />
    <glyph glyph-name="Ldot" unicode="&#x13f;" 
d="M215 105q0 -10 10 -10h244q8 0 14 -6t6 -14v-55q0 -8 -6 -14t-14 -6h-329q-8 0 -14 6t-6 14v660q0 8 6 14t14 6h55q8 0 14 -6t6 -14v-575zM405 265q0 -16 -16 -16h-68q-16 0 -16 16v69q0 6 4.5 11t11.5 5h68q7 0 11.5 -5t4.5 -11v-69z" />
    <glyph glyph-name="ldot" unicode="&#x140;" 
d="M131 624q-8 0 -14 6t-6 14v43q0 8 6 14t14 6h185q8 0 14 -6t6 -14v-592q0 -10 10 -10h113q8 0 14 -6t6 -14v-45q0 -8 -6 -14t-14 -6h-348q-8 0 -14 6t-6 14v45q0 8 6 14t14 6h125q10 0 10 10v519q0 10 -10 10h-105zM524 265q0 -16 -16 -16h-68q-16 0 -16 16v69
q0 6 4.5 11t11.5 5h68q7 0 11.5 -5t4.5 -11v-69z" />
    <glyph glyph-name="Lslash" unicode="&#x141;" 
d="M215 105q0 -10 10 -10h244q8 0 14 -6t6 -14v-55q0 -8 -6 -14t-14 -6h-329q-8 0 -14 6t-6 14v200q0 5 -3.5 6t-5.5 -1l-33 -23q-8 -5 -18 -1t-10 15v48q0 8 2 14t13 14l47 33q8 6 8 14v341q0 8 6 14t14 6h55q8 0 14 -6t6 -14v-272q0 -3 3 -4.5t6 0.5l116 82q7 5 16 0.5
t9 -14.5v-52q0 -10 -6.5 -17.5t-13.5 -12.5l-124 -88q-6 -5 -6 -10v-187z" />
    <glyph glyph-name="lslash" unicode="&#x142;" 
d="M246 614q0 10 -10 10h-105q-8 0 -14 6t-6 14v43q0 8 6 14t14 6h185q8 0 14 -6t6 -14v-249q0 -3 3 -4.5t6 0.5l51 36q7 5 16 0.5t9 -14.5v-52q0 -10 -6.5 -17.5t-13.5 -12.5l-59 -42q-6 -5 -6 -10v-227q0 -10 10 -10h113q8 0 14 -6t6 -14v-45q0 -8 -6 -14t-14 -6h-348
q-8 0 -14 6t-6 14v45q0 8 6 14t14 6h125q10 0 10 10v155q0 5 -3.5 6t-5.5 -1l-33 -23q-8 -5 -18 -1t-10 15v48q0 8 2 14t13 14l47 33q8 6 8 14v245z" />
    <glyph glyph-name="Nacute" unicode="&#x143;" 
d="M485 20q0 -8 -6 -14t-14 -6h-83q-8 0 -12.5 3t-8.5 14l-197 495q-2 3 -5 2.5t-3 -4.5v-490q0 -8 -6 -14t-14 -6h-51q-8 0 -14 6t-6 14v660q0 8 6 14t14 6h83q8 0 12.5 -3t8.5 -14l197 -493q2 -3 5 -2.5t3 4.5v488q0 8 6 14t14 6h51q8 0 14 -6t6 -14v-660zM409 895
q10 0 13 -8t-2 -13l-108 -112q-5 -5 -10.5 -8.5t-19.5 -3.5h-40q-10 0 -14 7.5t0 12.5l76 109q4 5 9.5 10.5t16.5 5.5h79z" />
    <glyph glyph-name="nacute" unicode="&#x144;" 
d="M183 477q11 0 19 5t19 11.5t27 11.5t42 5q39 0 74 -14t60.5 -39.5t40.5 -60.5t15 -76v-300q0 -8 -6 -14t-14 -6h-50q-8 0 -14 6t-6 14v300q0 44 -31.5 72t-78.5 28t-78.5 -25.5t-31.5 -69.5v-305q0 -8 -6 -14t-14 -6h-50q-8 0 -14 6t-6 14v460q0 8 6 14t14 6h44
q7 0 14 -7q5 -5 11 -10.5t14 -5.5zM409 730q10 0 13 -8t-2 -13l-108 -112q-5 -5 -10.5 -8.5t-19.5 -3.5h-40q-10 0 -14 7.5t0 12.5l76 109q4 5 9.5 10.5t16.5 5.5h79z" />
    <glyph glyph-name="Ncommaaccent" unicode="&#x145;" 
d="M485 20q0 -8 -6 -14t-14 -6h-83q-8 0 -12.5 3t-8.5 14l-197 495q-2 3 -5 2.5t-3 -4.5v-490q0 -8 -6 -14t-14 -6h-51q-8 0 -14 6t-6 14v660q0 8 6 14t14 6h83q8 0 12.5 -3t8.5 -14l197 -493q2 -3 5 -2.5t3 4.5v488q0 8 6 14t14 6h51q8 0 14 -6t6 -14v-660zM241 -146
q-8 0 -14 6t-6 14v61q0 8 6 14t14 6h70q8 0 14 -6t6 -14v-61q0 -20 -5.5 -34.5t-14.5 -27.5l-32 -46q-3 -5 -9 -10t-17 -5h-9q-14 0 -19 11t1 22l31 57q3 5 -0.5 9t-8.5 4h-7z" />
    <glyph glyph-name="ncommaaccent" unicode="&#x146;" 
d="M183 477q11 0 19 5t19 11.5t27 11.5t42 5q39 0 74 -14t60.5 -39.5t40.5 -60.5t15 -76v-300q0 -8 -6 -14t-14 -6h-50q-8 0 -14 6t-6 14v300q0 44 -31.5 72t-78.5 28t-78.5 -25.5t-31.5 -69.5v-305q0 -8 -6 -14t-14 -6h-50q-8 0 -14 6t-6 14v460q0 8 6 14t14 6h44
q7 0 14 -7q5 -5 11 -10.5t14 -5.5zM241 -146q-8 0 -14 6t-6 14v61q0 8 6 14t14 6h70q8 0 14 -6t6 -14v-61q0 -20 -5.5 -34.5t-14.5 -27.5l-32 -46q-3 -5 -9 -10t-17 -5h-9q-14 0 -19 11t1 22l31 57q3 5 -0.5 9t-8.5 4h-7z" />
    <glyph glyph-name="Ncaron" unicode="&#x147;" 
d="M485 20q0 -8 -6 -14t-14 -6h-83q-8 0 -12.5 3t-8.5 14l-197 495q-2 3 -5 2.5t-3 -4.5v-490q0 -8 -6 -14t-14 -6h-51q-8 0 -14 6t-6 14v660q0 8 6 14t14 6h83q8 0 12.5 -3t8.5 -14l197 -493q2 -3 5 -2.5t3 4.5v488q0 8 6 14t14 6h51q8 0 14 -6t6 -14v-660zM267 830
q7 -7 14 0l51 49q5 5 12.5 10.5t18.5 5.5h59q10 0 13 -8t-2 -13l-108 -112q-5 -5 -10.5 -8.5t-18.5 -3.5h-42q-14 0 -19.5 3.5t-10.5 8.5l-108 112q-5 5 -2 13t13 8h59q11 0 18.5 -5.5t12.5 -10.5z" />
    <glyph glyph-name="ncaron" unicode="&#x148;" 
d="M183 477q11 0 19 5t19 11.5t27 11.5t42 5q39 0 74 -14t60.5 -39.5t40.5 -60.5t15 -76v-300q0 -8 -6 -14t-14 -6h-50q-8 0 -14 6t-6 14v300q0 44 -31.5 72t-78.5 28t-78.5 -25.5t-31.5 -69.5v-305q0 -8 -6 -14t-14 -6h-50q-8 0 -14 6t-6 14v460q0 8 6 14t14 6h44
q7 0 14 -7q5 -5 11 -10.5t14 -5.5zM267 665q7 -7 14 0l51 49q5 5 12.5 10.5t18.5 5.5h59q10 0 13 -8t-2 -13l-108 -112q-5 -5 -10.5 -8.5t-18.5 -3.5h-42q-14 0 -19.5 3.5t-10.5 8.5l-108 112q-5 5 -2 13t13 8h59q11 0 18.5 -5.5t12.5 -10.5z" />
    <glyph glyph-name="Eng" unicode="&#x14a;" 
d="M164 512q-2 3 -5 2.5t-3 -4.5v-490q0 -8 -6 -14t-14 -6h-51q-8 0 -14 6t-6 14v660q0 8 6 14t14 6h75q8 0 12.5 -3t8.5 -14l205 -447q2 -3 5 -2.5t3 4.5v442q0 8 6 14t14 6h51q8 0 14 -6t6 -14v-710q0 -36 -12.5 -69t-35 -57.5t-53.5 -39t-67 -14.5q-8 0 -14 6t-6 14v50
q0 8 6 14t14 6q31 0 54.5 24.5t23.5 65.5v30z" />
    <glyph glyph-name="eng" unicode="&#x14b;" 
d="M312 -120q31 0 54.5 24.5t23.5 65.5v350q0 48 -31 74t-79 26q-47 0 -78.5 -25.5t-31.5 -69.5v-305q0 -8 -6 -14t-14 -6h-50q-8 0 -14 6t-6 14v460q0 8 6 14t14 6h44q6 0 10.5 -3.5t8.5 -8t8.5 -8t11.5 -3.5q11 0 19 5t19 11.5t27 11.5t42 5q42 0 77 -13t60 -37.5t39 -60
t14 -79.5v-350q0 -36 -12.5 -69t-35 -57.5t-53.5 -39t-67 -14.5q-8 0 -14 6t-6 14v50q0 8 6 14t14 6z" />
    <glyph glyph-name="Omacron" unicode="&#x14c;" 
d="M275 613q-49 0 -86 -29t-44 -84q-4 -31 -6 -70t-2 -80t2 -80t6 -70q3 -22 12.5 -42.5t26 -36t39.5 -25t52 -9.5q51 0 86.5 29.5t43.5 83.5q4 31 6.5 70t2.5 80t-2.5 80t-6.5 70q-3 22 -12.5 42.5t-26 36t-39 25t-52.5 9.5zM275 708q45 0 83.5 -14.5t68 -41.5t48.5 -65.5
t25 -86.5q4 -30 5.5 -69.5t1.5 -80.5t-2 -80.5t-5 -69.5q-5 -41 -22 -79t-45.5 -66.5t-68.5 -45.5t-89 -17q-45 0 -83.5 14.5t-68 41.5t-48.5 65.5t-25 86.5q-4 30 -6 69.5t-2 81t2 80.5t6 69q5 41 22 78.5t45.5 66.5t68 46t89.5 17zM154 761q-8 0 -14 6t-6 14v38q0 8 6 14
t14 6h242q8 0 14 -6t6 -14v-38q0 -8 -6 -14t-14 -6h-242z" />
    <glyph glyph-name="omacron" unicode="&#x14d;" 
d="M275 510q45 0 81.5 -15t63 -40.5t42 -60.5t18.5 -74q2 -30 2 -70t-2 -70q-3 -39 -18.5 -74t-42 -60.5t-63 -40.5t-81.5 -15t-81.5 15t-63 40.5t-42 60.5t-18.5 74q-2 30 -2 70t2 70q3 39 18.5 74t42 60.5t63 40.5t81.5 15zM275 80q52 0 82 30t33 70q2 31 2 70t-2 70
q-3 40 -33 70t-82 30t-82 -30t-33 -70q-2 -31 -2 -70t2 -70q3 -40 33 -70t82 -30zM154 616q-8 0 -14 6t-6 14v38q0 8 6 14t14 6h242q8 0 14 -6t6 -14v-38q0 -8 -6 -14t-14 -6h-242z" />
    <glyph glyph-name="Obreve" unicode="&#x14e;" 
d="M275 613q-49 0 -86 -29t-44 -84q-4 -31 -6 -70t-2 -80t2 -80t6 -70q3 -22 12.5 -42.5t26 -36t39.5 -25t52 -9.5q51 0 86.5 29.5t43.5 83.5q4 31 6.5 70t2.5 80t-2.5 80t-6.5 70q-3 22 -12.5 42.5t-26 36t-39 25t-52.5 9.5zM275 708q45 0 83.5 -14.5t68 -41.5t48.5 -65.5
t25 -86.5q4 -30 5.5 -69.5t1.5 -80.5t-2 -80.5t-5 -69.5q-5 -41 -22 -79t-45.5 -66.5t-68.5 -45.5t-89 -17q-45 0 -83.5 14.5t-68 41.5t-48.5 65.5t-25 86.5q-4 30 -6 69.5t-2 81t2 80.5t6 69q5 41 22 78.5t45.5 66.5t68 46t89.5 17zM335 878q0 7 4.5 12t12.5 5h43
q7 0 12 -5t5 -12q0 -27 -10 -50t-28.5 -40.5t-43.5 -27.5t-55 -10t-55.5 10t-44 27.5t-28.5 40.5t-10 50q0 7 5 12t12 5h43q8 0 12.5 -5t4.5 -12q0 -23 19 -39.5t42 -16.5t41.5 16.5t18.5 39.5z" />
    <glyph glyph-name="obreve" unicode="&#x14f;" 
d="M275 510q45 0 81.5 -15t63 -40.5t42 -60.5t18.5 -74q2 -30 2 -70t-2 -70q-3 -39 -18.5 -74t-42 -60.5t-63 -40.5t-81.5 -15t-81.5 15t-63 40.5t-42 60.5t-18.5 74q-2 30 -2 70t2 70q3 39 18.5 74t42 60.5t63 40.5t81.5 15zM275 80q52 0 82 30t33 70q2 31 2 70t-2 70
q-3 40 -33 70t-82 30t-82 -30t-33 -70q-2 -31 -2 -70t2 -70q3 -40 33 -70t82 -30zM335 713q0 7 4.5 12t12.5 5h43q7 0 12 -5t5 -12q0 -27 -10 -50t-28.5 -40.5t-43.5 -27.5t-55 -10t-55.5 10t-44 27.5t-28.5 40.5t-10 50q0 7 5 12t12 5h43q8 0 12.5 -5t4.5 -12
q0 -23 19 -39.5t42 -16.5t41.5 16.5t18.5 39.5z" />
    <glyph glyph-name="Ohungarumlaut" unicode="&#x150;" 
d="M275 613q-49 0 -86 -29t-44 -84q-4 -31 -6 -70t-2 -80t2 -80t6 -70q3 -22 12.5 -42.5t26 -36t39.5 -25t52 -9.5q51 0 86.5 29.5t43.5 83.5q4 31 6.5 70t2.5 80t-2.5 80t-6.5 70q-3 22 -12.5 42.5t-26 36t-39 25t-52.5 9.5zM275 708q45 0 83.5 -14.5t68 -41.5t48.5 -65.5
t25 -86.5q4 -30 5.5 -69.5t1.5 -80.5t-2 -80.5t-5 -69.5q-5 -41 -22 -79t-45.5 -66.5t-68.5 -45.5t-89 -17q-45 0 -83.5 14.5t-68 41.5t-48.5 65.5t-25 86.5q-4 30 -6 69.5t-2 81t2 80.5t6 69q5 41 22 78.5t45.5 66.5t68 46t89.5 17zM325 896q10 0 13 -8t-2 -13l-108 -112
q-5 -5 -10.5 -8.5t-19.5 -3.5h-40q-10 0 -14 7.5t0 12.5l76 109q4 5 9.5 10.5t16.5 5.5h79zM495 896q10 0 13 -8t-2 -13l-108 -112q-5 -5 -10.5 -8.5t-19.5 -3.5h-40q-10 0 -14 7.5t0 12.5l76 109q4 5 9.5 10.5t16.5 5.5h79z" />
    <glyph glyph-name="ohungarumlaut" unicode="&#x151;" 
d="M275 510q45 0 81.5 -15t63 -40.5t42 -60.5t18.5 -74q2 -30 2 -70t-2 -70q-3 -39 -18.5 -74t-42 -60.5t-63 -40.5t-81.5 -15t-81.5 15t-63 40.5t-42 60.5t-18.5 74q-2 30 -2 70t2 70q3 39 18.5 74t42 60.5t63 40.5t81.5 15zM275 80q52 0 82 30t33 70q2 31 2 70t-2 70
q-3 40 -33 70t-82 30t-82 -30t-33 -70q-2 -31 -2 -70t2 -70q3 -40 33 -70t82 -30zM325 730q10 0 13 -8t-2 -13l-108 -112q-5 -5 -10.5 -8.5t-19.5 -3.5h-40q-10 0 -14 7.5t0 12.5l76 109q4 5 9.5 10.5t16.5 5.5h79zM495 730q10 0 13 -8t-2 -13l-108 -112q-5 -5 -10.5 -8.5
t-19.5 -3.5h-40q-10 0 -14 7.5t0 12.5l76 109q4 5 9.5 10.5t16.5 5.5h79z" />
    <glyph glyph-name="OE" unicode="&#x152;" 
d="M508 700q8 0 14 -6t6 -14v-55q0 -8 -6 -14t-14 -6h-128q-10 0 -10 -10v-180q0 -10 10 -10h117q8 0 14 -6t6 -14v-55q0 -8 -6 -14t-14 -6h-117q-10 0 -10 -10v-195q0 -10 10 -10h130q8 0 14 -6t6 -14v-55q0 -8 -6 -14t-14 -6h-235q-90 0 -151.5 51.5t-73.5 148.5
q-4 30 -6 69.5t-2 81t2 80.5t6 69q5 41 22 77.5t45.5 63.5t68 43t89.5 16h233zM265 95q10 0 10 10v490q0 10 -10 10q-46 -2 -79.5 -27.5t-40.5 -77.5q-4 -31 -6 -70t-2 -80t2 -80t6 -70q3 -21 12 -40t24 -33.5t36 -23t48 -8.5z" />
    <glyph glyph-name="oe" unicode="&#x153;" 
d="M287 29q-14 13 -30 0q-19 -17 -38 -28t-50 -11q-41 0 -70 21t-47.5 57.5t-27.5 84.5t-9 102t9.5 100.5t28.5 81t48 54t68 19.5q19 0 32 -3.5t23 -9.5t18.5 -13.5t17.5 -15.5q16 -13 30 0q24 23 48 32.5t51 9.5q34 0 61 -17t46 -47t28.5 -70t9.5 -86v-49q0 -8 -6 -14
t-14 -6h-186q-10 0 -10 -10q0 -136 71 -136q24 0 41 19.5t17 48.5q0 11 8 14t15 3h41q17 0 17 -20q0 -30 -10 -57t-28 -48t-44 -33t-57 -12q-38 0 -64 14t-38 25zM320 311q0 -10 10 -10h108q10 0 10 10q0 52 -17 83t-41 31q-18 0 -31.5 -9t-22 -25t-12.5 -36.5t-4 -43.5z
M100 255q0 -36 2.5 -68t10 -56t21 -38t35.5 -14t35.5 14t21 38t10 56t2.5 68t-2.5 68t-10 56t-21 38t-35.5 14t-35.5 -14t-21 -38t-10 -56t-2.5 -68z" />
    <glyph glyph-name="Racute" unicode="&#x154;" 
d="M195 605q-10 0 -10 -10v-210q0 -10 10 -10h95q23 0 44 9t36.5 24.5t25 36.5t9.5 45t-9 44.5t-25 36.5t-36.5 25t-44.5 9h-95zM195 280q-10 0 -10 -10v-250q0 -8 -6 -14t-14 -6h-55q-8 0 -14 6t-6 14v660q0 8 6 14t14 6h180q43 0 81.5 -16.5t67 -45t45 -67t16.5 -81.5
q0 -57 -29 -104.5t-75 -74.5q-14 -8 -19 -16t2 -22l118 -243q5 -11 0.5 -20.5t-19.5 -9.5h-56q-12 0 -18 5.5t-11 14.5l-118 248q-2 5 -6.5 8.5t-12.5 3.5h-61zM399 895q10 0 13 -8t-2 -13l-108 -112q-5 -5 -10.5 -8.5t-19.5 -3.5h-40q-10 0 -14 7.5t0 12.5l76 109
q4 5 9.5 10.5t16.5 5.5h79z" />
    <glyph glyph-name="racute" unicode="&#x155;" 
d="M413 340q0 36 -28 58t-70 22q-23 0 -45 -6.5t-38.5 -19t-26.5 -30t-10 -39.5v-305q0 -8 -6 -14t-14 -6h-50q-8 0 -14 6t-6 14v460q0 8 6 14t14 6h44q7 0 14 -7q5 -5 11 -10.5t14 -5.5q11 0 20 5t21.5 11.5t30 11.5t45.5 5q37 0 69.5 -13t57 -35.5t38.5 -54t14 -67.5
q0 -8 -6 -14t-14 -6h-51q-8 0 -14 6t-6 14zM419 730q10 0 13 -8t-2 -13l-108 -112q-5 -5 -10.5 -8.5t-19.5 -3.5h-40q-10 0 -14 7.5t0 12.5l76 109q4 5 9.5 10.5t16.5 5.5h79z" />
    <glyph glyph-name="Rcommaaccent" unicode="&#x156;" 
d="M195 605q-10 0 -10 -10v-210q0 -10 10 -10h95q23 0 44 9t36.5 24.5t25 36.5t9.5 45t-9 44.5t-25 36.5t-36.5 25t-44.5 9h-95zM195 280q-10 0 -10 -10v-250q0 -8 -6 -14t-14 -6h-55q-8 0 -14 6t-6 14v660q0 8 6 14t14 6h180q43 0 81.5 -16.5t67 -45t45 -67t16.5 -81.5
q0 -57 -29 -104.5t-75 -74.5q-14 -8 -19 -16t2 -22l118 -243q5 -11 0.5 -20.5t-19.5 -9.5h-56q-12 0 -18 5.5t-11 14.5l-118 248q-2 5 -6.5 8.5t-12.5 3.5h-61zM241 -146q-8 0 -14 6t-6 14v61q0 8 6 14t14 6h70q8 0 14 -6t6 -14v-61q0 -20 -5.5 -34.5t-14.5 -27.5l-32 -46
q-3 -5 -9 -10t-17 -5h-9q-14 0 -19 11t1 22l31 57q3 5 -0.5 9t-8.5 4h-7z" />
    <glyph glyph-name="rcommaaccent" unicode="&#x157;" 
d="M413 340q0 36 -28 58t-70 22q-23 0 -45 -6.5t-38.5 -19t-26.5 -30t-10 -39.5v-305q0 -8 -6 -14t-14 -6h-50q-8 0 -14 6t-6 14v460q0 8 6 14t14 6h44q7 0 14 -7q5 -5 11 -10.5t14 -5.5q11 0 20 5t21.5 11.5t30 11.5t45.5 5q37 0 69.5 -13t57 -35.5t38.5 -54t14 -67.5
q0 -8 -6 -14t-14 -6h-51q-8 0 -14 6t-6 14zM115 -146q-8 0 -14 6t-6 14v61q0 8 6 14t14 6h70q8 0 14 -6t6 -14v-61q0 -20 -5.5 -34.5t-14.5 -27.5l-32 -46q-3 -5 -9 -10t-17 -5h-9q-14 0 -19 11t1 22l31 57q3 5 -0.5 9t-8.5 4h-7z" />
    <glyph glyph-name="Rcaron" unicode="&#x158;" 
d="M195 605q-10 0 -10 -10v-210q0 -10 10 -10h95q23 0 44 9t36.5 24.5t25 36.5t9.5 45t-9 44.5t-25 36.5t-36.5 25t-44.5 9h-95zM195 280q-10 0 -10 -10v-250q0 -8 -6 -14t-14 -6h-55q-8 0 -14 6t-6 14v660q0 8 6 14t14 6h180q43 0 81.5 -16.5t67 -45t45 -67t16.5 -81.5
q0 -57 -29 -104.5t-75 -74.5q-14 -8 -19 -16t2 -22l118 -243q5 -11 0.5 -20.5t-19.5 -9.5h-56q-12 0 -18 5.5t-11 14.5l-118 248q-2 5 -6.5 8.5t-12.5 3.5h-61zM267 830q7 -7 14 0l51 49q5 5 12.5 10.5t18.5 5.5h59q10 0 13 -8t-2 -13l-108 -112q-5 -5 -10.5 -8.5
t-18.5 -3.5h-42q-14 0 -19.5 3.5t-10.5 8.5l-108 112q-5 5 -2 13t13 8h59q11 0 18.5 -5.5t12.5 -10.5z" />
    <glyph glyph-name="rcaron" unicode="&#x159;" 
d="M413 340q0 36 -28 58t-70 22q-23 0 -45 -6.5t-38.5 -19t-26.5 -30t-10 -39.5v-305q0 -8 -6 -14t-14 -6h-50q-8 0 -14 6t-6 14v460q0 8 6 14t14 6h44q7 0 14 -7q5 -5 11 -10.5t14 -5.5q11 0 20 5t21.5 11.5t30 11.5t45.5 5q37 0 69.5 -13t57 -35.5t38.5 -54t14 -67.5
q0 -8 -6 -14t-14 -6h-51q-8 0 -14 6t-6 14zM287 665q7 -7 14 0l51 49q5 5 12.5 10.5t18.5 5.5h59q10 0 13 -8t-2 -13l-108 -112q-5 -5 -10.5 -8.5t-18.5 -3.5h-42q-14 0 -19.5 3.5t-10.5 8.5l-108 112q-5 5 -2 13t13 8h59q11 0 18.5 -5.5t12.5 -10.5z" />
    <glyph glyph-name="Sacute" unicode="&#x15a;" 
d="M404 200q0 35 -12 56t-34 34.5t-53 21.5t-69 17q-36 8 -66.5 23.5t-53 39t-35 55.5t-12.5 73q0 45 17.5 80t46.5 59t66 36.5t76 12.5q44 0 81.5 -15t65 -40.5t43 -59.5t15.5 -73v-13q0 -8 -6 -14t-14 -6h-55q-8 0 -14 6t-6 14v13q0 25 -10 42.5t-26 29t-35.5 16.5
t-38.5 5q-49 0 -79.5 -25t-30.5 -68q0 -33 14.5 -52.5t36.5 -31t48.5 -17.5t50.5 -12q86 -21 135.5 -71t49.5 -136q0 -48 -19 -86.5t-50 -65.5t-72 -41.5t-84 -14.5q-48 0 -89.5 16.5t-71.5 45t-47 66t-17 80.5v16q0 8 6 14t14 6h56q8 0 14 -6t6 -14v-16q0 -24 9.5 -45
t27 -36t41 -23.5t51.5 -8.5t51.5 8.5t41 24t27 36t9.5 44.5zM419 895q10 0 13 -8t-2 -13l-108 -112q-5 -5 -10.5 -8.5t-19.5 -3.5h-40q-10 0 -14 7.5t0 12.5l76 109q4 5 9.5 10.5t16.5 5.5h79z" />
    <glyph glyph-name="sacute" unicode="&#x15b;" 
d="M77 163q0 8 6 14t14 6h50q8 0 14 -6t6 -14q0 -27 10.5 -44t26.5 -26.5t35 -13t36 -3.5q20 0 39.5 3t34.5 11.5t24 22.5t9 37q0 16 -8.5 27.5t-23 19t-34 12.5t-41.5 10q-31 6 -63 14.5t-58.5 24t-43 41t-16.5 66.5q0 34 15.5 60.5t41 45.5t58 29t66.5 10t66 -10t57 -29.5
t40 -47t15 -63.5q0 -8 -6 -14t-14 -6h-50q-8 0 -14 6t-6 14q0 26 -20.5 45.5t-67.5 19.5t-67.5 -19t-20.5 -41q0 -27 25.5 -38t62.5 -18q31 -6 66 -13.5t64 -24t48 -45.5t19 -76q0 -40 -16 -70t-43.5 -50t-63 -30t-74.5 -10q-38 0 -73.5 9.5t-63 30.5t-44.5 54t-17 79z
M409 730q10 0 13 -8t-2 -13l-108 -112q-5 -5 -10.5 -8.5t-19.5 -3.5h-40q-10 0 -14 7.5t0 12.5l76 109q4 5 9.5 10.5t16.5 5.5h79z" />
    <glyph glyph-name="Scircumflex" unicode="&#x15c;" 
d="M404 200q0 35 -12 56t-34 34.5t-53 21.5t-69 17q-36 8 -66.5 23.5t-53 39t-35 55.5t-12.5 73q0 45 17.5 80t46.5 59t66 36.5t76 12.5q44 0 81.5 -15t65 -40.5t43 -59.5t15.5 -73v-13q0 -8 -6 -14t-14 -6h-55q-8 0 -14 6t-6 14v13q0 25 -10 42.5t-26 29t-35.5 16.5
t-38.5 5q-49 0 -79.5 -25t-30.5 -68q0 -33 14.5 -52.5t36.5 -31t48.5 -17.5t50.5 -12q86 -21 135.5 -71t49.5 -136q0 -48 -19 -86.5t-50 -65.5t-72 -41.5t-84 -14.5q-48 0 -89.5 16.5t-71.5 45t-47 66t-17 80.5v16q0 8 6 14t14 6h56q8 0 14 -6t6 -14v-16q0 -24 9.5 -45
t27 -36t41 -23.5t51.5 -8.5t51.5 8.5t41 24t27 36t9.5 44.5zM217 766q-5 -5 -12.5 -10.5t-18.5 -5.5h-59q-10 0 -13 8t2 13l108 112q5 5 10.5 8.5t19.5 3.5h42q13 0 18.5 -3.5t10.5 -8.5l108 -112q5 -5 2 -13t-13 -8h-59q-11 0 -18.5 5.5t-12.5 10.5l-51 49q-7 7 -14 0z" />
    <glyph glyph-name="scircumflex" unicode="&#x15d;" 
d="M77 163q0 8 6 14t14 6h50q8 0 14 -6t6 -14q0 -27 10.5 -44t26.5 -26.5t35 -13t36 -3.5q20 0 39.5 3t34.5 11.5t24 22.5t9 37q0 16 -8.5 27.5t-23 19t-34 12.5t-41.5 10q-31 6 -63 14.5t-58.5 24t-43 41t-16.5 66.5q0 34 15.5 60.5t41 45.5t58 29t66.5 10t66 -10t57 -29.5
t40 -47t15 -63.5q0 -8 -6 -14t-14 -6h-50q-8 0 -14 6t-6 14q0 26 -20.5 45.5t-67.5 19.5t-67.5 -19t-20.5 -41q0 -27 25.5 -38t62.5 -18q31 -6 66 -13.5t64 -24t48 -45.5t19 -76q0 -40 -16 -70t-43.5 -50t-63 -30t-74.5 -10q-38 0 -73.5 9.5t-63 30.5t-44.5 54t-17 79z
M217 601q-5 -5 -12.5 -10.5t-18.5 -5.5h-59q-10 0 -13 8t2 13l108 112q5 5 10.5 8.5t19.5 3.5h42q13 0 18.5 -3.5t10.5 -8.5l108 -112q5 -5 2 -13t-13 -8h-59q-11 0 -18.5 5.5t-12.5 10.5l-51 49q-7 7 -14 0z" />
    <glyph glyph-name="Scedilla" unicode="&#x15e;" 
d="M404 200q0 35 -12 56t-34 34.5t-53 21.5t-69 17q-36 8 -66.5 23.5t-53 39t-35 55.5t-12.5 73q0 45 17.5 80t46.5 59t66 36.5t76 12.5q44 0 81.5 -15t65 -40.5t43 -59.5t15.5 -73v-13q0 -8 -6 -14t-14 -6h-55q-8 0 -14 6t-6 14v13q0 25 -10 42.5t-26 29t-35.5 16.5
t-38.5 5q-49 0 -79.5 -25t-30.5 -68q0 -33 14.5 -52.5t36.5 -31t48.5 -17.5t50.5 -12q86 -21 135.5 -71t49.5 -136q0 -48 -19 -86.5t-50 -65.5t-72 -41.5t-84 -14.5q-48 0 -89.5 16.5t-71.5 45t-47 66t-17 80.5v16q0 8 6 14t14 6h56q8 0 14 -6t6 -14v-16q0 -24 9.5 -45
t27 -36t41 -23.5t51.5 -8.5t51.5 8.5t41 24t27 36t9.5 44.5zM290 -184q-4 -16 -19 -16h-63q-10 0 -14 5.5t-2 12.5l38 121q4 16 19 16h53q10 0 14 -5.5t2 -12.5z" />
    <glyph glyph-name="scedilla" unicode="&#x15f;" 
d="M77 163q0 8 6 14t14 6h50q8 0 14 -6t6 -14q0 -27 10.5 -44t26.5 -26.5t35 -13t36 -3.5q20 0 39.5 3t34.5 11.5t24 22.5t9 37q0 16 -8.5 27.5t-23 19t-34 12.5t-41.5 10q-31 6 -63 14.5t-58.5 24t-43 41t-16.5 66.5q0 34 15.5 60.5t41 45.5t58 29t66.5 10t66 -10t57 -29.5
t40 -47t15 -63.5q0 -8 -6 -14t-14 -6h-50q-8 0 -14 6t-6 14q0 26 -20.5 45.5t-67.5 19.5t-67.5 -19t-20.5 -41q0 -27 25.5 -38t62.5 -18q31 -6 66 -13.5t64 -24t48 -45.5t19 -76q0 -40 -16 -70t-43.5 -50t-63 -30t-74.5 -10q-38 0 -73.5 9.5t-63 30.5t-44.5 54t-17 79z
M300 -184q-4 -16 -19 -16h-63q-10 0 -14 5.5t-2 12.5l38 121q4 16 19 16h53q10 0 14 -5.5t2 -12.5z" />
    <glyph glyph-name="Scaron" unicode="&#x160;" 
d="M404 200q0 35 -12 56t-34 34.5t-53 21.5t-69 17q-36 8 -66.5 23.5t-53 39t-35 55.5t-12.5 73q0 45 17.5 80t46.5 59t66 36.5t76 12.5q44 0 81.5 -15t65 -40.5t43 -59.5t15.5 -73v-13q0 -8 -6 -14t-14 -6h-55q-8 0 -14 6t-6 14v13q0 25 -10 42.5t-26 29t-35.5 16.5
t-38.5 5q-49 0 -79.5 -25t-30.5 -68q0 -33 14.5 -52.5t36.5 -31t48.5 -17.5t50.5 -12q86 -21 135.5 -71t49.5 -136q0 -48 -19 -86.5t-50 -65.5t-72 -41.5t-84 -14.5q-48 0 -89.5 16.5t-71.5 45t-47 66t-17 80.5v16q0 8 6 14t14 6h56q8 0 14 -6t6 -14v-16q0 -24 9.5 -45
t27 -36t41 -23.5t51.5 -8.5t51.5 8.5t41 24t27 36t9.5 44.5zM267 830q7 -7 14 0l51 49q5 5 12.5 10.5t18.5 5.5h59q10 0 13 -8t-2 -13l-108 -112q-5 -5 -10.5 -8.5t-18.5 -3.5h-42q-14 0 -19.5 3.5t-10.5 8.5l-108 112q-5 5 -2 13t13 8h59q11 0 18.5 -5.5t12.5 -10.5z" />
    <glyph glyph-name="scaron" unicode="&#x161;" 
d="M77 163q0 8 6 14t14 6h50q8 0 14 -6t6 -14q0 -27 10.5 -44t26.5 -26.5t35 -13t36 -3.5q20 0 39.5 3t34.5 11.5t24 22.5t9 37q0 16 -8.5 27.5t-23 19t-34 12.5t-41.5 10q-31 6 -63 14.5t-58.5 24t-43 41t-16.5 66.5q0 34 15.5 60.5t41 45.5t58 29t66.5 10t66 -10t57 -29.5
t40 -47t15 -63.5q0 -8 -6 -14t-14 -6h-50q-8 0 -14 6t-6 14q0 26 -20.5 45.5t-67.5 19.5t-67.5 -19t-20.5 -41q0 -27 25.5 -38t62.5 -18q31 -6 66 -13.5t64 -24t48 -45.5t19 -76q0 -40 -16 -70t-43.5 -50t-63 -30t-74.5 -10q-38 0 -73.5 9.5t-63 30.5t-44.5 54t-17 79z
M267 665q7 -7 14 0l51 49q5 5 12.5 10.5t18.5 5.5h59q10 0 13 -8t-2 -13l-108 -112q-5 -5 -10.5 -8.5t-18.5 -3.5h-42q-14 0 -19.5 3.5t-10.5 8.5l-108 112q-5 5 -2 13t13 8h59q11 0 18.5 -5.5t12.5 -10.5z" />
    <glyph glyph-name="Tcommaaccent" unicode="&#x162;" 
d="M85 605q-8 0 -14 6t-6 14v55q0 8 6 14t14 6h380q8 0 14 -6t6 -14v-55q0 -8 -6 -14t-14 -6h-132q-10 0 -10 -10v-575q0 -8 -6 -14t-14 -6h-55q-8 0 -14 6t-6 14v575q0 10 -10 10h-133zM241 -146q-8 0 -14 6t-6 14v61q0 8 6 14t14 6h70q8 0 14 -6t6 -14v-61
q0 -20 -5.5 -34.5t-14.5 -27.5l-32 -46q-3 -5 -9 -10t-17 -5h-9q-14 0 -19 11t1 22l31 57q3 5 -0.5 9t-8.5 4h-7z" />
    <glyph glyph-name="tcommaaccent" unicode="&#x163;" 
d="M270 150q0 -27 19.5 -48.5t50.5 -21.5t50.5 21.5t19.5 48.5q0 8 6 14t14 6h50q8 0 14 -6t6 -14q0 -33 -12.5 -62t-34.5 -51t-51 -34.5t-62 -12.5t-62 12.5t-51 34.5t-34.5 51t-12.5 62v245q0 10 -10 10h-100q-8 0 -14 6t-6 14v50q0 8 6 14t14 6h100q10 0 10 10v155
q0 8 6 14t14 6h50q8 0 14 -6t6 -14v-155q0 -10 10 -10h160q8 0 14 -6t6 -14v-50q0 -8 -6 -14t-14 -6h-160q-10 0 -10 -10v-245zM241 -146q-8 0 -14 6t-6 14v61q0 8 6 14t14 6h70q8 0 14 -6t6 -14v-61q0 -20 -5.5 -34.5t-14.5 -27.5l-32 -46q-3 -5 -9 -10t-17 -5h-9
q-14 0 -19 11t1 22l31 57q3 5 -0.5 9t-8.5 4h-7z" />
    <glyph glyph-name="Tcaron" unicode="&#x164;" 
d="M85 605q-8 0 -14 6t-6 14v55q0 8 6 14t14 6h380q8 0 14 -6t6 -14v-55q0 -8 -6 -14t-14 -6h-132q-10 0 -10 -10v-575q0 -8 -6 -14t-14 -6h-55q-8 0 -14 6t-6 14v575q0 10 -10 10h-133zM267 830q7 -7 14 0l51 49q5 5 12.5 10.5t18.5 5.5h59q10 0 13 -8t-2 -13l-108 -112
q-5 -5 -10.5 -8.5t-18.5 -3.5h-42q-14 0 -19.5 3.5t-10.5 8.5l-108 112q-5 5 -2 13t13 8h59q11 0 18.5 -5.5t12.5 -10.5z" />
    <glyph glyph-name="tcaron" unicode="&#x165;" 
d="M270 150q0 -27 19.5 -48.5t50.5 -21.5t50.5 21.5t19.5 48.5q0 8 6 14t14 6h50q8 0 14 -6t6 -14q0 -33 -12.5 -62t-34.5 -51t-51 -34.5t-62 -12.5t-62 12.5t-51 34.5t-34.5 51t-12.5 62v245q0 10 -10 10h-100q-8 0 -14 6t-6 14v50q0 8 6 14t14 6h100q10 0 10 10v155
q0 8 6 14t14 6h50q8 0 14 -6t6 -14v-155q0 -10 10 -10h100q8 0 14 -6t6 -14v-50q0 -8 -6 -14t-14 -6h-100q-10 0 -10 -10v-245zM439 599q-8 0 -14 6t-6 14v61q0 8 6 14t14 6h70q8 0 14 -6t6 -14v-61q0 -20 -5.5 -34.5t-14.5 -27.5l-32 -46q-3 -5 -9 -10t-17 -5h-9
q-14 0 -19 11t1 22l31 57q3 5 -0.5 9t-8.5 4h-7z" />
    <glyph glyph-name="Tbar" unicode="&#x166;" 
d="M228 400q0 10 -10 10h-113q-8 0 -14 6t-6 14v50q0 8 6 14t14 6h113q10 0 10 10v85q0 10 -10 10h-133q-8 0 -14 6t-6 14v55q0 8 6 14t14 6h380q8 0 14 -6t6 -14v-55q0 -8 -6 -14t-14 -6h-132q-10 0 -10 -10v-85q0 -10 10 -10h112q8 0 14 -6t6 -14v-50q0 -8 -6 -14t-14 -6
h-112q-10 0 -10 -10v-380q0 -8 -6 -14t-14 -6h-55q-8 0 -14 6t-6 14v380z" />
    <glyph glyph-name="tbar" unicode="&#x167;" 
d="M270 150q0 -27 19.5 -48.5t50.5 -21.5t50.5 21.5t19.5 48.5q0 8 6 14t14 6h50q8 0 14 -6t6 -14q0 -33 -12.5 -62t-34.5 -51t-51 -34.5t-62 -12.5t-62 12.5t-51 34.5t-34.5 51t-12.5 62v71q0 10 -10 10h-95q-8 0 -14 6t-6 14v45q0 8 6 14t14 6h95q10 0 10 10v69
q0 10 -10 10h-100q-8 0 -14 6t-6 14v50q0 8 6 14t14 6h100q10 0 10 10v155q0 8 6 14t14 6h50q8 0 14 -6t6 -14v-155q0 -10 10 -10h160q8 0 14 -6t6 -14v-50q0 -8 -6 -14t-14 -6h-160q-10 0 -10 -10v-69q0 -10 10 -10h130q8 0 14 -6t6 -14v-45q0 -8 -6 -14t-14 -6h-130
q-10 0 -10 -10v-71z" />
    <glyph glyph-name="Utilde" unicode="&#x168;" 
d="M145 200q0 -30 11 -51.5t29.5 -35t42 -20t47.5 -6.5q28 0 52 8.5t41.5 24t27 36t9.5 44.5v480q0 8 6 14t14 6h55q8 0 14 -6t6 -14v-480q0 -45 -18 -83t-49 -66t-72 -43.5t-86 -15.5q-48 0 -89.5 15.5t-71.5 43.5t-47 66t-17 83v480q0 8 6 14t14 6h55q8 0 14 -6t6 -14
v-480zM345 841q19 0 29.5 6.5t16.5 14.5t15.5 4t9.5 -18v-40q0 -20 -20.5 -35.5t-50.5 -15.5q-24 0 -39.5 4t-29 8.5t-30 8.5t-41.5 4q-17 0 -27.5 -5.5t-18.5 -15.5q-6 -7 -15.5 -3.5t-9.5 17.5v40q0 20 20.5 35.5t50.5 15.5q24 0 39.5 -4t29 -8.5t29.5 -8.5t42 -4z" />
    <glyph glyph-name="utilde" unicode="&#x169;" 
d="M372 23q-11 0 -18.5 -5t-18 -11.5t-26.5 -11.5t-44 -5q-42 0 -77 14t-60 39.5t-39 60.5t-14 76v300q0 8 6 14t14 6h50q8 0 14 -6t6 -14v-300q0 -44 29 -72t81 -28q47 0 78.5 25.5t31.5 69.5v305q0 8 6 14t14 6h50q8 0 14 -6t6 -14v-460q0 -8 -6 -14t-14 -6h-44
q-7 0 -14 7q-5 5 -11 10.5t-14 5.5zM345 684q19 0 29.5 6.5t16.5 14.5t15.5 4t9.5 -18v-40q0 -20 -20.5 -35.5t-50.5 -15.5q-24 0 -39.5 4t-29 8.5t-30 8.5t-41.5 4q-17 0 -27.5 -5.5t-18.5 -15.5q-6 -7 -15.5 -3.5t-9.5 17.5v40q0 20 20.5 35.5t50.5 15.5q24 0 39.5 -4
t29 -8.5t29.5 -8.5t42 -4z" />
    <glyph glyph-name="Umacron" unicode="&#x16a;" 
d="M145 200q0 -30 11 -51.5t29.5 -35t42 -20t47.5 -6.5q28 0 52 8.5t41.5 24t27 36t9.5 44.5v480q0 8 6 14t14 6h55q8 0 14 -6t6 -14v-480q0 -45 -18 -83t-49 -66t-72 -43.5t-86 -15.5q-48 0 -89.5 15.5t-71.5 43.5t-47 66t-17 83v480q0 8 6 14t14 6h55q8 0 14 -6t6 -14
v-480zM154 761q-8 0 -14 6t-6 14v38q0 8 6 14t14 6h242q8 0 14 -6t6 -14v-38q0 -8 -6 -14t-14 -6h-242z" />
    <glyph glyph-name="umacron" unicode="&#x16b;" 
d="M372 23q-11 0 -18.5 -5t-18 -11.5t-26.5 -11.5t-44 -5q-42 0 -77 14t-60 39.5t-39 60.5t-14 76v300q0 8 6 14t14 6h50q8 0 14 -6t6 -14v-300q0 -44 29 -72t81 -28q47 0 78.5 25.5t31.5 69.5v305q0 8 6 14t14 6h50q8 0 14 -6t6 -14v-460q0 -8 -6 -14t-14 -6h-44
q-7 0 -14 7q-5 5 -11 10.5t-14 5.5zM154 616q-8 0 -14 6t-6 14v38q0 8 6 14t14 6h242q8 0 14 -6t6 -14v-38q0 -8 -6 -14t-14 -6h-242z" />
    <glyph glyph-name="Ubreve" unicode="&#x16c;" 
d="M145 200q0 -30 11 -51.5t29.5 -35t42 -20t47.5 -6.5q28 0 52 8.5t41.5 24t27 36t9.5 44.5v480q0 8 6 14t14 6h55q8 0 14 -6t6 -14v-480q0 -45 -18 -83t-49 -66t-72 -43.5t-86 -15.5q-48 0 -89.5 15.5t-71.5 43.5t-47 66t-17 83v480q0 8 6 14t14 6h55q8 0 14 -6t6 -14
v-480zM335 878q0 7 4.5 12t12.5 5h43q7 0 12 -5t5 -12q0 -27 -10 -50t-28.5 -40.5t-43.5 -27.5t-55 -10t-55.5 10t-44 27.5t-28.5 40.5t-10 50q0 7 5 12t12 5h43q8 0 12.5 -5t4.5 -12q0 -23 19 -39.5t42 -16.5t41.5 16.5t18.5 39.5z" />
    <glyph glyph-name="ubreve" unicode="&#x16d;" 
d="M372 23q-11 0 -18.5 -5t-18 -11.5t-26.5 -11.5t-44 -5q-42 0 -77 14t-60 39.5t-39 60.5t-14 76v300q0 8 6 14t14 6h50q8 0 14 -6t6 -14v-300q0 -44 29 -72t81 -28q47 0 78.5 25.5t31.5 69.5v305q0 8 6 14t14 6h50q8 0 14 -6t6 -14v-460q0 -8 -6 -14t-14 -6h-44
q-7 0 -14 7q-5 5 -11 10.5t-14 5.5zM335 713q0 7 4.5 12t12.5 5h43q7 0 12 -5t5 -12q0 -27 -10 -50t-28.5 -40.5t-43.5 -27.5t-55 -10t-55.5 10t-44 27.5t-28.5 40.5t-10 50q0 7 5 12t12 5h43q8 0 12.5 -5t4.5 -12q0 -23 19 -39.5t42 -16.5t41.5 16.5t18.5 39.5z" />
    <glyph glyph-name="Uring" unicode="&#x16e;" 
d="M145 200q0 -30 11 -51.5t29.5 -35t42 -20t47.5 -6.5q28 0 52 8.5t41.5 24t27 36t9.5 44.5v480q0 8 6 14t14 6h55q8 0 14 -6t6 -14v-480q0 -45 -18 -83t-49 -66t-72 -43.5t-86 -15.5q-48 0 -89.5 15.5t-71.5 43.5t-47 66t-17 83v480q0 8 6 14t14 6h55q8 0 14 -6t6 -14
v-480zM165 840q0 23 8.5 43t23.5 35t35 23.5t43 8.5t43 -8.5t35 -23.5t23.5 -35t8.5 -43t-8.5 -43t-23.5 -35t-35 -23.5t-43 -8.5t-43 8.5t-35 23.5t-23.5 35t-8.5 43zM235 840q0 -17 11.5 -28.5t28.5 -11.5t28.5 11.5t11.5 28.5t-11.5 28.5t-28.5 11.5t-28.5 -11.5
t-11.5 -28.5z" />
    <glyph glyph-name="uring" unicode="&#x16f;" 
d="M372 23q-11 0 -18.5 -5t-18 -11.5t-26.5 -11.5t-44 -5q-42 0 -77 14t-60 39.5t-39 60.5t-14 76v300q0 8 6 14t14 6h50q8 0 14 -6t6 -14v-300q0 -44 29 -72t81 -28q47 0 78.5 25.5t31.5 69.5v305q0 8 6 14t14 6h50q8 0 14 -6t6 -14v-460q0 -8 -6 -14t-14 -6h-44
q-7 0 -14 7q-5 5 -11 10.5t-14 5.5zM165 670q0 23 8.5 43t23.5 35t35 23.5t43 8.5t43 -8.5t35 -23.5t23.5 -35t8.5 -43t-8.5 -43t-23.5 -35t-35 -23.5t-43 -8.5t-43 8.5t-35 23.5t-23.5 35t-8.5 43zM235 670q0 -17 11.5 -28.5t28.5 -11.5t28.5 11.5t11.5 28.5t-11.5 28.5
t-28.5 11.5t-28.5 -11.5t-11.5 -28.5z" />
    <glyph glyph-name="Uhungarumlaut" unicode="&#x170;" 
d="M145 200q0 -30 11 -51.5t29.5 -35t42 -20t47.5 -6.5q28 0 52 8.5t41.5 24t27 36t9.5 44.5v480q0 8 6 14t14 6h55q8 0 14 -6t6 -14v-480q0 -45 -18 -83t-49 -66t-72 -43.5t-86 -15.5q-48 0 -89.5 15.5t-71.5 43.5t-47 66t-17 83v480q0 8 6 14t14 6h55q8 0 14 -6t6 -14
v-480zM325 896q10 0 13 -8t-2 -13l-108 -112q-5 -5 -10.5 -8.5t-19.5 -3.5h-40q-10 0 -14 7.5t0 12.5l76 109q4 5 9.5 10.5t16.5 5.5h79zM495 896q10 0 13 -8t-2 -13l-108 -112q-5 -5 -10.5 -8.5t-19.5 -3.5h-40q-10 0 -14 7.5t0 12.5l76 109q4 5 9.5 10.5t16.5 5.5h79z" />
    <glyph glyph-name="uhungarumlaut" unicode="&#x171;" 
d="M372 23q-11 0 -18.5 -5t-18 -11.5t-26.5 -11.5t-44 -5q-42 0 -77 14t-60 39.5t-39 60.5t-14 76v300q0 8 6 14t14 6h50q8 0 14 -6t6 -14v-300q0 -44 29 -72t81 -28q47 0 78.5 25.5t31.5 69.5v305q0 8 6 14t14 6h50q8 0 14 -6t6 -14v-460q0 -8 -6 -14t-14 -6h-44
q-7 0 -14 7q-5 5 -11 10.5t-14 5.5zM335 730q10 0 13 -8t-2 -13l-108 -112q-5 -5 -10.5 -8.5t-19.5 -3.5h-40q-10 0 -14 7.5t0 12.5l76 109q4 5 9.5 10.5t16.5 5.5h79zM505 730q10 0 13 -8t-2 -13l-108 -112q-5 -5 -10.5 -8.5t-19.5 -3.5h-40q-10 0 -14 7.5t0 12.5l76 109
q4 5 9.5 10.5t16.5 5.5h79z" />
    <glyph glyph-name="Uogonek" unicode="&#x172;" 
d="M145 200q0 -30 11 -51.5t29.5 -35t42 -20t47.5 -6.5q28 0 52 8.5t41.5 24t27 36t9.5 44.5v480q0 8 6 14t14 6h55q8 0 14 -6t6 -14v-480q0 -45 -18 -83t-47 -64t-52.5 -57.5t-23.5 -64.5q0 -66 81 -66q8 0 14 -6t6 -14v-35q0 -8 -6 -14t-14 -6q-77 0 -120.5 34t-43.5 102
q0 14 6 32.5t15 34.5q-4 -1 -11 -1h-11q-48 0 -89.5 15.5t-71.5 43.5t-47 66t-17 83v480q0 8 6 14t14 6h55q8 0 14 -6t6 -14v-480z" />
    <glyph glyph-name="uogonek" unicode="&#x173;" 
d="M165 180q0 -44 29 -72t81 -28q47 0 78.5 25.5t31.5 69.5v305q0 8 6 14t14 6h50q8 0 14 -6t6 -14v-460q0 -8 -6 -14t-14 -6h-7q-33 -2 -53.5 -19.5t-20.5 -49.5q0 -66 76 -66q8 0 14 -6t6 -14v-35q0 -8 -6 -14t-14 -6q-70 0 -114.5 34t-44.5 102q0 17 9 38t21 35
q-10 -4 -23 -6.5t-33 -2.5q-42 0 -77 14t-60 39.5t-39 60.5t-14 76v300q0 8 6 14t14 6h50q8 0 14 -6t6 -14v-300v0z" />
    <glyph glyph-name="Wcircumflex" unicode="&#x174;" 
d="M378 180q1 -5 6 -5t6 5l45 505q1 8 6.5 11.5t12.5 3.5h49q12 0 16.5 -6t3.5 -14l-72 -665q-1 -8 -6.5 -11.5t-12.5 -3.5h-91q-7 0 -12.5 3.5t-6.5 11.5l-42 302q-1 4 -3 4t-3 -4l-56 -302q-3 -15 -19 -15h-91q-7 0 -12.5 3.5t-6.5 11.5l-63 665q-1 8 3.5 14t16.5 6h49
q7 0 12.5 -3.5t6.5 -11.5l41 -505q1 -5 6 -5t6 5l61 305q3 15 19 15h58q16 0 19 -15zM217 766q-5 -5 -12.5 -10.5t-18.5 -5.5h-59q-10 0 -13 8t2 13l108 112q5 5 10.5 8.5t19.5 3.5h42q13 0 18.5 -3.5t10.5 -8.5l108 -112q5 -5 2 -13t-13 -8h-59q-11 0 -18.5 5.5t-12.5 10.5
l-51 49q-7 7 -14 0z" />
    <glyph glyph-name="wcircumflex" unicode="&#x175;" 
d="M293 390q15 0 19 -15l50 -188q2 -6 7 -6t7 6l45 298q3 15 19 15h49q12 0 16.5 -7.5t2.5 -15.5l-85 -462q-3 -15 -19 -15h-55q-15 0 -19 15l-49 195q-2 5 -6 5t-6 -5l-49 -195q-5 -15 -19 -15h-55q-16 0 -19 15l-85 462q-2 8 2.5 15.5t16.5 7.5h49q16 0 19 -15l45 -298
q1 -6 6.5 -6t7.5 6l50 188q4 15 19 15h36zM217 601q-5 -5 -12.5 -10.5t-18.5 -5.5h-59q-10 0 -13 8t2 13l108 112q5 5 10.5 8.5t19.5 3.5h42q13 0 18.5 -3.5t10.5 -8.5l108 -112q5 -5 2 -13t-13 -8h-59q-11 0 -18.5 5.5t-12.5 10.5l-51 49q-7 7 -14 0z" />
    <glyph glyph-name="Ycircumflex" unicode="&#x176;" 
d="M391 685q5 15 19 15h66q10 0 15.5 -8.5t0.5 -19.5l-168 -431v-221q0 -8 -6 -14t-14 -6h-56q-8 0 -14 6t-6 14v220l-170 432q-5 11 0.5 19.5t15.5 8.5h66q14 0 19 -15l113 -311q4 -10 8 0zM217 766q-5 -5 -12.5 -10.5t-18.5 -5.5h-59q-10 0 -13 8t2 13l108 112
q5 5 10.5 8.5t19.5 3.5h42q13 0 18.5 -3.5t10.5 -8.5l108 -112q5 -5 2 -13t-13 -8h-59q-11 0 -18.5 5.5t-12.5 10.5l-51 49q-7 7 -14 0z" />
    <glyph glyph-name="ycircumflex" unicode="&#x177;" 
d="M399 485q5 15 19 15h59q12 0 17 -7.5t2 -15.5l-254 -662q-5 -15 -19 -15h-54q-12 0 -17 7.5t-2 15.5l74 204q3 8 1 13l-172 437q-3 8 2 15.5t17 7.5h61q14 0 19 -15l123 -325q4 -10 8 0zM217 601q-5 -5 -12.5 -10.5t-18.5 -5.5h-59q-10 0 -13 8t2 13l108 112
q5 5 10.5 8.5t19.5 3.5h42q13 0 18.5 -3.5t10.5 -8.5l108 -112q5 -5 2 -13t-13 -8h-59q-11 0 -18.5 5.5t-12.5 10.5l-51 49q-7 7 -14 0z" />
    <glyph glyph-name="Ydieresis" unicode="&#x178;" 
d="M391 685q5 15 19 15h66q10 0 15.5 -8.5t0.5 -19.5l-168 -431v-221q0 -8 -6 -14t-14 -6h-56q-8 0 -14 6t-6 14v220l-170 432q-5 11 0.5 19.5t15.5 8.5h66q14 0 19 -15l113 -311q4 -10 8 0zM239 766q0 -16 -16 -16h-68q-16 0 -16 16v69q0 6 4.5 11t11.5 5h68q7 0 11.5 -5
t4.5 -11v-69zM410 766q0 -16 -16 -16h-68q-16 0 -16 16v69q0 6 4.5 11t11.5 5h68q7 0 11.5 -5t4.5 -11v-69z" />
    <glyph glyph-name="Zacute" unicode="&#x179;" 
d="M175 103q-2 -4 -0.5 -7t6.5 -3h279q8 0 14 -6t6 -14v-53q0 -8 -6 -14t-14 -6h-372q-8 0 -14 6t-6 14v75q0 8 5 16l294 487q2 4 0.5 7t-6.5 3h-263q-8 0 -14 6t-6 14v52q0 8 6 14t14 6h352q8 0 14 -6t6 -14v-72q0 -8 -5 -16zM409 895q10 0 13 -8t-2 -13l-108 -112
q-5 -5 -10.5 -8.5t-19.5 -3.5h-40q-10 0 -14 7.5t0 12.5l76 109q4 5 9.5 10.5t16.5 5.5h79z" />
    <glyph glyph-name="zacute" unicode="&#x17a;" 
d="M351 404q3 4 1.5 7t-6.5 3h-241q-8 0 -14 6t-6 14v46q0 8 6 14t14 6h340q8 0 14 -6t6 -14v-57q0 -14 -6.5 -23.5t-13.5 -17.5l-252 -286q-3 -4 -1.5 -7t6.5 -3h257q8 0 14 -6t6 -14v-46q0 -8 -6 -14t-14 -6h-360q-8 0 -14 6t-6 14v59q0 10 2 15t11 16zM409 730
q10 0 13 -8t-2 -13l-108 -112q-5 -5 -10.5 -8.5t-19.5 -3.5h-40q-10 0 -14 7.5t0 12.5l76 109q4 5 9.5 10.5t16.5 5.5h79z" />
    <glyph glyph-name="Zdotaccent" unicode="&#x17b;" 
d="M175 103q-2 -4 -0.5 -7t6.5 -3h279q8 0 14 -6t6 -14v-53q0 -8 -6 -14t-14 -6h-372q-8 0 -14 6t-6 14v75q0 8 5 16l294 487q2 4 0.5 7t-6.5 3h-263q-8 0 -14 6t-6 14v52q0 8 6 14t14 6h352q8 0 14 -6t6 -14v-72q0 -8 -5 -16zM318 766q0 -16 -16 -16h-68q-16 0 -16 16v69
q0 6 4.5 11t11.5 5h68q7 0 11.5 -5t4.5 -11v-69z" />
    <glyph glyph-name="zdotaccent" unicode="&#x17c;" 
d="M351 404q3 4 1.5 7t-6.5 3h-241q-8 0 -14 6t-6 14v46q0 8 6 14t14 6h340q8 0 14 -6t6 -14v-57q0 -14 -6.5 -23.5t-13.5 -17.5l-252 -286q-3 -4 -1.5 -7t6.5 -3h257q8 0 14 -6t6 -14v-46q0 -8 -6 -14t-14 -6h-360q-8 0 -14 6t-6 14v59q0 10 2 15t11 16zM325 622
q0 -16 -16 -16h-68q-16 0 -16 16v69q0 6 4.5 11t11.5 5h68q7 0 11.5 -5t4.5 -11v-69z" />
    <glyph glyph-name="Zcaron" unicode="&#x17d;" 
d="M175 103q-2 -4 -0.5 -7t6.5 -3h279q8 0 14 -6t6 -14v-53q0 -8 -6 -14t-14 -6h-372q-8 0 -14 6t-6 14v75q0 8 5 16l294 487q2 4 0.5 7t-6.5 3h-263q-8 0 -14 6t-6 14v52q0 8 6 14t14 6h352q8 0 14 -6t6 -14v-72q0 -8 -5 -16zM267 830q7 -7 14 0l51 49q5 5 12.5 10.5
t18.5 5.5h59q10 0 13 -8t-2 -13l-108 -112q-5 -5 -10.5 -8.5t-18.5 -3.5h-42q-14 0 -19.5 3.5t-10.5 8.5l-108 112q-5 5 -2 13t13 8h59q11 0 18.5 -5.5t12.5 -10.5z" />
    <glyph glyph-name="zcaron" unicode="&#x17e;" 
d="M351 404q3 4 1.5 7t-6.5 3h-241q-8 0 -14 6t-6 14v46q0 8 6 14t14 6h340q8 0 14 -6t6 -14v-57q0 -14 -6.5 -23.5t-13.5 -17.5l-252 -286q-3 -4 -1.5 -7t6.5 -3h257q8 0 14 -6t6 -14v-46q0 -8 -6 -14t-14 -6h-360q-8 0 -14 6t-6 14v59q0 10 2 15t11 16zM267 665q7 -7 14 0
l51 49q5 5 12.5 10.5t18.5 5.5h59q10 0 13 -8t-2 -13l-108 -112q-5 -5 -10.5 -8.5t-18.5 -3.5h-42q-14 0 -19.5 3.5t-10.5 8.5l-108 112q-5 5 -2 13t13 8h59q11 0 18.5 -5.5t12.5 -10.5z" />
    <glyph glyph-name="longs" unicode="&#x17f;" 
d="M301 20q0 -8 -6 -14t-14 -6h-50q-8 0 -14 6t-6 14v375q0 10 -10 10h-125q-8 0 -14 6t-6 14v50q0 8 6 14t14 6h125q10 0 10 10v15q0 39 14 73.5t39 59.5t59 39.5t73 14.5h60q8 0 14 -6t6 -14v-47q0 -8 -6 -14t-14 -6h-60q-20 0 -37.5 -8.5t-30 -22.5t-20 -32t-7.5 -37
v-500z" />
    <glyph glyph-name="florin" unicode="&#x192;" 
d="M240 395q0 10 -10 10h-115q-8 0 -14 6t-6 14v50q0 8 6 14t14 6h115q10 0 10 10v15q0 47 14 82t39 58.5t59 35t73 11.5h60q8 0 14 -6t6 -14v-47q0 -8 -6 -14t-14 -6h-60q-40 0 -67.5 -23.5t-27.5 -76.5v-15q0 -10 10 -10h132q8 0 14 -6t6 -14v-50q0 -8 -6 -14t-14 -6h-132
q-10 0 -10 -10v-425q0 -41 -6 -73t-22.5 -53.5t-44.5 -32.5t-71 -11h-41q-8 0 -14 6t-6 14v50q0 8 5.5 14t13.5 6h44q32 0 42 21t10 59v425z" />
    <glyph glyph-name="Aringacute" unicode="&#x1fa;" 
d="M423 1065q10 0 13 -8t-2 -13l-105 -109q25 -14 40.5 -39t15.5 -56q0 -23 -8.5 -43t-23.5 -35t-35 -23.5t-43 -8.5t-43 8.5t-35 23.5t-23.5 35t-8.5 43q0 38 23 67.5t58 38.5l72 103q4 5 9.5 10.5t16.5 5.5h79zM235 840q0 -17 11.5 -28.5t28.5 -11.5t28.5 11.5t11.5 28.5
t-11.5 28.5t-28.5 11.5t-28.5 -11.5t-11.5 -28.5zM129 15q-5 -15 -19 -15h-55q-12 0 -17 6.5t-3 13.5l186 665q3 15 19 15h70q16 0 19 -15l186 -665q2 -7 -3 -13.5t-17 -6.5h-55q-14 0 -19 15l-44 153q-3 14 -19 14h-166q-14 0 -19 -14zM205 286q-3 -11 8 -11h124q11 0 8 11
l-65 279q-2 6 -4 6h-2q-3 0 -4 -6z" />
    <glyph glyph-name="aringacute" unicode="&#x1fb;" 
d="M443 895q10 0 13 -8t-2 -13l-105 -109q25 -14 40.5 -39t15.5 -56q0 -23 -8.5 -43t-23.5 -35t-35 -23.5t-43 -8.5t-43 8.5t-35 23.5t-23.5 35t-8.5 43q0 38 23 67.5t58 38.5l72 103q4 5 9.5 10.5t16.5 5.5h79zM255 670q0 -17 11.5 -28.5t28.5 -11.5t28.5 11.5t11.5 28.5
t-11.5 28.5t-28.5 11.5t-28.5 -11.5t-11.5 -28.5zM249 220q-38 0 -56.5 -18.5t-18.5 -50.5q0 -37 22.5 -57.5t66.5 -20.5q69 0 97.5 27t28.5 78v32q0 10 -10 10h-130zM288 424q-12 0 -28.5 -2t-30.5 -8.5t-24 -17.5t-10 -29q0 -13 -8 -15t-15 -2h-45q-20 0 -20 20
q0 35 16.5 61t42.5 43.5t58 26.5t64 9q37 0 70 -9.5t58 -29t40 -49.5t15 -72v-330q0 -8 -6 -14t-14 -6h-34q-8 0 -14 7q-5 6 -8.5 13.5t-11.5 7.5q-7 0 -15.5 -6t-22 -13t-32.5 -13t-47 -6q-46 0 -80.5 13t-57 35t-33.5 51t-11 61q0 31 11 58.5t32 48.5t52 33t70 12h122
q10 0 10 10v33q0 41 -27.5 60t-65.5 19z" />
    <glyph glyph-name="AEacute" unicode="&#x1fc;" 
d="M288 166q0 16 -19 16h-101q-13 0 -16 -14l-44 -153q-3 -15 -19 -15h-55q-12 0 -17 6.5t-3 13.5l183 654q2 7 10 16.5t24 9.5h280q8 0 14 -6t6 -14v-55q0 -8 -6 -14t-14 -6h-118q-10 0 -10 -10v-180q0 -10 10 -10h107q8 0 14 -6t6 -14v-55q0 -8 -6 -14t-14 -6h-107
q-10 0 -10 -10v-195q0 -10 10 -10h120q8 0 14 -6t6 -14v-55q0 -8 -6 -14t-14 -6h-205q-8 0 -14 6t-6 14v146zM278 275q10 0 10 11v309q0 10 -10 10h-3q-7 0 -9.5 -3.5t-3.5 -6.5l-78 -309q-3 -11 8 -11h86zM459 895q10 0 13 -8t-2 -13l-108 -112q-5 -5 -10.5 -8.5
t-19.5 -3.5h-40q-10 0 -14 7.5t0 12.5l76 109q4 5 9.5 10.5t16.5 5.5h79z" />
    <glyph glyph-name="aeacute" unicode="&#x1fd;" 
d="M290 21q-12 8 -19.5 7.5t-18.5 -8.5q-17 -12 -36.5 -21t-47.5 -9q-41 0 -69 13t-45.5 35t-25 51t-7.5 61q0 31 10 58.5t28.5 48t46.5 32.5t64 12h43q10 0 10 10v54q0 26 -14 42.5t-37 16.5q-25 0 -37.5 -18t-12.5 -39q0 -13 -8 -15t-15 -2h-45q-20 0 -20 20q0 27 9 52.5
t26 45t41.5 31t56.5 11.5q31 0 56 -11t40 -28q5 -7 14 -7t16 7q22 23 44 31t48 8q34 0 61 -17t46 -47t28.5 -70t9.5 -86v-49q0 -8 -6 -14t-14 -6h-186q-10 0 -10 -10q0 -136 71 -136q24 0 40 21.5t18 46.5q1 11 8.5 14t14.5 3h41q17 0 17 -20q0 -28 -10 -55t-28 -48t-44 -34
t-57 -13q-32 0 -56.5 10.5t-38.5 20.5zM169 221q-29 0 -43.5 -19t-14.5 -51q0 -37 15 -57.5t44 -20.5q32 0 46.5 27t14.5 78v33q0 10 -10 10h-52zM409 730q10 0 13 -8t-2 -13l-108 -112q-5 -5 -10.5 -8.5t-19.5 -3.5h-40q-10 0 -14 7.5t0 12.5l76 109q4 5 9.5 10.5t16.5 5.5
h79zM316 311q0 -10 10 -10h108q10 0 10 10q0 52 -17 83t-41 31q-18 0 -31.5 -9t-22 -25t-12.5 -36.5t-4 -43.5z" />
    <glyph glyph-name="Oslashacute" unicode="&#x1fe;" 
d="M275 613q-49 0 -86 -29t-44 -84q-3 -28 -5 -63t-2.5 -72t0.5 -73.5t4 -67.5q0 -5 2.5 -7.5t7.5 5.5l210 350q4 7 -3 14.5t-21 13.5t-31 9.5t-32 3.5zM275 87q51 0 86.5 29.5t43.5 83.5q4 28 6 62.5t2.5 71.5t-1 73.5t-4.5 67.5q0 2 -2.5 4t-6.5 -4l-206 -347
q-5 -10 2.5 -17.5t21 -13t30 -8t28.5 -2.5zM123 15q-9 -15 -21 -15h-52q-10 0 -16.5 8.5t0.5 19.5l41 66q5 8 3.5 12t-3.5 6q-13 28 -20.5 74.5t-10.5 100.5t-1.5 110t7.5 103q5 41 22 78.5t45.5 66.5t68 46t89.5 17q78 0 134 -41q2 -2 4.5 -2.5t6.5 4.5l11 16q5 8 8.5 11.5
t10.5 3.5h52q10 0 16 -9t0 -19l-45 -71q-3 -5 -2 -7l2 -4q13 -25 19.5 -53.5t10.5 -62.5q3 -31 4 -67.5t0.5 -73.5t-2.5 -71.5t-5 -61.5q-5 -41 -22 -79t-45.5 -66.5t-68.5 -45.5t-89 -17q-77 0 -132 39q-2 1 -4.5 2t-6.5 -4zM409 895q10 0 13 -8t-2 -13l-108 -112
q-5 -5 -10.5 -8.5t-19.5 -3.5h-40q-10 0 -14 7.5t0 12.5l76 109q4 5 9.5 10.5t16.5 5.5h79z" />
    <glyph glyph-name="oslashacute" unicode="&#x1ff;" 
d="M409 730q10 0 13 -8t-2 -13l-108 -112q-5 -5 -10.5 -8.5t-19.5 -3.5h-40q-10 0 -14 7.5t0 12.5l76 109q4 5 9.5 10.5t16.5 5.5h79zM275 510q71 0 121 -36q2 -1 3.5 -2t5.5 3l9 10q12 15 24 15h47q10 0 16 -10.5t-2 -19.5l-42 -51q-4 -5 -3 -8.5t2 -5.5q8 -20 15 -41
t9 -44q2 -30 2 -70t-2 -70q-3 -39 -18.5 -74t-42 -60.5t-63 -40.5t-81.5 -15q-38 0 -70 10.5t-57 29.5q-2 1 -4 2.5t-5 -3.5l-11 -14q-5 -7 -10 -11t-15 -4h-48q-10 0 -16 11t2 21l49 58q4 5 3 7l-2 4q-18 36 -21 79q-2 30 -2 70t2 70q3 39 18.5 74t42 60.5t63 40.5t81.5 15
zM275 80q52 0 82 30t33 70q2 31 2 70t-2 70q0 3 -2.5 6.5t-6.5 -1.5l-176 -215q-2 -3 -1.5 -6t2.5 -4q28 -20 69 -20zM275 420q-52 0 -82 -30t-33 -70q-2 -29 -2 -66t2 -68q0 -2 2 -3.5t5 1.5l172 210q2 3 1.5 6t-2.5 4q-29 16 -63 16z" />
    <glyph glyph-name="Scommaaccent" unicode="&#x218;" 
d="M404 200q0 35 -12 56t-34 34.5t-53 21.5t-69 17q-36 8 -66.5 23.5t-53 39t-35 55.5t-12.5 73q0 45 17.5 80t46.5 59t66 36.5t76 12.5q44 0 81.5 -15t65 -40.5t43 -59.5t15.5 -73v-13q0 -8 -6 -14t-14 -6h-55q-8 0 -14 6t-6 14v13q0 25 -10 42.5t-26 29t-35.5 16.5
t-38.5 5q-49 0 -79.5 -25t-30.5 -68q0 -33 14.5 -52.5t36.5 -31t48.5 -17.5t50.5 -12q86 -21 135.5 -71t49.5 -136q0 -48 -19 -86.5t-50 -65.5t-72 -41.5t-84 -14.5q-48 0 -89.5 16.5t-71.5 45t-47 66t-17 80.5v16q0 8 6 14t14 6h56q8 0 14 -6t6 -14v-16q0 -24 9.5 -45
t27 -36t41 -23.5t51.5 -8.5t51.5 8.5t41 24t27 36t9.5 44.5zM241 -146q-8 0 -14 6t-6 14v61q0 8 6 14t14 6h70q8 0 14 -6t6 -14v-61q0 -20 -5.5 -34.5t-14.5 -27.5l-32 -46q-3 -5 -9 -10t-17 -5h-9q-14 0 -19 11t1 22l31 57q3 5 -0.5 9t-8.5 4h-7z" />
    <glyph glyph-name="scommaaccent" unicode="&#x219;" 
d="M77 163q0 8 6 14t14 6h50q8 0 14 -6t6 -14q0 -27 10.5 -44t26.5 -26.5t35 -13t36 -3.5q20 0 39.5 3t34.5 11.5t24 22.5t9 37q0 16 -8.5 27.5t-23 19t-34 12.5t-41.5 10q-31 6 -63 14.5t-58.5 24t-43 41t-16.5 66.5q0 34 15.5 60.5t41 45.5t58 29t66.5 10t66 -10t57 -29.5
t40 -47t15 -63.5q0 -8 -6 -14t-14 -6h-50q-8 0 -14 6t-6 14q0 26 -20.5 45.5t-67.5 19.5t-67.5 -19t-20.5 -41q0 -27 25.5 -38t62.5 -18q31 -6 66 -13.5t64 -24t48 -45.5t19 -76q0 -40 -16 -70t-43.5 -50t-63 -30t-74.5 -10q-38 0 -73.5 9.5t-63 30.5t-44.5 54t-17 79z
M241 -146q-8 0 -14 6t-6 14v61q0 8 6 14t14 6h70q8 0 14 -6t6 -14v-61q0 -20 -5.5 -34.5t-14.5 -27.5l-32 -46q-3 -5 -9 -10t-17 -5h-9q-14 0 -19 11t1 22l31 57q3 5 -0.5 9t-8.5 4h-7z" />
    <glyph glyph-name="uni021A" unicode="&#x21a;" 
d="M85 605q-8 0 -14 6t-6 14v55q0 8 6 14t14 6h380q8 0 14 -6t6 -14v-55q0 -8 -6 -14t-14 -6h-132q-10 0 -10 -10v-575q0 -8 -6 -14t-14 -6h-55q-8 0 -14 6t-6 14v575q0 10 -10 10h-133zM241 -146q-8 0 -14 6t-6 14v61q0 8 6 14t14 6h70q8 0 14 -6t6 -14v-61
q0 -20 -5.5 -34.5t-14.5 -27.5l-32 -46q-3 -5 -9 -10t-17 -5h-9q-14 0 -19 11t1 22l31 57q3 5 -0.5 9t-8.5 4h-7z" />
    <glyph glyph-name="uni021B" unicode="&#x21b;" 
d="M270 150q0 -27 19.5 -48.5t50.5 -21.5t50.5 21.5t19.5 48.5q0 8 6 14t14 6h50q8 0 14 -6t6 -14q0 -33 -12.5 -62t-34.5 -51t-51 -34.5t-62 -12.5t-62 12.5t-51 34.5t-34.5 51t-12.5 62v245q0 10 -10 10h-100q-8 0 -14 6t-6 14v50q0 8 6 14t14 6h100q10 0 10 10v155
q0 8 6 14t14 6h50q8 0 14 -6t6 -14v-155q0 -10 10 -10h160q8 0 14 -6t6 -14v-50q0 -8 -6 -14t-14 -6h-160q-10 0 -10 -10v-245zM241 -146q-8 0 -14 6t-6 14v61q0 8 6 14t14 6h70q8 0 14 -6t6 -14v-61q0 -20 -5.5 -34.5t-14.5 -27.5l-32 -46q-3 -5 -9 -10t-17 -5h-9
q-14 0 -19 11t1 22l31 57q3 5 -0.5 9t-8.5 4h-7z" />
    <glyph glyph-name="hsuperior" unicode="&#x2b0;" 
d="M181 346q-10 0 -10 10v335q0 10 10 10h50q10 0 10 -10v-83q0 -8 4 -11.5t12 0.5q5 2 10.5 3.5t15.5 1.5q39 0 67 -26.5t28 -66.5v-153q0 -10 -10 -10h-50q-10 0 -10 10v153q0 11 -8.5 18t-25.5 7t-25 -7t-8 -18v-153q0 -10 -10 -10h-50z" />
    <glyph glyph-name="jsuperior" unicode="&#x2b2;" 
d="M375 635q0 -8 -8 -8h-59q-8 0 -8 8v58q0 8 8 8h59q8 0 8 -8v-58zM371 332q0 -41 -28.5 -66.5t-69.5 -25.5t-70 26.5t-29 67.5q0 10 10 10h50q10 0 10 -10q0 -13 9 -18.5t20 -5.5t20 5.5t9 17.5v188q0 5 -5 5h-57q-10 0 -10 10v50q0 10 10 10h124q7 0 7 -7v-257z" />
    <glyph glyph-name="wsuperior" unicode="&#x2b7;" 
d="M293 541q8 0 9 -8l17 -99q1 -3 3.5 -3t2.5 2l15 155q0 5 3 6.5t6 1.5h53q6 0 8 -4t1 -8l-38 -231q-1 -7 -10 -7h-61q-9 0 -10 7l-14 72q-1 2 -4 2.5t-3 -2.5l-12 -71q-2 -8 -9 -8h-62q-7 0 -9 8l-40 231q-1 4 1.5 7.5t7.5 3.5h53q9 0 10 -7l15 -156q0 -2 2.5 -2t2.5 2
l14 101q1 7 10 7h38z" />
    <glyph glyph-name="ysuperior" unicode="&#x2b8;" 
d="M316 589q1 7 9 7h56q6 0 9 -4t1 -8l-115 -330q-3 -8 -10 -8h-51q-6 0 -8.5 4t-0.5 8l34 90q2 5 2 6.5t-2 6.5l-82 224q-2 4 1 7.5t9 3.5h56q7 0 10 -8l40 -137q1 -3 3 -2.5t3 3.5z" />
    <glyph glyph-name="apostrophemod" unicode="&#x2bc;" 
d="M231 570q-8 0 -14 6t-6 14v90q0 8 6 14t14 6h90q8 0 14 -6t6 -14v-90q0 -20 -5.5 -34.5t-14.5 -27.5l-52 -73q-3 -5 -9 -10t-17 -5h-14q-14 0 -19 11t1 22l46 84q3 5 -0.5 9t-8.5 4h-17z" />
    <glyph glyph-name="circumflex" unicode="&#x2c6;" 
d="M217 601q-5 -5 -12.5 -10.5t-18.5 -5.5h-59q-10 0 -13 8t2 13l108 112q5 5 10.5 8.5t19.5 3.5h42q13 0 18.5 -3.5t10.5 -8.5l108 -112q5 -5 2 -13t-13 -8h-59q-11 0 -18.5 5.5t-12.5 10.5l-51 49q-7 7 -14 0z" />
    <glyph glyph-name="caron" unicode="&#x2c7;" 
d="M267 665q7 -7 14 0l51 49q5 5 12.5 10.5t18.5 5.5h59q10 0 13 -8t-2 -13l-108 -112q-5 -5 -10.5 -8.5t-18.5 -3.5h-42q-14 0 -19.5 3.5t-10.5 8.5l-108 112q-5 5 -2 13t13 8h59q11 0 18.5 -5.5t12.5 -10.5z" />
    <glyph glyph-name="breve" unicode="&#x2d8;" 
d="M335 713q0 7 4.5 12t12.5 5h43q7 0 12 -5t5 -12q0 -27 -10 -50t-28.5 -40.5t-43.5 -27.5t-55 -10t-55.5 10t-44 27.5t-28.5 40.5t-10 50q0 7 5 12t12 5h43q8 0 12.5 -5t4.5 -12q0 -23 19 -39.5t42 -16.5t41.5 16.5t18.5 39.5z" />
    <glyph glyph-name="dotaccent" unicode="&#x2d9;" 
d="M325 622q0 -16 -16 -16h-68q-16 0 -16 16v69q0 6 4.5 11t11.5 5h68q7 0 11.5 -5t4.5 -11v-69z" />
    <glyph glyph-name="ring" unicode="&#x2da;" 
d="M165 670q0 23 8.5 43t23.5 35t35 23.5t43 8.5t43 -8.5t35 -23.5t23.5 -35t8.5 -43t-8.5 -43t-23.5 -35t-35 -23.5t-43 -8.5t-43 8.5t-35 23.5t-23.5 35t-8.5 43zM235 670q0 -17 11.5 -28.5t28.5 -11.5t28.5 11.5t11.5 28.5t-11.5 28.5t-28.5 11.5t-28.5 -11.5
t-11.5 -28.5z" />
    <glyph glyph-name="ogonek" unicode="&#x2db;" 
d="M224 0q-35 0 -58 -18t-23 -51q0 -66 81 -66q8 0 14 -6t6 -14v-35q0 -8 -6 -14t-14 -6q-72 0 -118 34t-46 102q0 36 15.5 64t39.5 46.5t53 28.5t56 10q8 0 14 -6t6 -14v-35q0 -8 -6 -14t-14 -6z" />
    <glyph glyph-name="tilde" unicode="&#x2dc;" 
d="M345 684q19 0 29.5 6.5t16.5 14.5t15.5 4t9.5 -18v-40q0 -20 -20.5 -35.5t-50.5 -15.5q-24 0 -39.5 4t-29 8.5t-30 8.5t-41.5 4q-17 0 -27.5 -5.5t-18.5 -15.5q-6 -7 -15.5 -3.5t-9.5 17.5v40q0 20 20.5 35.5t50.5 15.5q24 0 39.5 -4t29 -8.5t29.5 -8.5t42 -4z" />
    <glyph glyph-name="hungarumlaut" unicode="&#x2dd;" 
d="M293 730q10 0 13 -8t-2 -13l-108 -112q-5 -5 -10.5 -8.5t-19.5 -3.5h-40q-10 0 -14 7.5t0 12.5l76 109q4 5 9.5 10.5t16.5 5.5h79zM463 730q10 0 13 -8t-2 -13l-108 -112q-5 -5 -10.5 -8.5t-19.5 -3.5h-40q-10 0 -14 7.5t0 12.5l76 109q4 5 9.5 10.5t16.5 5.5h79z" />
    <glyph glyph-name="xsuperior" unicode="&#x2e3;" 
d="M237 351q-2 -5 -11 -5h-56q-7 0 -9.5 4.5t1.5 11.5l66 108q2 3 2 5.5t-2 6.5l-58 98q-4 6 -1.5 11t10.5 5h51q5 0 7 -1.5t4 -3.5l32 -60q3 -7 7 0l32 60q1 2 3 3.5t8 1.5h51q7 0 9.5 -5t-1.5 -11l-58 -99q-4 -7 0 -12l64 -106q5 -7 2.5 -12t-9.5 -5h-56q-6 0 -8 1.5
t-3 3.5l-35 68q-3 6 -6 -1z" />
    <glyph glyph-name="Delta" unicode="&#x394;" 
d="M47 0q-8 0 -14 6t-6 14v51q0 8 2.5 16.5t4.5 12.5l190 585q4 15 19 15h64q14 0 19 -15l190 -585q2 -4 4.5 -12.5t2.5 -16.5v-51q0 -8 -6 -14t-14 -6h-456zM415 85q6 0 7 4t-1 8l-139 483q-2 6 -6 6h-2q-5 0 -6 -6l-139 -483q-2 -4 -1 -8t7 -4h280z" />
    <glyph glyph-name="Omega" unicode="&#x3a9;" 
d="M412 102q-8 -5 -6 -13.5t13 -8.5h67q8 0 14 -6t6 -14v-40q0 -8 -6 -14t-14 -6h-166q-8 0 -14 6t-6 14v59q0 7 3.5 20.5t21.5 25.5q17 11 38.5 33.5t40 55.5t31.5 76.5t13 95.5q0 46 -9.5 89t-30.5 76t-54 52.5t-79 19.5t-78.5 -19.5t-53.5 -52.5t-30.5 -76t-9.5 -89
q0 -52 13 -95.5t31.5 -76.5t40 -55.5t38.5 -33.5q18 -12 21.5 -25.5t3.5 -20.5v-59q0 -8 -6 -14t-14 -6h-166q-8 0 -14 6t-6 14v40q0 8 6 14t14 6h67q11 0 13.5 8t-5.5 13q-29 20 -52 52.5t-39 71.5t-24 81t-8 81q0 64 16 121.5t48.5 101t80.5 68.5t113 25q64 0 113 -25
t81 -68.5t48.5 -101t16.5 -121.5q0 -39 -8 -80.5t-23.5 -80.5t-38.5 -71.5t-52 -52.5z" />
    <glyph glyph-name="mu" unicode="&#x3bc;" 
d="M265 -10q-20 0 -40 8.5t-38 20.5q-7 5 -15.5 2t-8.5 -15v-186q0 -8 -6 -14t-14 -6h-48q-8 0 -14 6t-6 14v660q0 8 6 14t14 6h50q8 0 14 -6t6 -14v-300q0 -44 31 -72t79 -28q47 0 78.5 25.5t31.5 69.5v305q0 8 6 14t14 6h50q8 0 14 -6t6 -14v-460q0 -8 -6 -14t-14 -6h-44
q-6 0 -10 3.5t-8.5 8t-9 8t-11.5 3.5q-11 0 -18.5 -5t-18 -11.5t-26.5 -11.5t-44 -5z" />
    <glyph glyph-name="pi" unicode="&#x3c0;" 
d="M415 410q-10 0 -10 -10v-210q0 -42 29 -71t71 -29q8 0 14 -6t6 -14v-50q0 -8 -6 -14t-14 -6q-39 0 -74 15t-60.5 40.5t-40.5 60.5t-15 74v210q0 10 -8 10h-97q-10 0 -10 -10v-380q0 -8 -6 -14t-14 -6h-50q-8 0 -14 6t-6 14v380q0 10 -10 10h-60q-8 0 -14 6t-6 14v50
q0 8 6 14t14 6h460q8 0 14 -6t6 -14v-50q0 -8 -6 -14t-14 -6h-85z" />
    <glyph glyph-name="Wgrave" unicode="&#x1e80;" 
d="M378 180q1 -5 6 -5t6 5l45 505q1 8 6.5 11.5t12.5 3.5h49q12 0 16.5 -6t3.5 -14l-72 -665q-1 -8 -6.5 -11.5t-12.5 -3.5h-91q-7 0 -12.5 3.5t-6.5 11.5l-42 302q-1 4 -3 4t-3 -4l-56 -302q-3 -15 -19 -15h-91q-7 0 -12.5 3.5t-6.5 11.5l-63 665q-1 8 3.5 14t16.5 6h49
q7 0 12.5 -3.5t6.5 -11.5l41 -505q1 -5 6 -5t6 5l61 305q3 15 19 15h58q16 0 19 -15zM219 895q11 0 16.5 -5.5t9.5 -10.5l76 -109q4 -5 0 -12.5t-14 -7.5h-40q-14 0 -19.5 3.5t-10.5 8.5l-108 112q-5 5 -2 13t13 8h79z" />
    <glyph glyph-name="wgrave" unicode="&#x1e81;" 
d="M293 390q15 0 19 -15l50 -188q2 -6 7 -6t7 6l45 298q3 15 19 15h49q12 0 16.5 -7.5t2.5 -15.5l-85 -462q-3 -15 -19 -15h-55q-15 0 -19 15l-49 195q-2 5 -6 5t-6 -5l-49 -195q-5 -15 -19 -15h-55q-16 0 -19 15l-85 462q-2 8 2.5 15.5t16.5 7.5h49q16 0 19 -15l45 -298
q1 -6 6.5 -6t7.5 6l50 188q4 15 19 15h36zM229 730q11 0 16.5 -5.5t9.5 -10.5l76 -109q4 -5 0 -12.5t-14 -7.5h-40q-14 0 -19.5 3.5t-10.5 8.5l-108 112q-5 5 -2 13t13 8h79z" />
    <glyph glyph-name="Wacute" unicode="&#x1e82;" 
d="M378 180q1 -5 6 -5t6 5l45 505q1 8 6.5 11.5t12.5 3.5h49q12 0 16.5 -6t3.5 -14l-72 -665q-1 -8 -6.5 -11.5t-12.5 -3.5h-91q-7 0 -12.5 3.5t-6.5 11.5l-42 302q-1 4 -3 4t-3 -4l-56 -302q-3 -15 -19 -15h-91q-7 0 -12.5 3.5t-6.5 11.5l-63 665q-1 8 3.5 14t16.5 6h49
q7 0 12.5 -3.5t6.5 -11.5l41 -505q1 -5 6 -5t6 5l61 305q3 15 19 15h58q16 0 19 -15zM409 895q10 0 13 -8t-2 -13l-108 -112q-5 -5 -10.5 -8.5t-19.5 -3.5h-40q-10 0 -14 7.5t0 12.5l76 109q4 5 9.5 10.5t16.5 5.5h79z" />
    <glyph glyph-name="wacute" unicode="&#x1e83;" 
d="M293 390q15 0 19 -15l50 -188q2 -6 7 -6t7 6l45 298q3 15 19 15h49q12 0 16.5 -7.5t2.5 -15.5l-85 -462q-3 -15 -19 -15h-55q-15 0 -19 15l-49 195q-2 5 -6 5t-6 -5l-49 -195q-5 -15 -19 -15h-55q-16 0 -19 15l-85 462q-2 8 2.5 15.5t16.5 7.5h49q16 0 19 -15l45 -298
q1 -6 6.5 -6t7.5 6l50 188q4 15 19 15h36zM409 730q10 0 13 -8t-2 -13l-108 -112q-5 -5 -10.5 -8.5t-19.5 -3.5h-40q-10 0 -14 7.5t0 12.5l76 109q4 5 9.5 10.5t16.5 5.5h79z" />
    <glyph glyph-name="Wdieresis" unicode="&#x1e84;" 
d="M378 180q1 -5 6 -5t6 5l45 505q1 8 6.5 11.5t12.5 3.5h49q12 0 16.5 -6t3.5 -14l-72 -665q-1 -8 -6.5 -11.5t-12.5 -3.5h-91q-7 0 -12.5 3.5t-6.5 11.5l-42 302q-1 4 -3 4t-3 -4l-56 -302q-3 -15 -19 -15h-91q-7 0 -12.5 3.5t-6.5 11.5l-63 665q-1 8 3.5 14t16.5 6h49
q7 0 12.5 -3.5t6.5 -11.5l41 -505q1 -5 6 -5t6 5l61 305q3 15 19 15h58q16 0 19 -15zM239 766q0 -16 -16 -16h-68q-16 0 -16 16v69q0 6 4.5 11t11.5 5h68q7 0 11.5 -5t4.5 -11v-69zM410 766q0 -16 -16 -16h-68q-16 0 -16 16v69q0 6 4.5 11t11.5 5h68q7 0 11.5 -5t4.5 -11
v-69z" />
    <glyph glyph-name="wdieresis" unicode="&#x1e85;" 
d="M293 390q15 0 19 -15l50 -188q2 -6 7 -6t7 6l45 298q3 15 19 15h49q12 0 16.5 -7.5t2.5 -15.5l-85 -462q-3 -15 -19 -15h-55q-15 0 -19 15l-49 195q-2 5 -6 5t-6 -5l-49 -195q-5 -15 -19 -15h-55q-16 0 -19 15l-85 462q-2 8 2.5 15.5t16.5 7.5h49q16 0 19 -15l45 -298
q1 -6 6.5 -6t7.5 6l50 188q4 15 19 15h36zM239 622q0 -16 -16 -16h-68q-16 0 -16 16v69q0 6 4.5 11t11.5 5h68q7 0 11.5 -5t4.5 -11v-69zM410 622q0 -16 -16 -16h-68q-16 0 -16 16v69q0 6 4.5 11t11.5 5h68q7 0 11.5 -5t4.5 -11v-69z" />
    <glyph glyph-name="Ygrave" unicode="&#x1ef2;" 
d="M391 685q5 15 19 15h66q10 0 15.5 -8.5t0.5 -19.5l-168 -431v-221q0 -8 -6 -14t-14 -6h-56q-8 0 -14 6t-6 14v220l-170 432q-5 11 0.5 19.5t15.5 8.5h66q14 0 19 -15l113 -311q4 -10 8 0zM219 895q11 0 16.5 -5.5t9.5 -10.5l76 -109q4 -5 0 -12.5t-14 -7.5h-40
q-14 0 -19.5 3.5t-10.5 8.5l-108 112q-5 5 -2 13t13 8h79z" />
    <glyph glyph-name="ygrave" unicode="&#x1ef3;" 
d="M399 485q5 15 19 15h59q12 0 17 -7.5t2 -15.5l-254 -662q-5 -15 -19 -15h-54q-12 0 -17 7.5t-2 15.5l74 204q3 8 1 13l-172 437q-3 8 2 15.5t17 7.5h61q14 0 19 -15l123 -325q4 -10 8 0zM239 730q11 0 16.5 -5.5t9.5 -10.5l76 -109q4 -5 0 -12.5t-14 -7.5h-40
q-14 0 -19.5 3.5t-10.5 8.5l-108 112q-5 5 -2 13t13 8h79z" />
    <glyph glyph-name="endash" unicode="&#x2013;" 
d="M455 308q8 0 14 -6t6 -14v-55q0 -8 -6 -14t-14 -6h-360q-8 0 -14 6t-6 14v55q0 8 6 14t14 6h360z" />
    <glyph glyph-name="emdash" unicode="&#x2014;" 
d="M500 308q8 0 14 -6t6 -14v-55q0 -8 -6 -14t-14 -6h-450q-8 0 -14 6t-6 14v55q0 8 6 14t14 6h450z" />
    <glyph glyph-name="quoteleft" unicode="&#x2018;" 
d="M320 570q8 0 14 -6t6 -14v-90q0 -8 -6 -14t-14 -6h-90q-8 0 -14 6t-6 14v90q0 20 5.5 34.5t14.5 27.5l52 73q3 5 9 10t17 5h14q14 0 19 -11t-1 -22l-46 -84q-3 -5 0.5 -9t8.5 -4h17z" />
    <glyph glyph-name="quoteright" unicode="&#x2019;" 
d="M231 570q-8 0 -14 6t-6 14v90q0 8 6 14t14 6h90q8 0 14 -6t6 -14v-90q0 -20 -5.5 -34.5t-14.5 -27.5l-52 -73q-3 -5 -9 -10t-17 -5h-14q-14 0 -19 11t1 22l46 84q3 5 -0.5 9t-8.5 4h-17z" />
    <glyph glyph-name="quotesinglbase" unicode="&#x201a;" 
d="M236 0q-8 0 -14 6t-6 14v90q0 8 6 14t14 6h90q8 0 14 -6t6 -14v-90q0 -20 -5.5 -34.5t-14.5 -27.5l-52 -73q-3 -5 -9 -10t-17 -5h-14q-14 0 -19 11t1 22l46 84q3 5 -0.5 9t-8.5 4h-17z" />
    <glyph glyph-name="quotedblleft" unicode="&#x201c;" 
d="M220 570q8 0 14 -6t6 -14v-90q0 -8 -6 -14t-14 -6h-90q-8 0 -14 6t-6 14v90q0 20 5.5 34.5t14.5 27.5l52 73q3 5 9 10t17 5h14q14 0 19 -11t-1 -22l-46 -84q-3 -5 0.5 -9t8.5 -4h17zM420 570q8 0 14 -6t6 -14v-90q0 -8 -6 -14t-14 -6h-90q-8 0 -14 6t-6 14v90
q0 20 5.5 34.5t14.5 27.5l52 73q3 5 9 10t17 5h14q14 0 19 -11t-1 -22l-46 -84q-3 -5 0.5 -9t8.5 -4h17z" />
    <glyph glyph-name="quotedblright" unicode="&#x201d;" 
d="M329 570q-8 0 -14 6t-6 14v90q0 8 6 14t14 6h90q8 0 14 -6t6 -14v-90q0 -20 -5.5 -34.5t-14.5 -27.5l-52 -73q-3 -5 -9 -10t-17 -5h-14q-14 0 -19 11t1 22l46 84q3 5 -0.5 9t-8.5 4h-17zM129 570q-8 0 -14 6t-6 14v90q0 8 6 14t14 6h90q8 0 14 -6t6 -14v-90
q0 -20 -5.5 -34.5t-14.5 -27.5l-52 -73q-3 -5 -9 -10t-17 -5h-14q-14 0 -19 11t1 22l46 84q3 5 -0.5 9t-8.5 4h-17z" />
    <glyph glyph-name="quotedblbase" unicode="&#x201e;" 
d="M337 0q-8 0 -14 6t-6 14v90q0 8 6 14t14 6h90q8 0 14 -6t6 -14v-90q0 -20 -5.5 -34.5t-14.5 -27.5l-52 -73q-3 -5 -9 -10t-17 -5h-14q-14 0 -19 11t1 22l46 84q3 5 -0.5 9t-8.5 4h-17zM137 0q-8 0 -14 6t-6 14v90q0 8 6 14t14 6h90q8 0 14 -6t6 -14v-90q0 -20 -5.5 -34.5
t-14.5 -27.5l-52 -73q-3 -5 -9 -10t-17 -5h-14q-14 0 -19 11t1 22l46 84q3 5 -0.5 9t-8.5 4h-17z" />
    <glyph glyph-name="dagger" unicode="&#x2020;" 
d="M321 -100q0 -8 -6 -14t-14 -6h-50q-8 0 -14 6t-6 14v490q0 10 -10 10h-130q-8 0 -14 6t-6 14v50q0 8 6 14t14 6h130q10 0 10 10v180q0 8 6 14t14 6h50q8 0 14 -6t6 -14v-180q0 -10 10 -10h130q8 0 14 -6t6 -14v-50q0 -8 -6 -14t-14 -6h-130q-10 0 -10 -10v-490z" />
    <glyph glyph-name="daggerdbl" unicode="&#x2021;" 
d="M85 168q-8 0 -14 6t-6 14v48q0 8 6 14t14 6h138q10 0 10 10v168q0 10 -10 10h-138q-8 0 -14 6t-6 14v48q0 8 6 14t14 6h138q10 0 10 10v138q0 8 6 14t14 6h44q8 0 14 -6t6 -14v-138q0 -10 10 -10h138q8 0 14 -6t6 -14v-48q0 -8 -6 -14t-14 -6h-138q-10 0 -10 -10v-168
q0 -10 10 -10h138q8 0 14 -6t6 -14v-48q0 -8 -6 -14t-14 -6h-138q-10 0 -10 -10v-138q0 -8 -6 -14t-14 -6h-44q-8 0 -14 6t-6 14v138q0 10 -10 10h-138z" />
    <glyph glyph-name="bullet" unicode="&#x2022;" 
d="M385 205q0 -8 -6 -14t-14 -6h-180q-8 0 -14 6t-6 14v180q0 8 6 14t14 6h180q8 0 14 -6t6 -14v-180z" />
    <glyph glyph-name="ellipsis" unicode="&#x2026;" 
d="M153 20q0 -8 -6 -14t-14 -6h-83q-8 0 -14 6t-6 14v93q0 8 6 14t14 6h83q8 0 14 -6t6 -14v-93zM519 20q0 -8 -6 -14t-14 -6h-83q-8 0 -14 6t-6 14v93q0 8 6 14t14 6h83q8 0 14 -6t6 -14v-93zM336 20q0 -8 -6 -14t-14 -6h-83q-8 0 -14 6t-6 14v93q0 8 6 14t14 6h83
q8 0 14 -6t6 -14v-93z" />
    <glyph glyph-name="perthousand" unicode="&#x2030;" 
d="M115 15q-6 -15 -21 -15h-27q-10 0 -15.5 8.5t-0.5 19.5l264 657q7 15 22 15h28q10 0 15.5 -8.5t0.5 -19.5zM289 150q0 -13 1.5 -26.5t6 -24t11 -17t17.5 -6.5q10 0 17 6.5t11.5 17t6 24t1.5 26.5t-1.5 26.5t-6 24t-11.5 17t-17 6.5q-11 0 -17.5 -6.5t-11 -17t-6 -24
t-1.5 -26.5zM218 150q0 24 4 49t15.5 45t32.5 33t55 13t55 -13t32.5 -33t15.5 -45t4 -49t-4 -49t-15.5 -45t-32.5 -33t-55 -13t-55 13t-32.5 33t-15.5 45t-4 49zM73 550q0 -13 1.5 -26.5t6 -24t11 -17t17.5 -6.5q10 0 17 6.5t11.5 17t6 24t1.5 26.5t-1.5 26.5t-6 24
t-11.5 17t-17 6.5q-11 0 -17.5 -6.5t-11 -17t-6 -24t-1.5 -26.5zM2 550q0 24 4 49t15.5 45t32.5 33t55 13t55 -13t32.5 -33t15.5 -45t4 -49t-4 -49t-15.5 -45t-32.5 -33t-55 -13t-55 13t-32.5 33t-15.5 45t-4 49zM405 440q0 -13 1.5 -26.5t6 -24t11 -17t17.5 -6.5
q10 0 17 6.5t11.5 17t6 24t1.5 26.5t-1.5 26.5t-6 24t-11.5 17t-17 6.5q-11 0 -17.5 -6.5t-11 -17t-6 -24t-1.5 -26.5zM334 440q0 24 4 49t15.5 45t32.5 33t55 13t55 -13t32.5 -33t15.5 -45t4 -49t-4 -49t-15.5 -45t-32.5 -33t-55 -13t-55 13t-32.5 33t-15.5 45t-4 49z" />
    <glyph glyph-name="guilsinglleft" unicode="&#x2039;" 
d="M301 435q2 4 8 9.5t17 5.5h45q14 0 19.5 -8.5t-3.5 -24.5l-85 -145q-8 -11 0 -24l85 -145q9 -16 3.5 -24.5t-19.5 -8.5h-45q-11 0 -17 5.5t-8 9.5l-96 161q-5 8 -5 14t5 14z" />
    <glyph glyph-name="guilsinglright" unicode="&#x203a;" 
d="M345 274q5 -8 5 -14t-5 -14l-96 -161q-2 -4 -8 -9.5t-17 -5.5h-45q-14 0 -19.5 8.5t3.5 24.5l85 145q8 13 0 24l-85 145q-9 16 -3.5 24.5t19.5 8.5h45q11 0 17 -5.5t8 -9.5z" />
    <glyph glyph-name="fraction" unicode="&#x2044;" horiz-adv-x="0" 
d="M-131 15q-8 -15 -21 -15h-27q-10 0 -15.5 8.5t-0.5 19.5l324 657q7 15 22 15h28q10 0 15.5 -8.5t0.5 -19.5z" />
    <glyph glyph-name="zerosuperior" unicode="&#x2070;" 
d="M162 590q3 23 12 43.5t24 35.5t34 24t42 9t42.5 -9t34.5 -24.5t24 -36t12 -42.5q4 -32 4 -69t-4 -69q-3 -23 -12 -43.5t-24 -35.5t-34.5 -24t-42.5 -9t-42.5 9t-34 24.5t-23.5 36t-12 42.5q-4 32 -4 69t4 69zM274 628q-16 0 -25 -11t-11 -25q-4 -33 -4 -71t4 -71
q2 -16 12 -26t24 -10q16 0 25.5 11t11.5 25q4 33 4 71t-4 71q-2 16 -12.5 26t-24.5 10z" />
    <glyph glyph-name="foursuperior" unicode="&#x2074;" 
d="M381 476q10 0 10 -10v-48q0 -10 -10 -10h-17q-5 0 -5 -5v-47q0 -10 -10 -10h-51q-10 0 -10 10v47q0 5 -5 5h-114q-10 0 -10 10v59q0 5 2.5 10t5.5 10l112 192q3 7 10 7h60q10 0 10 -10v-205q0 -5 5 -5h17zM232 482q-4 -6 4 -6h47q5 0 5 5v93q0 3 -2 3.5t-4 -1.5z" />
    <glyph glyph-name="fivesuperior" unicode="&#x2075;" 
d="M245 622q-5 0 -5 -5v-39q0 -5 3 -6t6 1q5 3 12 5.5t17 2.5q50 0 79 -32.5t30 -86.5q0 -23 -7 -44.5t-21 -39t-35.5 -28t-49.5 -10.5q-23 0 -43 6t-36 18t-25 31.5t-9 46.5q0 10 10 10h52q10 0 10 -10q0 -17 13 -22.5t28 -5.5q23 0 31.5 15t8.5 33q0 19 -8.5 35t-31.5 16
q-20 0 -30 -12q-6 -6 -13 -6h-54q-10 0 -10 10v181q0 10 10 10h185q10 0 10 -10v-54q0 -10 -10 -10h-117z" />
    <glyph glyph-name="sixsuperior" unicode="&#x2076;" 
d="M239 444q2 -16 12 -25.5t25 -9.5q16 0 25.5 9.5t11.5 25.5q1 14 0 28q-2 17 -11.5 27.5t-25.5 10.5q-15 0 -25 -11t-12 -27q-1 -14 0 -28zM280 636q-26 0 -38 -16t-12 -39q0 -5 4 -6.5t9 -0.5t16 2.5t21 1.5q22 0 41 -8.5t33.5 -23t23 -34.5t9.5 -42q1 -7 1 -11.5
t-1 -12.5q-1 -22 -9.5 -41.5t-23 -33.5t-34 -22.5t-41.5 -8.5q-24 0 -44 8.5t-35 23.5t-24 35t-12 43q-4 32 -4 71t4 71q5 46 36 78t78 32q49 0 78 -28.5t29 -70.5q0 -10 -10 -10h-39q-12 0 -15 10q-4 12 -14 22.5t-27 10.5z" />
    <glyph glyph-name="sevensuperior" unicode="&#x2077;" 
d="M306 618q2 5 -4 5h-125q-10 0 -10 10v53q0 10 10 10h195q10 0 10 -10v-67q0 -3 -3 -10l-112 -255q-3 -8 -9 -8h-60q-7 0 -9 4t0 8z" />
    <glyph glyph-name="eightsuperior" unicode="&#x2078;" 
d="M275 412q20 0 32.5 11t12.5 28q0 18 -12.5 30t-32.5 12t-32 -12t-12 -30q0 -17 12 -28t32 -11zM275 557q17 0 28.5 11t11.5 27q0 15 -11.5 25t-28.5 10t-28 -10t-11 -25q0 -16 11 -27t28 -11zM275 702q23 0 43.5 -8.5t35.5 -23t23.5 -34t8.5 -41.5q0 -18 -4.5 -34.5
t-15.5 -29.5q-5 -6 0 -11q13 -14 18.5 -31.5t5.5 -37.5q0 -23 -9 -43.5t-24.5 -35.5t-36.5 -23.5t-45 -8.5t-45 8.5t-36.5 23.5t-24.5 35.5t-9 43.5q0 39 24 69q3 4 -1 11q-19 26 -19 64q0 22 9 41.5t24 34t35 23t43 8.5z" />
    <glyph glyph-name="ninesuperior" unicode="&#x2079;" 
d="M311 598q-2 16 -12 25.5t-25 9.5q-16 0 -25.5 -9.5t-11.5 -25.5q-1 -14 0 -28q2 -17 11.5 -27.5t25.5 -10.5q15 0 25 11t12 27q1 14 0 28zM270 406q26 0 38 16t12 39q0 5 -4 6.5t-9 0.5t-16 -2.5t-21 -1.5q-22 0 -41 8.5t-33.5 23t-23 34t-9.5 42.5q-1 7 -1 11.5t1 12.5
q1 22 9.5 41.5t23 33.5t33.5 22.5t42 8.5q24 0 44 -9t35 -24t24 -35t12 -42q4 -32 4 -71t-4 -71q-5 -46 -36 -78t-78 -32q-49 0 -78 28.5t-29 70.5q0 10 10 10h39q12 0 15 -10q4 -12 14 -22.5t27 -10.5z" />
    <glyph glyph-name="plussuperior" unicode="&#x207a;" 
d="M235 506q5 0 5 5v60q0 10 10 10h49q10 0 10 -10v-60q0 -5 5 -5h61q10 0 10 -10v-49q0 -10 -10 -10h-61q-5 0 -5 -5v-61q0 -10 -10 -10h-49q-10 0 -10 10v61q0 5 -5 5h-60q-10 0 -10 10v49q0 10 10 10h60z" />
    <glyph glyph-name="minussuperior" unicode="&#x207b;" 
d="M379 511q10 0 10 -10v-49q0 -10 -10 -10h-209q-10 0 -10 10v49q0 10 10 10h209z" />
    <glyph glyph-name="equalsuperior" unicode="&#x207c;" 
d="M175 488q-10 0 -10 10v48q0 10 10 10h200q10 0 10 -10v-48q0 -10 -10 -10h-200zM175 386q-10 0 -10 10v48q0 10 10 10h200q10 0 10 -10v-48q0 -10 -10 -10h-200z" />
    <glyph glyph-name="parenleftsuperior" unicode="&#x207d;" 
d="M344 370q10 0 10 -10v-49q0 -10 -10 -10h-33q-45 0 -75.5 28t-36.5 77q-2 15 -3 41.5t-1 56t1 56t3 41.5q3 20 11.5 39t22.5 33.5t34 23.5t44 9h34q10 0 10 -10v-49q0 -10 -10 -10h-34q-14 0 -25.5 -6.5t-16.5 -29.5q-3 -15 -4.5 -42t-1.5 -55.5t1.5 -55.5t4.5 -42
q3 -17 12.5 -26.5t29.5 -9.5h33z" />
    <glyph glyph-name="parenrightsuperior" unicode="&#x207e;" 
d="M239 370q20 0 29.5 9.5t12.5 26.5q3 15 4.5 42t1.5 55.5t-1.5 55.5t-4.5 42q-5 23 -16.5 29.5t-25.5 6.5h-34q-10 0 -10 10v49q0 10 10 10h34q24 0 43.5 -9t34 -23.5t23 -33.5t11.5 -39q2 -15 3 -41.5t1 -56t-1 -56t-3 -41.5q-6 -49 -36.5 -77t-75.5 -28h-33
q-10 0 -10 10v49q0 10 10 10h33z" />
    <glyph glyph-name="nsuperior" unicode="&#x207f;" 
d="M231 584q10 0 22 9t33 9q40 0 66 -27t26 -66v-153q0 -10 -10 -10h-50q-10 0 -10 10v154q0 10 -8 17t-25 7t-25 -7t-8 -15v-156q0 -10 -10 -10h-50q-10 0 -10 10v230q0 10 10 10h26q5 0 7.5 -2.5l4.5 -4.5t4 -3.5t7 -1.5z" />
    <glyph glyph-name="zeroinferior" unicode="&#x2080;" 
d="M162 62q3 23 12 43.5t24 35.5t34 24t42 9t42.5 -9t34.5 -24.5t24 -36t12 -42.5q4 -32 4 -69t-4 -69q-3 -23 -12 -43.5t-24 -35.5t-34.5 -24t-42.5 -9t-42.5 9t-34 24.5t-23.5 36t-12 42.5q-4 32 -4 69t4 69zM274 100q-16 0 -25 -11t-11 -25q-4 -33 -4 -71t4 -71
q2 -16 12 -26t24 -10q16 0 25.5 11t11.5 25q4 33 4 71t-4 71q-2 16 -12.5 26t-24.5 10z" />
    <glyph glyph-name="oneinferior" unicode="&#x2081;" 
d="M246 62q0 5 -4 6t-6 -1l-58 -52q-5 -5 -12 -1.5t-7 11.5v50q0 6 1 11t7 11l54 57q4 4 11 9t18 5h62q10 0 10 -10v-262q0 -5 5 -5h54q10 0 10 -10v-53q0 -10 -10 -10h-209q-10 0 -10 10v53q0 10 10 10h69q5 0 5 5v166z" />
    <glyph glyph-name="twoinferior" unicode="&#x2082;" 
d="M312 68q0 14 -8.5 23.5t-24.5 9.5q-39 0 -39 -33v-9q0 -10 -10 -10h-53q-10 0 -10 10v8q0 22 8.5 42t23.5 34t35 22.5t43 8.5q22 0 42 -8.5t34.5 -22.5t23 -34t8.5 -42q0 -19 -8 -36.5t-21 -31.5l-94 -97q-2 -2 -2 -6.5t7 -4.5h107q10 0 10 -10v-53q0 -10 -10 -10h-200
q-10 0 -10 10v66q0 8 4 12l134 139q2 2 6 10t4 13z" />
    <glyph glyph-name="threeinferior" unicode="&#x2083;" 
d="M315 -77q0 20 -12 28.5t-28 8.5h-6q-10 0 -10 10v52q0 10 10 10h6q15 0 25.5 8.5t10.5 25.5t-10 26t-26 9t-26 -9t-10 -26v-7q0 -10 -10 -10h-53q-10 0 -10 10v7q0 22 8.5 42t23.5 34.5t35 23t42 8.5t42 -8.5t35 -23t23.5 -34.5t8.5 -42q0 -18 -7.5 -35t-18.5 -29
q-5 -5 0 -8q14 -11 22 -31t8 -40q0 -23 -9 -43.5t-24.5 -35.5t-36 -23.5t-43.5 -8.5t-43.5 8.5t-36 23.5t-24.5 35.5t-9 43.5v6q0 10 10 10h53q10 0 10 -10v-6q0 -38 40 -38q18 0 29 9.5t11 28.5z" />
    <glyph glyph-name="fourinferior" unicode="&#x2084;" 
d="M381 -52q10 0 10 -10v-48q0 -10 -10 -10h-17q-5 0 -5 -5v-47q0 -10 -10 -10h-51q-10 0 -10 10v47q0 5 -5 5h-114q-10 0 -10 10v59q0 5 2.5 10t5.5 10l112 192q3 7 10 7h60q10 0 10 -10v-205q0 -5 5 -5h17zM232 -46q-4 -6 4 -6h47q5 0 5 5v93q0 3 -2 3.5t-4 -1.5z" />
    <glyph glyph-name="fiveinferior" unicode="&#x2085;" 
d="M245 94q-5 0 -5 -5v-39q0 -5 3 -6t6 1q5 3 12 5.5t17 2.5q50 0 79 -32.5t30 -86.5q0 -23 -7 -44.5t-21 -39t-35.5 -28t-49.5 -10.5q-23 0 -43 6t-36 18t-25 31.5t-9 46.5q0 10 10 10h52q10 0 10 -10q0 -17 13 -22.5t28 -5.5q23 0 31.5 15t8.5 33q0 19 -8.5 35t-31.5 16
q-20 0 -30 -12q-6 -6 -13 -6h-54q-10 0 -10 10v181q0 10 10 10h185q10 0 10 -10v-54q0 -10 -10 -10h-117z" />
    <glyph glyph-name="sixinferior" unicode="&#x2086;" 
d="M239 -84q2 -16 12 -25.5t25 -9.5q16 0 25.5 9.5t11.5 25.5q1 14 0 28q-2 17 -11.5 27.5t-25.5 10.5q-15 0 -25 -11t-12 -27q-1 -14 0 -28zM280 103q-17 0 -29 -4.5t-17 -21.5q-2 -5 -3 -10.5t-1 -13.5q0 -5 4 -6.5t9 -0.5t16 2.5t21 1.5q22 0 41 -8.5t33.5 -23t23 -34.5
t9.5 -42q1 -7 1 -11.5t-1 -12.5q-1 -22 -9.5 -41.5t-23 -33.5t-34 -22.5t-41.5 -8.5q-24 0 -44 8.5t-35 23.5t-24 35t-12 43q-4 32 -4 71t4 71q5 46 36 78t78 32q49 0 80.5 -28.5t31.5 -70.5q0 -10 -10 -10h-44q-12 0 -15 10q-4 12 -12.5 20t-28.5 8z" />
    <glyph glyph-name="seveninferior" unicode="&#x2087;" 
d="M306 90q2 5 -4 5h-125q-10 0 -10 10v53q0 10 10 10h195q10 0 10 -10v-67q0 -3 -3 -10l-112 -255q-3 -8 -9 -8h-60q-7 0 -9 4t0 8z" />
    <glyph glyph-name="eightinferior" unicode="&#x2088;" 
d="M275 -116q20 0 32.5 10.5t12.5 28.5t-12.5 30t-32.5 12t-32 -12t-12 -30t12 -28.5t32 -10.5zM275 29q17 0 28.5 11t11.5 26q0 16 -11.5 26t-28.5 10t-28 -10t-11 -26q0 -15 11 -26t28 -11zM275 174q23 0 43.5 -8.5t35.5 -23t23.5 -34.5t8.5 -42q0 -17 -4.5 -33.5
t-15.5 -29.5q-5 -6 0 -11q13 -14 18.5 -31.5t5.5 -37.5q0 -23 -9 -43.5t-24.5 -35.5t-36.5 -23.5t-45 -8.5t-45 8.5t-36.5 23.5t-24.5 35.5t-9 43.5q0 39 24 69q3 4 -1 11q-19 26 -19 63q0 22 9 42t24 34.5t35 23t43 8.5z" />
    <glyph glyph-name="nineinferior" unicode="&#x2089;" 
d="M311 70q-2 16 -12 25.5t-25 9.5q-16 0 -25.5 -9.5t-11.5 -25.5q-1 -14 0 -28q2 -17 11.5 -27.5t25.5 -10.5q15 0 25 11t12 27q1 14 0 28zM270 -117q17 0 29 4.5t17 21.5q2 5 3 10.5t1 13.5q0 5 -4 6.5t-9 0.5t-16 -2.5t-21 -1.5q-22 0 -41 8.5t-33.5 23t-23 34t-9.5 42.5
q-1 7 -1 11.5t1 12.5q1 22 9.5 41.5t23 33.5t33.5 22.5t42 8.5q24 0 44 -9t35 -24t24 -35t12 -42q4 -32 4 -71t-4 -71q-5 -46 -36 -78t-78 -32q-49 0 -80.5 28.5t-31.5 70.5q0 10 10 10h44q12 0 15 -10q4 -12 12.5 -20t28.5 -8z" />
    <glyph glyph-name="parenleftinferior" unicode="&#x208d;" 
d="M344 -158q10 0 10 -10v-49q0 -10 -10 -10h-33q-45 0 -75.5 28t-36.5 77q-2 15 -3 41.5t-1 56t1 56t3 41.5q3 20 11.5 39t22.5 33.5t33.5 23.5t44.5 9h34q10 0 10 -10v-49q0 -10 -10 -10h-34q-14 0 -25.5 -6.5t-16.5 -29.5q-3 -15 -4.5 -42t-1.5 -55.5t1.5 -55.5t4.5 -42
q3 -17 12.5 -26.5t29.5 -9.5h33z" />
    <glyph glyph-name="parenrightinferior" unicode="&#x208e;" 
d="M239 -158q20 0 29.5 9.5t12.5 26.5q3 15 4.5 42t1.5 55.5t-1.5 55.5t-4.5 42q-5 23 -16.5 29.5t-25.5 6.5h-34q-10 0 -10 10v49q0 10 10 10h34q24 0 43.5 -9t34 -23.5t23 -33.5t11.5 -39q2 -15 3 -41.5t1 -56t-1 -56t-3 -41.5q-6 -49 -36.5 -77t-75.5 -28h-33
q-10 0 -10 10v49q0 10 10 10h33z" />
    <glyph glyph-name="Euro" unicode="&#x20ac;" 
d="M171 332q0 -5 4 -7.5t9.5 -3t11.5 0t11 0.5h142q8 0 14 -6t6 -14v-42q0 -9 -5 -13.5t-12.5 -6t-15.5 -1t-15 0.5h-138q-5 0 -6 -3.5t-1 -5.5q0 -31 7.5 -57t24 -45.5t41.5 -30.5t60 -11q25 0 48.5 7.5t41.5 21.5t29 35.5t11 48.5q0 11 2.5 22.5t17.5 11.5h55q8 0 14 -6
t6 -14q0 -44 -15 -84t-44 -71t-70.5 -49t-95.5 -18t-96.5 19t-72 51.5t-44.5 76t-15 92.5q0 2 -1.5 5.5t-8.5 3.5h-32q-8 0 -14 6t-6 14v42q0 8 6 14t14 6h29q7 0 7.5 3t0.5 5v57q0 2 -1 4.5t-6 2.5h-30q-8 0 -14 6t-6 14v42q0 8 6 14t14 6h34q3 0 6 2t3 5q0 49 17 90.5
t47 71.5t71.5 46.5t91.5 16.5q49 0 90 -15.5t71 -44t47 -69.5t17 -93q0 -8 -6 -14t-14 -6h-55q-8 0 -14 6t-6 14q0 25 -7.5 47.5t-23.5 40t-40.5 28.5t-58.5 11q-24 0 -47.5 -7t-42.5 -22t-30.5 -40t-11.5 -61q0 -8 12 -7.5t20 0.5h140q8 0 14 -6t6 -14v-42q0 -9 -5.5 -13.5
t-13 -6t-16 -1t-14.5 0.5h-142q-4 0 -5.5 -3t-1.5 -5v-54v0z" />
    <glyph glyph-name="afii61289" unicode="&#x2113;" 
d="M80 272q-8 0 -14 6t-6 14v50q0 8 6 14t14 6h48v148q0 40 14 74.5t39 60t59 40.5t73 15t72 -15t57 -40.5t37.5 -60.5t13.5 -74q0 -46 -19 -85.5t-54 -69.5t-85 -50t-112 -27v-53q0 -78 35.5 -111.5t120.5 -33.5h36q8 0 14 -6t6 -14v-50q0 -8 -6 -14t-14 -6h-36
q-68 0 -115.5 14.5t-77.5 44t-44 73t-14 101.5v49h-48zM223 367q78 8 126.5 43t48.5 100q0 40 -22 70t-63 30t-65.5 -30t-24.5 -70v-143z" />
    <glyph glyph-name="afii61352" unicode="&#x2116;" 
d="M194 300q1 -3 4.5 -2.5t3.5 4.5v378q0 8 6 14t14 6h31q8 0 14 -6t6 -14v-660q0 -8 -6 -14t-14 -6h-63q-8 0 -13.5 3t-7.5 14l-67 405q-1 3 -4.5 2.5t-3.5 -4.5v-400q0 -8 -6 -14t-14 -6h-31q-8 0 -14 6t-6 14v660q0 8 6 14t14 6h63q8 0 13.5 -3t7.5 -14zM344 0
q-8 0 -14 6t-6 14v43q0 8 6 14t14 6h154q8 0 14 -6t6 -14v-43q0 -8 -6 -14t-14 -6h-154zM419 322q-36 0 -44 -32q-2 -10 -2 -25.5t2 -24.5q7 -30 44 -30t44 30q2 9 2 24.5t-2 25.5q-8 32 -44 32zM419 399q48 0 77 -21.5t36 -76.5q2 -15 2 -36t-2 -35q-3 -26 -14 -44.5
t-26.5 -30t-34.5 -17t-38 -5.5t-38 5.5t-34.5 17t-26.5 30t-14 44.5q-2 14 -2 35t2 36q7 55 36 76.5t77 21.5z" />
    <glyph glyph-name="trademark" unicode="&#x2122;" 
d="M24 632q-10 0 -10 10v48q0 10 10 10h210q10 0 10 -10v-48q0 -10 -10 -10h-66q-6 0 -5.5 -10t0.5 -16v-246q0 -10 -10 -10h-48q-10 0 -10 10v267q0 5 -5 5h-66zM392 567q2 -5 5 0l30 124q1 9 10 9h70q10 0 10 -10v-330q0 -10 -10 -10h-44q-10 0 -10 10v241q0 2 -2 2.5
t-3 -1.5l-30 -119q-3 -8 -10 -8h-26q-9 0 -11 8l-29 119q-1 2 -3 1.5t-2 -2.5v-241q0 -10 -10 -10h-44q-10 0 -10 10v330q0 10 10 10h69q9 0 11 -9z" />
    <glyph glyph-name="uni2126" unicode="&#x2126;" 
d="M412 102q-8 -5 -6 -13.5t13 -8.5h67q8 0 14 -6t6 -14v-40q0 -8 -6 -14t-14 -6h-166q-8 0 -14 6t-6 14v59q0 7 3.5 20.5t21.5 25.5q17 11 38.5 33.5t40 55.5t31.5 76.5t13 95.5q0 46 -9.5 89t-30.5 76t-54 52.5t-79 19.5t-78.5 -19.5t-53.5 -52.5t-30.5 -76t-9.5 -89
q0 -52 13 -95.5t31.5 -76.5t40 -55.5t38.5 -33.5q18 -12 21.5 -25.5t3.5 -20.5v-59q0 -8 -6 -14t-14 -6h-166q-8 0 -14 6t-6 14v40q0 8 6 14t14 6h67q11 0 13.5 8t-5.5 13q-29 20 -52 52.5t-39 71.5t-24 81t-8 81q0 64 16 121.5t48.5 101t80.5 68.5t113 25q64 0 113 -25
t81 -68.5t48.5 -101t16.5 -121.5q0 -39 -8 -80.5t-23.5 -80.5t-38.5 -71.5t-52 -52.5z" />
    <glyph glyph-name="estimated" unicode="&#x212e;" 
d="M286 80q46 0 79.5 17t43.5 46q7 17 23 17h46q8 0 13 -4.5t4 -15.5q-3 -33 -20.5 -60.5t-45 -47.5t-64.5 -31t-79 -11q-62 0 -110.5 23t-79 70t-41.5 119.5t3 170.5q8 55 28 94t50 64t68 37t82 12q42 0 81.5 -11.5t70 -40t48.5 -75.5t18 -119v-63q0 -8 -6 -14t-14 -6h-329
q-10 0 -10 -10q4 -49 17.5 -80t33 -49t43 -25t47.5 -7zM146 341q0 -10 10 -10h248q11 0 10.5 11.5t-0.5 19.5q0 36 -10.5 62t-28.5 43t-41.5 25t-49.5 8t-49 -8t-41 -24.5t-30.5 -42.5t-15.5 -63z" />
    <glyph glyph-name="arrowleft" unicode="&#x2190;" 
d="M500 296q8 0 14 -6t6 -14v-47q0 -8 -6 -14t-14 -6h-324l94 -94q12 -14 12 -25v-65q0 -9 -8 -13.5t-16 3.5l-225 225q-12 12 1 27l217 217q9 9 20 3.5t11 -17.5v-62q0 -8 -4.5 -12.5l-10.5 -10.5l-89 -89h322z" />
    <glyph glyph-name="arrowup" unicode="&#x2191;" 
d="M229 402l-89 -89l-10.5 -10.5t-12.5 -4.5h-62q-12 0 -17.5 11t3.5 20l217 217q15 13 27 1l225 -225q8 -8 3.5 -16t-13.5 -8h-65q-12 0 -25 12l-94 94v-384q0 -8 -6 -14t-14 -6h-47q-8 0 -14 6t-6 14v382z" />
    <glyph glyph-name="arrowright" unicode="&#x2192;" 
d="M29 276q0 8 6 14t14 6h322l-89 89l-10.5 10.5t-4.5 12.5v62q0 12 11 17.5t20 -3.5l217 -217q13 -15 1 -27l-225 -225q-8 -8 -16 -3.5t-8 13.5v65q0 11 12 25l94 94h-324q-8 0 -14 6t-6 14v47v0z" />
    <glyph glyph-name="arrowdown" unicode="&#x2193;" 
d="M229 511q0 8 6 14t14 6h47q8 0 14 -6t6 -14v-384l94 94q13 12 25 12h65q9 0 13.5 -8t-3.5 -16l-225 -225q-12 -12 -27 1l-217 217q-9 9 -3.5 20t17.5 11h62q8 0 12.5 -4.5l10.5 -10.5l89 -89v382z" />
    <glyph glyph-name="uni2196" unicode="&#x2196;" 
d="M492 105q12 -14 0 -28l-33 -33q-6 -5 -14 -5.5t-14 5.5l-270 270v-126q0 -8 -0.5 -15t-5.5 -12l-44 -44q-8 -8 -19.5 -4.5t-11.5 16.5v307q0 20 18 20h318q11 0 13.5 -9t-3.5 -15l-46 -46q-9 -9 -26 -9l-133 -1z" />
    <glyph glyph-name="uni2197" unicode="&#x2197;" 
d="M337 376l-133 1q-17 0 -26 9l-46 46q-6 6 -3.5 15t13.5 9h318q18 0 18 -20v-307q0 -13 -11.5 -16.5t-19.5 4.5l-44 44q-5 5 -5.5 12t-0.5 15v126l-270 -270q-6 -6 -14 -5.5t-14 5.5l-33 33q-12 14 0 28z" />
    <glyph glyph-name="uni2198" unicode="&#x2198;" 
d="M66 398q-12 14 0 28l33 33q14 12 28 0l270 -270v126q0 8 0.5 15t5.5 12l44 44q8 8 19.5 4.5t11.5 -16.5v-307q0 -20 -18 -20h-318q-11 0 -13.5 9t3.5 15l46 46q9 9 26 9l133 1z" />
    <glyph glyph-name="uni2199" unicode="&#x2199;" 
d="M231 127l133 -1q17 0 26 -9l46 -46q6 -6 3.5 -15t-13.5 -9h-318q-18 0 -18 20v307q0 13 11.5 16.5t19.5 -4.5l44 -44q5 -5 5.5 -12t0.5 -15v-126l270 270q14 12 28 0l33 -33q12 -14 0 -28z" />
    <glyph glyph-name="partialdiff" unicode="&#x2202;" 
d="M264 80q52 0 82 30t33 70q2 28 1.5 61.5t-11 62t-35 47.5t-70.5 19q-33 0 -55.5 -11.5t-36 -30t-19.5 -42.5t-6 -48q-2 -25 1.5 -53t16 -51t36.5 -38.5t63 -15.5zM187 610q-8 0 -14 6t-6 14v50q0 8 6 14t14 6h36q53 0 92 -17t66.5 -47t45 -72t26.5 -92q13 -73 16 -144.5
t-5 -147.5q-4 -39 -19 -74t-40 -60.5t-60.5 -40.5t-80.5 -15t-81.5 15t-63 40.5t-42 60.5t-18.5 74q-1 15 -1.5 25.5t-0.5 19.5t0.5 19.5t1.5 25.5q3 39 18.5 74t42 60.5t63 40.5t81.5 15q30 0 50.5 -7.5t36.5 -16.5q13 -5 11 4q-7 75 -40.5 122.5t-98.5 47.5h-36z" />
    <glyph glyph-name="uni2206" unicode="&#x2206;" 
d="M47 0q-8 0 -14 6t-6 14v51q0 8 2.5 16.5t4.5 12.5l190 585q4 15 19 15h64q14 0 19 -15l190 -585q2 -4 4.5 -12.5t2.5 -16.5v-51q0 -8 -6 -14t-14 -6h-456zM415 85q6 0 7 4t-1 8l-139 483q-2 6 -6 6h-2q-5 0 -6 -6l-139 -483q-2 -4 -1 -8t7 -4h280z" />
    <glyph glyph-name="product" unicode="&#x220f;" 
d="M393 598q0 10 -10 10h-216q-10 0 -10 -10v-778q0 -8 -6 -14t-14 -6h-52q-8 0 -14 6t-6 14v860q0 8 6 14t14 6h380q8 0 14 -6t6 -14v-860q0 -8 -6 -14t-14 -6h-52q-8 0 -14 6t-6 14v778z" />
    <glyph glyph-name="summation" unicode="&#x2211;" 
d="M81 590q-2 4 -5.5 11.5t-3.5 18.5v60q0 8 6 14t14 6h373q8 0 14 -6t6 -14v-51q0 -8 -6 -14t-14 -6h-270q-8 0 -9.5 -4t0.5 -8l172 -317q5 -9 6 -18.5t-6 -21.5l-182 -336q-2 -4 0 -8.5t9 -4.5h282q8 0 14 -6t6 -14v-51q0 -8 -6 -14t-14 -6h-385q-8 0 -14 6t-6 14v60
q0 11 3.5 18.5t5.5 11.5l185 339q3 5 2.5 11t-2.5 10z" />
    <glyph glyph-name="minus" unicode="&#x2212;" 
d="M465 308q8 0 14 -6t6 -14v-55q0 -8 -6 -14t-14 -6h-380q-8 0 -14 6t-6 14v55q0 8 6 14t14 6h380z" />
    <glyph glyph-name="radical" unicode="&#x221a;" 
d="M611 860q8 0 14 -6t6 -14v-30q0 -8 -6 -14t-14 -6h-117l-230 -775q-5 -15 -19 -15h-56q-15 0 -19 15l-118 371q-2 8 2.5 16t16.5 8h45q15 0 19 -15l75 -268q1 -6 6 -6h2q4 0 6 6l205 718q4 15 19 15h163z" />
    <glyph glyph-name="infinity" unicode="&#x221e;" 
d="M455 259q0 39 -13.5 62t-35.5 23q-17 -1 -31.5 -14t-25.5 -29q-13 -18 -24 -42q11 -25 24 -43q11 -16 25.5 -29.5t31.5 -12.5q22 0 35.5 22.5t13.5 62.5zM287 336q6 15 16.5 31t25.5 29.5t34 22.5t42 9q61 0 95 -47t34 -122t-34 -122.5t-95 -47.5q-42 0 -70 27.5
t-48 64.5q-5 8 -11 7.5t-9 -7.5q-19 -38 -47.5 -65t-70.5 -27q-61 0 -95 47.5t-34 122.5t34 122t95 47q22 0 41 -9t33.5 -22.5t25.5 -29.5t18 -31q4 -8 10.5 -7.5t9.5 7.5zM99 259q0 -40 13.5 -62.5t35.5 -22.5q16 -1 31 12.5t26 29.5q13 18 24 43q-11 24 -24 42
q-11 16 -26 29t-31 14q-22 0 -35.5 -23t-13.5 -62z" />
    <glyph glyph-name="integral" unicode="&#x222b;" 
d="M230 530q0 39 14 72t39 56t59 36t73 13h50q8 0 14 -6t6 -14v-47q0 -8 -6 -14t-14 -6h-50q-40 0 -67.5 -26t-27.5 -64v-553q0 -39 -14 -72t-39 -56t-59 -36t-73 -13h-50q-8 0 -14 6t-6 14v47q0 8 6 14t14 6h50q40 0 67.5 26t27.5 64v553z" />
    <glyph glyph-name="approxequal" unicode="&#x2248;" 
d="M161 315q-17 0 -35.5 -7.5t-26.5 -18.5q-8 -10 -18.5 -8t-10.5 17v50q0 27 26.5 44t64.5 17q39 0 64.5 -7t48 -15.5t48.5 -15.5t67 -7q17 0 35.5 7.5t26.5 18.5q8 10 18.5 8t10.5 -17v-50q0 -27 -26.5 -44t-64.5 -17q-39 0 -64.5 7t-48 15.5t-49 15.5t-66.5 7zM161 130
q-17 0 -35.5 -7.5t-26.5 -18.5q-8 -10 -18.5 -8t-10.5 17v50q0 27 26.5 44t64.5 17q39 0 64.5 -7t48 -15.5t48.5 -15.5t67 -7q17 0 35.5 7.5t26.5 18.5q8 10 18.5 8t10.5 -17v-50q0 -27 -26.5 -44t-64.5 -17q-39 0 -64.5 7t-48 15.5t-49 15.5t-66.5 7z" />
    <glyph glyph-name="notequal" unicode="&#x2260;" 
d="M475 204q8 0 14 -6t6 -14v-52q0 -8 -6 -14t-14 -6h-227q-6 0 -9 -2t-5 -5l-42 -62q-11 -15 -24 -15h-49q-10 0 -16.5 9t0.5 19l33 49q2 2 1 4.5t-6 2.5h-56q-8 0 -14 6t-6 14v52q0 8 6 14t14 6h117q6 0 9 2t5 5l54 78q2 2 1 4.5t-6 2.5h-180q-8 0 -14 6t-6 14v52
q0 8 6 14t14 6h242q6 0 9 2t5 5l47 68q5 8 8.5 11.5t10.5 3.5h52q10 0 16.5 -9t-0.5 -19l-38 -55q-2 -2 -1 -4.5t6 -2.5h43q8 0 14 -6t6 -14v-52q0 -8 -6 -14t-14 -6h-104q-6 0 -9 -2t-5 -5l-53 -78q-2 -2 -1 -4.5t6 -2.5h166z" />
    <glyph glyph-name="lessequal" unicode="&#x2264;" 
d="M445 270q15 -9 15 -21v-60q0 -12 -8 -17.5t-15 -1.5l-362 204q-15 8 -15 22v49q0 14 15 22l362 203q7 4 15 -1.5t8 -17.5v-60q0 -12 -15 -21l-234 -128q-4 -2 -11.5 -5.5t-13.5 -7.5t-9 -7.5t1 -5.5zM472 92q8 0 14 -6t6 -14v-52q0 -8 -6 -14t-14 -6h-394q-8 0 -14 6
t-6 14v52q0 8 6 14t14 6h394z" />
    <glyph glyph-name="greaterequal" unicode="&#x2265;" 
d="M372 416q8 4 0 8l-267 146q-15 9 -15 21v60q0 12 8 17.5t15 1.5l362 -203q15 -8 15 -22v-49q0 -14 -15 -22l-362 -204q-7 -4 -15 1.5t-8 17.5v60q0 12 15 21zM472 92q8 0 14 -6t6 -14v-52q0 -8 -6 -14t-14 -6h-394q-8 0 -14 6t-6 14v52q0 8 6 14t14 6h394z" />
    <glyph glyph-name="lozenge" unicode="&#x25ca;" 
d="M321 16q-8 -15 -22 -15h-49q-14 0 -22 15l-203 332q-3 6 0 13l203 332q8 15 22 15h49q14 0 22 -15l204 -332q2 -4 2 -6.5t-2 -6.5zM279 590q-4 8 -8 0l-145 -236l145 -235q4 -8 8 0l145 235z" />
    <glyph glyph-name="commaaccent" unicode="&#xf6c3;" 
d="M240 -146q-8 0 -14 6t-6 14v61q0 8 6 14t14 6h70q8 0 14 -6t6 -14v-61q0 -20 -5.5 -34.5t-14.5 -27.5l-32 -46q-3 -5 -9 -10t-17 -5h-9q-14 0 -19 11t1 22l31 57q3 5 -0.5 9t-8.5 4h-7z" />
    <glyph glyph-name="asuperior" unicode="&#xf6e9;" 
d="M257 446q-15 0 -18.5 -9.5t-3.5 -13.5q0 -13 9.5 -18t20.5 -5q18 0 32.5 6t14.5 24v11q0 5 -5 5h-50zM274 541q-7 0 -18 -3t-14 -14q-2 -6 -4 -7.5t-10 -1.5h-39q-10 0 -10 10q0 29 25 53t73 24t75 -24.5t27 -68.5v-153q0 -10 -10 -10h-27q-4 0 -7 4q-2 3 -3.5 6t-6.5 3
q-7 0 -19.5 -9.5t-40.5 -9.5q-43 0 -69 21t-26 63q0 12 5.5 25.5t16 25.5t27 19.5t38.5 7.5h48q5 0 5 5v6q0 14 -10 21t-26 7z" />
    <glyph glyph-name="bsuperior" unicode="&#xf6ea;" 
d="M274 408q16 0 23.5 7t8.5 18q1 15 1 38t-1 38q-1 11 -8.5 18t-23.5 7q-32 0 -33 -25q-2 -15 -2 -38t2 -38q2 -25 33 -25zM282 340q-14 0 -22.5 3t-14 6t-9.5 6t-9 3q-4 0 -7.5 -3t-5.5 -5q-4 -4 -7 -4h-27q-10 0 -10 10v335q0 10 10 10h50q10 0 10 -10v-84
q0 -8 5.5 -10.5t10.5 0.5q5 2 10.5 3.5t15.5 1.5q39 0 65.5 -26.5t29.5 -66.5q2 -15 2 -38t-2 -38q-3 -40 -29.5 -66.5t-65.5 -26.5z" />
    <glyph glyph-name="dsuperior" unicode="&#xf6eb;" 
d="M276 408q31 0 33 25q2 15 2 38t-2 38q-1 25 -33 25q-17 0 -24.5 -7t-8.5 -18q-1 -15 -1 -38t1 -38q1 -11 8.5 -18t24.5 -7zM267 340q-39 0 -65 26.5t-29 66.5q-2 15 -2 38t2 38q3 40 29 66.5t65 26.5q10 0 15.5 -1.5t10.5 -3.5q5 -3 10.5 -0.5t5.5 10.5v84q0 10 10 10h50
q10 0 10 -10v-335q0 -10 -10 -10h-27q-3 0 -7 4l-5 5t-7 3q-6 0 -10 -3t-9.5 -6t-14 -6t-22.5 -3z" />
    <glyph glyph-name="esuperior" unicode="&#xf6ec;" 
d="M236 442q0 -17 12 -29.5t28 -12.5q14 0 22.5 3.5t13.5 14.5q4 9 11 9h46q4 0 7.5 -3t1.5 -9q-10 -35 -34.5 -55t-67.5 -20q-46 0 -72 27t-31 66q-2 15 -2 38t2 38q5 39 31 66t72 27q45 0 74 -25.5t29 -73.5v-43q0 -10 -10 -10h-127q-6 0 -6 -8zM236 508q0 -4 5 -4h69
q5 0 5 4q0 14 -8.5 28t-30.5 14q-20 0 -30 -14.5t-10 -27.5z" />
    <glyph glyph-name="isuperior" unicode="&#xf6ed;" 
d="M312 635q0 -8 -8 -8h-59q-8 0 -8 8v58q0 8 8 8h59q8 0 8 -8v-58zM187 527q-10 0 -10 10v49q0 10 10 10h115q7 0 7 -7v-167q0 -5 5 -5h53q10 0 10 -10v-51q0 -10 -10 -10h-185q-10 0 -10 10v51q0 10 10 10h52q5 0 5 5v100q0 5 -5 5h-47z" />
    <glyph glyph-name="lsuperior" unicode="&#xf6ee;" 
d="M182 632q-10 0 -10 10v49q0 10 10 10h117q7 0 7 -7v-272q0 -5 5 -5h61q10 0 10 -10v-51q0 -10 -10 -10h-194q-10 0 -10 10v51q0 10 10 10h53q5 0 5 5v205q0 5 -5 5h-49z" />
    <glyph glyph-name="msuperior" unicode="&#xf6ef;" 
d="M288 589q11 8 22 10t24 2q30 0 49 -23.5t19 -58.5v-163q0 -10 -10 -10h-45q-10 0 -10 10v169q0 16 -16 16q-6 0 -11 -4.5t-5 -11.5v-169q0 -10 -10 -10h-41q-10 0 -10 10v169q0 16 -16 16t-16 -16v-169q0 -10 -10 -10h-44q-10 0 -10 10v230q0 10 10 10h15q8 0 11 -5
q2 -2 3 -4t6 -2q7 0 16 8t28 8q9 0 18 -1.5t19 -9.5q3 -3 7 -3q3 0 7 2z" />
    <glyph glyph-name="osuperior" unicode="&#xf6f0;" 
d="M274 602q47 0 73.5 -27t31.5 -66q2 -15 2 -38t-2 -38q-5 -39 -31.5 -66t-72.5 -27q-47 0 -73 27t-31 66q-2 15 -2 38t2 38q5 39 31 66t72 27zM274 410q18 0 25.5 6t9.5 17q3 15 3 38t-3 38q-2 11 -9.5 17t-25.5 6q-17 0 -24 -5t-9 -18q-3 -15 -2.5 -38t2.5 -38
q2 -11 9 -17t24 -6z" />
    <glyph glyph-name="rsuperior" unicode="&#xf6f1;" 
d="M310 514q0 11 -10 18.5t-25 7.5q-14 0 -24.5 -8t-10.5 -22v-154q0 -10 -10 -10h-50q-10 0 -10 10v230q0 10 10 10h26q8 0 14 -6q2 -2 4 -3.5t7 -1.5q6 0 10.5 2.5t10.5 6t14.5 6t22.5 2.5q41 0 65.5 -24t24.5 -64q0 -10 -10 -10h-49q-10 0 -10 10z" />
    </font>
</defs>
</svg>
